<svg id="Ebene_1" data-name="Ebene 1" xmlns="http://www.w3.org/2000/svg" viewBox="0 0 155.99 60.53"><defs><style>.cls-1{fill:#231f20;}.cls-2{fill:#ed1c24;}.cls-3{fill:#fff;}</style></defs><title>Bund-ukrain_CMYK_pos</title><path class="cls-1" d="M86.61,139.76a1.93,1.93,0,0,0,1.15.31,1.38,1.38,0,0,0,.84-.26,1,1,0,0,0,.34-.81.82.82,0,0,0-.38-.65,1.4,1.4,0,0,0-.18-.13l-.2-.12L88,138l-.22-.12-.22-.13a1.64,1.64,0,0,1-.22-.14l-.2-.14-.19-.16a1.11,1.11,0,0,1-.37-.82,1.21,1.21,0,0,1,.49-1,1.94,1.94,0,0,1,1.17-.36h.22l.26,0a2.48,2.48,0,0,1,.55.15l-.09.47a2.09,2.09,0,0,0-1-.2,2.85,2.85,0,0,0-.4,0,1,1,0,0,0-.37.16.84.84,0,0,0-.26.27.85.85,0,0,0-.1.43.64.64,0,0,0,.1.35,1.42,1.42,0,0,0,.27.28,3.33,3.33,0,0,0,.39.24l.22.12.22.12a3.14,3.14,0,0,1,.82.57,1.46,1.46,0,0,1,.16.19.82.82,0,0,1,.12.2,1.21,1.21,0,0,1,.1.52,1.3,1.3,0,0,1-.55,1.14,2.08,2.08,0,0,1-1.17.34,2.83,2.83,0,0,1-1.19-.22Z" transform="translate(-56.69 -133.23)"/><path class="cls-1" d="M93.53,137.11a2.09,2.09,0,0,0-.82-.19,1.39,1.39,0,0,0-1.06.44,1.74,1.74,0,0,0-.38,1.16,1.72,1.72,0,0,0,.37,1.12,1.28,1.28,0,0,0,1,.48,2.18,2.18,0,0,0,.86-.18l0,.45a2.93,2.93,0,0,1-1,.13,1.61,1.61,0,0,1-1.37-.61,2.12,2.12,0,0,1-.46-1.39,2.06,2.06,0,0,1,.53-1.45,1.81,1.81,0,0,1,1.36-.56,2.32,2.32,0,0,1,.59.06l.21,0,.07,0,.06,0Z" transform="translate(-56.69 -133.23)"/><path class="cls-1" d="M95,134.8h.47v2.45h0a1.36,1.36,0,0,1,.46-.53,1.42,1.42,0,0,1,.73-.21,1.17,1.17,0,0,1,1,.45,2.32,2.32,0,0,1,.27,1.18v2.29h-.48V137.9l0-.23a1.18,1.18,0,0,0,0-.2.51.51,0,0,0-.09-.18.73.73,0,0,0-.74-.37,1,1,0,0,0-.88.47,2,2,0,0,0-.26,1v2.05H95Z" transform="translate(-56.69 -133.23)"/><path class="cls-1" d="M103.64,140.43h-.57l-1-3.31h0l-1,3.31h-.57l-1.23-3.83h.52l1,3.31h0l1.06-3.31h.57l1,3.31h0l1.06-3.31h.47Z" transform="translate(-56.69 -133.23)"/><path class="cls-1" d="M108.7,140.31a3.42,3.42,0,0,1-1.11.21,1.55,1.55,0,0,1-1.34-.58,2.27,2.27,0,0,1-.4-1.42,2.32,2.32,0,0,1,.45-1.45,1.44,1.44,0,0,1,1.16-.56,1.35,1.35,0,0,1,1.17.57,2.36,2.36,0,0,1,.36,1.33v.24h-2.62a1.55,1.55,0,0,0,.32,1,1.14,1.14,0,0,0,.94.44,2,2,0,0,0,.58-.1l.28-.09a1,1,0,0,0,.21-.1Zm-.23-2.06a1.84,1.84,0,0,0-.22-.92.82.82,0,0,0-.76-.41,1,1,0,0,0-.82.42,1.53,1.53,0,0,0-.3.91Z" transform="translate(-56.69 -133.23)"/><path class="cls-1" d="M110.94,135.59h-.47V135h.47Zm-.47,1h.47v3.83h-.47Z" transform="translate(-56.69 -133.23)"/><path class="cls-1" d="M112.37,140l2.3-3h-2.21v-.41h2.76V137l-2.31,3h2.31v.4h-2.85Z" transform="translate(-56.69 -133.23)"/><path class="cls-1" d="M119.21,140.31a3.53,3.53,0,0,1-1.12.21,1.56,1.56,0,0,1-1.34-.58,2.64,2.64,0,0,1,0-2.87,1.44,1.44,0,0,1,1.17-.56,1.35,1.35,0,0,1,1.17.57,2.44,2.44,0,0,1,.35,1.33v.24h-2.62a1.6,1.6,0,0,0,.32,1,1.15,1.15,0,0,0,.94.44,2,2,0,0,0,.59-.1l.27-.09a1.12,1.12,0,0,0,.22-.1Zm-.24-2.06a1.84,1.84,0,0,0-.22-.92.8.8,0,0,0-.75-.41,1,1,0,0,0-.82.42,1.47,1.47,0,0,0-.31.91Z" transform="translate(-56.69 -133.23)"/><path class="cls-1" d="M121,137.46V137c0-.14,0-.27,0-.38h.48v.74h0a1.67,1.67,0,0,1,.38-.58.91.91,0,0,1,.61-.25,1.63,1.63,0,0,1,.33.05v.49a1.29,1.29,0,0,0-.35,0,.83.83,0,0,0-.46.13,1.09,1.09,0,0,0-.29.37,2.13,2.13,0,0,0-.15.49,2.41,2.41,0,0,0,0,.54v1.89H121Z" transform="translate(-56.69 -133.23)"/><path class="cls-1" d="M124.53,135.59h-.47V135h.47Zm-.47,1h.47v3.83h-.47Z" transform="translate(-56.69 -133.23)"/><path class="cls-1" d="M126,139.88a2.27,2.27,0,0,0,1,.24,1,1,0,0,0,.6-.19.6.6,0,0,0,.25-.5.63.63,0,0,0-.28-.53,3,3,0,0,0-.64-.34l-.16-.08-.17-.09-.3-.2-.11-.13-.1-.15a.78.78,0,0,1-.08-.35.89.89,0,0,1,.39-.81,1.54,1.54,0,0,1,.86-.24h.19l.24,0a2.15,2.15,0,0,1,.51.15l0,.41a2.13,2.13,0,0,0-.85-.18,1,1,0,0,0-.58.14.52.52,0,0,0-.18.18.76.76,0,0,0-.06.32.32.32,0,0,0,.08.22.58.58,0,0,0,.22.18l.14.08.16.08.17.08.17.09a2.13,2.13,0,0,1,.65.42,1,1,0,0,1,.29.72,1,1,0,0,1-.12.51,1.12,1.12,0,0,1-.32.33,1.7,1.7,0,0,1-.9.25,3.21,3.21,0,0,1-1.07-.18Z" transform="translate(-56.69 -133.23)"/><path class="cls-1" d="M132.31,137.11a2.14,2.14,0,0,0-.82-.19,1.39,1.39,0,0,0-1.06.44,1.74,1.74,0,0,0-.38,1.16,1.72,1.72,0,0,0,.37,1.12,1.28,1.28,0,0,0,1,.48,2.21,2.21,0,0,0,.86-.18l0,.45a2.87,2.87,0,0,1-1,.13,1.61,1.61,0,0,1-1.37-.61,2.12,2.12,0,0,1-.46-1.39,2,2,0,0,1,.53-1.45,1.81,1.81,0,0,1,1.36-.56,2.32,2.32,0,0,1,.59.06l.21,0,.07,0,.05,0Z" transform="translate(-56.69 -133.23)"/><path class="cls-1" d="M133.73,134.8h.47v2.45h0a1.36,1.36,0,0,1,.46-.53,1.42,1.42,0,0,1,.73-.21,1.17,1.17,0,0,1,1,.45,2.22,2.22,0,0,1,.26,1.18v2.29h-.47v-2.28a2.09,2.09,0,0,0,0-.25,1.79,1.79,0,0,0,0-.23,1.18,1.18,0,0,0,0-.2.51.51,0,0,0-.09-.18.76.76,0,0,0-.75-.37,1,1,0,0,0-.87.47,2,2,0,0,0-.26,1v2.05h-.47Z" transform="translate(-56.69 -133.23)"/><path class="cls-1" d="M141.06,140.31a3.52,3.52,0,0,1-1.11.21,1.57,1.57,0,0,1-1.35-.58,2.64,2.64,0,0,1,.05-2.87,1.44,1.44,0,0,1,1.17-.56,1.35,1.35,0,0,1,1.17.57,2.44,2.44,0,0,1,.35,1.33v.24h-2.62a1.6,1.6,0,0,0,.32,1,1.15,1.15,0,0,0,.94.44,2,2,0,0,0,.59-.1l.27-.09a1.12,1.12,0,0,0,.22-.1Zm-.24-2.06a2,2,0,0,0-.21-.92.83.83,0,0,0-.76-.41,1,1,0,0,0-.82.42,1.47,1.47,0,0,0-.31.91Z" transform="translate(-56.69 -133.23)"/><path class="cls-1" d="M145.32,135.19h2.57v.45h-2v1.87h1.95V138h-1.95v2H148v.45h-2.66Z" transform="translate(-56.69 -133.23)"/><path class="cls-1" d="M150.08,135.59h-.47V135h.47Zm-.47,1h.47v3.83h-.47Z" transform="translate(-56.69 -133.23)"/><path class="cls-1" d="M154.89,140.43h-.47v-.61h0a1.22,1.22,0,0,1-1.19.7,1.36,1.36,0,0,1-1.18-.58,2.45,2.45,0,0,1-.4-1.42,2.52,2.52,0,0,1,.37-1.44,1.38,1.38,0,0,1,1.21-.57,1.3,1.3,0,0,1,.49.09.72.72,0,0,1,.2.09l.16.12a.93.93,0,0,1,.34.44h0V134.8h.47Zm-2.74-1.91a3.31,3.31,0,0,0,0,.55,2,2,0,0,0,.18.52,1.16,1.16,0,0,0,.36.37.91.91,0,0,0,.54.16,1,1,0,0,0,.54-.16,1.16,1.16,0,0,0,.35-.38,2.33,2.33,0,0,0,.25-1.06c0-.09,0-.18,0-.28s0-.18,0-.28a1.8,1.8,0,0,0-.2-.51,1.09,1.09,0,0,0-.34-.39,1,1,0,0,0-.54-.14,1,1,0,0,0-.55.14,1,1,0,0,0-.36.38,1.92,1.92,0,0,0-.18.51,2.7,2.7,0,0,0,0,.28C152.16,138.33,152.15,138.42,152.15,138.52Z" transform="translate(-56.69 -133.23)"/><path class="cls-1" d="M159.65,140.12a2.24,2.24,0,0,1-.4,1.36,1.63,1.63,0,0,1-1.4.57l-.36,0-.33-.06-.26-.07-.2-.05,0-.47a2.44,2.44,0,0,0,1.12.27,1.53,1.53,0,0,0,.72-.17,1,1,0,0,0,.4-.42,1.72,1.72,0,0,0,.17-.62l0-.36v-.4h0a1.24,1.24,0,0,1-1.17.75,1.37,1.37,0,0,1-1.26-.64,2.19,2.19,0,0,1-.16-.3,3,3,0,0,1-.1-.32,2.37,2.37,0,0,1-.09-.65,2.52,2.52,0,0,1,.37-1.44,1.37,1.37,0,0,1,1.21-.57,2.29,2.29,0,0,1,.66.09,1.22,1.22,0,0,1,.53.44h0v-.44h.47Zm-2.74-1.6a2,2,0,0,0,.25,1,.94.94,0,0,0,.85.48,1,1,0,0,0,.91-.5,2,2,0,0,0,.26-1,2.42,2.42,0,0,0-.24-1.15,1,1,0,0,0-.9-.45,1,1,0,0,0-.55.14,1.07,1.07,0,0,0-.35.38,1.92,1.92,0,0,0-.18.51,2.7,2.7,0,0,0,0,.28A2.81,2.81,0,0,0,156.91,138.52Z" transform="translate(-56.69 -133.23)"/><path class="cls-1" d="M163.94,140.31a3.42,3.42,0,0,1-1.11.21,1.56,1.56,0,0,1-1.34-.58,2.27,2.27,0,0,1-.4-1.42,2.32,2.32,0,0,1,.45-1.45,1.44,1.44,0,0,1,1.16-.56,1.35,1.35,0,0,1,1.17.57,2.36,2.36,0,0,1,.36,1.33v.24h-2.62a1.6,1.6,0,0,0,.32,1,1.14,1.14,0,0,0,.94.44,2,2,0,0,0,.58-.1l.28-.09a1,1,0,0,0,.21-.1Zm-.23-2.06a1.84,1.84,0,0,0-.22-.92.82.82,0,0,0-.76-.41,1,1,0,0,0-.81.42,1.47,1.47,0,0,0-.31.91Z" transform="translate(-56.69 -133.23)"/><path class="cls-1" d="M165.71,137.5c0-.14,0-.29,0-.44s0-.3,0-.46h.46v.69h0c0-.09.1-.18.16-.27a1.34,1.34,0,0,1,.23-.25,1.06,1.06,0,0,1,.35-.19,1.83,1.83,0,0,1,.5-.07,1.2,1.2,0,0,1,1,.42,1.72,1.72,0,0,1,.3,1v2.45h-.48v-2.32a1.66,1.66,0,0,0-.2-.88.85.85,0,0,0-.7-.31,1,1,0,0,0-.89.45,1.58,1.58,0,0,0-.19.44,2.35,2.35,0,0,0-.06.51v2.11h-.47Z" transform="translate(-56.69 -133.23)"/><path class="cls-1" d="M170.18,138.52a2.24,2.24,0,0,1,.43-1.4,1.82,1.82,0,0,1,2.72,0,2.32,2.32,0,0,1,.42,1.4,2.36,2.36,0,0,1-.42,1.39,1.82,1.82,0,0,1-2.72,0A2.25,2.25,0,0,1,170.18,138.52Zm.52,0a1.82,1.82,0,0,0,.33,1.12,1.09,1.09,0,0,0,.93.48,1.14,1.14,0,0,0,1-.48,1.86,1.86,0,0,0,.31-1.12,2,2,0,0,0-.31-1.14,1.15,1.15,0,0,0-1-.46,1.09,1.09,0,0,0-.93.46A1.92,1.92,0,0,0,170.7,138.52Z" transform="translate(-56.69 -133.23)"/><path class="cls-1" d="M174.93,139.88a2.27,2.27,0,0,0,1,.24,1,1,0,0,0,.6-.19.63.63,0,0,0,.25-.5.66.66,0,0,0-.28-.53,3.51,3.51,0,0,0-.64-.34l-.16-.08-.17-.09-.3-.2-.12-.13-.09-.15a.78.78,0,0,1-.08-.35.89.89,0,0,1,.39-.81,1.51,1.51,0,0,1,.85-.24h.2l.23,0a2.1,2.1,0,0,1,.52.15l0,.41a2.16,2.16,0,0,0-.85-.18,1,1,0,0,0-.59.14.42.42,0,0,0-.17.18.63.63,0,0,0-.07.32.37.37,0,0,0,.08.22.67.67,0,0,0,.22.18l.15.08.16.08.17.08.17.09a2.13,2.13,0,0,1,.65.42,1,1,0,0,1,.29.72,1,1,0,0,1-.12.51,1,1,0,0,1-.33.33,1.69,1.69,0,0,1-.89.25,3.21,3.21,0,0,1-1.07-.18Z" transform="translate(-56.69 -133.23)"/><path class="cls-1" d="M178.44,139.88a2.19,2.19,0,0,0,1,.24,1,1,0,0,0,.6-.19.6.6,0,0,0,.25-.5.63.63,0,0,0-.28-.53,3.12,3.12,0,0,0-.63-.34l-.17-.08-.16-.09a2.61,2.61,0,0,1-.3-.2l-.12-.13a.6.6,0,0,1-.09-.15.68.68,0,0,1-.09-.35.89.89,0,0,1,.39-.81,1.54,1.54,0,0,1,.86-.24h.19l.24,0a2.15,2.15,0,0,1,.51.15l0,.41a2.13,2.13,0,0,0-.85-.18,1,1,0,0,0-.58.14.52.52,0,0,0-.18.18.76.76,0,0,0-.06.32.32.32,0,0,0,.08.22.58.58,0,0,0,.22.18l.14.08.16.08.17.08.17.09a2.31,2.31,0,0,1,.66.42,1,1,0,0,1,.28.72,1,1,0,0,1-.12.51,1.12,1.12,0,0,1-.32.33,1.7,1.7,0,0,1-.9.25,3.25,3.25,0,0,1-1.07-.18Z" transform="translate(-56.69 -133.23)"/><path class="cls-1" d="M184.8,140.31a3.42,3.42,0,0,1-1.11.21,1.56,1.56,0,0,1-1.34-.58,2.27,2.27,0,0,1-.4-1.42,2.32,2.32,0,0,1,.45-1.45,1.44,1.44,0,0,1,1.16-.56,1.35,1.35,0,0,1,1.17.57,2.36,2.36,0,0,1,.36,1.33v.24h-2.62a1.6,1.6,0,0,0,.32,1,1.14,1.14,0,0,0,.94.44,2,2,0,0,0,.58-.1l.28-.09a1,1,0,0,0,.21-.1Zm-.23-2.06a1.84,1.84,0,0,0-.22-.92.82.82,0,0,0-.76-.41,1,1,0,0,0-.81.42,1.47,1.47,0,0,0-.31.91Z" transform="translate(-56.69 -133.23)"/><path class="cls-1" d="M186.57,137.5c0-.14,0-.29,0-.44s0-.3,0-.46H187v.69h0c.05-.09.1-.18.16-.27a1.34,1.34,0,0,1,.23-.25,1.06,1.06,0,0,1,.35-.19,1.83,1.83,0,0,1,.5-.07,1.2,1.2,0,0,1,1,.42,1.72,1.72,0,0,1,.3,1v2.45h-.48v-2.32a1.66,1.66,0,0,0-.2-.88.85.85,0,0,0-.7-.31,1,1,0,0,0-.89.45,1.58,1.58,0,0,0-.19.44,2.35,2.35,0,0,0-.06.51v2.11h-.47Z" transform="translate(-56.69 -133.23)"/><path class="cls-1" d="M191,139.88a2.27,2.27,0,0,0,1,.24,1,1,0,0,0,.6-.19.6.6,0,0,0,.25-.5.63.63,0,0,0-.28-.53,3.21,3.21,0,0,0-.64-.34l-.16-.08-.17-.09-.3-.2-.11-.13-.1-.15a.78.78,0,0,1-.08-.35.89.89,0,0,1,.39-.81,1.54,1.54,0,0,1,.86-.24h.19l.23,0a2.1,2.1,0,0,1,.52.15l0,.41a2.13,2.13,0,0,0-.85-.18,1,1,0,0,0-.58.14.52.52,0,0,0-.18.18.76.76,0,0,0-.06.32.32.32,0,0,0,.08.22.58.58,0,0,0,.22.18l.14.08.16.08.17.08.17.09a2.13,2.13,0,0,1,.65.42,1,1,0,0,1,.29.72,1,1,0,0,1-.12.51,1.12,1.12,0,0,1-.32.33,1.72,1.72,0,0,1-.9.25,3.21,3.21,0,0,1-1.07-.18Z" transform="translate(-56.69 -133.23)"/><path class="cls-1" d="M197.33,137.11a2.14,2.14,0,0,0-.82-.19,1.39,1.39,0,0,0-1.06.44,1.69,1.69,0,0,0-.38,1.16,1.72,1.72,0,0,0,.37,1.12,1.28,1.28,0,0,0,1,.48,2.21,2.21,0,0,0,.86-.18l0,.45a2.87,2.87,0,0,1-1,.13,1.61,1.61,0,0,1-1.37-.61,2.12,2.12,0,0,1-.46-1.39,2.05,2.05,0,0,1,.52-1.45,1.85,1.85,0,0,1,1.37-.56,2.32,2.32,0,0,1,.59.06l.21,0,.07,0,.05,0Z" transform="translate(-56.69 -133.23)"/><path class="cls-1" d="M198.75,134.8h.47v2.45h0a1.36,1.36,0,0,1,.46-.53,1.42,1.42,0,0,1,.73-.21,1.17,1.17,0,0,1,1,.45,2.22,2.22,0,0,1,.26,1.18v2.29h-.47v-2.28a2.09,2.09,0,0,0,0-.25,1.79,1.79,0,0,0,0-.23,1.18,1.18,0,0,0,0-.2.51.51,0,0,0-.09-.18.76.76,0,0,0-.75-.37,1,1,0,0,0-.87.47,2,2,0,0,0-.26,1v2.05h-.47Z" transform="translate(-56.69 -133.23)"/><path class="cls-1" d="M205.71,139.82h0a1.23,1.23,0,0,1-.5.51,1.61,1.61,0,0,1-.72.19,1.53,1.53,0,0,1-.64-.13.89.89,0,0,1-.39-.28,1.19,1.19,0,0,1-.23-.67,1.14,1.14,0,0,1,.24-.76,1.26,1.26,0,0,1,.57-.4l.37-.1a2.57,2.57,0,0,1,.4-.06c.27,0,.53,0,.78,0h.09v-.2c0-.65-.27-1-.87-1a2.13,2.13,0,0,0-1.12.31v-.45a2.75,2.75,0,0,1,1.12-.27c.9,0,1.35.47,1.34,1.43v1.69c0,.14,0,.28,0,.41s0,.27,0,.39h-.46Zm-.05-1.32h-.75l-.31,0a1.07,1.07,0,0,0-.27.09.9.9,0,0,0-.42.27.72.72,0,0,0-.18.51.57.57,0,0,0,.24.52.91.91,0,0,0,.56.17,1.12,1.12,0,0,0,.65-.17,1,1,0,0,0,.34-.37,1.09,1.09,0,0,0,.12-.46c0-.08,0-.15,0-.22v-.4Z" transform="translate(-56.69 -133.23)"/><path class="cls-1" d="M208.16,137h-.77v-.41h.77v-.27c0-.1,0-.2,0-.3l0-.3a1.36,1.36,0,0,1,.11-.51.8.8,0,0,1,.3-.37,1,1,0,0,1,.57-.14h.25a.58.58,0,0,1,.19.07l0,.41a.91.91,0,0,0-.37-.08.55.55,0,0,0-.36.1.75.75,0,0,0-.17.3,1.37,1.37,0,0,0,0,.36,1.48,1.48,0,0,0,0,.21v.51h.86V137h-.86v3.42h-.48Z" transform="translate(-56.69 -133.23)"/><path class="cls-1" d="M212.58,137h-.87v2.48a.76.76,0,0,0,.12.44.42.42,0,0,0,.39.19.94.94,0,0,0,.43-.09l0,.39-.24.06a1.32,1.32,0,0,1-.34,0,1,1,0,0,1-.49-.1.7.7,0,0,1-.26-.28,1.23,1.23,0,0,1-.1-.41,3.7,3.7,0,0,1,0-.48V137h-.75v-.41h.75v-.92l.47-.16v1.08h.87Z" transform="translate(-56.69 -133.23)"/><path class="cls-1" d="M90.28,146.13a1.85,1.85,0,0,0-.56-.19l-.31,0-.3,0a2,2,0,0,0-1.57.64,2.36,2.36,0,0,0-.55,1.62,2.32,2.32,0,0,0,.55,1.62,2,2,0,0,0,1.57.64h.29l.32,0a1.84,1.84,0,0,0,.56-.17l0,.45-.26.1-.31.07-.33,0h-.3a2.49,2.49,0,0,1-1.93-.75,2.69,2.69,0,0,1-.71-2,2.82,2.82,0,0,1,.71-2,2.61,2.61,0,0,1,1.93-.75l.28,0,.35,0a1.77,1.77,0,0,1,.57.16Z" transform="translate(-56.69 -133.23)"/><path class="cls-1" d="M91.75,148.87a2.24,2.24,0,0,1,.43-1.4,1.82,1.82,0,0,1,2.72,0,2.32,2.32,0,0,1,.42,1.4,2.36,2.36,0,0,1-.42,1.39,1.82,1.82,0,0,1-2.72,0A2.25,2.25,0,0,1,91.75,148.87Zm.52,0A1.82,1.82,0,0,0,92.6,150a1.09,1.09,0,0,0,.93.48,1.14,1.14,0,0,0,1-.48,1.86,1.86,0,0,0,.31-1.12,2,2,0,0,0-.31-1.14,1.15,1.15,0,0,0-1-.46,1.09,1.09,0,0,0-.93.46A1.92,1.92,0,0,0,92.27,148.87Z" transform="translate(-56.69 -133.23)"/><path class="cls-1" d="M96.8,147.85c0-.14,0-.29,0-.44s0-.3,0-.46h.45v.69h0a1.91,1.91,0,0,1,.16-.27,1.27,1.27,0,0,1,.22-.25,1.17,1.17,0,0,1,.35-.19,1.85,1.85,0,0,1,.51-.07,1.21,1.21,0,0,1,1,.42,1.8,1.8,0,0,1,.29,1.06v2.44h-.47v-2.32a1.7,1.7,0,0,0-.2-.87.85.85,0,0,0-.71-.32,1,1,0,0,0-.88.45,1.34,1.34,0,0,0-.19.44,2.35,2.35,0,0,0-.06.51v2.11H96.8Z" transform="translate(-56.69 -133.23)"/><path class="cls-1" d="M101.88,147.36h-.78V147h.78v-.57l0-.3a1.36,1.36,0,0,1,.11-.51.76.76,0,0,1,.31-.37,1,1,0,0,1,.56-.14h.25a.58.58,0,0,1,.19.07l0,.41a.87.87,0,0,0-.37-.08.57.57,0,0,0-.36.1.75.75,0,0,0-.17.3,1.37,1.37,0,0,0,0,.36,1.48,1.48,0,0,0,0,.21V147h.86v.41h-.86v3.42h-.47Z" transform="translate(-56.69 -133.23)"/><path class="cls-1" d="M107.21,150.66a3.52,3.52,0,0,1-1.11.21,1.57,1.57,0,0,1-1.35-.58,2.34,2.34,0,0,1-.4-1.42,2.27,2.27,0,0,1,.46-1.45,1.42,1.42,0,0,1,1.16-.56,1.35,1.35,0,0,1,1.17.57,2.36,2.36,0,0,1,.35,1.33V149h-2.62a1.55,1.55,0,0,0,.33,1,1.13,1.13,0,0,0,.93.44,2,2,0,0,0,.59-.1l.27-.09a.9.9,0,0,0,.22-.1ZM107,148.6a2,2,0,0,0-.21-.92.83.83,0,0,0-.76-.41,1,1,0,0,0-.82.42,1.54,1.54,0,0,0-.31.91Zm-.76-3.14h.59l-1,1.08h-.34Z" transform="translate(-56.69 -133.23)"/><path class="cls-1" d="M112,150.78h-.48v-.61h0a1.22,1.22,0,0,1-1.19.7,1.35,1.35,0,0,1-1.18-.58,2.38,2.38,0,0,1-.4-1.42,2.45,2.45,0,0,1,.37-1.44,1.37,1.37,0,0,1,1.21-.57,1.3,1.3,0,0,1,.49.09.72.72,0,0,1,.2.09l.16.12a.93.93,0,0,1,.34.44h0v-2.45H112Zm-2.74-1.91a3.31,3.31,0,0,0,0,.55,2,2,0,0,0,.18.52,1.12,1.12,0,0,0,.35.37.94.94,0,0,0,.55.16,1,1,0,0,0,.54-.16,1.16,1.16,0,0,0,.35-.38,2.2,2.2,0,0,0,.24-1.06,2.72,2.72,0,0,0,0-.28,1.45,1.45,0,0,0,0-.28,1.77,1.77,0,0,0-.19-.51,1.11,1.11,0,0,0-.35-.39,1,1,0,0,0-.54-.14,1,1,0,0,0-.55.14,1.07,1.07,0,0,0-.35.38,1.92,1.92,0,0,0-.18.51,2.7,2.7,0,0,0,0,.28A2.81,2.81,0,0,0,109.27,148.87Z" transform="translate(-56.69 -133.23)"/><path class="cls-1" d="M116.3,150.66a3.42,3.42,0,0,1-1.11.21,1.56,1.56,0,0,1-1.34-.58,2.27,2.27,0,0,1-.4-1.42,2.32,2.32,0,0,1,.45-1.45,1.44,1.44,0,0,1,1.16-.56,1.35,1.35,0,0,1,1.17.57,2.36,2.36,0,0,1,.36,1.33V149H114a1.6,1.6,0,0,0,.32,1,1.14,1.14,0,0,0,.94.44,2,2,0,0,0,.58-.1l.28-.09a1,1,0,0,0,.21-.1Zm-.23-2.06a1.84,1.84,0,0,0-.22-.92.82.82,0,0,0-.76-.41,1,1,0,0,0-.81.42,1.47,1.47,0,0,0-.31.91Zm-.77-3.14h.59l-.94,1.08h-.35Z" transform="translate(-56.69 -133.23)"/><path class="cls-1" d="M118.07,147.81c0-.18,0-.33,0-.48s0-.27,0-.38h.47v.74h0a1.67,1.67,0,0,1,.38-.58.91.91,0,0,1,.6-.25,1.63,1.63,0,0,1,.33,0v.49a1.22,1.22,0,0,0-.34,0,.81.81,0,0,0-.46.13,1,1,0,0,0-.29.37,2.13,2.13,0,0,0-.15.49,2.42,2.42,0,0,0-.06.54v1.89h-.47Z" transform="translate(-56.69 -133.23)"/><path class="cls-1" d="M123.35,150.17h0a1.25,1.25,0,0,1-.51.51,1.57,1.57,0,0,1-.71.19,1.53,1.53,0,0,1-.64-.13.89.89,0,0,1-.39-.28,1.22,1.22,0,0,1,0-1.43,1.34,1.34,0,0,1,.58-.4l.37-.1a2.4,2.4,0,0,1,.4-.06c.27,0,.53,0,.78,0h.09v-.2c0-.65-.28-1-.87-1a2.16,2.16,0,0,0-1.13.31v-.45a2.8,2.8,0,0,1,1.13-.27c.9,0,1.34.47,1.34,1.43V150c0,.14,0,.28,0,.42s0,.26,0,.38h-.47Zm0-1.32h-.75l-.31,0a1.31,1.31,0,0,0-.28.09.9.9,0,0,0-.42.27.77.77,0,0,0-.17.51.57.57,0,0,0,.24.52.91.91,0,0,0,.56.17,1.12,1.12,0,0,0,.65-.17.92.92,0,0,0,.33-.38,1,1,0,0,0,.13-.45,1.7,1.7,0,0,0,0-.22,1,1,0,0,0,0-.17Z" transform="translate(-56.69 -133.23)"/><path class="cls-1" d="M127.14,147.36h-.87v2.48a.76.76,0,0,0,.12.44.44.44,0,0,0,.39.19,1,1,0,0,0,.44-.09l0,.39-.23.06a1.39,1.39,0,0,1-.35,0,1,1,0,0,1-.49-.1.78.78,0,0,1-.26-.28,1.54,1.54,0,0,1-.1-.41c0-.15,0-.31,0-.48v-2.24h-.75V147h.75V146l.47-.16V147h.87Z" transform="translate(-56.69 -133.23)"/><path class="cls-1" d="M129.05,145.94h-.47v-.63h.47Zm-.47,1h.47v3.83h-.47Z" transform="translate(-56.69 -133.23)"/><path class="cls-1" d="M130.53,148.87a2.25,2.25,0,0,1,.44-1.4,1.82,1.82,0,0,1,2.72,0,2.32,2.32,0,0,1,.42,1.4,2.36,2.36,0,0,1-.42,1.39,1.6,1.6,0,0,1-1.37.61,1.57,1.57,0,0,1-1.35-.61A2.26,2.26,0,0,1,130.53,148.87Zm.52,0a1.82,1.82,0,0,0,.33,1.12,1.17,1.17,0,0,0,1.89,0,1.86,1.86,0,0,0,.32-1.12,2,2,0,0,0-.32-1.14,1.2,1.2,0,0,0-1.89,0A1.92,1.92,0,0,0,131.05,148.87Z" transform="translate(-56.69 -133.23)"/><path class="cls-1" d="M135.58,147.85v-.44l0-.46H136v.69h0a1.82,1.82,0,0,1,.15-.27,1.34,1.34,0,0,1,.23-.25,1.06,1.06,0,0,1,.35-.19,1.83,1.83,0,0,1,.5-.07,1.22,1.22,0,0,1,1,.42,1.8,1.8,0,0,1,.29,1.06v2.44h-.47v-2.32a1.6,1.6,0,0,0-.21-.87.83.83,0,0,0-.7-.32,1,1,0,0,0-.89.45,1.57,1.57,0,0,0-.18.44,2.35,2.35,0,0,0-.06.51v2.11h-.48Z" transform="translate(-56.69 -133.23)"/><path class="cls-1" d="M142.64,150.23a2.27,2.27,0,0,0,1,.24,1,1,0,0,0,.6-.19.6.6,0,0,0,.25-.5.64.64,0,0,0-.28-.53,3.21,3.21,0,0,0-.64-.34l-.16-.08-.17-.09-.3-.2-.11-.13a1.3,1.3,0,0,1-.1-.15.78.78,0,0,1-.08-.35.89.89,0,0,1,.39-.81,1.54,1.54,0,0,1,.86-.24h.19l.23,0a1.73,1.73,0,0,1,.52.14l0,.41a2.36,2.36,0,0,0-.85-.18,1.09,1.09,0,0,0-.59.14.48.48,0,0,0-.17.18.76.76,0,0,0-.07.32.33.33,0,0,0,.09.22.63.63,0,0,0,.21.18l.15.08.16.08.17.08.17.09a2.13,2.13,0,0,1,.65.42,1,1,0,0,1,.29.72,1,1,0,0,1-.12.51,1,1,0,0,1-.33.33,1.67,1.67,0,0,1-.89.25,3.21,3.21,0,0,1-1.07-.18Z" transform="translate(-56.69 -133.23)"/><path class="cls-1" d="M149.43,149.88a3.23,3.23,0,0,0,0,.44l0,.46H149v-.68h0l-.07.13a.75.75,0,0,1-.07.12,1.38,1.38,0,0,1-.23.26,1.06,1.06,0,0,1-.35.18,1.6,1.6,0,0,1-.51.08,1.21,1.21,0,0,1-1-.42,1.72,1.72,0,0,1-.3-1V147h.47v2.33a1.52,1.52,0,0,0,.22.86.78.78,0,0,0,.69.33,1,1,0,0,0,.55-.14.93.93,0,0,0,.35-.33,1.63,1.63,0,0,0,.18-.45,1,1,0,0,0,0-.24,1.93,1.93,0,0,0,0-.24V147h.48Z" transform="translate(-56.69 -133.23)"/><path class="cls-1" d="M151.67,145.94h-.47v-.63h.47Zm-.47,1h.47v3.83h-.47Z" transform="translate(-56.69 -133.23)"/><path class="cls-1" d="M153.16,150.23a2.19,2.19,0,0,0,1,.24,1,1,0,0,0,.6-.19.6.6,0,0,0,.25-.5.64.64,0,0,0-.28-.53,3.12,3.12,0,0,0-.63-.34l-.17-.08-.16-.09a2.61,2.61,0,0,1-.3-.2l-.12-.13a.6.6,0,0,1-.09-.15.68.68,0,0,1-.09-.35.89.89,0,0,1,.39-.81,1.54,1.54,0,0,1,.86-.24h.19l.24,0a1.75,1.75,0,0,1,.51.14l0,.41a2.31,2.31,0,0,0-.85-.18,1.06,1.06,0,0,0-.58.14.52.52,0,0,0-.18.18.76.76,0,0,0-.06.32.32.32,0,0,0,.08.22.58.58,0,0,0,.22.18l.14.08.16.08.17.08.17.09a2.13,2.13,0,0,1,.65.42,1.08,1.08,0,0,1,.17,1.23,1.12,1.12,0,0,1-.32.33,1.7,1.7,0,0,1-.9.25,3.25,3.25,0,0,1-1.07-.18Z" transform="translate(-56.69 -133.23)"/><path class="cls-1" d="M156.66,150.23a2.24,2.24,0,0,0,1,.24,1,1,0,0,0,.6-.19.63.63,0,0,0,.25-.5.67.67,0,0,0-.28-.53,3.51,3.51,0,0,0-.64-.34l-.17-.08-.16-.09a2.61,2.61,0,0,1-.3-.2l-.12-.13a1.19,1.19,0,0,1-.09-.15.67.67,0,0,1-.08-.35.89.89,0,0,1,.39-.81,1.51,1.51,0,0,1,.85-.24h.19a2,2,0,0,1,.24,0,1.73,1.73,0,0,1,.52.14l-.05.41a2.31,2.31,0,0,0-.84-.18,1.09,1.09,0,0,0-.59.14.42.42,0,0,0-.17.18.63.63,0,0,0-.07.32.37.37,0,0,0,.08.22.67.67,0,0,0,.22.18l.15.08.16.08.17.08.17.09a2.26,2.26,0,0,1,.65.42,1,1,0,0,1,.28.72,1,1,0,0,1-.12.51,1,1,0,0,1-.32.33,1.69,1.69,0,0,1-.89.25,3.31,3.31,0,0,1-1.08-.18Z" transform="translate(-56.69 -133.23)"/><path class="cls-1" d="M163,150.66a3.52,3.52,0,0,1-1.11.21,1.57,1.57,0,0,1-1.35-.58,2.34,2.34,0,0,1-.4-1.42,2.27,2.27,0,0,1,.46-1.45,1.42,1.42,0,0,1,1.16-.56,1.35,1.35,0,0,1,1.17.57,2.44,2.44,0,0,1,.35,1.33V149h-2.62a1.55,1.55,0,0,0,.33,1,1.13,1.13,0,0,0,.93.44,2,2,0,0,0,.59-.1l.27-.09a.9.9,0,0,0,.22-.1Zm-.24-2.06a2,2,0,0,0-.21-.92.83.83,0,0,0-.76-.41,1,1,0,0,0-.82.42,1.54,1.54,0,0,0-.31.91Z" transform="translate(-56.69 -133.23)"/><path class="cls-1" d="M90.28,156.48a1.85,1.85,0,0,0-.56-.19l-.31,0-.3,0a2,2,0,0,0-1.57.64,2.36,2.36,0,0,0-.55,1.62,2.32,2.32,0,0,0,.55,1.62,2,2,0,0,0,1.57.64h.29l.32,0a1.84,1.84,0,0,0,.56-.17l0,.45-.26.1-.31.07-.33,0h-.3a2.49,2.49,0,0,1-1.93-.75,2.69,2.69,0,0,1-.71-2,2.82,2.82,0,0,1,.71-2,2.61,2.61,0,0,1,1.93-.75l.28,0,.35,0a1.77,1.77,0,0,1,.57.16Z" transform="translate(-56.69 -133.23)"/><path class="cls-1" d="M91.75,159.22a2.24,2.24,0,0,1,.43-1.4,1.82,1.82,0,0,1,2.72,0,2.32,2.32,0,0,1,.42,1.4,2.36,2.36,0,0,1-.42,1.39,1.82,1.82,0,0,1-2.72,0A2.25,2.25,0,0,1,91.75,159.22Zm.52,0a1.82,1.82,0,0,0,.33,1.12,1.09,1.09,0,0,0,.93.48,1.14,1.14,0,0,0,1-.48,1.86,1.86,0,0,0,.31-1.12,2,2,0,0,0-.31-1.14,1.15,1.15,0,0,0-1-.46,1.09,1.09,0,0,0-.93.46A1.92,1.92,0,0,0,92.27,159.22Z" transform="translate(-56.69 -133.23)"/><path class="cls-1" d="M96.8,158.2c0-.14,0-.29,0-.44s0-.3,0-.46h.45V158h0a1.91,1.91,0,0,1,.16-.27,1.27,1.27,0,0,1,.22-.25,1.17,1.17,0,0,1,.35-.19,1.85,1.85,0,0,1,.51-.07,1.21,1.21,0,0,1,1,.42,1.8,1.8,0,0,1,.29,1.06v2.44h-.47v-2.32a1.7,1.7,0,0,0-.2-.87.85.85,0,0,0-.71-.32,1,1,0,0,0-.88.45,1.34,1.34,0,0,0-.19.44,2.35,2.35,0,0,0-.06.51v2.11H96.8Z" transform="translate(-56.69 -133.23)"/><path class="cls-1" d="M101.88,157.71h-.78v-.41h.78v-.57l0-.3a1.36,1.36,0,0,1,.11-.51.76.76,0,0,1,.31-.37,1,1,0,0,1,.56-.14h.25a.58.58,0,0,1,.19.07l0,.41a.87.87,0,0,0-.37-.08.57.57,0,0,0-.36.1.75.75,0,0,0-.17.3,1.37,1.37,0,0,0,0,.36,1.48,1.48,0,0,0,0,.21v.51h.86v.41h-.86v3.42h-.47Z" transform="translate(-56.69 -133.23)"/><path class="cls-1" d="M107.21,161a3.52,3.52,0,0,1-1.11.21,1.57,1.57,0,0,1-1.35-.58,2.34,2.34,0,0,1-.4-1.42,2.27,2.27,0,0,1,.46-1.45,1.42,1.42,0,0,1,1.16-.56,1.35,1.35,0,0,1,1.17.57,2.36,2.36,0,0,1,.35,1.33v.24h-2.62a1.55,1.55,0,0,0,.33,1,1.13,1.13,0,0,0,.93.44,2,2,0,0,0,.59-.1l.27-.09a.9.9,0,0,0,.22-.1ZM107,159a2,2,0,0,0-.21-.92.85.85,0,0,0-.76-.41,1,1,0,0,0-.82.42,1.54,1.54,0,0,0-.31.91Z" transform="translate(-56.69 -133.23)"/><path class="cls-1" d="M112,161.13h-.48v-.61h0a1.22,1.22,0,0,1-1.19.7,1.35,1.35,0,0,1-1.18-.58,2.38,2.38,0,0,1-.4-1.42,2.45,2.45,0,0,1,.37-1.44,1.37,1.37,0,0,1,1.21-.57,1.3,1.3,0,0,1,.49.09.72.72,0,0,1,.2.09l.16.12a.93.93,0,0,1,.34.44h0V155.5H112Zm-2.74-1.91a3.31,3.31,0,0,0,0,.55,2,2,0,0,0,.18.52,1.12,1.12,0,0,0,.35.37.94.94,0,0,0,.55.16,1,1,0,0,0,.54-.16,1.16,1.16,0,0,0,.35-.38,2.2,2.2,0,0,0,.24-1.06,2.72,2.72,0,0,0,0-.28,1.45,1.45,0,0,0,0-.28,1.77,1.77,0,0,0-.19-.51,1.11,1.11,0,0,0-.35-.39,1,1,0,0,0-.54-.14,1,1,0,0,0-.55.14,1.07,1.07,0,0,0-.35.38,1.92,1.92,0,0,0-.18.51,2.7,2.7,0,0,0,0,.28A2.81,2.81,0,0,0,109.27,159.22Z" transform="translate(-56.69 -133.23)"/><path class="cls-1" d="M116.3,161a3.42,3.42,0,0,1-1.11.21,1.56,1.56,0,0,1-1.34-.58,2.27,2.27,0,0,1-.4-1.42,2.32,2.32,0,0,1,.45-1.45,1.44,1.44,0,0,1,1.16-.56,1.35,1.35,0,0,1,1.17.57,2.36,2.36,0,0,1,.36,1.33v.24H114a1.6,1.6,0,0,0,.32,1,1.14,1.14,0,0,0,.94.44,2,2,0,0,0,.58-.1l.28-.09a1,1,0,0,0,.21-.1Zm-.23-2.06a1.84,1.84,0,0,0-.22-.92.84.84,0,0,0-.76-.41,1,1,0,0,0-.81.42,1.47,1.47,0,0,0-.31.91Z" transform="translate(-56.69 -133.23)"/><path class="cls-1" d="M118.07,158.16c0-.18,0-.33,0-.48s0-.27,0-.38h.47V158h0a1.67,1.67,0,0,1,.38-.58.91.91,0,0,1,.6-.25,1.63,1.63,0,0,1,.33,0v.49a1.22,1.22,0,0,0-.34,0,.81.81,0,0,0-.46.13,1,1,0,0,0-.29.37,2.13,2.13,0,0,0-.15.49,2.48,2.48,0,0,0-.06.54v1.89h-.47Z" transform="translate(-56.69 -133.23)"/><path class="cls-1" d="M123.35,160.52h0a1.25,1.25,0,0,1-.51.51,1.57,1.57,0,0,1-.71.19,1.53,1.53,0,0,1-.64-.13.89.89,0,0,1-.39-.28,1.17,1.17,0,0,1-.23-.67,1.19,1.19,0,0,1,.23-.76,1.34,1.34,0,0,1,.58-.4l.37-.1a2.4,2.4,0,0,1,.4-.06c.27,0,.53,0,.78,0h.09v-.2c0-.65-.28-1-.87-1a2.16,2.16,0,0,0-1.13.31v-.45a2.8,2.8,0,0,1,1.13-.27c.9,0,1.34.47,1.34,1.43v1.69c0,.14,0,.28,0,.42s0,.26,0,.38h-.47Zm0-1.32h-.75l-.31,0a1.31,1.31,0,0,0-.28.09.9.9,0,0,0-.42.27.77.77,0,0,0-.17.51.57.57,0,0,0,.24.52.91.91,0,0,0,.56.17,1.12,1.12,0,0,0,.65-.17,1,1,0,0,0,.33-.37,1.11,1.11,0,0,0,.13-.46,1.7,1.7,0,0,0,0-.22,1,1,0,0,0,0-.17Z" transform="translate(-56.69 -133.23)"/><path class="cls-1" d="M125.14,160.73l2.3-3h-2.21v-.41H128v.41l-2.3,3H128v.4h-2.85Z" transform="translate(-56.69 -133.23)"/><path class="cls-1" d="M129.88,156.29h-.47v-.63h.47Zm-.47,1h.47v3.83h-.47Z" transform="translate(-56.69 -133.23)"/><path class="cls-1" d="M131.37,159.22a2.24,2.24,0,0,1,.43-1.4,1.82,1.82,0,0,1,2.72,0,2.32,2.32,0,0,1,.42,1.4,2.36,2.36,0,0,1-.42,1.39,1.82,1.82,0,0,1-2.72,0A2.25,2.25,0,0,1,131.37,159.22Zm.52,0a1.82,1.82,0,0,0,.33,1.12,1.09,1.09,0,0,0,.93.48,1.14,1.14,0,0,0,1-.48,1.86,1.86,0,0,0,.31-1.12,2,2,0,0,0-.31-1.14,1.15,1.15,0,0,0-1-.46,1.09,1.09,0,0,0-.93.46A1.92,1.92,0,0,0,131.89,159.22Z" transform="translate(-56.69 -133.23)"/><path class="cls-1" d="M136.42,158.2c0-.14,0-.29,0-.44s0-.3,0-.46h.45V158h0a1.91,1.91,0,0,1,.16-.27,1.27,1.27,0,0,1,.22-.25,1.17,1.17,0,0,1,.35-.19,1.85,1.85,0,0,1,.51-.07,1.21,1.21,0,0,1,1,.42,1.8,1.8,0,0,1,.29,1.06v2.44h-.47v-2.32a1.7,1.7,0,0,0-.2-.87.85.85,0,0,0-.71-.32,1,1,0,0,0-.88.45,1.34,1.34,0,0,0-.19.44,2.35,2.35,0,0,0-.06.51v2.11h-.47Z" transform="translate(-56.69 -133.23)"/><path class="cls-1" d="M143.74,161a3.42,3.42,0,0,1-1.11.21,1.56,1.56,0,0,1-1.34-.58,2.27,2.27,0,0,1-.4-1.42,2.32,2.32,0,0,1,.45-1.45,1.44,1.44,0,0,1,1.16-.56,1.35,1.35,0,0,1,1.17.57,2.36,2.36,0,0,1,.36,1.33v.24h-2.62a1.6,1.6,0,0,0,.32,1,1.14,1.14,0,0,0,.94.44,2,2,0,0,0,.58-.1l.28-.09a1,1,0,0,0,.21-.1Zm-.23-2.06a1.84,1.84,0,0,0-.22-.92.84.84,0,0,0-.76-.41,1,1,0,0,0-.81.42,1.47,1.47,0,0,0-.31.91Z" transform="translate(-56.69 -133.23)"/><path class="cls-1" d="M148,160.46a1.93,1.93,0,0,0,1.15.31,1.32,1.32,0,0,0,.84-.26,1,1,0,0,0,.34-.81.82.82,0,0,0-.38-.65,1.4,1.4,0,0,0-.18-.13l-.2-.12-.22-.12-.22-.12-.22-.13a1.64,1.64,0,0,1-.22-.14l-.2-.14-.19-.16a1.11,1.11,0,0,1-.37-.82,1.21,1.21,0,0,1,.49-1,1.94,1.94,0,0,1,1.17-.36h.22l.26,0a2,2,0,0,1,.55.14l-.09.47a2.09,2.09,0,0,0-1-.2,3,3,0,0,0-.4,0,.9.9,0,0,0-.36.16.87.87,0,0,0-.27.27.85.85,0,0,0-.1.43.64.64,0,0,0,.1.35,1.42,1.42,0,0,0,.27.28,3.33,3.33,0,0,0,.39.24l.22.12.22.12a3,3,0,0,1,.82.58.93.93,0,0,1,.16.18.72.72,0,0,1,.12.21,1.13,1.13,0,0,1,.1.51,1.3,1.3,0,0,1-.55,1.14,2.08,2.08,0,0,1-1.17.34A2.83,2.83,0,0,1,148,161Z" transform="translate(-56.69 -133.23)"/><path class="cls-1" d="M153.77,161.13h-.55l-1.3-3.83h.52l1.06,3.31h0l1.11-3.31h.5Z" transform="translate(-56.69 -133.23)"/><path class="cls-1" d="M156.83,156.29h-.47v-.63h.47Zm-.47,1h.47v3.83h-.47Z" transform="translate(-56.69 -133.23)"/><path class="cls-1" d="M158.26,160.73l2.3-3h-2.21v-.41h2.76v.41l-2.3,3h2.3v.4h-2.85Z" transform="translate(-56.69 -133.23)"/><path class="cls-1" d="M162.18,160.73l2.3-3h-2.21v-.41H165v.41l-2.31,3H165v.4h-2.85Z" transform="translate(-56.69 -133.23)"/><path class="cls-1" d="M169,161a3.42,3.42,0,0,1-1.11.21,1.56,1.56,0,0,1-1.34-.58,2.64,2.64,0,0,1,.05-2.87,1.44,1.44,0,0,1,1.17-.56,1.35,1.35,0,0,1,1.17.57,2.44,2.44,0,0,1,.35,1.33v.24h-2.62a1.6,1.6,0,0,0,.32,1,1.15,1.15,0,0,0,.94.44,2,2,0,0,0,.59-.1l.27-.09a1,1,0,0,0,.21-.1Zm-.23-2.06a1.84,1.84,0,0,0-.22-.92.83.83,0,0,0-.75-.41,1,1,0,0,0-.82.42,1.47,1.47,0,0,0-.31.91Z" transform="translate(-56.69 -133.23)"/><path class="cls-1" d="M170.78,158.16v-.48c0-.14,0-.27,0-.38h.48V158h0a1.67,1.67,0,0,1,.38-.58.91.91,0,0,1,.6-.25,1.63,1.63,0,0,1,.33,0v.49a1.22,1.22,0,0,0-.34,0,.81.81,0,0,0-.46.13,1,1,0,0,0-.29.37,2.13,2.13,0,0,0-.15.49,2.47,2.47,0,0,0-.05.54v1.89h-.48Z" transform="translate(-56.69 -133.23)"/><path class="cls-1" d="M176.07,160.52h0a1.17,1.17,0,0,1-.5.51,1.6,1.6,0,0,1-.71.19,1.55,1.55,0,0,1-.65-.13.89.89,0,0,1-.39-.28,1.17,1.17,0,0,1-.23-.67,1.14,1.14,0,0,1,.24-.76,1.31,1.31,0,0,1,.57-.4l.37-.1a2.57,2.57,0,0,1,.4-.06c.27,0,.53,0,.78,0H176v-.2c0-.65-.27-1-.87-1a2.13,2.13,0,0,0-1.12.31v-.45a2.75,2.75,0,0,1,1.12-.27c.9,0,1.35.47,1.34,1.43v1.69c0,.14,0,.28,0,.42s0,.26,0,.38h-.46Zm0-1.32h-.75l-.31,0a1.07,1.07,0,0,0-.27.09.9.9,0,0,0-.42.27.72.72,0,0,0-.18.51.57.57,0,0,0,.24.52.91.91,0,0,0,.56.17,1.09,1.09,0,0,0,.65-.17,1,1,0,0,0,.34-.37,1.09,1.09,0,0,0,.12-.46c0-.08,0-.15,0-.22v-.4Z" transform="translate(-56.69 -133.23)"/><path class="cls-1" d="M90.28,166.83a1.85,1.85,0,0,0-.56-.19l-.31,0-.3,0a2,2,0,0,0-1.57.64,2.36,2.36,0,0,0-.55,1.62,2.32,2.32,0,0,0,.55,1.62,2,2,0,0,0,1.57.64h.29l.32,0a1.84,1.84,0,0,0,.56-.17l0,.45-.26.1-.31.07-.33,0h-.3a2.49,2.49,0,0,1-1.93-.75,2.69,2.69,0,0,1-.71-2,2.82,2.82,0,0,1,.71-2,2.61,2.61,0,0,1,1.93-.75l.28,0,.35,0a1.55,1.55,0,0,1,.57.16Z" transform="translate(-56.69 -133.23)"/><path class="cls-1" d="M91.75,169.57a2.24,2.24,0,0,1,.43-1.4,1.82,1.82,0,0,1,2.72,0,2.32,2.32,0,0,1,.42,1.4A2.36,2.36,0,0,1,94.9,171a1.82,1.82,0,0,1-2.72,0A2.25,2.25,0,0,1,91.75,169.57Zm.52,0a1.82,1.82,0,0,0,.33,1.12,1.09,1.09,0,0,0,.93.48,1.14,1.14,0,0,0,1-.48,1.86,1.86,0,0,0,.31-1.12,2,2,0,0,0-.31-1.14,1.15,1.15,0,0,0-1-.46,1.09,1.09,0,0,0-.93.46A1.92,1.92,0,0,0,92.27,169.57Z" transform="translate(-56.69 -133.23)"/><path class="cls-1" d="M96.8,168.55c0-.14,0-.29,0-.44s0-.3,0-.46h.45v.69h0a1.91,1.91,0,0,1,.16-.27,1.27,1.27,0,0,1,.22-.25,1.17,1.17,0,0,1,.35-.19,1.85,1.85,0,0,1,.51-.07,1.21,1.21,0,0,1,1,.42,1.79,1.79,0,0,1,.29,1.05v2.45h-.47v-2.32a1.71,1.71,0,0,0-.2-.88.87.87,0,0,0-.71-.31,1,1,0,0,0-.88.45,1.34,1.34,0,0,0-.19.44,2.35,2.35,0,0,0-.06.51v2.11H96.8Z" transform="translate(-56.69 -133.23)"/><path class="cls-1" d="M101.88,168.06h-.78v-.41h.78v-.57l0-.3a1.36,1.36,0,0,1,.11-.51.76.76,0,0,1,.31-.37,1,1,0,0,1,.56-.14h.25a.58.58,0,0,1,.19.07l0,.41a.87.87,0,0,0-.37-.08.57.57,0,0,0-.36.1.75.75,0,0,0-.17.3,1.37,1.37,0,0,0,0,.36,1.48,1.48,0,0,0,0,.21v.51h.86v.41h-.86v3.42h-.47Z" transform="translate(-56.69 -133.23)"/><path class="cls-1" d="M107.21,171.36a3.52,3.52,0,0,1-1.11.21,1.57,1.57,0,0,1-1.35-.58,2.34,2.34,0,0,1-.4-1.42,2.27,2.27,0,0,1,.46-1.45,1.42,1.42,0,0,1,1.16-.56,1.35,1.35,0,0,1,1.17.57,2.36,2.36,0,0,1,.35,1.33v.24h-2.62a1.55,1.55,0,0,0,.33,1,1.13,1.13,0,0,0,.93.44,2,2,0,0,0,.59-.1L107,171a.9.9,0,0,0,.22-.1ZM107,169.3a2,2,0,0,0-.21-.92A.83.83,0,0,0,106,168a1,1,0,0,0-.82.42,1.54,1.54,0,0,0-.31.91Z" transform="translate(-56.69 -133.23)"/><path class="cls-1" d="M112,171.48h-.48v-.61h0a1.22,1.22,0,0,1-1.19.7,1.35,1.35,0,0,1-1.18-.58,2.38,2.38,0,0,1-.4-1.42,2.45,2.45,0,0,1,.37-1.44,1.37,1.37,0,0,1,1.21-.57,1.3,1.3,0,0,1,.49.09.72.72,0,0,1,.2.09l.16.12a.93.93,0,0,1,.34.44h0v-2.45H112Zm-2.74-1.91a3.1,3.1,0,0,0,0,.54,2.07,2.07,0,0,0,.18.53,1.12,1.12,0,0,0,.35.37.94.94,0,0,0,.55.16,1,1,0,0,0,.54-.16,1.16,1.16,0,0,0,.35-.38,2.2,2.2,0,0,0,.24-1.06,2.72,2.72,0,0,0,0-.28,1.45,1.45,0,0,0,0-.28,1.77,1.77,0,0,0-.19-.51,1.11,1.11,0,0,0-.35-.39,1,1,0,0,0-.54-.14,1,1,0,0,0-.55.14,1.07,1.07,0,0,0-.35.38,1.92,1.92,0,0,0-.18.51,2.7,2.7,0,0,0,0,.28A2.81,2.81,0,0,0,109.27,169.57Z" transform="translate(-56.69 -133.23)"/><path class="cls-1" d="M116.3,171.36a3.42,3.42,0,0,1-1.11.21,1.56,1.56,0,0,1-1.34-.58,2.27,2.27,0,0,1-.4-1.42,2.32,2.32,0,0,1,.45-1.45,1.44,1.44,0,0,1,1.16-.56,1.35,1.35,0,0,1,1.17.57,2.36,2.36,0,0,1,.36,1.33v.24H114a1.6,1.6,0,0,0,.32,1,1.14,1.14,0,0,0,.94.44,2,2,0,0,0,.58-.1l.28-.09a1,1,0,0,0,.21-.1Zm-.23-2.06a1.84,1.84,0,0,0-.22-.92.82.82,0,0,0-.76-.41,1,1,0,0,0-.81.42,1.47,1.47,0,0,0-.31.91Z" transform="translate(-56.69 -133.23)"/><path class="cls-1" d="M118.07,168.51c0-.18,0-.34,0-.48s0-.27,0-.38h.47v.74h0a1.67,1.67,0,0,1,.38-.58.91.91,0,0,1,.6-.25,1.63,1.63,0,0,1,.33.05v.49a1.22,1.22,0,0,0-.34,0,.81.81,0,0,0-.46.13,1,1,0,0,0-.29.37,2.13,2.13,0,0,0-.15.49,2.35,2.35,0,0,0-.06.54v1.89h-.47Z" transform="translate(-56.69 -133.23)"/><path class="cls-1" d="M123.35,170.87h0a1.25,1.25,0,0,1-.51.51,1.57,1.57,0,0,1-.71.19,1.53,1.53,0,0,1-.64-.13.89.89,0,0,1-.39-.28,1.22,1.22,0,0,1,0-1.43,1.34,1.34,0,0,1,.58-.4l.37-.1a2.4,2.4,0,0,1,.4-.06c.27,0,.53,0,.78,0h.09V169c0-.65-.28-1-.87-1a2.07,2.07,0,0,0-1.13.31v-.45a2.8,2.8,0,0,1,1.13-.27c.9,0,1.34.47,1.34,1.43v1.69c0,.14,0,.28,0,.41s0,.27,0,.39h-.47Zm0-1.32h-.75l-.31,0-.28.08a.92.92,0,0,0-.42.28.77.77,0,0,0-.17.51.57.57,0,0,0,.24.52.91.91,0,0,0,.56.17,1.12,1.12,0,0,0,.65-.17,1,1,0,0,0,.33-.37,1.11,1.11,0,0,0,.13-.46,1.7,1.7,0,0,0,0-.22,1,1,0,0,0,0-.17Z" transform="translate(-56.69 -133.23)"/><path class="cls-1" d="M125.14,171.08l2.3-3h-2.21v-.41H128v.41l-2.3,3H128v.4h-2.85Z" transform="translate(-56.69 -133.23)"/><path class="cls-1" d="M129.88,166.64h-.47V166h.47Zm-.47,1h.47v3.83h-.47Z" transform="translate(-56.69 -133.23)"/><path class="cls-1" d="M134.64,170.58c0,.15,0,.29,0,.44s0,.31,0,.46h-.46v-.68h0l-.07.13a.75.75,0,0,1-.07.12,1.38,1.38,0,0,1-.23.26,1,1,0,0,1-.36.18,1.6,1.6,0,0,1-.51.08,1.19,1.19,0,0,1-1-.42,1.6,1.6,0,0,1-.3-1.05v-2.45h.47V170a1.46,1.46,0,0,0,.22.86.78.78,0,0,0,.69.33,1,1,0,0,0,.55-.14.9.9,0,0,0,.34-.33,1.39,1.39,0,0,0,.19-.45,2,2,0,0,0,0-.24,1.93,1.93,0,0,0,0-.24v-2.12h.47Z" transform="translate(-56.69 -133.23)"/><path class="cls-1" d="M136.42,168.55c0-.14,0-.29,0-.44s0-.3,0-.46h.45v.69h0a1.91,1.91,0,0,1,.16-.27,1.27,1.27,0,0,1,.22-.25,1.17,1.17,0,0,1,.35-.19,1.85,1.85,0,0,1,.51-.07,1.21,1.21,0,0,1,1,.42,1.79,1.79,0,0,1,.29,1.05v2.45h-.47v-2.32a1.71,1.71,0,0,0-.2-.88A.87.87,0,0,0,138,168a1,1,0,0,0-.88.45,1.34,1.34,0,0,0-.19.44,2.35,2.35,0,0,0-.06.51v2.11h-.47Z" transform="translate(-56.69 -133.23)"/><path class="cls-1" d="M143.48,170.93a2.19,2.19,0,0,0,1,.24,1,1,0,0,0,.6-.19.6.6,0,0,0,.25-.5A.63.63,0,0,0,145,170a3.12,3.12,0,0,0-.63-.34l-.17-.08-.16-.09a2.61,2.61,0,0,1-.3-.2l-.12-.13a.6.6,0,0,1-.09-.15.68.68,0,0,1-.09-.35.89.89,0,0,1,.39-.81,1.54,1.54,0,0,1,.86-.24h.19l.24,0a2.23,2.23,0,0,1,.52.15l-.05.41a2.13,2.13,0,0,0-.85-.18,1,1,0,0,0-.58.14.45.45,0,0,0-.18.18.76.76,0,0,0-.06.32.32.32,0,0,0,.08.22.58.58,0,0,0,.22.18l.14.08.16.08.17.08.17.09a2.31,2.31,0,0,1,.66.42,1,1,0,0,1,.28.72,1,1,0,0,1-.12.51,1.12,1.12,0,0,1-.32.33,1.7,1.7,0,0,1-.9.25,3.25,3.25,0,0,1-1.07-.18Z" transform="translate(-56.69 -133.23)"/><path class="cls-1" d="M148.6,171.48h-.55l-1.3-3.83h.52l1,3.31h0l1.11-3.31h.5Z" transform="translate(-56.69 -133.23)"/><path class="cls-1" d="M151.66,166.64h-.47V166h.47Zm-.47,1h.47v3.83h-.47Z" transform="translate(-56.69 -133.23)"/><path class="cls-1" d="M153.09,171.08l2.3-3h-2.21v-.41h2.76v.41l-2.3,3h2.3v.4h-2.85Z" transform="translate(-56.69 -133.23)"/><path class="cls-1" d="M157.36,168.51c0-.18,0-.34,0-.48s0-.27,0-.38h.47v.74h0a1.67,1.67,0,0,1,.38-.58.91.91,0,0,1,.6-.25,1.63,1.63,0,0,1,.33.05v.49a1.22,1.22,0,0,0-.34,0,.81.81,0,0,0-.46.13,1,1,0,0,0-.29.37,1.73,1.73,0,0,0-.15.49,2.35,2.35,0,0,0-.06.54v1.89h-.47Z" transform="translate(-56.69 -133.23)"/><path class="cls-1" d="M162.64,170.87h0a1.25,1.25,0,0,1-.51.51,1.57,1.57,0,0,1-.71.19,1.53,1.53,0,0,1-.64-.13.89.89,0,0,1-.39-.28,1.22,1.22,0,0,1,0-1.43,1.34,1.34,0,0,1,.58-.4l.36-.1a2.7,2.7,0,0,1,.41-.06c.27,0,.53,0,.78,0h.09V169c0-.65-.28-1-.87-1a2.07,2.07,0,0,0-1.13.31v-.45a2.8,2.8,0,0,1,1.13-.27c.9,0,1.34.47,1.34,1.43v1.69a2.8,2.8,0,0,0,0,.41c0,.14,0,.27,0,.39h-.47Zm0-1.32h-.75l-.31,0-.28.08a.92.92,0,0,0-.42.28.77.77,0,0,0-.17.51.57.57,0,0,0,.24.52.88.88,0,0,0,.55.17,1.15,1.15,0,0,0,.66-.17,1,1,0,0,0,.33-.37,1.11,1.11,0,0,0,.13-.46,1.7,1.7,0,0,0,0-.22c0-.06,0-.12,0-.17Z" transform="translate(-56.69 -133.23)"/><path class="cls-1" d="M86.7,187h.52v4.78h2.32V187h.52v4.78h2.32V187h.51v5.23H86.7Z" transform="translate(-56.69 -133.23)"/><path class="cls-1" d="M97.13,190.22a.66.66,0,0,1,.24.17.78.78,0,0,1,.17.26.81.81,0,0,1,.07.35,1.28,1.28,0,0,1-.11.55,1,1,0,0,1-.28.37,1.27,1.27,0,0,1-.44.2,2.35,2.35,0,0,1-.54.06H94.72v-3.82h1.44a2,2,0,0,1,.5,0,1.17,1.17,0,0,1,.41.15.86.86,0,0,1,.28.29.93.93,0,0,1,.09.42,1,1,0,0,1-.14.55.66.66,0,0,1-.43.31h0A.79.79,0,0,1,97.13,190.22Zm-.2-.88a.45.45,0,0,0-.22-.44,1.15,1.15,0,0,0-.61-.14h-.9V190h.93a1,1,0,0,0,.59-.15A.52.52,0,0,0,96.93,189.34Zm-1.73,2.44h1a1,1,0,0,0,.68-.21.68.68,0,0,0,.23-.54.59.59,0,0,0-.21-.49,1.12,1.12,0,0,0-.71-.18h-1Z" transform="translate(-56.69 -133.23)"/><path class="cls-1" d="M99.34,190.37a1.67,1.67,0,0,0,.08.55,1.27,1.27,0,0,0,.26.47,1.17,1.17,0,0,0,.41.32,1.32,1.32,0,0,0,.57.12l.26,0a1.5,1.5,0,0,0,.29-.06l.26-.08a.9.9,0,0,0,.22-.11l0,.47a3.83,3.83,0,0,1-1.18.22,1.8,1.8,0,0,1-.71-.14,1.45,1.45,0,0,1-.55-.4,1.77,1.77,0,0,1-.34-.62,2.68,2.68,0,0,1-.12-.83,2.53,2.53,0,0,1,.12-.8,2.08,2.08,0,0,1,.35-.62,1.61,1.61,0,0,1,.53-.4,1.78,1.78,0,0,1,.7-.14,1.32,1.32,0,0,1,1.1.49,2.09,2.09,0,0,1,.39,1.35v.24Zm2.21-.37a1.74,1.74,0,0,0-.08-.53,1.22,1.22,0,0,0-.21-.41,1,1,0,0,0-.32-.26,1,1,0,0,0-.41-.09,1,1,0,0,0-.81.35,1.45,1.45,0,0,0-.36.94Z" transform="translate(-56.69 -133.23)"/><path class="cls-1" d="M106.53,188.36v3.82h-.48V189h0l-2,3.16h-.56v-3.82h.47v3.16h0l2-3.16Zm-.54-1-.24.18a1.26,1.26,0,0,1-.33.15,1.42,1.42,0,0,1-.42.06,1.4,1.4,0,0,1-.43-.06,1.43,1.43,0,0,1-.33-.15l-.24-.18a2.09,2.09,0,0,1-.15-.15l.26-.32.14.14a.86.86,0,0,0,.18.14,1,1,0,0,0,.25.12,1,1,0,0,0,.32,0,1.08,1.08,0,0,0,.32,0,.9.9,0,0,0,.24-.12.86.86,0,0,0,.18-.14l.14-.14.26.32Z" transform="translate(-56.69 -133.23)"/><path class="cls-1" d="M108.28,192.18v-3.82h.48v3.41h2v-3.41h.47v3.41h.53v1.69h-.47v-1.28Z" transform="translate(-56.69 -133.23)"/><path class="cls-1" d="M115.29,192.18v-.67a1.08,1.08,0,0,1-.24.32,1.34,1.34,0,0,1-.31.22,1.59,1.59,0,0,1-.77.18,1.22,1.22,0,0,1-.86-.3,1.07,1.07,0,0,1-.32-.81,1.05,1.05,0,0,1,.51-.94,3,3,0,0,1,1.51-.31h.44v-.06A1.27,1.27,0,0,0,115,189a.91.91,0,0,0-.71-.24,1.88,1.88,0,0,0-.57.09,1.73,1.73,0,0,0-.51.25v-.5a2.27,2.27,0,0,1,.57-.2,2.46,2.46,0,0,1,.6-.07,1.33,1.33,0,0,1,1,.32,1.16,1.16,0,0,1,.34.91v2c0,.12,0,.23,0,.35l0,.34Zm0-1.92H115l-.51,0a2.33,2.33,0,0,0-.55.11,1.12,1.12,0,0,0-.43.27.65.65,0,0,0-.18.48.64.64,0,0,0,.22.51.85.85,0,0,0,.6.19,1.15,1.15,0,0,0,.81-.33.8.8,0,0,0,.18-.27,1.81,1.81,0,0,0,.09-.31,1.84,1.84,0,0,0,0-.33A3.25,3.25,0,0,1,115.25,190.26Z" transform="translate(-56.69 -133.23)"/><path class="cls-1" d="M117.39,193.76v-5.4h.45v.72a1.54,1.54,0,0,1,.51-.58,1.3,1.3,0,0,1,.75-.19,1.46,1.46,0,0,1,.71.17,1.33,1.33,0,0,1,.48.43,1.84,1.84,0,0,1,.28.62,2.84,2.84,0,0,1,.09.72,3.67,3.67,0,0,1-.08.75,2,2,0,0,1-.27.63,1.35,1.35,0,0,1-.47.45,1.57,1.57,0,0,1-1.46,0,1.19,1.19,0,0,1-.51-.57v2.27Zm1.66-5a1,1,0,0,0-.88.42,1.91,1.91,0,0,0-.32,1.17,2.13,2.13,0,0,0,.07.55,1.67,1.67,0,0,0,.22.49,1.16,1.16,0,0,0,.38.35,1,1,0,0,0,.54.13.91.91,0,0,0,.8-.41,2.46,2.46,0,0,0,0-2.3A1,1,0,0,0,119.05,188.72Z" transform="translate(-56.69 -133.23)"/><path class="cls-1" d="M124.69,189a2,2,0,0,0-.84-.19,1.59,1.59,0,0,0-.59.1,1.49,1.49,0,0,0-.46.31,1.34,1.34,0,0,0-.29.46,1.74,1.74,0,0,0-.1.61,1.87,1.87,0,0,0,.1.64,1.46,1.46,0,0,0,.29.5,1.21,1.21,0,0,0,.45.31,1.37,1.37,0,0,0,.58.12,2.18,2.18,0,0,0,.43-.05,1.87,1.87,0,0,0,.42-.13l0,.46a3,3,0,0,1-.47.12,3.58,3.58,0,0,1-.49,0,2.06,2.06,0,0,1-.76-.14,1.76,1.76,0,0,1-.59-.4,1.89,1.89,0,0,1-.38-.63,2.38,2.38,0,0,1,0-1.61,2,2,0,0,1,.39-.62,1.75,1.75,0,0,1,.6-.4,2,2,0,0,1,.77-.15,3.75,3.75,0,0,1,.45,0l.48.12Z" transform="translate(-56.69 -133.23)"/><path class="cls-1" d="M128.9,190.94a1.4,1.4,0,0,1-.1.56,1.08,1.08,0,0,1-.28.38,1.18,1.18,0,0,1-.43.23,1.93,1.93,0,0,1-.55.07h-1.47v-3.82h.47v1.44h1a1.68,1.68,0,0,1,.5.07,1.17,1.17,0,0,1,.42.2,1,1,0,0,1,.29.35A1.18,1.18,0,0,1,128.9,190.94Zm-.5,0a.69.69,0,0,0-.23-.55,1.14,1.14,0,0,0-.73-.19h-.9v1.55h.95a.91.91,0,0,0,.69-.22A.77.77,0,0,0,128.4,191Z" transform="translate(-56.69 -133.23)"/><path class="cls-1" d="M130.33,192.18v-3.82h.47v1.76l1.82-1.76h.61l-1.88,1.77,2.1,2.05h-.65l-2-2v2Z" transform="translate(-56.69 -133.23)"/><path class="cls-1" d="M136.84,192.18v-.67a1.28,1.28,0,0,1-.24.32,1.21,1.21,0,0,1-.32.22,1.49,1.49,0,0,1-.37.14,1.72,1.72,0,0,1-.39,0,1.2,1.2,0,0,1-.86-.3,1,1,0,0,1-.32-.81,1.05,1.05,0,0,1,.51-.94,2.89,2.89,0,0,1,1.5-.31h.45v-.06a1.27,1.27,0,0,0-.21-.83.92.92,0,0,0-.72-.24,1.77,1.77,0,0,0-.56.09,1.92,1.92,0,0,0-.52.25v-.5a2.27,2.27,0,0,1,.57-.2,2.54,2.54,0,0,1,.61-.07,1.33,1.33,0,0,1,.95.32,1.19,1.19,0,0,1,.33.91v2c0,.12,0,.23,0,.35s0,.23,0,.34Zm0-1.92h-.28l-.52,0a2.35,2.35,0,0,0-.54.11,1.12,1.12,0,0,0-.43.27.65.65,0,0,0-.18.48.61.61,0,0,0,.22.51.84.84,0,0,0,.59.19,1.18,1.18,0,0,0,.46-.09,1.13,1.13,0,0,0,.36-.24.8.8,0,0,0,.18-.27,1.81,1.81,0,0,0,.09-.31,1.84,1.84,0,0,0,0-.33A3.25,3.25,0,0,1,136.8,190.26Z" transform="translate(-56.69 -133.23)"/><path class="cls-1" d="M141.75,187h.51v2.34h0l2.39-2.34h.68l-2.55,2.46,2.77,2.77h-.71l-2.58-2.62h0v2.62h-.51Z" transform="translate(-56.69 -133.23)"/><path class="cls-1" d="M150.11,190.25a2.45,2.45,0,0,1-.13.83,1.92,1.92,0,0,1-.37.64,1.81,1.81,0,0,1-.57.41,2,2,0,0,1-.74.14,1.89,1.89,0,0,1-.72-.14,1.59,1.59,0,0,1-.55-.41,1.63,1.63,0,0,1-.36-.63,2.3,2.3,0,0,1-.13-.81,2.75,2.75,0,0,1,.12-.84,1.93,1.93,0,0,1,.36-.63,1.51,1.51,0,0,1,.57-.4,2.09,2.09,0,0,1,1.53,0,1.52,1.52,0,0,1,.55.42,1.73,1.73,0,0,1,.33.63A2.77,2.77,0,0,1,150.11,190.25Zm-3.07,0a2.08,2.08,0,0,0,.09.63,1.38,1.38,0,0,0,.27.51,1.26,1.26,0,0,0,.4.33,1.19,1.19,0,0,0,1,0,1.2,1.2,0,0,0,.41-.33,1.53,1.53,0,0,0,.26-.51,2,2,0,0,0,.1-.66,2.17,2.17,0,0,0-.09-.65,1.56,1.56,0,0,0-.25-.5,1,1,0,0,0-.4-.32,1.3,1.3,0,0,0-1.49.32A1.84,1.84,0,0,0,147,190.28Z" transform="translate(-56.69 -133.23)"/><path class="cls-1" d="M154.08,188.36h.48v3.82h-.48v-1.82h-2v1.82h-.47v-3.82H152V190h2Z" transform="translate(-56.69 -133.23)"/><path class="cls-1" d="M161.17,190.27a3.29,3.29,0,0,1-.09.79,2,2,0,0,1-.27.63,1.26,1.26,0,0,1-.43.43,1.23,1.23,0,0,1-.61.15,1.09,1.09,0,0,1-.55-.13,1,1,0,0,1-.37-.34h0v2h-.47v-2h0a1.09,1.09,0,0,1-.92.47,1.2,1.2,0,0,1-.61-.15,1.29,1.29,0,0,1-.44-.43,2,2,0,0,1-.27-.63,3.56,3.56,0,0,1,0-1.59,2,2,0,0,1,.25-.64,1.19,1.19,0,0,1,1.07-.56,1,1,0,0,1,.31,0,1,1,0,0,1,.26.12,1.08,1.08,0,0,1,.2.16.8.8,0,0,1,.15.17h0v-2.2h.47v2.2h0a.55.55,0,0,1,.14-.17,1.16,1.16,0,0,1,.21-.16,1,1,0,0,1,.25-.12,1.08,1.08,0,0,1,.32,0,1.25,1.25,0,0,1,.63.15,1.33,1.33,0,0,1,.44.41,2.19,2.19,0,0,1,.25.64A3.94,3.94,0,0,1,161.17,190.27Zm-2.8-.93a1.35,1.35,0,0,0-.32-.48.75.75,0,0,0-.52-.19.73.73,0,0,0-.47.15,1.12,1.12,0,0,0-.31.37,1.75,1.75,0,0,0-.16.52,3.16,3.16,0,0,0,0,1.12,1.61,1.61,0,0,0,.16.51.94.94,0,0,0,.3.38.76.76,0,0,0,.48.15.72.72,0,0,0,.52-.2,1.27,1.27,0,0,0,.32-.46Zm2.3.93a3.64,3.64,0,0,0,0-.56,1.77,1.77,0,0,0-.17-.52,1.09,1.09,0,0,0-.3-.37.76.76,0,0,0-.48-.15.77.77,0,0,0-.52.19,1.33,1.33,0,0,0-.31.48v1.87a1.25,1.25,0,0,0,.31.46.73.73,0,0,0,.52.2.73.73,0,0,0,.48-.15,1.06,1.06,0,0,0,.31-.38,1.91,1.91,0,0,0,.16-.51A3.64,3.64,0,0,0,160.67,190.27Z" transform="translate(-56.69 -133.23)"/><path class="cls-1" d="M162.85,190.37a1.67,1.67,0,0,0,.09.55,1.41,1.41,0,0,0,.25.47,1.3,1.3,0,0,0,.42.32,1.26,1.26,0,0,0,.57.12l.26,0a1.27,1.27,0,0,0,.28-.06l.27-.08.22-.11,0,.47a3.77,3.77,0,0,1-.6.16,3.26,3.26,0,0,1-.58.06,1.8,1.8,0,0,1-.71-.14,1.37,1.37,0,0,1-.55-.4,1.77,1.77,0,0,1-.34-.62,2.68,2.68,0,0,1-.12-.83,2.53,2.53,0,0,1,.12-.8,1.88,1.88,0,0,1,.35-.62,1.52,1.52,0,0,1,.53-.4,1.75,1.75,0,0,1,.7-.14,1.3,1.3,0,0,1,1.09.49,2.09,2.09,0,0,1,.39,1.35v.24Zm2.21-.37a1.74,1.74,0,0,0-.07-.53,1.22,1.22,0,0,0-.21-.41.9.9,0,0,0-.74-.35,1,1,0,0,0-.81.35,1.49,1.49,0,0,0-.35.94Z" transform="translate(-56.69 -133.23)"/><path class="cls-1" d="M167.19,191.3a3.41,3.41,0,0,0,.18-.48,4.34,4.34,0,0,0,.09-.59c0-.23,0-.5,0-.82v-1h2.37v3.41h.55v1.69h-.48v-1.28H167v1.28h-.47v-1.69h.42A4,4,0,0,0,167.19,191.3Zm2.19-2.53h-1.44v.78a7.59,7.59,0,0,1-.09,1.22,2.31,2.31,0,0,1-.41,1h1.94Z" transform="translate(-56.69 -133.23)"/><path class="cls-1" d="M171.94,190.37a1.67,1.67,0,0,0,.09.55,1.41,1.41,0,0,0,.25.47,1.3,1.3,0,0,0,.42.32,1.26,1.26,0,0,0,.57.12l.26,0a1.27,1.27,0,0,0,.28-.06l.27-.08.22-.11,0,.47a3.77,3.77,0,0,1-.6.16,3.26,3.26,0,0,1-.58.06,1.8,1.8,0,0,1-.71-.14,1.37,1.37,0,0,1-.55-.4,1.77,1.77,0,0,1-.34-.62,2.68,2.68,0,0,1-.12-.83,2.53,2.53,0,0,1,.12-.8,1.88,1.88,0,0,1,.35-.62,1.52,1.52,0,0,1,.53-.4,1.75,1.75,0,0,1,.7-.14,1.3,1.3,0,0,1,1.09.49,2.09,2.09,0,0,1,.39,1.35v.24Zm2.21-.37a1.74,1.74,0,0,0-.07-.53,1.22,1.22,0,0,0-.21-.41.9.9,0,0,0-.74-.35,1,1,0,0,0-.81.35,1.49,1.49,0,0,0-.35.94Z" transform="translate(-56.69 -133.23)"/><path class="cls-1" d="M176,193.76v-5.4h.45v.72a1.63,1.63,0,0,1,.51-.58,1.3,1.3,0,0,1,.75-.19,1.43,1.43,0,0,1,.71.17,1.45,1.45,0,0,1,.49.43,2,2,0,0,1,.27.62,2.84,2.84,0,0,1,.09.72,3.08,3.08,0,0,1-.08.75,1.63,1.63,0,0,1-.27.63,1.35,1.35,0,0,1-.47.45,1.57,1.57,0,0,1-1.46,0,1.19,1.19,0,0,1-.51-.57v2.27Zm1.66-5a1,1,0,0,0-.88.42,1.91,1.91,0,0,0-.32,1.17,2.67,2.67,0,0,0,.07.55,1.67,1.67,0,0,0,.22.49,1.16,1.16,0,0,0,.38.35,1,1,0,0,0,.54.13.9.9,0,0,0,.8-.41,2,2,0,0,0,.29-1.15,1.93,1.93,0,0,0-.28-1.15A1,1,0,0,0,177.69,188.72Z" transform="translate(-56.69 -133.23)"/><path class="cls-1" d="M183,192.18v-.67a1.24,1.24,0,0,1-.23.32,1.4,1.4,0,0,1-.32.22,1.66,1.66,0,0,1-.37.14,1.72,1.72,0,0,1-.39,0,1.24,1.24,0,0,1-.87-.3,1.07,1.07,0,0,1-.32-.81,1.05,1.05,0,0,1,.51-.94,3,3,0,0,1,1.51-.31H183v-.06a1.27,1.27,0,0,0-.21-.83.91.91,0,0,0-.71-.24,1.88,1.88,0,0,0-.57.09,1.73,1.73,0,0,0-.51.25v-.5a2.27,2.27,0,0,1,.57-.2,2.48,2.48,0,0,1,.61-.07,1.3,1.3,0,0,1,.94.32,1.16,1.16,0,0,1,.34.91v2c0,.12,0,.23,0,.35l0,.34Zm0-1.92h-.28l-.51,0a2.35,2.35,0,0,0-.54.11,1.09,1.09,0,0,0-.44.27.69.69,0,0,0-.17.48.64.64,0,0,0,.21.51.85.85,0,0,0,.6.19,1.13,1.13,0,0,0,.45-.09,1.18,1.18,0,0,0,.37-.24.8.8,0,0,0,.18-.27,1.18,1.18,0,0,0,.08-.31,1.84,1.84,0,0,0,0-.33C183,190.47,183,190.36,183,190.26Z" transform="translate(-56.69 -133.23)"/><path class="cls-1" d="M185.16,192.18v-3.82h.48v3.41h2v-3.41h.47v3.41h.54v1.69h-.48v-1.28Z" transform="translate(-56.69 -133.23)"/><path class="cls-1" d="M190,186.7h.55v.65H190Zm0,1.66h.47v3.82H190Z" transform="translate(-56.69 -133.23)"/><path class="cls-1" d="M194.44,192.18v-1.63h-.71a1.13,1.13,0,0,0-.35,0,.58.58,0,0,0-.23.13,1,1,0,0,0-.18.22l-.16.29-.48.94h-.57l.59-1.11a3.78,3.78,0,0,1,.19-.33,1.26,1.26,0,0,1,.16-.2l.15-.09.18-.06a1.59,1.59,0,0,1-.42-.14,1.37,1.37,0,0,1-.29-.24,1,1,0,0,1-.23-.6,1,1,0,0,1,.34-.77,1.27,1.27,0,0,1,.86-.28h1.62v3.82Zm0-3.42h-1.1a.75.75,0,0,0-.56.18.72.72,0,0,0-.17.5.67.67,0,0,0,.21.52,1.07,1.07,0,0,0,.73.19h.89Z" transform="translate(-56.69 -133.23)"/><path class="cls-2" d="M78,135a28.67,28.67,0,0,0-10.61-1.74h0A28.67,28.67,0,0,0,56.73,135s-.36,7.69,1.15,12a16.09,16.09,0,0,0,9.46,9.8h0a16.09,16.09,0,0,0,9.46-9.8C78.31,142.66,78,135,78,135Z" transform="translate(-56.69 -133.23)"/><polygon class="cls-3" points="17.7 8.37 17.7 12.61 12.76 12.61 12.76 17.56 8.52 17.56 8.52 12.61 3.57 12.61 3.57 8.37 8.52 8.37 8.52 3.43 12.76 3.43 12.76 8.37 17.7 8.37"/></svg>