<?xml version="1.0" encoding="utf-8"?>
<!-- Generator: Adobe Illustrator 23.0.6, SVG Export Plug-In . SVG Version: 6.00 Build 0)  -->
<svg version="1.1" id="Layer_1" xmlns="http://www.w3.org/2000/svg" xmlns:xlink="http://www.w3.org/1999/xlink" x="0px" y="0px"
	 viewBox="0 0 366.1 382.7" style="enable-background:new 0 0 366.1 382.7;" xml:space="preserve">
<style type="text/css">
	.st0{fill:#7500FF;}
</style>
<g>
	<g>
		<path class="st0" d="M300.8,112.4c-1.7,1.7-1.7,4.4,0,6.1c1.7,1.7,4.4,1.7,6.1,0c1.7-1.7,1.7-4.4,0-6.1
			C305.2,110.8,302.5,110.8,300.8,112.4"/>
		<path class="st0" d="M285.3,106.6c-1.7,1.7-1.7,4.4,0,6.1c1.7,1.7,4.4,1.7,6.1,0c1.7-1.7,1.7-4.4,0-6.1
			C289.7,104.9,287,104.9,285.3,106.6"/>
		<path class="st0" d="M269.8,102.7c-1.7,1.7-1.7,4.4,0,6.1c1.7,1.7,4.4,1.7,6.1,0c1.7-1.7,1.7-4.4,0-6.1
			C274.2,101,271.5,101,269.8,102.7"/>
		<path class="st0" d="M255.1,100.7c-1.7,1.7-1.7,4.4,0,6.1c1.7,1.7,4.4,1.7,6.1,0c1.7-1.7,1.7-4.4,0-6.1
			C259.6,99,256.8,99,255.1,100.7"/>
		<path class="st0" d="M247.1,107.8c1.7-1.7,1.7-4.4,0-6.1c-1.7-1.7-4.4-1.7-6.1,0c-1.7,1.7-1.7,4.4,0,6.1
			C242.6,109.4,245.4,109.5,247.1,107.8"/>
		<path class="st0" d="M228.8,102.8c-1.7,1.7-1.7,4.4,0,6.1c1.7,1.7,4.4,1.7,6.1,0c1.7-1.7,1.7-4.4,0-6.1
			C233.3,101.1,230.5,101.1,228.8,102.8"/>
		<path class="st0" d="M215.6,105.3c-1.7,1.7-1.7,4.4,0,6.1c1.7,1.7,4.4,1.7,6.1,0c1.7-1.7,1.7-4.4,0-6.1
			C220.1,103.6,217.3,103.6,215.6,105.3"/>
		<path class="st0" d="M204.9,111.4c-1.7,1.7-1.7,4.4,0,6.1c1.7,1.7,4.4,1.7,6.1,0c1.7-1.7,1.7-4.4,0-6.1
			C209.4,109.7,206.6,109.7,204.9,111.4"/>
		<path class="st0" d="M195.7,118.4c-1.7,1.7-1.7,4.4,0,6.1c1.7,1.7,4.4,1.7,6.1,0c1.7-1.7,1.7-4.4,0-6.1
			C200.2,116.7,197.4,116.7,195.7,118.4"/>
		<path class="st0" d="M187.5,125.8c-1.7,1.7-1.7,4.4,0,6.1c1.7,1.7,4.4,1.7,6.1,0c1.7-1.7,1.7-4.4,0-6.1
			C192,124.1,189.2,124.1,187.5,125.8"/>
		<path class="st0" d="M181.6,133.2c-1.7,1.7-1.7,4.4,0,6.1c1.7,1.7,4.4,1.7,6.1,0c1.7-1.7,1.7-4.4,0-6.1
			C186,131.5,183.3,131.5,181.6,133.2"/>
		<path class="st0" d="M183.4,147.3c1.7-1.7,1.7-4.4,0-6.1s-4.4-1.7-6.1,0c-1.7,1.7-1.7,4.4,0,6.1C179,149,181.7,149,183.4,147.3"/>
		<path class="st0" d="M289.7,89.8c-2-1.3-4.7-0.8-6,1.2c-1.3,2-0.8,4.7,1.2,6c2,1.3,4.7,0.8,6-1.2
			C292.2,93.9,291.7,91.2,289.7,89.8"/>
		<path class="st0" d="M273.4,87.1c-2-1.3-4.7-0.8-6,1.2c-1.3,2-0.8,4.7,1.2,6s4.7,0.8,6-1.2C275.9,91.1,275.4,88.4,273.4,87.1"/>
		<path class="st0" d="M251.4,87.5c-1.3,2-0.8,4.7,1.2,6c2,1.3,4.7,0.8,6-1.2c1.3-2,0.8-4.7-1.2-6C255.4,85,252.7,85.5,251.4,87.5"
			/>
		<path class="st0" d="M242.6,87.2c-2-1.3-4.7-0.8-6,1.2c-1.3,2-0.8,4.7,1.2,6c2,1.3,4.7,0.8,6-1.2
			C245.2,91.2,244.6,88.5,242.6,87.2"/>
		<path class="st0" d="M229,90.9c-2-1.3-4.7-0.8-6,1.2c-1.3,2-0.8,4.7,1.2,6c2,1.3,4.7,0.8,6-1.2C231.5,94.9,230.9,92.2,229,90.9"/>
		<path class="st0" d="M217.3,94.4c-2-1.3-4.7-0.8-6,1.2c-1.3,2-0.8,4.7,1.2,6c2,1.3,4.7,0.8,6-1.2
			C219.8,98.5,219.2,95.8,217.3,94.4"/>
		<path class="st0" d="M198.8,100.6c-1.3,2-0.8,4.7,1.2,6c2,1.3,4.7,0.8,6-1.2c1.3-2,0.8-4.7-1.2-6
			C202.8,98.1,200.1,98.6,198.8,100.6"/>
		<path class="st0" d="M195.5,107.5c-2-1.3-4.7-0.8-6,1.2c-1.3,2-0.8,4.7,1.2,6c2,1.3,4.7,0.8,6-1.2
			C198.1,111.6,197.5,108.9,195.5,107.5"/>
		<path class="st0" d="M187.9,116.1c-2-1.3-4.7-0.8-6,1.2c-1.3,2-0.8,4.7,1.2,6c2,1.3,4.7,0.8,6-1.2
			C190.4,120.2,189.9,117.5,187.9,116.1"/>
		<path class="st0" d="M181.3,125c-2-1.3-4.7-0.8-6,1.2c-1.3,2-0.8,4.7,1.2,6c2,1.3,4.7,0.8,6-1.2C183.8,129,183.3,126.4,181.3,125"
			/>
		<path class="st0" d="M170.8,134.6c-1.3,2-0.8,4.7,1.2,6c2,1.3,4.7,0.8,6-1.2c1.3-2,0.8-4.7-1.2-6
			C174.9,132.1,172.2,132.7,170.8,134.6"/>
		<path class="st0" d="M168.2,143.3c-1.3,2-0.8,4.7,1.2,6c2,1.3,4.7,0.8,6-1.2c1.3-2,0.8-4.7-1.2-6
			C172.2,140.7,169.5,141.3,168.2,143.3"/>
		<path class="st0" d="M265.1,79c2.2,0.9,4.8-0.1,5.7-2.3c0.9-2.2-0.1-4.8-2.3-5.7c-2.2-0.9-4.8,0.1-5.7,2.3
			C261.8,75.6,262.9,78.1,265.1,79"/>
		<path class="st0" d="M254.2,77.2c0.9-2.2-0.1-4.8-2.3-5.7c-2.2-0.9-4.8,0.1-5.7,2.3c-0.9,2.2,0.1,4.8,2.3,5.7
			C250.7,80.5,253.3,79.4,254.2,77.2"/>
		<path class="st0" d="M236.1,73.9c-2.2-0.9-4.8,0.1-5.7,2.3c-0.9,2.2,0.1,4.8,2.3,5.7c2.2,0.9,4.8-0.1,5.7-2.3
			C239.3,77.3,238.3,74.8,236.1,73.9"/>
		<path class="st0" d="M216.1,79.9c-0.9,2.2,0.1,4.8,2.3,5.7c2.2,0.9,4.8-0.1,5.7-2.3c0.9-2.2-0.1-4.8-2.3-5.7
			C219.5,76.7,217,77.7,216.1,79.9"/>
		<path class="st0" d="M203.4,86.2c-0.9,2.2,0.1,4.8,2.3,5.7c2.2,0.9,4.8-0.1,5.7-2.3c0.9-2.2-0.1-4.8-2.3-5.7
			C206.8,83,204.3,84,203.4,86.2"/>
		<path class="st0" d="M198.3,89.6c-2.2-0.9-4.8,0.1-5.7,2.3c-0.9,2.2,0.1,4.8,2.3,5.7c2.2,0.9,4.8-0.1,5.7-2.3
			C201.5,93.1,200.5,90.6,198.3,89.6"/>
		<path class="st0" d="M181.4,99.3c-0.9,2.2,0.1,4.8,2.3,5.7c2.2,0.9,4.8-0.1,5.7-2.3c0.9-2.2-0.1-4.8-2.3-5.7
			C184.8,96,182.3,97.1,181.4,99.3"/>
		<path class="st0" d="M179.5,106.7c-2.2-0.9-4.8,0.1-5.7,2.3c-0.9,2.2,0.1,4.8,2.3,5.7c2.2,0.9,4.8-0.1,5.7-2.3
			C182.8,110.2,181.8,107.7,179.5,106.7"/>
		<path class="st0" d="M168,119c-0.9,2.2,0.1,4.8,2.3,5.7s4.8-0.1,5.7-2.3c0.9-2.2-0.1-4.8-2.3-5.7C171.5,115.7,168.9,116.8,168,119
			"/>
		<path class="st0" d="M163.3,129c-0.9,2.2,0.1,4.8,2.3,5.7s4.8-0.1,5.7-2.3c0.9-2.2-0.1-4.8-2.3-5.7S164.2,126.8,163.3,129"/>
		<path class="st0" d="M166.3,135.8c-2.2-0.9-4.8,0.1-5.7,2.3c-0.9,2.2,0.1,4.8,2.3,5.7c2.2,0.9,4.8-0.1,5.7-2.3
			C169.5,139.3,168.5,136.7,166.3,135.8"/>
		<path class="st0" d="M167.7,150.4c0.9-2.2-0.1-4.8-2.3-5.7c-2.2-0.9-4.8,0.1-5.7,2.3c-0.9,2.2,0.1,4.8,2.3,5.7
			S166.8,152.7,167.7,150.4"/>
		<path class="st0" d="M243.9,56.7c-2.4-0.5-4.6,1-5.1,3.4c-0.5,2.4,1,4.6,3.4,5.1c2.4,0.5,4.6-1,5.1-3.4
			C247.8,59.5,246.3,57.2,243.9,56.7"/>
		<path class="st0" d="M227.8,60.4c-2.4-0.5-4.6,1-5.1,3.4c-0.5,2.4,1,4.6,3.4,5.1c2.4,0.5,4.6-1,5.1-3.4
			C231.6,63.2,230.1,60.9,227.8,60.4"/>
		<path class="st0" d="M207.6,69.2c-0.5,2.4,1,4.6,3.4,5.1c2.4,0.5,4.6-1,5.1-3.4c0.5-2.4-1-4.6-3.4-5.1
			C210.4,65.3,208.1,66.8,207.6,69.2"/>
		<path class="st0" d="M197.7,80.8c2.4,0.5,4.6-1,5.1-3.4c0.5-2.4-1-4.6-3.4-5.1c-2.4-0.5-4.6,1-5.1,3.4
			C193.8,78,195.3,80.3,197.7,80.8"/>
		<path class="st0" d="M186.5,89.4c2.4,0.5,4.6-1,5.1-3.4c0.5-2.4-1-4.6-3.4-5.1c-2.4-0.5-4.6,1-5.1,3.4
			C182.6,86.6,184.1,88.9,186.5,89.4"/>
		<path class="st0" d="M178.7,88.7c-2.4-0.5-4.6,1-5.1,3.4c-0.5,2.4,1,4.6,3.4,5.1c2.4,0.5,4.6-1,5.1-3.4
			C182.6,91.4,181.1,89.1,178.7,88.7"/>
		<path class="st0" d="M169.1,98c-2.4-0.5-4.6,1-5.1,3.4c-0.5,2.4,1,4.6,3.4,5.1c2.4,0.5,4.6-1,5.1-3.4
			C173,100.8,171.5,98.5,169.1,98"/>
		<path class="st0" d="M163.7,109.1c-2.4-0.5-4.6,1-5.1,3.4c-0.5,2.4,1,4.6,3.4,5.1c2.4,0.5,4.6-1,5.1-3.4
			C167.6,111.8,166,109.6,163.7,109.1"/>
		<path class="st0" d="M159.9,119.9c-2.4-0.5-4.6,1-5.1,3.4c-0.5,2.4,1,4.6,3.4,5.1c2.4,0.5,4.6-1,5.1-3.4
			C163.7,122.7,162.2,120.4,159.9,119.9"/>
		<path class="st0" d="M152.1,134.1c-0.5,2.4,1,4.6,3.4,5.1c2.4,0.5,4.6-1,5.1-3.4c0.5-2.4-1-4.6-3.4-5.1
			C154.8,130.2,152.5,131.7,152.1,134.1"/>
		<path class="st0" d="M154.6,148.7c2.4,0.5,4.6-1,5.1-3.4c0.5-2.4-1-4.6-3.4-5.1c-2.4-0.5-4.6,1-5.1,3.4
			C150.7,145.9,152.3,148.2,154.6,148.7"/>
		<path class="st0" d="M160.6,154.3c0.5-2.4-1-4.6-3.4-5.1c-2.4-0.5-4.6,1-5.1,3.4c-0.5,2.4,1,4.6,3.4,5.1
			C157.8,158.1,160.1,156.6,160.6,154.3"/>
		<path class="st0" d="M217,47.4c-2.4,0-4.3,1.9-4.4,4.3c0,2.4,1.9,4.3,4.3,4.4s4.3-1.9,4.4-4.3C221.4,49.4,219.4,47.4,217,47.4"/>
		<path class="st0" d="M201.9,62.9c2.4,0,4.3-1.9,4.4-4.3c0-2.4-1.9-4.4-4.3-4.4c-2.4,0-4.3,1.9-4.4,4.3
			C197.6,61,199.5,62.9,201.9,62.9"/>
		<path class="st0" d="M188.2,62.5c-2.4,0-4.3,1.9-4.4,4.3c0,2.4,1.9,4.3,4.3,4.4s4.3-1.9,4.4-4.3C192.6,64.4,190.6,62.5,188.2,62.5
			"/>
		<path class="st0" d="M176.4,71.4c-2.4,0-4.3,1.9-4.4,4.3c0,2.4,1.9,4.3,4.3,4.4s4.3-1.9,4.4-4.3C180.8,73.3,178.8,71.4,176.4,71.4
			"/>
		<path class="st0" d="M167.1,82c-2.4,0-4.4,1.9-4.4,4.3c0,2.4,1.9,4.3,4.3,4.4s4.3-1.9,4.4-4.3C171.4,84,169.5,82.1,167.1,82"/>
		<path class="st0" d="M159.4,91.5c-2.4,0-4.4,1.9-4.4,4.3c0,2.4,1.9,4.3,4.3,4.4s4.3-1.9,4.4-4.3C163.7,93.5,161.8,91.5,159.4,91.5
			"/>
		<path class="st0" d="M151.8,102.5c-2.4,0-4.3,1.9-4.4,4.3c0,2.4,1.9,4.3,4.3,4.4s4.3-1.9,4.4-4.3
			C156.1,104.5,154.2,102.5,151.8,102.5"/>
		<path class="st0" d="M144.2,118.8c0,2.4,1.9,4.3,4.3,4.4c2.4,0,4.3-1.9,4.4-4.3c0-2.4-1.9-4.4-4.3-4.4
			C146.2,114.5,144.2,116.4,144.2,118.8"/>
		<path class="st0" d="M147,125.9c-2.4,0-4.4,1.9-4.4,4.3c0,2.4,1.9,4.3,4.3,4.4c2.4,0,4.3-1.9,4.4-4.3
			C151.3,127.8,149.4,125.9,147,125.9"/>
		<path class="st0" d="M146.4,145.6c2.4,0,4.3-1.9,4.4-4.3c0-2.4-1.9-4.4-4.3-4.4c-2.4,0-4.4,1.9-4.4,4.3
			C142.1,143.7,144,145.6,146.4,145.6"/>
		<path class="st0" d="M147.4,146.4c-2.4,0-4.3,1.9-4.4,4.3c0,2.4,1.9,4.3,4.3,4.4c2.4,0,4.3-1.9,4.4-4.3S149.8,146.4,147.4,146.4"
			/>
		<path class="st0" d="M154.4,159.4c0-2.4-1.9-4.3-4.3-4.4c-2.4,0-4.3,1.9-4.4,4.3c0,2.4,1.9,4.3,4.3,4.4S154.4,161.8,154.4,159.4"
			/>
		<path class="st0" d="M185.5,48.7c0.5,2.4,2.7,3.9,5.1,3.4s3.9-2.7,3.4-5.1c-0.5-2.4-2.7-3.9-5.1-3.4
			C186.5,44.1,185,46.3,185.5,48.7"/>
		<path class="st0" d="M177.1,61.7c2.4-0.5,3.9-2.7,3.4-5.1c-0.5-2.4-2.7-3.9-5.1-3.4c-2.4,0.5-3.9,2.7-3.4,5.1
			C172.4,60.7,174.7,62.2,177.1,61.7"/>
		<path class="st0" d="M163.6,63.9c-2.4,0.5-3.9,2.7-3.4,5.1s2.7,3.9,5.1,3.4c2.4-0.5,3.9-2.7,3.4-5.1
			C168.2,65,165.9,63.5,163.6,63.9"/>
		<path class="st0" d="M153.7,75c-2.4,0.5-3.9,2.7-3.4,5.1s2.7,3.9,5.1,3.4s3.9-2.7,3.4-5.1C158.4,76.1,156.1,74.5,153.7,75"/>
		<path class="st0" d="M143.2,92.4c0.5,2.4,2.7,3.9,5.1,3.4c2.4-0.5,3.9-2.7,3.4-5.1c-0.5-2.4-2.7-3.9-5.1-3.4
			C144.3,87.7,142.8,90,143.2,92.4"/>
		<path class="st0" d="M140.9,98.1c-2.4,0.5-3.9,2.7-3.4,5.1s2.7,3.9,5.1,3.4s3.9-2.7,3.4-5.1C145.6,99.1,143.3,97.6,140.9,98.1"/>
		<path class="st0" d="M135.6,110.4c-2.4,0.5-3.9,2.7-3.4,5.1s2.7,3.9,5.1,3.4s3.9-2.7,3.4-5.1C140.3,111.4,138,109.9,135.6,110.4"
			/>
		<path class="st0" d="M131.4,127.8c0.5,2.4,2.7,3.9,5.1,3.4s3.9-2.7,3.4-5.1c-0.5-2.4-2.7-3.9-5.1-3.4
			C132.5,123.2,130.9,125.4,131.4,127.8"/>
		<path class="st0" d="M135.5,134.2c-2.4,0.5-3.9,2.7-3.4,5.1c0.5,2.4,2.7,3.9,5.1,3.4c2.4-0.5,3.9-2.7,3.4-5.1
			C140.1,135.3,137.8,133.7,135.5,134.2"/>
		<path class="st0" d="M137.1,145.1c-2.4,0.5-3.9,2.7-3.4,5.1s2.7,3.9,5.1,3.4s3.9-2.7,3.4-5.1C141.7,146.2,139.4,144.7,137.1,145.1
			"/>
		<path class="st0" d="M139.9,154.2c-2.4,0.5-3.9,2.7-3.4,5.1s2.7,3.9,5.1,3.4s3.9-2.7,3.4-5.1C144.6,155.3,142.3,153.8,139.9,154.2
			"/>
		<path class="st0" d="M149.3,165.6c-0.5-2.4-2.7-3.9-5.1-3.4c-2.4,0.5-3.9,2.7-3.4,5.1s2.7,3.9,5.1,3.4
			C148.2,170.2,149.7,168,149.3,165.6"/>
		<path class="st0" d="M160.5,45.3c-2.2,0.9-3.3,3.4-2.4,5.7c0.9,2.2,3.4,3.3,5.7,2.4c2.2-0.9,3.3-3.4,2.4-5.7
			C165.3,45.5,162.8,44.4,160.5,45.3"/>
		<path class="st0" d="M149.2,57.4c-2.2,0.9-3.3,3.4-2.4,5.7c0.9,2.2,3.4,3.3,5.7,2.4c2.2-0.9,3.3-3.4,2.4-5.7
			C153.9,57.5,151.4,56.5,149.2,57.4"/>
		<path class="st0" d="M139.7,70.2c-2.2,0.9-3.3,3.5-2.4,5.7c0.9,2.2,3.4,3.3,5.7,2.4c2.2-0.9,3.3-3.4,2.4-5.7
			C144.4,70.4,141.9,69.3,139.7,70.2"/>
		<path class="st0" d="M129.8,88.6c0.9,2.2,3.4,3.3,5.7,2.4c2.2-0.9,3.3-3.4,2.4-5.7c-0.9-2.2-3.4-3.3-5.7-2.4
			C130,83.9,128.9,86.4,129.8,88.6"/>
		<path class="st0" d="M127.6,96.4c-2.2,0.9-3.3,3.5-2.4,5.7c0.9,2.2,3.4,3.3,5.7,2.4c2.2-0.9,3.3-3.4,2.4-5.7
			C132.4,96.6,129.9,95.5,127.6,96.4"/>
		<path class="st0" d="M121.7,113.8c0.9,2.2,3.4,3.3,5.7,2.4c2.2-0.9,3.3-3.4,2.4-5.7c-0.9-2.2-3.4-3.3-5.7-2.4
			C121.9,109,120.8,111.6,121.7,113.8"/>
		<path class="st0" d="M121.3,121.2c-2.2,0.9-3.3,3.5-2.4,5.7c0.9,2.2,3.4,3.3,5.7,2.4s3.3-3.5,2.4-5.7
			C126.1,121.4,123.5,120.3,121.3,121.2"/>
		<path class="st0" d="M122.9,133.4c-2.2,0.9-3.3,3.5-2.4,5.7c0.9,2.2,3.4,3.3,5.7,2.4c2.2-0.9,3.3-3.4,2.4-5.7
			C127.7,133.6,125.2,132.5,122.9,133.4"/>
		<path class="st0" d="M125.8,144.6c-2.2,0.9-3.3,3.4-2.4,5.7c0.9,2.2,3.4,3.3,5.7,2.4s3.3-3.4,2.4-5.7
			C130.6,144.7,128,143.7,125.8,144.6"/>
		<path class="st0" d="M129.5,155c-2.2,0.9-3.3,3.5-2.4,5.7c0.9,2.2,3.4,3.3,5.7,2.4c2.2-0.9,3.3-3.4,2.4-5.7
			C134.3,155.2,131.8,154.1,129.5,155"/>
		<path class="st0" d="M134.1,163.4c-2.2,0.9-3.3,3.5-2.4,5.7c0.9,2.2,3.4,3.3,5.7,2.4c2.2-0.9,3.3-3.4,2.4-5.7
			C138.9,163.5,136.3,162.5,134.1,163.4"/>
		<path class="st0" d="M145.5,172.7c-0.9-2.2-3.5-3.3-5.7-2.4c-2.2,0.9-3.3,3.4-2.4,5.7c0.9,2.2,3.4,3.3,5.7,2.4
			C145.3,177.5,146.4,174.9,145.5,172.7"/>
		<path class="st0" d="M133.1,52.5c-2,1.3-2.5,4-1.2,6c1.3,2,4,2.5,6,1.2c2-1.3,2.5-4,1.2-6C137.8,51.8,135.1,51.2,133.1,52.5"/>
		<path class="st0" d="M123.1,72.6c1.3,2,4,2.5,6,1.2c2-1.3,2.5-4,1.2-6c-1.3-2-4-2.5-6-1.2C122.3,67.9,121.7,70.6,123.1,72.6"/>
		<path class="st0" d="M117.4,81c-2,1.3-2.5,4-1.2,6c1.3,2,4,2.5,6,1.2c2-1.3,2.5-4,1.2-6C122.1,80.3,119.4,79.7,117.4,81"/>
		<path class="st0" d="M112.6,95c-2,1.3-2.5,4-1.2,6c1.3,2,4,2.5,6,1.2c2-1.3,2.5-4,1.2-6C117.3,94.2,114.6,93.7,112.6,95"/>
		<path class="st0" d="M115.6,116.3c2-1.3,2.5-4,1.2-6c-1.3-2-4-2.5-6-1.2c-2,1.3-2.5,4-1.2,6C110.9,117.1,113.6,117.6,115.6,116.3"
			/>
		<path class="st0" d="M108.4,127.3c1.3,2,4,2.5,6,1.2c2-1.3,2.5-4,1.2-6c-1.3-2-4-2.5-6-1.2C107.6,122.6,107,125.3,108.4,127.3"/>
		<path class="st0" d="M108.2,140.6c1.3,2,4,2.5,6,1.2c2-1.3,2.5-4,1.2-6c-1.3-2-4-2.5-6-1.2C107.4,135.9,106.9,138.6,108.2,140.6"
			/>
		<path class="st0" d="M113.4,146.3c-2,1.3-2.5,4-1.2,6c1.3,2,4,2.5,6,1.2c2-1.3,2.5-4,1.2-6C118.1,145.5,115.4,145,113.4,146.3"/>
		<path class="st0" d="M118.4,156.7c-2,1.3-2.5,4-1.2,6c1.3,2,4,2.5,6,1.2c2-1.3,2.5-4,1.2-6C123.1,155.9,120.4,155.4,118.4,156.7"
			/>
		<path class="st0" d="M124.1,166.2c-2,1.3-2.5,4-1.2,6c1.3,2,4,2.5,6,1.2c2-1.3,2.5-4,1.2-6C128.8,165.4,126.1,164.9,124.1,166.2"
			/>
		<path class="st0" d="M129,179.5c1.3,2,4,2.5,6,1.2c2-1.3,2.5-4,1.2-6c-1.3-2-4-2.5-6-1.2C128.2,174.8,127.6,177.5,129,179.5"/>
		<path class="st0" d="M143.2,180.4c-1.3-2-4-2.5-6-1.2c-2,1.3-2.5,4-1.2,6c1.3,2,4,2.5,6,1.2C143.9,185.1,144.5,182.4,143.2,180.4"
			/>
		<path class="st0" d="M107.5,65c-1.7,1.7-1.7,4.4,0,6.1c1.7,1.7,4.4,1.7,6.1,0c1.7-1.7,1.7-4.4,0-6.1C112,63.3,109.2,63.3,107.5,65
			"/>
		<path class="st0" d="M101.7,80.5c-1.7,1.7-1.7,4.4,0,6.1c1.7,1.7,4.4,1.7,6.1,0c1.7-1.7,1.7-4.4,0-6.1
			C106.1,78.8,103.4,78.8,101.7,80.5"/>
		<path class="st0" d="M97.8,102.1c1.7,1.7,4.4,1.7,6.1,0c1.7-1.7,1.7-4.4,0-6.1c-1.7-1.7-4.4-1.7-6.1,0
			C96.1,97.7,96.1,100.4,97.8,102.1"/>
		<path class="st0" d="M95.7,116.8c1.7,1.7,4.4,1.7,6.1,0c1.7-1.7,1.7-4.4,0-6.1c-1.7-1.7-4.4-1.7-6.1,0
			C94,112.3,94,115.1,95.7,116.8"/>
		<path class="st0" d="M102.8,130.9c1.7-1.7,1.7-4.4,0-6.1c-1.7-1.7-4.4-1.7-6.1,0c-1.7,1.7-1.7,4.4,0,6.1
			C98.4,132.6,101.1,132.6,102.8,130.9"/>
		<path class="st0" d="M104,143.1c1.7-1.7,1.7-4.4,0-6.1c-1.7-1.7-4.4-1.7-6.1,0c-1.7,1.7-1.7,4.4,0,6.1
			C99.6,144.8,102.3,144.8,104,143.1"/>
		<path class="st0" d="M100.3,150.1c-1.7,1.7-1.7,4.4,0,6.1c1.7,1.7,4.4,1.7,6.1,0c1.7-1.7,1.7-4.4,0-6.1
			C104.8,148.4,102,148.4,100.3,150.1"/>
		<path class="st0" d="M106.5,160.8c-1.7,1.7-1.7,4.4,0,6.1c1.7,1.7,4.4,1.7,6.1,0c1.7-1.7,1.7-4.4,0-6.1
			C111,159.1,108.2,159.1,106.5,160.8"/>
		<path class="st0" d="M113.4,176.1c1.7,1.7,4.4,1.7,6.1,0c1.7-1.7,1.7-4.4,0-6.1c-1.7-1.7-4.4-1.7-6.1,0
			C111.7,171.7,111.7,174.4,113.4,176.1"/>
		<path class="st0" d="M120.9,178.2c-1.7,1.7-1.7,4.4,0,6.1c1.7,1.7,4.4,1.7,6.1,0c1.7-1.7,1.7-4.4,0-6.1
			C125.3,176.5,122.6,176.5,120.9,178.2"/>
		<path class="st0" d="M128.3,184.2c-1.7,1.7-1.7,4.4,0,6.1c1.7,1.7,4.4,1.7,6.1,0c1.7-1.7,1.7-4.4,0-6.1
			C132.7,182.5,130,182.5,128.3,184.2"/>
		<path class="st0" d="M136.2,188.4c-1.7,1.7-1.7,4.4,0,6.1c1.7,1.7,4.4,1.7,6.1,0c1.7-1.7,1.7-4.4,0-6.1
			C140.7,186.7,137.9,186.7,136.2,188.4"/>
		<path class="st0" d="M86.1,88.2c2,1.3,4.7,0.8,6-1.2c1.3-2,0.8-4.7-1.2-6c-2-1.3-4.7-0.8-6,1.2C83.6,84.2,84.1,86.9,86.1,88.2"/>
		<path class="st0" d="M88.2,97.3c-2-1.3-4.7-0.8-6,1.2c-1.3,2-0.8,4.7,1.2,6c2,1.3,4.7,0.8,6-1.2C90.7,101.4,90.2,98.7,88.2,97.3"
			/>
		<path class="st0" d="M82.6,120.5c2,1.3,4.7,0.8,6-1.2c1.3-2,0.8-4.7-1.2-6c-2-1.3-4.7-0.8-6,1.2C80,116.5,80.6,119.2,82.6,120.5"
			/>
		<path class="st0" d="M88.3,128.1c-2-1.3-4.7-0.8-6,1.2c-1.3,2-0.8,4.7,1.2,6c2,1.3,4.7,0.8,6-1.2
			C90.8,132.1,90.3,129.4,88.3,128.1"/>
		<path class="st0" d="M92,141.7c-2-1.3-4.7-0.8-6,1.2c-1.3,2-0.8,4.7,1.2,6c2,1.3,4.7,0.8,6-1.2C94.5,145.8,94,143.1,92,141.7"/>
		<path class="st0" d="M89.5,154.6c-1.3,2-0.8,4.7,1.2,6c2,1.3,4.7,0.8,6-1.2c1.3-2,0.8-4.7-1.2-6C93.5,152.1,90.8,152.6,89.5,154.6
			"/>
		<path class="st0" d="M94.5,167.1c-1.3,2-0.8,4.7,1.2,6c2,1.3,4.7,0.8,6-1.2c1.3-2,0.8-4.7-1.2-6C98.5,164.5,95.8,165.1,94.5,167.1
			"/>
		<path class="st0" d="M102.6,176.3c-1.3,2-0.8,4.7,1.2,6c2,1.3,4.7,0.8,6-1.2c1.3-2,0.8-4.7-1.2-6
			C106.6,173.8,103.9,174.3,102.6,176.3"/>
		<path class="st0" d="M111.2,184c-1.3,2-0.8,4.7,1.2,6c2,1.3,4.7,0.8,6-1.2c1.3-2,0.8-4.7-1.2-6C115.2,181.5,112.5,182,111.2,184"
			/>
		<path class="st0" d="M121.3,196.6c2,1.3,4.7,0.8,6-1.2c1.3-2,0.8-4.7-1.2-6c-2-1.3-4.7-0.8-6,1.2
			C118.7,192.6,119.3,195.3,121.3,196.6"/>
		<path class="st0" d="M129.7,201.1c2,1.3,4.7,0.8,6-1.2c1.3-2,0.8-4.7-1.2-6c-2-1.3-4.7-0.8-6,1.2
			C127.2,197,127.7,199.7,129.7,201.1"/>
		<path class="st0" d="M138.3,203.7c2,1.3,4.7,0.8,6-1.2c1.3-2,0.8-4.7-1.2-6c-2-1.3-4.7-0.8-6,1.2
			C135.8,199.6,136.3,202.3,138.3,203.7"/>
		<path class="st0" d="M71.8,101.1c-2.2-0.9-4.8,0.1-5.7,2.3c-0.9,2.2,0.1,4.8,2.3,5.7c2.2,0.9,4.8-0.1,5.7-2.3
			C75,104.6,74,102,71.8,101.1"/>
		<path class="st0" d="M72.3,117.7c-2.2-0.9-4.8,0.1-5.7,2.3c-0.9,2.2,0.1,4.8,2.3,5.7c2.2,0.9,4.8-0.1,5.7-2.3
			C75.5,121.1,74.5,118.6,72.3,117.7"/>
		<path class="st0" d="M74.6,133.5c-2.2-0.9-4.8,0.1-5.7,2.3c-0.9,2.2,0.1,4.8,2.3,5.7c2.2,0.9,4.8-0.1,5.7-2.3
			C77.9,137,76.8,134.4,74.6,133.5"/>
		<path class="st0" d="M78.3,147.8c-2.2-0.9-4.8,0.1-5.7,2.3c-0.9,2.2,0.1,4.8,2.3,5.7c2.2,0.9,4.8-0.1,5.7-2.3
			C81.6,151.3,80.5,148.7,78.3,147.8"/>
		<path class="st0" d="M87,166.2c0.9-2.2-0.1-4.8-2.3-5.7c-2.2-0.9-4.8,0.1-5.7,2.3c-0.9,2.2,0.1,4.8,2.3,5.7
			C83.5,169.4,86,168.4,87,166.2"/>
		<path class="st0" d="M87.1,179.3c2.2,0.9,4.8-0.1,5.7-2.3c0.9-2.2-0.1-4.8-2.3-5.7c-2.2-0.9-4.8,0.1-5.7,2.3
			C83.8,175.8,84.8,178.4,87.1,179.3"/>
		<path class="st0" d="M94.3,190.5c2.2,0.9,4.8-0.1,5.7-2.3c0.9-2.2-0.1-4.8-2.3-5.7c-2.2-0.9-4.8,0.1-5.7,2.3
			C91.1,187,92.1,189.6,94.3,190.5"/>
		<path class="st0" d="M104.1,198c2.2,0.9,4.8-0.1,5.7-2.3c0.9-2.2-0.1-4.8-2.3-5.7c-2.2-0.9-4.8,0.1-5.7,2.3
			C100.9,194.6,101.9,197.1,104.1,198"/>
		<path class="st0" d="M119.7,201.5c0.9-2.2-0.1-4.8-2.3-5.7c-2.2-0.9-4.8,0.1-5.7,2.3c-0.9,2.2,0.1,4.8,2.3,5.7
			C116.3,204.8,118.8,203.8,119.7,201.5"/>
		<path class="st0" d="M124.1,208.6c2.2,0.9,4.8-0.1,5.7-2.3c0.9-2.2-0.1-4.8-2.3-5.7c-2.2-0.9-4.8,0.1-5.7,2.3
			C120.8,205.2,121.8,207.7,124.1,208.6"/>
		<path class="st0" d="M138.9,209c0.9-2.2-0.1-4.8-2.3-5.7c-2.2-0.9-4.8,0.1-5.7,2.3c-0.9,2.2,0.1,4.8,2.3,5.7
			C135.4,212.2,138,211.2,138.9,209"/>
		<path class="st0" d="M147.8,209.9c0.9-2.2-0.1-4.8-2.3-5.7c-2.2-0.9-4.8,0.1-5.7,2.3c-0.9,2.2,0.1,4.8,2.3,5.7
			C144.4,213.1,146.9,212.1,147.8,209.9"/>
		<path class="st0" d="M56.9,124.6c-2.4-0.5-4.6,1-5.1,3.4c-0.5,2.4,1,4.6,3.4,5.1c2.4,0.5,4.6-1,5.1-3.4
			C60.8,127.3,59.2,125.1,56.9,124.6"/>
		<path class="st0" d="M60.6,140.7c-2.4-0.5-4.6,1-5.1,3.4c-0.5,2.4,1,4.6,3.4,5.1c2.4,0.5,4.6-1,5.1-3.4
			C64.5,143.5,63,141.2,60.6,140.7"/>
		<path class="st0" d="M60.9,159.2c-0.5,2.4,1,4.6,3.4,5.1c2.4,0.5,4.6-1,5.1-3.4c0.5-2.4-1-4.6-3.4-5.1
			C63.6,155.3,61.3,156.8,60.9,159.2"/>
		<path class="st0" d="M72.4,169.1c-2.4-0.5-4.6,1-5.1,3.4c-0.5,2.4,1,4.6,3.4,5.1c2.4,0.5,4.6-1,5.1-3.4
			C76.3,171.8,74.8,169.6,72.4,169.1"/>
		<path class="st0" d="M79.4,188.8c2.4,0.5,4.6-1,5.1-3.4s-1-4.6-3.4-5.1c-2.4-0.5-4.6,1-5.1,3.4C75.5,186.1,77,188.4,79.4,188.8"/>
		<path class="st0" d="M92.2,194.9c0.5-2.4-1-4.6-3.4-5.1c-2.4-0.5-4.6,1-5.1,3.4c-0.5,2.4,1,4.6,3.4,5.1
			C89.5,198.8,91.8,197.2,92.2,194.9"/>
		<path class="st0" d="M96.5,207.9c2.4,0.5,4.6-1,5.1-3.4s-1-4.6-3.4-5.1c-2.4-0.5-4.6,1-5.1,3.4C92.6,205.1,94.1,207.4,96.5,207.9"
			/>
		<path class="st0" d="M107.5,213.3c2.4,0.5,4.6-1,5.1-3.4c0.5-2.4-1-4.6-3.4-5.1c-2.4-0.5-4.6,1-5.1,3.4
			C103.7,210.6,105.2,212.8,107.5,213.3"/>
		<path class="st0" d="M118.4,217.1c2.4,0.5,4.6-1,5.1-3.4s-1-4.6-3.4-5.1c-2.4-0.5-4.6,1-5.1,3.4
			C114.5,214.4,116.1,216.7,118.4,217.1"/>
		<path class="st0" d="M129.1,219.8c2.4,0.5,4.6-1,5.1-3.4c0.5-2.4-1-4.6-3.4-5.1c-2.4-0.5-4.6,1-5.1,3.4
			C125.3,217.1,126.8,219.4,129.1,219.8"/>
		<path class="st0" d="M138.6,220.7c2.4,0.5,4.6-1,5.1-3.4c0.5-2.4-1-4.6-3.4-5.1c-2.4-0.5-4.6,1-5.1,3.4
			C134.8,217.9,136.3,220.2,138.6,220.7"/>
		<path class="st0" d="M147.6,219.8c2.4,0.5,4.6-1,5.1-3.4c0.5-2.4-1-4.6-3.4-5.1c-2.4-0.5-4.6,1-5.1,3.4
			C143.7,217,145.2,219.3,147.6,219.8"/>
		<path class="st0" d="M46.9,150.5c-2.4,0-4.4,1.9-4.4,4.3c0,2.4,1.9,4.3,4.3,4.4c2.4,0,4.3-1.9,4.4-4.3S49.3,150.5,46.9,150.5"/>
		<path class="st0" d="M49.3,169.9c0,2.4,1.9,4.3,4.3,4.4c2.4,0,4.3-1.9,4.4-4.3s-1.9-4.3-4.3-4.4C51.3,165.6,49.3,167.5,49.3,169.9
			"/>
		<path class="st0" d="M66.2,183.7c0-2.4-1.9-4.3-4.3-4.4c-2.4,0-4.3,1.9-4.4,4.3c0,2.4,1.9,4.3,4.3,4.4
			C64.2,188,66.2,186.1,66.2,183.7"/>
		<path class="st0" d="M70.8,199.8c2.4,0,4.3-1.9,4.4-4.3c0-2.4-1.9-4.3-4.3-4.4c-2.4,0-4.3,1.9-4.4,4.3
			C66.4,197.8,68.4,199.8,70.8,199.8"/>
		<path class="st0" d="M85.8,204.8c0-2.4-1.9-4.3-4.3-4.4c-2.4,0-4.3,1.9-4.4,4.3c0,2.4,1.9,4.3,4.3,4.4
			C83.8,209.1,85.8,207.2,85.8,204.8"/>
		<path class="st0" d="M90.9,216.9c2.4,0,4.3-1.9,4.4-4.3c0-2.4-1.9-4.4-4.3-4.4c-2.4,0-4.3,1.9-4.4,4.3
			C86.6,214.9,88.5,216.9,90.9,216.9"/>
		<path class="st0" d="M101.9,224.5c2.4,0,4.3-1.9,4.4-4.3c0-2.4-1.9-4.4-4.3-4.4c-2.4,0-4.3,1.9-4.4,4.3
			C97.6,222.5,99.5,224.5,101.9,224.5"/>
		<path class="st0" d="M118.2,223.3c0-2.4-1.9-4.3-4.3-4.4c-2.4,0-4.3,1.9-4.4,4.3c0,2.4,1.9,4.3,4.3,4.4S118.2,225.7,118.2,223.3"
			/>
		<path class="st0" d="M129.6,224.9c0-2.4-1.9-4.4-4.3-4.4c-2.4,0-4.3,1.9-4.4,4.3c0,2.4,1.9,4.3,4.3,4.4
			C127.7,229.3,129.6,227.3,129.6,224.9"/>
		<path class="st0" d="M140.7,225.5c0-2.4-1.9-4.3-4.3-4.4c-2.4,0-4.3,1.9-4.4,4.3c0,2.4,1.9,4.3,4.3,4.4
			C138.7,229.8,140.7,227.9,140.7,225.5"/>
		<path class="st0" d="M150.2,224.5c0-2.4-1.9-4.3-4.3-4.4c-2.4,0-4.3,1.9-4.4,4.3c0,2.4,1.9,4.3,4.3,4.4S150.2,226.9,150.2,224.5"
			/>
		<path class="st0" d="M154.4,226.2c2.4,0,4.3-1.9,4.4-4.3c0-2.4-1.9-4.4-4.3-4.4c-2.4,0-4.4,1.9-4.4,4.3
			C150.1,224.2,152,226.2,154.4,226.2"/>
		<path class="st0" d="M38.7,183c0.5,2.4,2.7,3.9,5.1,3.4c2.4-0.5,3.9-2.7,3.4-5.1c-0.5-2.4-2.7-3.9-5.1-3.4
			C39.7,178.3,38.2,180.6,38.7,183"/>
		<path class="st0" d="M51.7,191.4c-2.4,0.5-3.9,2.7-3.4,5.1c0.5,2.4,2.7,3.9,5.1,3.4c2.4-0.5,3.9-2.7,3.4-5.1
			C56.3,192.5,54.1,190.9,51.7,191.4"/>
		<path class="st0" d="M64.1,211.8c2.4-0.5,3.9-2.7,3.4-5.1c-0.5-2.4-2.7-3.9-5.1-3.4c-2.4,0.5-3.9,2.7-3.4,5.1
			C59.5,210.7,61.8,212.2,64.1,211.8"/>
		<path class="st0" d="M75.2,221.6c2.4-0.5,3.9-2.7,3.4-5.1c-0.5-2.4-2.7-3.9-5.1-3.4c-2.4,0.5-3.9,2.7-3.4,5.1
			C70.5,220.5,72.8,222,75.2,221.6"/>
		<path class="st0" d="M90.9,223.5c-0.5-2.4-2.7-3.9-5.1-3.4c-2.4,0.5-3.9,2.7-3.4,5.1c0.5,2.4,2.7,3.9,5.1,3.4
			C89.8,228.2,91.3,225.9,90.9,223.5"/>
		<path class="st0" d="M101.7,229.3c-0.5-2.4-2.7-3.9-5.1-3.4c-2.4,0.5-3.9,2.7-3.4,5.1c0.5,2.4,2.7,3.9,5.1,3.4
			C100.6,233.9,102.1,231.7,101.7,229.3"/>
		<path class="st0" d="M114,234.6c-0.5-2.4-2.7-3.9-5.1-3.4c-2.4,0.5-3.9,2.7-3.4,5.1c0.5,2.4,2.7,3.9,5.1,3.4
			C112.9,239.2,114.4,236.9,114,234.6"/>
		<path class="st0" d="M126.3,235.4c-0.5-2.4-2.7-3.9-5.1-3.4c-2.4,0.5-3.9,2.7-3.4,5.1c0.5,2.4,2.7,3.9,5.1,3.4
			C125.2,240,126.7,237.7,126.3,235.4"/>
		<path class="st0" d="M137.8,234.7c-0.5-2.4-2.7-3.9-5.1-3.4s-3.9,2.7-3.4,5.1c0.5,2.4,2.7,3.9,5.1,3.4
			C136.7,239.4,138.2,237.1,137.8,234.7"/>
		<path class="st0" d="M145.3,238.2c2.4-0.5,3.9-2.7,3.4-5.1c-0.5-2.4-2.7-3.9-5.1-3.4c-2.4,0.5-3.9,2.7-3.4,5.1
			C140.7,237.2,143,238.7,145.3,238.2"/>
		<path class="st0" d="M154.4,235.4c2.4-0.5,3.9-2.7,3.4-5.1c-0.5-2.4-2.7-3.9-5.1-3.4c-2.4,0.5-3.9,2.7-3.4,5.1
			C149.8,234.3,152.1,235.8,154.4,235.4"/>
		<path class="st0" d="M162.3,231.1c2.4-0.5,3.9-2.7,3.4-5.1c-0.5-2.4-2.7-3.9-5.1-3.4c-2.4,0.5-3.9,2.7-3.4,5.1
			C157.7,230.1,160,231.6,162.3,231.1"/>
		<path class="st0" d="M46.1,213.7c2.2-0.9,3.3-3.4,2.4-5.7c-0.9-2.2-3.4-3.3-5.7-2.4c-2.2,0.9-3.3,3.4-2.4,5.7
			C41.3,213.6,43.8,214.6,46.1,213.7"/>
		<path class="st0" d="M58.1,225.1c2.2-0.9,3.3-3.4,2.4-5.7c-0.9-2.2-3.4-3.3-5.7-2.4c-2.2,0.9-3.3,3.4-2.4,5.7
			C53.4,224.9,55.9,226,58.1,225.1"/>
		<path class="st0" d="M73.3,228.9c-0.9-2.2-3.5-3.3-5.7-2.4c-2.2,0.9-3.3,3.4-2.4,5.7c0.9,2.2,3.4,3.3,5.7,2.4
			C73.2,233.7,74.2,231.1,73.3,228.9"/>
		<path class="st0" d="M86.1,236.4c-0.9-2.2-3.5-3.3-5.7-2.4c-2.2,0.9-3.3,3.4-2.4,5.7c0.9,2.2,3.4,3.3,5.7,2.4
			C85.9,241.2,87,238.6,86.1,236.4"/>
		<path class="st0" d="M97.1,246.6c2.2-0.9,3.3-3.4,2.4-5.7c-0.9-2.2-3.4-3.3-5.7-2.4c-2.2,0.9-3.3,3.4-2.4,5.7
			C92.4,246.5,94.9,247.5,97.1,246.6"/>
		<path class="st0" d="M108.8,250.1c2.2-0.9,3.3-3.4,2.4-5.7s-3.4-3.3-5.7-2.4c-2.2,0.9-3.3,3.4-2.4,5.7
			C104.1,250,106.6,251.1,108.8,250.1"/>
		<path class="st0" d="M118.6,244.9c-2.2,0.9-3.3,3.4-2.4,5.7c0.9,2.2,3.4,3.3,5.7,2.4c2.2-0.9,3.3-3.4,2.4-5.7
			C123.4,245,120.9,244,118.6,244.9"/>
		<path class="st0" d="M134.2,251.3c2.2-0.9,3.3-3.4,2.4-5.7c-0.9-2.2-3.4-3.3-5.7-2.4c-2.2,0.9-3.3,3.4-2.4,5.7
			C129.4,251.2,132,252.2,134.2,251.3"/>
		<path class="st0" d="M145.3,248.4c2.2-0.9,3.3-3.4,2.4-5.7c-0.9-2.2-3.4-3.3-5.7-2.4c-2.2,0.9-3.3,3.4-2.4,5.7
			C140.6,248.3,143.1,249.3,145.3,248.4"/>
		<path class="st0" d="M155.8,244.7c2.2-0.9,3.3-3.4,2.4-5.7c-0.9-2.2-3.4-3.3-5.7-2.4c-2.2,0.9-3.3,3.4-2.4,5.7
			C151,244.6,153.5,245.6,155.8,244.7"/>
		<path class="st0" d="M164.1,240.1c2.2-0.9,3.3-3.4,2.4-5.7c-0.9-2.2-3.4-3.3-5.7-2.4c-2.2,0.9-3.3,3.4-2.4,5.7
			C159.4,240,161.9,241.1,164.1,240.1"/>
		<path class="st0" d="M171.1,234.4c2.2-0.9,3.3-3.4,2.4-5.7c-0.9-2.2-3.4-3.3-5.7-2.4c-2.2,0.9-3.3,3.4-2.4,5.7
			C166.3,234.3,168.9,235.4,171.1,234.4"/>
		<path class="st0" d="M53.6,240c2-1.3,2.5-4,1.2-6c-1.3-2-4-2.5-6-1.2c-2,1.3-2.5,4-1.2,6C48.9,240.8,51.6,241.4,53.6,240"/>
		<path class="st0" d="M68.9,242.8c-1.3-2-4-2.5-6-1.2c-2,1.3-2.5,4-1.2,6c1.3,2,4,2.5,6,1.2C69.7,247.5,70.2,244.8,68.9,242.8"/>
		<path class="st0" d="M83.3,249.6c-1.3-2-4-2.5-6-1.2c-2,1.3-2.5,4-1.2,6c1.3,2,4,2.5,6,1.2C84.1,254.3,84.7,251.6,83.3,249.6"/>
		<path class="st0" d="M96.1,260.5c2-1.3,2.5-4,1.2-6c-1.3-2-4-2.5-6-1.2c-2,1.3-2.5,4-1.2,6C91.4,261.3,94.1,261.8,96.1,260.5"/>
		<path class="st0" d="M110.2,262.3c2-1.3,2.5-4,1.2-6c-1.3-2-4-2.5-6-1.2c-2,1.3-2.5,4-1.2,6C105.5,263.1,108.2,263.7,110.2,262.3"
			/>
		<path class="st0" d="M122.3,263.5c2-1.3,2.5-4,1.2-6c-1.3-2-4-2.5-6-1.2c-2,1.3-2.5,4-1.2,6C117.6,264.3,120.3,264.8,122.3,263.5"
			/>
		<path class="st0" d="M135.7,263.7c2-1.3,2.5-4,1.2-6c-1.3-2-4-2.5-6-1.2c-2,1.3-2.5,4-1.2,6C131,264.5,133.7,265,135.7,263.7"/>
		<path class="st0" d="M147.4,259.7c2-1.3,2.5-4,1.2-6c-1.3-2-4-2.5-6-1.2c-2,1.3-2.5,4-1.2,6C142.7,260.5,145.4,261,147.4,259.7"/>
		<path class="st0" d="M157.8,254.7c2-1.3,2.5-4,1.2-6c-1.3-2-4-2.5-6-1.2c-2,1.3-2.5,4-1.2,6C153.1,255.5,155.8,256.1,157.8,254.7"
			/>
		<path class="st0" d="M167.3,249c2-1.3,2.5-4,1.2-6c-1.3-2-4-2.5-6-1.2c-2,1.3-2.5,4-1.2,6C162.6,249.8,165.3,250.4,167.3,249"/>
		<path class="st0" d="M174.6,242.9c2-1.3,2.5-4,1.2-6c-1.3-2-4-2.5-6-1.2c-2,1.3-2.5,4-1.2,6C169.9,243.7,172.6,244.3,174.6,242.9"
			/>
		<path class="st0" d="M174.3,234.8c1.3,2,4,2.5,6,1.2c2-1.3,2.5-4,1.2-6c-1.3-2-4-2.5-6-1.2C173.5,230.1,173,232.8,174.3,234.8"/>
		<path class="st0" d="M66.2,264.4c1.7-1.7,1.7-4.4,0-6.1c-1.7-1.7-4.4-1.7-6.1,0c-1.7,1.7-1.7,4.4,0,6.1
			C61.7,266,64.5,266.1,66.2,264.4"/>
		<path class="st0" d="M81.7,270.2c1.7-1.7,1.7-4.4,0-6.1c-1.7-1.7-4.4-1.7-6.1,0c-1.7,1.7-1.7,4.4,0,6.1
			C77.2,271.9,80,271.9,81.7,270.2"/>
		<path class="st0" d="M97.2,274.1c1.7-1.7,1.7-4.4,0-6.1c-1.7-1.7-4.4-1.7-6.1,0c-1.7,1.7-1.7,4.4,0,6.1
			C92.7,275.8,95.5,275.8,97.2,274.1"/>
		<path class="st0" d="M111.8,276.2c1.7-1.7,1.7-4.4,0-6.1c-1.7-1.7-4.4-1.7-6.1,0c-1.7,1.7-1.7,4.4,0,6.1
			C107.4,277.8,110.1,277.9,111.8,276.2"/>
		<path class="st0" d="M126,275.2c1.7-1.7,1.7-4.4,0-6.1c-1.7-1.7-4.4-1.7-6.1,0c-1.7,1.7-1.7,4.4,0,6.1
			C121.5,276.9,124.3,276.9,126,275.2"/>
		<path class="st0" d="M138.1,274c1.7-1.7,1.7-4.4,0-6.1c-1.7-1.7-4.4-1.7-6.1,0c-1.7,1.7-1.7,4.4,0,6.1
			C133.7,275.7,136.4,275.7,138.1,274"/>
		<path class="st0" d="M151.3,271.6c1.7-1.7,1.7-4.4,0-6.1c-1.7-1.7-4.4-1.7-6.1,0c-1.7,1.7-1.7,4.4,0,6.1
			C146.9,273.2,149.6,273.3,151.3,271.6"/>
		<path class="st0" d="M162,265.4c1.7-1.7,1.7-4.4,0-6.1c-1.7-1.7-4.4-1.7-6.1,0c-1.7,1.7-1.7,4.4,0,6.1
			C157.5,267.1,160.3,267.1,162,265.4"/>
		<path class="st0" d="M171.2,258.5c1.7-1.7,1.7-4.4,0-6.1c-1.7-1.7-4.4-1.7-6.1,0c-1.7,1.7-1.7,4.4,0,6.1
			C166.8,260.1,169.5,260.2,171.2,258.5"/>
		<path class="st0" d="M179.4,251c1.7-1.7,1.7-4.4,0-6.1c-1.7-1.7-4.4-1.7-6.1,0c-1.7,1.7-1.7,4.4,0,6.1
			C175,252.7,177.7,252.7,179.4,251"/>
		<path class="st0" d="M185.4,243.6c1.7-1.7,1.7-4.4,0-6.1c-1.7-1.7-4.4-1.7-6.1,0c-1.7,1.7-1.7,4.4,0,6.1
			C180.9,245.3,183.7,245.3,185.4,243.6"/>
		<path class="st0" d="M189.6,235.7c1.7-1.7,1.7-4.4,0-6.1c-1.7-1.7-4.4-1.7-6.1,0c-1.7,1.7-1.7,4.4,0,6.1
			C185.2,237.4,187.9,237.4,189.6,235.7"/>
		<path class="st0" d="M77.2,287c2,1.3,4.7,0.8,6-1.2c1.3-2,0.8-4.7-1.2-6c-2-1.3-4.7-0.8-6,1.2C74.7,282.9,75.2,285.6,77.2,287"/>
		<path class="st0" d="M99.6,288.5c1.3-2,0.8-4.7-1.2-6c-2-1.3-4.7-0.8-6,1.2c-1.3,2-0.8,4.7,1.2,6C95.6,291,98.3,290.5,99.6,288.5"
			/>
		<path class="st0" d="M109.5,290.5c2,1.3,4.7,0.8,6-1.2c1.3-2,0.8-4.7-1.2-6c-2-1.3-4.7-0.8-6,1.2
			C107,286.5,107.6,289.2,109.5,290.5"/>
		<path class="st0" d="M124.3,289.6c2,1.3,4.7,0.8,6-1.2c1.3-2,0.8-4.7-1.2-6s-4.7-0.8-6,1.2C121.8,285.6,122.3,288.3,124.3,289.6"
			/>
		<path class="st0" d="M138,285.9c2,1.3,4.7,0.8,6-1.2c1.3-2,0.8-4.7-1.2-6c-2-1.3-4.7-0.8-6,1.2C135.5,281.9,136,284.6,138,285.9"
			/>
		<path class="st0" d="M155.7,281.2c1.3-2,0.8-4.7-1.2-6c-2-1.3-4.7-0.8-6,1.2c-1.3,2-0.8,4.7,1.2,6
			C151.7,283.7,154.4,283.2,155.7,281.2"/>
		<path class="st0" d="M162.1,277.4c2,1.3,4.7,0.8,6-1.2c1.3-2,0.8-4.7-1.2-6c-2-1.3-4.7-0.8-6,1.2
			C159.6,273.4,160.1,276.1,162.1,277.4"/>
		<path class="st0" d="M171.4,269.3c2,1.3,4.7,0.8,6-1.2c1.3-2,0.8-4.7-1.2-6c-2-1.3-4.7-0.8-6,1.2
			C168.9,265.2,169.4,267.9,171.4,269.3"/>
		<path class="st0" d="M179.1,260.7c2,1.3,4.7,0.8,6-1.2c1.3-2,0.8-4.7-1.2-6c-2-1.3-4.7-0.8-6,1.2
			C176.6,256.7,177.1,259.4,179.1,260.7"/>
		<path class="st0" d="M185.7,251.8c2,1.3,4.7,0.8,6-1.2c1.3-2,0.8-4.7-1.2-6c-2-1.3-4.7-0.8-6,1.2
			C183.2,247.8,183.7,250.5,185.7,251.8"/>
		<path class="st0" d="M196.1,242.2c1.3-2,0.8-4.7-1.2-6c-2-1.3-4.7-0.8-6,1.2c-1.3,2-0.8,4.7,1.2,6
			C192.1,244.7,194.8,244.2,196.1,242.2"/>
		<path class="st0" d="M198.7,233.6c1.3-2,0.8-4.7-1.2-6c-2-1.3-4.7-0.8-6,1.2c-1.3,2-0.8,4.7,1.2,6
			C194.7,236.1,197.4,235.6,198.7,233.6"/>
		<path class="st0" d="M96.2,300.1c-0.9,2.2,0.1,4.8,2.3,5.7c2.2,0.9,4.8-0.1,5.7-2.3c0.9-2.2-0.1-4.8-2.3-5.7
			C99.6,296.9,97.1,297.9,96.2,300.1"/>
		<path class="st0" d="M115.1,305.3c2.2,0.9,4.8-0.1,5.7-2.3c0.9-2.2-0.1-4.8-2.3-5.7c-2.2-0.9-4.8,0.1-5.7,2.3
			C111.8,301.8,112.9,304.4,115.1,305.3"/>
		<path class="st0" d="M130.9,303c2.2,0.9,4.8-0.1,5.7-2.3c0.9-2.2-0.1-4.8-2.3-5.7c-2.2-0.9-4.8,0.1-5.7,2.3
			C127.6,299.5,128.7,302,130.9,303"/>
		<path class="st0" d="M148.5,291.2c-2.2-0.9-4.8,0.1-5.7,2.3c-0.9,2.2,0.1,4.8,2.3,5.7c2.2,0.9,4.8-0.1,5.7-2.3
			C151.8,294.7,150.7,292.1,148.5,291.2"/>
		<path class="st0" d="M163.6,290.6c0.9-2.2-0.1-4.8-2.3-5.7c-2.2-0.9-4.8,0.1-5.7,2.3c-0.9,2.2,0.1,4.8,2.3,5.7
			C160.1,293.9,162.6,292.8,163.6,290.6"/>
		<path class="st0" d="M174.4,284.8c0.9-2.2-0.1-4.8-2.3-5.7c-2.2-0.9-4.8,0.1-5.7,2.3c-0.9,2.2,0.1,4.8,2.3,5.7
			C170.9,288.1,173.4,287.1,174.4,284.8"/>
		<path class="st0" d="M185.6,277.5c0.9-2.2-0.1-4.8-2.3-5.7c-2.2-0.9-4.8,0.1-5.7,2.3c-0.9,2.2,0.1,4.8,2.3,5.7
			C182.1,280.8,184.7,279.8,185.6,277.5"/>
		<path class="st0" d="M187.4,270.1c2.2,0.9,4.8-0.1,5.7-2.3c0.9-2.2-0.1-4.8-2.3-5.7c-2.2-0.9-4.8,0.1-5.7,2.3
			C184.2,266.6,185.2,269.2,187.4,270.1"/>
		<path class="st0" d="M198.9,257.8c0.9-2.2-0.1-4.8-2.3-5.7c-2.2-0.9-4.8,0.1-5.7,2.3c-0.9,2.2,0.1,4.8,2.3,5.7
			C195.5,261.1,198,260,198.9,257.8"/>
		<path class="st0" d="M203.7,247.8c0.9-2.2-0.1-4.8-2.3-5.7c-2.2-0.9-4.8,0.1-5.7,2.3c-0.9,2.2,0.1,4.8,2.3,5.7
			C200.2,251.1,202.8,250,203.7,247.8"/>
		<path class="st0" d="M200.7,241c2.2,0.9,4.8-0.1,5.7-2.3c0.9-2.2-0.1-4.8-2.3-5.7c-2.2-0.9-4.8,0.1-5.7,2.3
			C197.4,237.5,198.5,240.1,200.7,241"/>
		<path class="st0" d="M199.2,226.4c-0.9,2.2,0.1,4.8,2.3,5.7c2.2,0.9,4.8-0.1,5.7-2.3c0.9-2.2-0.1-4.8-2.3-5.7
			C202.7,223.1,200.2,224.2,199.2,226.4"/>
		<path class="st0" d="M123,320.1c2.4,0.5,4.6-1,5.1-3.4c0.5-2.4-1-4.6-3.4-5.1c-2.4-0.5-4.6,1-5.1,3.4
			C119.2,317.4,120.7,319.6,123,320.1"/>
		<path class="st0" d="M140.9,307.9c-2.4-0.5-4.6,1-5.1,3.4c-0.5,2.4,1,4.6,3.4,5.1c2.4,0.5,4.6-1,5.1-3.4
			C144.8,310.7,143.3,308.4,140.9,307.9"/>
		<path class="st0" d="M156,302.5c-2.4-0.5-4.6,1-5.1,3.4c-0.5,2.4,1,4.6,3.4,5.1c2.4,0.5,4.6-1,5.1-3.4
			C159.8,305.3,158.3,303,156,302.5"/>
		<path class="st0" d="M172.7,301.2c0.5-2.4-1-4.6-3.4-5.1c-2.4-0.5-4.6,1-5.1,3.4c-0.5,2.4,1,4.6,3.4,5.1
			C169.9,305.1,172.2,303.5,172.7,301.2"/>
		<path class="st0" d="M180.5,287.4c-2.4-0.5-4.6,1-5.1,3.4c-0.5,2.4,1,4.6,3.4,5.1c2.4,0.5,4.6-1,5.1-3.4
			C184.4,290.2,182.8,287.9,180.5,287.4"/>
		<path class="st0" d="M188.2,288.2c2.4,0.5,4.6-1,5.1-3.4c0.5-2.4-1-4.6-3.4-5.1c-2.4-0.5-4.6,1-5.1,3.4
			C184.3,285.4,185.9,287.7,188.2,288.2"/>
		<path class="st0" d="M197.8,278.8c2.4,0.5,4.6-1,5.1-3.4c0.5-2.4-1-4.6-3.4-5.1c-2.4-0.5-4.6,1-5.1,3.4
			C193.9,276.1,195.5,278.3,197.8,278.8"/>
		<path class="st0" d="M208.4,264.3c0.5-2.4-1-4.6-3.4-5.1c-2.4-0.5-4.6,1-5.1,3.4c-0.5,2.4,1,4.6,3.4,5.1
			C205.6,268.2,207.9,266.7,208.4,264.3"/>
		<path class="st0" d="M207.1,256.9c2.4,0.5,4.6-1,5.1-3.4c0.5-2.4-1-4.6-3.4-5.1c-2.4-0.5-4.6,1-5.1,3.4
			C203.2,254.1,204.7,256.4,207.1,256.9"/>
		<path class="st0" d="M209.8,246.1c2.4,0.5,4.6-1,5.1-3.4c0.5-2.4-1-4.6-3.4-5.1c-2.4-0.5-4.6,1-5.1,3.4
			C205.9,243.4,207.4,245.7,209.8,246.1"/>
		<path class="st0" d="M212.3,228.1c-2.4-0.5-4.6,1-5.1,3.4c-0.5,2.4,1,4.6,3.4,5.1c2.4,0.5,4.6-1,5.1-3.4
			C216.2,230.9,214.7,228.6,212.3,228.1"/>
		<path class="st0" d="M214.9,224.3c0.5-2.4-1-4.6-3.4-5.1c-2.4-0.5-4.6,1-5.1,3.4c-0.5,2.4,1,4.6,3.4,5.1
			C212.1,228.2,214.4,226.6,214.9,224.3"/>
		<path class="st0" d="M145.6,325c0,2.4,1.9,4.4,4.3,4.4c2.4,0,4.3-1.9,4.4-4.3c0-2.4-1.9-4.4-4.3-4.4S145.6,322.6,145.6,325"/>
		<path class="st0" d="M165,313.9c-2.4,0-4.3,1.9-4.4,4.3c0,2.4,1.9,4.3,4.3,4.4c2.4,0,4.3-1.9,4.4-4.3
			C169.4,315.9,167.4,313.9,165,313.9"/>
		<path class="st0" d="M178.7,314.4c2.4,0,4.3-1.9,4.4-4.3c0-2.4-1.9-4.4-4.3-4.4c-2.4,0-4.3,1.9-4.4,4.3
			C174.4,312.4,176.3,314.4,178.7,314.4"/>
		<path class="st0" d="M190.5,305.5c2.4,0,4.3-1.9,4.4-4.3c0-2.4-1.9-4.3-4.3-4.4c-2.4,0-4.3,1.9-4.4,4.3
			C186.2,303.5,188.1,305.5,190.5,305.5"/>
		<path class="st0" d="M204.2,290.4c0-2.4-1.9-4.4-4.3-4.4c-2.4,0-4.3,1.9-4.4,4.3c0,2.4,1.9,4.3,4.3,4.4
			C202.2,294.8,204.2,292.8,204.2,290.4"/>
		<path class="st0" d="M211.9,281c0-2.4-1.9-4.4-4.3-4.4c-2.4,0-4.3,1.9-4.4,4.3c0,2.4,1.9,4.3,4.3,4.4
			C210,285.3,211.9,283.4,211.9,281"/>
		<path class="st0" d="M215.2,274.3c2.4,0,4.3-1.9,4.4-4.3c0-2.4-1.9-4.4-4.3-4.4c-2.4,0-4.3,1.9-4.4,4.3
			C210.8,272.3,212.8,274.3,215.2,274.3"/>
		<path class="st0" d="M222.7,258c0-2.4-1.9-4.3-4.3-4.4c-2.4,0-4.3,1.9-4.4,4.3c0,2.4,1.9,4.3,4.3,4.4
			C220.8,262.4,222.7,260.4,222.7,258"/>
		<path class="st0" d="M224.3,246.6c0-2.4-1.9-4.3-4.3-4.4c-2.4,0-4.3,1.9-4.4,4.3c0,2.4,1.9,4.3,4.3,4.4
			C222.4,251,224.3,249,224.3,246.6"/>
		<path class="st0" d="M220.6,231.2c-2.4,0-4.3,1.9-4.4,4.3c0,2.4,1.9,4.3,4.3,4.4c2.4,0,4.3-1.9,4.4-4.3
			C224.9,233.2,223,231.2,220.6,231.2"/>
		<path class="st0" d="M219.5,230.4c2.4,0,4.3-1.9,4.4-4.3c0-2.4-1.9-4.4-4.3-4.4c-2.4,0-4.3,1.9-4.4,4.3
			C215.2,228.5,217.1,230.4,219.5,230.4"/>
		<path class="st0" d="M221.3,217.5c0-2.4-1.9-4.4-4.3-4.4c-2.4,0-4.3,1.9-4.4,4.3c0,2.4,1.9,4.3,4.3,4.4S221.3,219.9,221.3,217.5"
			/>
		<path class="st0" d="M181.5,328.1c-0.5-2.4-2.7-3.9-5.1-3.4s-3.9,2.7-3.4,5.1c0.5,2.4,2.7,3.9,5.1,3.4
			C180.4,332.8,181.9,330.5,181.5,328.1"/>
		<path class="st0" d="M189.9,315.1c-2.4,0.5-3.9,2.7-3.4,5.1c0.5,2.4,2.7,3.9,5.1,3.4c2.4-0.5,3.9-2.7,3.4-5.1
			C194.5,316.2,192.2,314.6,189.9,315.1"/>
		<path class="st0" d="M201.7,304.4c-2.4,0.5-3.9,2.7-3.4,5.1c0.5,2.4,2.7,3.9,5.1,3.4c2.4-0.5,3.9-2.7,3.4-5.1
			S204.1,303.9,201.7,304.4"/>
		<path class="st0" d="M213.2,301.8c2.4-0.5,3.9-2.7,3.4-5.1c-0.5-2.4-2.7-3.9-5.1-3.4c-2.4,0.5-3.9,2.7-3.4,5.1
			C208.6,300.8,210.9,302.3,213.2,301.8"/>
		<path class="st0" d="M223.7,284.4c-0.5-2.4-2.7-3.9-5.1-3.4s-3.9,2.7-3.4,5.1c0.5,2.4,2.7,3.9,5.1,3.4
			C222.6,289.1,224.2,286.8,223.7,284.4"/>
		<path class="st0" d="M226,278.8c2.4-0.5,3.9-2.7,3.4-5.1c-0.5-2.4-2.7-3.9-5.1-3.4c-2.4,0.5-3.9,2.7-3.4,5.1
			C221.4,277.7,223.7,279.2,226,278.8"/>
		<path class="st0" d="M231.3,266.5c2.4-0.5,3.9-2.7,3.4-5.1s-2.7-3.9-5.1-3.4c-2.4,0.5-3.9,2.7-3.4,5.1
			C226.7,265.4,229,266.9,231.3,266.5"/>
		<path class="st0" d="M235.5,249c-0.5-2.4-2.7-3.9-5.1-3.4s-3.9,2.7-3.4,5.1c0.5,2.4,2.7,3.9,5.1,3.4
			C234.5,253.7,236,251.4,235.5,249"/>
		<path class="st0" d="M229.8,234.1c-2.4,0.5-3.9,2.7-3.4,5.1s2.7,3.9,5.1,3.4c2.4-0.5,3.9-2.7,3.4-5.1S232.2,233.7,229.8,234.1"/>
		<path class="st0" d="M229.9,231.7c2.4-0.5,3.9-2.7,3.4-5.1c-0.5-2.4-2.7-3.9-5.1-3.4c-2.4,0.5-3.9,2.7-3.4,5.1
			C225.2,230.6,227.5,232.1,229.9,231.7"/>
		<path class="st0" d="M227,222.6c2.4-0.5,3.9-2.7,3.4-5.1c-0.5-2.4-2.7-3.9-5.1-3.4c-2.4,0.5-3.9,2.7-3.4,5.1
			C222.4,221.5,224.7,223,227,222.6"/>
		<path class="st0" d="M222.8,214.7c2.4-0.5,3.9-2.7,3.4-5.1s-2.7-3.9-5.1-3.4c-2.4,0.5-3.9,2.7-3.4,5.1
			C218.1,213.6,220.4,215.1,222.8,214.7"/>
		<path class="st0" d="M208.8,325.8c-0.9-2.2-3.5-3.3-5.7-2.4c-2.2,0.9-3.3,3.4-2.4,5.7c0.9,2.2,3.4,3.3,5.7,2.4
			C208.6,330.6,209.7,328.1,208.8,325.8"/>
		<path class="st0" d="M217.8,319.4c2.2-0.9,3.3-3.4,2.4-5.7c-0.9-2.2-3.4-3.3-5.7-2.4c-2.2,0.9-3.3,3.4-2.4,5.7
			C213,319.3,215.5,320.4,217.8,319.4"/>
		<path class="st0" d="M229.7,300.9c-0.9-2.2-3.5-3.3-5.7-2.4c-2.2,0.9-3.3,3.5-2.4,5.7c0.9,2.2,3.4,3.3,5.7,2.4
			C229.5,305.7,230.6,303.2,229.7,300.9"/>
		<path class="st0" d="M234.8,293.9c2.2-0.9,3.3-3.4,2.4-5.7c-0.9-2.2-3.4-3.3-5.7-2.4c-2.2,0.9-3.3,3.4-2.4,5.7
			C230,293.7,232.5,294.8,234.8,293.9"/>
		<path class="st0" d="M239.3,280.4c2.2-0.9,3.3-3.4,2.4-5.7c-0.9-2.2-3.4-3.3-5.7-2.4c-2.2,0.9-3.3,3.4-2.4,5.7
			C234.5,280.3,237.1,281.3,239.3,280.4"/>
		<path class="st0" d="M245.2,263.1c-0.9-2.2-3.5-3.3-5.7-2.4c-2.2,0.9-3.3,3.4-2.4,5.7c0.9,2.2,3.4,3.3,5.7,2.4
			C245.1,267.8,246.1,265.3,245.2,263.1"/>
		<path class="st0" d="M245.6,255.6c2.2-0.9,3.3-3.4,2.4-5.7c-0.9-2.2-3.4-3.3-5.7-2.4c-2.2,0.9-3.3,3.4-2.4,5.7
			C240.9,255.5,243.4,256.5,245.6,255.6"/>
		<path class="st0" d="M244,243.4c2.2-0.9,3.3-3.4,2.4-5.7c-0.9-2.2-3.4-3.3-5.7-2.4c-2.2,0.9-3.3,3.4-2.4,5.7
			C239.3,243.2,241.8,244.3,244,243.4"/>
		<path class="st0" d="M241.1,232.2c2.2-0.9,3.3-3.4,2.4-5.7c-0.9-2.2-3.4-3.3-5.7-2.4c-2.2,0.9-3.3,3.4-2.4,5.7
			C236.4,232.1,238.9,233.1,241.1,232.2"/>
		<path class="st0" d="M237.4,221.8c2.2-0.9,3.3-3.4,2.4-5.7c-0.9-2.2-3.4-3.3-5.7-2.4c-2.2,0.9-3.3,3.4-2.4,5.7
			C232.7,221.7,235.2,222.7,237.4,221.8"/>
		<path class="st0" d="M232.8,213.4c2.2-0.9,3.3-3.4,2.4-5.7c-0.9-2.2-3.4-3.3-5.7-2.4c-2.2,0.9-3.3,3.4-2.4,5.7
			C228.1,213.3,230.6,214.3,232.8,213.4"/>
		<path class="st0" d="M229.5,200.8c-0.9-2.2-3.5-3.3-5.7-2.4c-2.2,0.9-3.3,3.4-2.4,5.7c0.9,2.2,3.4,3.3,5.7,2.4
			C229.4,205.6,230.4,203,229.5,200.8"/>
		<path class="st0" d="M229.1,317.1c-2,1.3-2.5,4-1.2,6c1.3,2,4,2.5,6,1.2s2.5-4,1.2-6C233.8,316.3,231.1,315.7,229.1,317.1"/>
		<path class="st0" d="M243.9,304.2c-1.3-2-4-2.5-6-1.2c-2,1.3-2.5,4-1.2,6c1.3,2,4,2.5,6,1.2C244.7,308.9,245.2,306.2,243.9,304.2"
			/>
		<path class="st0" d="M249.5,295.8c2-1.3,2.5-4,1.2-6c-1.3-2-4-2.5-6-1.2c-2,1.3-2.5,4-1.2,6C244.8,296.6,247.5,297.1,249.5,295.8"
			/>
		<path class="st0" d="M254.3,281.8c2-1.3,2.5-4,1.2-6c-1.3-2-4-2.5-6-1.2c-2,1.3-2.5,4-1.2,6C249.7,282.6,252.3,283.2,254.3,281.8"
			/>
		<path class="st0" d="M251.4,260.5c-2,1.3-2.5,4-1.2,6c1.3,2,4,2.5,6,1.2c2-1.3,2.5-4,1.2-6C256.1,259.7,253.4,259.2,251.4,260.5"
			/>
		<path class="st0" d="M258.6,249.6c-1.3-2-4-2.5-6-1.2c-2,1.3-2.5,4-1.2,6c1.3,2,4,2.5,6,1.2C259.4,254.3,259.9,251.6,258.6,249.6"
			/>
		<path class="st0" d="M258.8,236.2c-1.3-2-4-2.5-6-1.2c-2,1.3-2.5,4-1.2,6c1.3,2,4,2.5,6,1.2C259.5,240.9,260.1,238.2,258.8,236.2"
			/>
		<path class="st0" d="M253.6,230.5c2-1.3,2.5-4,1.2-6c-1.3-2-4-2.5-6-1.2s-2.5,4-1.2,6C248.9,231.3,251.6,231.8,253.6,230.5"/>
		<path class="st0" d="M248.6,220.1c2-1.3,2.5-4,1.2-6c-1.3-2-4-2.5-6-1.2c-2,1.3-2.5,4-1.2,6C243.9,220.9,246.6,221.5,248.6,220.1"
			/>
		<path class="st0" d="M242.9,210.6c2-1.3,2.5-4,1.2-6c-1.3-2-4-2.5-6-1.2s-2.5,4-1.2,6C238.2,211.4,240.9,212,242.9,210.6"/>
		<path class="st0" d="M236.8,203.3c2-1.3,2.5-4,1.2-6c-1.3-2-4-2.5-6-1.2c-2,1.3-2.5,4-1.2,6C232.1,204.1,234.8,204.7,236.8,203.3"
			/>
		<path class="st0" d="M231,191.6c-1.3-2-4-2.5-6-1.2c-2,1.3-2.5,4-1.2,6c1.3,2,4,2.5,6,1.2C231.8,196.3,232.4,193.6,231,191.6"/>
		<path class="st0" d="M259.4,311.8c1.7-1.7,1.7-4.4,0-6.1c-1.7-1.7-4.4-1.7-6.1,0c-1.7,1.7-1.7,4.4,0,6.1
			C255,313.5,257.7,313.5,259.4,311.8"/>
		<path class="st0" d="M265.3,296.4c1.7-1.7,1.7-4.4,0-6.1c-1.7-1.7-4.4-1.7-6.1,0c-1.7,1.7-1.7,4.4,0,6.1
			C260.8,298,263.6,298,265.3,296.4"/>
		<path class="st0" d="M269.2,274.7c-1.7-1.7-4.4-1.7-6.1,0c-1.7,1.7-1.7,4.4,0,6.1c1.7,1.7,4.4,1.7,6.1,0
			C270.9,279.2,270.9,276.4,269.2,274.7"/>
		<path class="st0" d="M271.2,260.1c-1.7-1.7-4.4-1.7-6.1,0c-1.7,1.7-1.7,4.4,0,6.1c1.7,1.7,4.4,1.7,6.1,0
			C272.9,264.5,272.9,261.8,271.2,260.1"/>
		<path class="st0" d="M264.1,245.9c-1.7,1.7-1.7,4.4,0,6.1c1.7,1.7,4.4,1.7,6.1,0c1.7-1.7,1.7-4.4,0-6.1
			C268.6,244.2,265.8,244.2,264.1,245.9"/>
		<path class="st0" d="M262.9,233.7c-1.7,1.7-1.7,4.4,0,6.1c1.7,1.7,4.4,1.7,6.1,0c1.7-1.7,1.7-4.4,0-6.1
			C267.4,232,264.6,232,262.9,233.7"/>
		<path class="st0" d="M266.6,226.7c1.7-1.7,1.7-4.4,0-6.1c-1.7-1.7-4.4-1.7-6.1,0c-1.7,1.7-1.7,4.4,0,6.1
			C262.2,228.4,264.9,228.4,266.6,226.7"/>
		<path class="st0" d="M260.4,216c1.7-1.7,1.7-4.4,0-6.1c-1.7-1.7-4.4-1.7-6.1,0c-1.7,1.7-1.7,4.4,0,6.1
			C256,217.7,258.7,217.7,260.4,216"/>
		<path class="st0" d="M253.5,200.7c-1.7-1.7-4.4-1.7-6.1,0c-1.7,1.7-1.7,4.4,0,6.1c1.7,1.7,4.4,1.7,6.1,0
			C255.2,205.1,255.2,202.4,253.5,200.7"/>
		<path class="st0" d="M246.1,198.6c1.7-1.7,1.7-4.4,0-6.1c-1.7-1.7-4.4-1.7-6.1,0c-1.7,1.7-1.7,4.4,0,6.1
			C241.6,200.3,244.4,200.3,246.1,198.6"/>
		<path class="st0" d="M238.7,192.6c1.7-1.7,1.7-4.4,0-6.1c-1.7-1.7-4.4-1.7-6.1,0c-1.7,1.7-1.7,4.4,0,6.1
			C234.2,194.3,237,194.3,238.7,192.6"/>
		<path class="st0" d="M230.7,188.4c1.7-1.7,1.7-4.4,0-6.1c-1.7-1.7-4.4-1.7-6.1,0c-1.7,1.7-1.7,4.4,0,6.1
			C226.3,190.1,229,190.1,230.7,188.4"/>
		<path class="st0" d="M276,295.8c2,1.3,4.7,0.8,6-1.2c1.3-2,0.8-4.7-1.2-6c-2-1.3-4.7-0.8-6,1.2C273.5,291.8,274,294.5,276,295.8"
			/>
		<path class="st0" d="M284.8,278.3c1.3-2,0.8-4.7-1.2-6c-2-1.3-4.7-0.8-6,1.2c-1.3,2-0.8,4.7,1.2,6
			C280.7,280.8,283.4,280.3,284.8,278.3"/>
		<path class="st0" d="M284.4,256.3c-2-1.3-4.7-0.8-6,1.2c-1.3,2-0.8,4.7,1.2,6c2,1.3,4.7,0.8,6-1.2
			C286.9,260.4,286.4,257.7,284.4,256.3"/>
		<path class="st0" d="M283.5,241.6c-2-1.3-4.7-0.8-6,1.2c-1.3,2-0.8,4.7,1.2,6c2,1.3,4.7,0.8,6-1.2
			C286,245.6,285.5,242.9,283.5,241.6"/>
		<path class="st0" d="M275,235.1c2,1.3,4.7,0.8,6-1.2c1.3-2,0.8-4.7-1.2-6c-2-1.3-4.7-0.8-6,1.2C272.5,231.1,273,233.7,275,235.1"
			/>
		<path class="st0" d="M277.5,222.2c1.3-2,0.8-4.7-1.2-6c-2-1.3-4.7-0.8-6,1.2c-1.3,2-0.8,4.7,1.2,6
			C273.4,224.7,276.1,224.2,277.5,222.2"/>
		<path class="st0" d="M272.5,209.8c1.3-2,0.8-4.7-1.2-6c-2-1.3-4.7-0.8-6,1.2c-1.3,2-0.8,4.7,1.2,6
			C268.5,212.3,271.2,211.8,272.5,209.8"/>
		<path class="st0" d="M264.3,200.5c1.3-2,0.8-4.7-1.2-6c-2-1.3-4.7-0.8-6,1.2c-1.3,2-0.8,4.7,1.2,6
			C260.3,203,263,202.5,264.3,200.5"/>
		<path class="st0" d="M255.8,192.8c1.3-2,0.8-4.7-1.2-6c-2-1.3-4.7-0.8-6,1.2c-1.3,2-0.8,4.7,1.2,6
			C251.7,195.3,254.4,194.8,255.8,192.8"/>
		<path class="st0" d="M245.7,180.2c-2-1.3-4.7-0.8-6,1.2c-1.3,2-0.8,4.7,1.2,6c2,1.3,4.7,0.8,6-1.2
			C248.2,184.2,247.7,181.5,245.7,180.2"/>
		<path class="st0" d="M237.2,175.8c-2-1.3-4.7-0.8-6,1.2s-0.8,4.7,1.2,6c2,1.3,4.7,0.8,6-1.2C239.8,179.8,239.2,177.1,237.2,175.8"
			/>
		<path class="st0" d="M223.8,180.4c2,1.3,4.7,0.8,6-1.2c1.3-2,0.8-4.7-1.2-6c-2-1.3-4.7-0.8-6,1.2S221.8,179,223.8,180.4"/>
		<path class="st0" d="M295.2,275.7c2.2,0.9,4.8-0.1,5.7-2.3c0.9-2.2-0.1-4.8-2.3-5.7c-2.2-0.9-4.8,0.1-5.7,2.3
			C291.9,272.3,293,274.8,295.2,275.7"/>
		<path class="st0" d="M294.7,259.2c2.2,0.9,4.8-0.1,5.7-2.3c0.9-2.2-0.1-4.8-2.3-5.7c-2.2-0.9-4.8,0.1-5.7,2.3
			C291.4,255.7,292.5,258.2,294.7,259.2"/>
		<path class="st0" d="M298,241c0.9-2.2-0.1-4.8-2.3-5.7c-2.2-0.9-4.8,0.1-5.7,2.3c-0.9,2.2,0.1,4.8,2.3,5.7
			C294.6,244.3,297.1,243.2,298,241"/>
		<path class="st0" d="M294.3,226.7c0.9-2.2-0.1-4.8-2.3-5.7c-2.2-0.9-4.8,0.1-5.7,2.3c-0.9,2.2,0.1,4.8,2.3,5.7
			C290.8,230,293.4,228.9,294.3,226.7"/>
		<path class="st0" d="M288,214c0.9-2.2-0.1-4.8-2.3-5.7c-2.2-0.9-4.8,0.1-5.7,2.3c-0.9,2.2,0.1,4.8,2.3,5.7
			C284.5,217.3,287.1,216.2,288,214"/>
		<path class="st0" d="M276.6,205.6c2.2,0.9,4.8-0.1,5.7-2.3c0.9-2.2-0.1-4.8-2.3-5.7c-2.2-0.9-4.8,0.1-5.7,2.3
			C273.3,202.1,274.3,204.6,276.6,205.6"/>
		<path class="st0" d="M274.9,192c0.9-2.2-0.1-4.8-2.3-5.7c-2.2-0.9-4.8,0.1-5.7,2.3c-0.9,2.2,0.1,4.8,2.3,5.7
			C271.5,195.3,274,194.2,274.9,192"/>
		<path class="st0" d="M262.8,178.8c-2.2-0.9-4.8,0.1-5.7,2.3c-0.9,2.2,0.1,4.8,2.3,5.7c2.2,0.9,4.8-0.1,5.7-2.3
			C266.1,182.3,265,179.7,262.8,178.8"/>
		<path class="st0" d="M247.2,175.3c-0.9,2.2,0.1,4.8,2.3,5.7c2.2,0.9,4.8-0.1,5.7-2.3c0.9-2.2-0.1-4.8-2.3-5.7
			C250.7,172,248.1,173.1,247.2,175.3"/>
		<path class="st0" d="M242.9,168.2c-2.2-0.9-4.8,0.1-5.7,2.3c-0.9,2.2,0.1,4.8,2.3,5.7c2.2,0.9,4.8-0.1,5.7-2.3
			C246.2,171.7,245.1,169.1,242.9,168.2"/>
		<path class="st0" d="M228.1,167.9c-0.9,2.2,0.1,4.8,2.3,5.7c2.2,0.9,4.8-0.1,5.7-2.3c0.9-2.2-0.1-4.8-2.3-5.7
			C231.5,164.6,229,165.6,228.1,167.9"/>
		<path class="st0" d="M221.4,172.6c2.2,0.9,4.8-0.1,5.7-2.3c0.9-2.2-0.1-4.8-2.3-5.7c-2.2-0.9-4.8,0.1-5.7,2.3
			C218.2,169.2,219.2,171.7,221.4,172.6"/>
		<path class="st0" d="M310.1,252.3c2.4,0.5,4.6-1,5.1-3.4c0.5-2.4-1-4.6-3.4-5.1c-2.4-0.5-4.6,1-5.1,3.4
			C306.2,249.5,307.7,251.8,310.1,252.3"/>
		<path class="st0" d="M306.4,236.1c2.4,0.5,4.6-1,5.1-3.4c0.5-2.4-1-4.6-3.4-5.1c-2.4-0.5-4.6,1-5.1,3.4
			C302.5,233.3,304,235.6,306.4,236.1"/>
		<path class="st0" d="M306.1,217.7c0.5-2.4-1-4.6-3.4-5.1c-2.4-0.5-4.6,1-5.1,3.4c-0.5,2.4,1,4.6,3.4,5.1
			C303.3,221.5,305.6,220,306.1,217.7"/>
		<path class="st0" d="M294.5,207.8c2.4,0.5,4.6-1,5.1-3.4c0.5-2.4-1-4.6-3.4-5.1c-2.4-0.5-4.6,1-5.1,3.4
			C290.7,205,292.2,207.3,294.5,207.8"/>
		<path class="st0" d="M291,193.1c0.5-2.4-1-4.6-3.4-5.1c-2.4-0.5-4.6,1-5.1,3.4c-0.5,2.4,1,4.6,3.4,5.1
			C288.2,197,290.5,195.5,291,193.1"/>
		<path class="st0" d="M279.8,178.6c-2.4-0.5-4.6,1-5.1,3.4c-0.5,2.4,1,4.6,3.4,5.1c2.4,0.5,4.6-1,5.1-3.4
			C283.7,181.3,282.2,179,279.8,178.6"/>
		<path class="st0" d="M265.4,172.4c-0.5,2.4,1,4.6,3.4,5.1c2.4,0.5,4.6-1,5.1-3.4c0.5-2.4-1-4.6-3.4-5.1
			C268.1,168.5,265.9,170,265.4,172.4"/>
		<path class="st0" d="M259.4,163.5c-2.4-0.5-4.6,1-5.1,3.4c-0.5,2.4,1,4.6,3.4,5.1c2.4,0.5,4.6-1,5.1-3.4
			C263.3,166.3,261.8,164,259.4,163.5"/>
		<path class="st0" d="M248.6,159.7c-2.4-0.5-4.6,1-5.1,3.4c-0.5,2.4,1,4.6,3.4,5.1c2.4,0.5,4.6-1,5.1-3.4
			C252.4,162.5,250.9,160.2,248.6,159.7"/>
		<path class="st0" d="M236.1,165.5c2.4,0.5,4.6-1,5.1-3.4c0.5-2.4-1-4.6-3.4-5.1c-2.4-0.5-4.6,1-5.1,3.4
			C232.2,162.7,233.7,165,236.1,165.5"/>
		<path class="st0" d="M228.3,156.1c-2.4-0.5-4.6,1-5.1,3.4c-0.5,2.4,1,4.6,3.4,5.1c2.4,0.5,4.6-1,5.1-3.4
			C232.2,158.9,230.7,156.6,228.3,156.1"/>
		<path class="st0" d="M222.8,162.1c0.5-2.4-1-4.6-3.4-5.1c-2.4-0.5-4.6,1-5.1,3.4c-0.5,2.4,1,4.6,3.4,5.1
			C220,166,222.3,164.5,222.8,162.1"/>
		<path class="st0" d="M320.1,226.3c2.4,0,4.3-1.9,4.4-4.3c0-2.4-1.9-4.4-4.3-4.4c-2.4,0-4.3,1.9-4.4,4.3
			C315.8,224.4,317.7,226.3,320.1,226.3"/>
		<path class="st0" d="M317.7,206.9c0-2.4-1.9-4.3-4.3-4.4c-2.4,0-4.3,1.9-4.4,4.3c0,2.4,1.9,4.3,4.3,4.4
			C315.7,211.2,317.6,209.3,317.7,206.9"/>
		<path class="st0" d="M305.1,197.5c2.4,0,4.3-1.9,4.4-4.3c0-2.4-1.9-4.4-4.3-4.4c-2.4,0-4.3,1.9-4.4,4.3
			C300.8,195.6,302.7,197.5,305.1,197.5"/>
		<path class="st0" d="M296.2,177c-2.4,0-4.4,1.9-4.4,4.3c0,2.4,1.9,4.3,4.3,4.4c2.4,0,4.3-1.9,4.4-4.3
			C300.5,179,298.6,177,296.2,177"/>
		<path class="st0" d="M289.9,172.1c0-2.4-1.9-4.3-4.3-4.4c-2.4,0-4.3,1.9-4.4,4.3c0,2.4,1.9,4.3,4.3,4.4
			C287.9,176.4,289.8,174.5,289.9,172.1"/>
		<path class="st0" d="M271.7,164.3c0,2.4,1.9,4.4,4.3,4.4c2.4,0,4.4-1.9,4.4-4.3c0-2.4-1.9-4.3-4.3-4.4
			C273.7,159.9,271.7,161.9,271.7,164.3"/>
		<path class="st0" d="M260.7,156.7c0,2.4,1.9,4.4,4.3,4.4c2.4,0,4.4-1.9,4.4-4.3c0-2.4-1.9-4.3-4.3-4.4
			C262.6,152.4,260.7,154.3,260.7,156.7"/>
		<path class="st0" d="M248.7,153.5c0,2.4,1.9,4.4,4.3,4.4s4.4-1.9,4.4-4.3c0-2.4-1.9-4.3-4.3-4.4S248.8,151.1,248.7,153.5"/>
		<path class="st0" d="M246,151.9c0-2.4-1.9-4.3-4.3-4.4s-4.3,1.9-4.4,4.3c0,2.4,1.9,4.3,4.3,4.4S246,154.3,246,151.9"/>
		<path class="st0" d="M226.3,151.3c0,2.4,1.9,4.4,4.3,4.4s4.4-1.9,4.4-4.3c0-2.4-1.9-4.3-4.3-4.4S226.3,148.9,226.3,151.3"/>
		<path class="st0" d="M216.8,152.4c0,2.4,1.9,4.4,4.3,4.4s4.3-1.9,4.4-4.3c0-2.4-1.9-4.3-4.3-4.4S216.8,150,216.8,152.4"/>
		<path class="st0" d="M212.6,150.6c-2.4,0-4.4,1.9-4.4,4.3s1.9,4.3,4.3,4.4c2.4,0,4.3-1.9,4.4-4.3S215,150.6,212.6,150.6"/>
		<path class="st0" d="M328.3,193.9c-0.5-2.4-2.7-3.9-5.1-3.4c-2.4,0.5-3.9,2.7-3.4,5.1c0.5,2.4,2.7,3.9,5.1,3.4
			C327.2,198.5,328.8,196.2,328.3,193.9"/>
		<path class="st0" d="M313.6,176.9c-2.4,0.5-3.9,2.7-3.4,5.1c0.5,2.4,2.7,3.9,5.1,3.4c2.4-0.5,3.9-2.7,3.4-5.1
			C318.2,178,315.9,176.5,313.6,176.9"/>
		<path class="st0" d="M304.5,173.6c2.4-0.5,3.9-2.7,3.4-5.1c-0.5-2.4-2.7-3.9-5.1-3.4c-2.4,0.5-3.9,2.7-3.4,5.1
			S302.2,174.1,304.5,173.6"/>
		<path class="st0" d="M291.8,155.3c-2.4,0.5-3.9,2.7-3.4,5.1c0.5,2.4,2.7,3.9,5.1,3.4c2.4-0.5,3.9-2.7,3.4-5.1
			C296.5,156.3,294.2,154.8,291.8,155.3"/>
		<path class="st0" d="M279.5,148.2c-2.4,0.5-3.9,2.7-3.4,5.1s2.7,3.9,5.1,3.4c2.4-0.5,3.9-2.7,3.4-5.1
			C284.2,149.3,281.9,147.7,279.5,148.2"/>
		<path class="st0" d="M265.3,147.5c0.5,2.4,2.7,3.9,5.1,3.4c2.4-0.5,3.9-2.7,3.4-5.1c-0.5-2.4-2.7-3.9-5.1-3.4
			C266.4,142.9,264.8,145.2,265.3,147.5"/>
		<path class="st0" d="M253,142.2c0.5,2.4,2.7,3.9,5.1,3.4c2.4-0.5,3.9-2.7,3.4-5.1c-0.5-2.4-2.7-3.9-5.1-3.4
			C254.1,137.6,252.5,139.9,253,142.2"/>
		<path class="st0" d="M249.2,139.8c-0.5-2.4-2.7-3.9-5.1-3.4c-2.4,0.5-3.9,2.7-3.4,5.1c0.5,2.4,2.7,3.9,5.1,3.4
			C248.1,144.4,249.7,142.1,249.2,139.8"/>
		<path class="st0" d="M229.2,142.1c0.5,2.4,2.7,3.9,5.1,3.4c2.4-0.5,3.9-2.7,3.4-5.1c-0.5-2.4-2.7-3.9-5.1-3.4
			C230.3,137.4,228.7,139.7,229.2,142.1"/>
		<path class="st0" d="M223.3,147.1c2.4-0.5,3.9-2.7,3.4-5.1c-0.5-2.4-2.7-3.9-5.1-3.4c-2.4,0.5-3.9,2.7-3.4,5.1
			S221,147.6,223.3,147.1"/>
		<path class="st0" d="M212.6,141.4c-2.4,0.5-3.9,2.7-3.4,5.1s2.7,3.9,5.1,3.4c2.4-0.5,3.9-2.7,3.4-5.1
			C217.2,142.5,214.9,141,212.6,141.4"/>
		<path class="st0" d="M204.6,145.7c-2.4,0.5-3.9,2.7-3.4,5.1s2.7,3.9,5.1,3.4c2.4-0.5,3.9-2.7,3.4-5.1
			C209.3,146.8,207,145.2,204.6,145.7"/>
		<path class="st0" d="M324.2,171.2c2.2-0.9,3.3-3.4,2.4-5.7c-0.9-2.2-3.5-3.3-5.7-2.4c-2.2,0.9-3.3,3.4-2.4,5.7
			C319.5,171,322,172.1,324.2,171.2"/>
		<path class="st0" d="M308.8,151.8c-2.2,0.9-3.3,3.4-2.4,5.7c0.9,2.2,3.4,3.3,5.7,2.4c2.2-0.9,3.3-3.4,2.4-5.7
			C313.6,151.9,311.1,150.9,308.8,151.8"/>
		<path class="st0" d="M293.6,147.9c0.9,2.2,3.4,3.3,5.7,2.4c2.2-0.9,3.3-3.4,2.4-5.7c-0.9-2.2-3.5-3.3-5.7-2.4
			C293.8,143.2,292.7,145.7,293.6,147.9"/>
		<path class="st0" d="M280.9,140.4c0.9,2.2,3.4,3.3,5.7,2.4c2.2-0.9,3.3-3.4,2.4-5.7c-0.9-2.2-3.5-3.3-5.7-2.4
			C281,135.7,280,138.2,280.9,140.4"/>
		<path class="st0" d="M269.8,130.2c-2.2,0.9-3.3,3.4-2.4,5.7c0.9,2.2,3.4,3.3,5.7,2.4c2.2-0.9,3.3-3.4,2.4-5.7
			C274.6,130.4,272,129.3,269.8,130.2"/>
		<path class="st0" d="M258.1,126.7c-2.2,0.9-3.3,3.5-2.4,5.7c0.9,2.2,3.4,3.3,5.7,2.4c2.2-0.9,3.3-3.4,2.4-5.7
			C262.9,126.8,260.3,125.8,258.1,126.7"/>
		<path class="st0" d="M250.7,126.3c-0.9-2.2-3.4-3.3-5.7-2.4c-2.2,0.9-3.3,3.4-2.4,5.7c0.9,2.2,3.4,3.3,5.7,2.4
			C250.5,131,251.6,128.5,250.7,126.3"/>
		<path class="st0" d="M232.8,125.5c-2.2,0.9-3.3,3.5-2.4,5.7c0.9,2.2,3.4,3.3,5.7,2.4c2.2-0.9,3.3-3.4,2.4-5.7
			C237.5,125.7,235,124.6,232.8,125.5"/>
		<path class="st0" d="M221.6,128.4c-2.2,0.9-3.3,3.4-2.4,5.7c0.9,2.2,3.4,3.3,5.7,2.4c2.2-0.9,3.3-3.4,2.4-5.7
			C226.4,128.5,223.9,127.5,221.6,128.4"/>
		<path class="st0" d="M211.2,132.1c-2.2,0.9-3.3,3.4-2.4,5.7c0.9,2.2,3.4,3.3,5.7,2.4c2.2-0.9,3.3-3.4,2.4-5.7
			C216,132.2,213.4,131.2,211.2,132.1"/>
		<path class="st0" d="M202.8,136.7c-2.2,0.9-3.3,3.5-2.4,5.7c0.9,2.2,3.4,3.3,5.7,2.4c2.2-0.9,3.3-3.4,2.4-5.7
			C207.6,136.8,205.1,135.8,202.8,136.7"/>
		<path class="st0" d="M195.9,142.4c-2.2,0.9-3.3,3.5-2.4,5.7c0.9,2.2,3.4,3.3,5.7,2.4c2.2-0.9,3.3-3.4,2.4-5.7
			C200.6,142.5,198.1,141.5,195.9,142.4"/>
		<path class="st0" d="M313.3,136.8c-2,1.3-2.5,4-1.2,6c1.3,2,4,2.5,6,1.2c2-1.3,2.5-4,1.2-6C318,136,315.3,135.5,313.3,136.8"/>
		<path class="st0" d="M298.1,134c1.3,2,4,2.5,6,1.2c2-1.3,2.5-4,1.2-6c-1.3-2-4-2.5-6-1.2C297.3,129.3,296.7,132,298.1,134"/>
		<path class="st0" d="M283.6,127.2c1.3,2,4,2.5,6,1.2c2-1.3,2.5-4,1.2-6c-1.3-2-4-2.5-6-1.2C282.8,122.5,282.3,125.2,283.6,127.2"
			/>
		<path class="st0" d="M270.9,116.3c-2,1.3-2.5,4-1.2,6c1.3,2,4,2.5,6,1.2c2-1.3,2.5-4,1.2-6C275.6,115.5,272.9,115,270.9,116.3"/>
		<path class="st0" d="M256.8,114.5c-2,1.3-2.5,4-1.2,6c1.3,2,4,2.5,6,1.2c2-1.3,2.5-4,1.2-6C261.5,113.7,258.8,113.2,256.8,114.5"
			/>
		<path class="st0" d="M244.7,113.3c-2,1.3-2.5,4-1.2,6c1.3,2,4,2.5,6,1.2c2-1.3,2.5-4,1.2-6C249.3,112.5,246.6,112,244.7,113.3"/>
		<path class="st0" d="M231.3,113.1c-2,1.3-2.5,4-1.2,6c1.3,2,4,2.5,6,1.2c2-1.3,2.5-4,1.2-6C236,112.4,233.3,111.8,231.3,113.1"/>
		<path class="st0" d="M219.6,117.1c-2,1.3-2.5,4-1.2,6c1.3,2,4,2.5,6,1.2c2-1.3,2.5-4,1.2-6C224.3,116.3,221.6,115.8,219.6,117.1"
			/>
		<path class="st0" d="M209.2,122.1c-2,1.3-2.5,4-1.2,6c1.3,2,4,2.5,6,1.2c2-1.3,2.5-4,1.2-6C213.9,121.3,211.2,120.8,209.2,122.1"
			/>
		<path class="st0" d="M199.7,127.8c-2,1.3-2.5,4-1.2,6c1.3,2,4,2.5,6,1.2c2-1.3,2.5-4,1.2-6C204.4,127,201.7,126.4,199.7,127.8"/>
		<path class="st0" d="M192.4,133.9c-2,1.3-2.5,4-1.2,6c1.3,2,4,2.5,6,1.2c2-1.3,2.5-4,1.2-6C197.1,133.1,194.4,132.6,192.4,133.9"
			/>
		<path class="st0" d="M192.7,142.1c-1.3-2-4-2.5-6-1.2c-2,1.3-2.5,4-1.2,6c1.3,2,4,2.5,6,1.2C193.5,146.8,194,144.1,192.7,142.1"/>
	</g>
	<g>
		<path class="st0" d="M21.8,140.3l-0.8,3.1l-16.1-4.1l-1.5,5.9l16.1,4.1l-0.8,3.1l-18.6-4.8l3.1-12L21.8,140.3z"/>
		<path class="st0" d="M21.7,122.8c0.8,0.4,1.6,0.9,2.2,1.5c0.6,0.6,1.1,1.2,1.4,2c0.3,0.7,0.5,1.5,0.5,2.4c0,0.8-0.1,1.7-0.5,2.6
			c-0.4,1.1-1,2-1.7,2.6c-0.7,0.7-1.5,1.1-2.5,1.4c-0.9,0.3-1.9,0.4-3,0.3c-1.1-0.1-2.2-0.3-3.3-0.7l-2.5-0.9
			c-1.1-0.4-2.1-0.9-3-1.6s-1.6-1.4-2.1-2.2c-0.5-0.8-0.9-1.7-1-2.7c-0.1-1,0-2,0.4-3.1c0.3-1,0.8-1.7,1.3-2.4
			c0.5-0.6,1.2-1.1,1.9-1.5c0.7-0.3,1.5-0.5,2.3-0.6c0.8,0,1.7,0,2.7,0.3l-1.1,3c-0.5-0.1-1.1-0.2-1.6-0.2c-0.5,0-0.9,0.1-1.3,0.2
			c-0.4,0.2-0.8,0.4-1.1,0.7c-0.3,0.3-0.6,0.8-0.8,1.3c-0.2,0.7-0.3,1.3-0.1,1.9c0.1,0.6,0.4,1.1,0.8,1.5c0.4,0.5,0.9,0.9,1.6,1.2
			c0.6,0.4,1.3,0.7,2.1,0.9l2.5,0.9c0.8,0.3,1.5,0.5,2.3,0.6c0.7,0.1,1.4,0.1,2,0.1c0.6-0.1,1.1-0.3,1.6-0.7
			c0.5-0.3,0.8-0.9,1.1-1.5c0.4-1,0.4-1.9,0-2.7c-0.4-0.8-1.1-1.4-2.2-1.9L21.7,122.8z"/>
		<path class="st0" d="M14.8,105.8l1.4-2.9l17.4,8.2l-1.4,2.9l-11.8-5.5l9.2,11l-1.4,2.9l-17.4-8.2l1.4-2.9l11.8,5.5L14.8,105.8z"/>
		<path class="st0" d="M28,96.4l-4.3-6.8l1.9-3.2L31,96l11.2,0.1l-1.9,3.2l-8.2-0.4l4.3,7l-1.9,3.2l-5.5-9.7l-11-0.1l1.9-3.2
			L28,96.4z"/>
		<path class="st0" d="M28.1,82.9l6.7-9.2l2.1,1.5l-2.4,3.4l11.3,8.2l2.4-3.4l2.1,1.5l-6.7,9.2l-2.1-1.5l2.4-3.3l-11.3-8.2l-2.4,3.3
			L28.1,82.9z"/>
		<path class="st0" d="M46.6,59.8L61,72.4l-2.1,2.4l-5.7-5c-0.2,0.5-0.5,1-0.8,1.4c-0.3,0.5-0.6,0.9-1,1.4c-0.6,0.7-1.2,1.2-1.9,1.6
			c-0.6,0.4-1.3,0.6-2,0.7c-0.7,0.1-1.4-0.1-2.2-0.4c-0.8-0.3-1.5-0.8-2.4-1.5l-4.5-4l2.1-2.4l4.5,4c0.5,0.5,1,0.8,1.4,1
			c0.4,0.2,0.8,0.3,1.1,0.3c0.3,0,0.7-0.1,1-0.2c0.3-0.2,0.6-0.4,0.9-0.8c0.3-0.4,0.7-0.8,1-1.3c0.3-0.5,0.6-1,0.8-1.5l-6.8-6
			L46.6,59.8z"/>
		<path class="st0" d="M72.4,61.5l-2.2,2.1l-5.9-6.2l-4.7,4.5l5.9,6.2l-2.2,2.1L50,56.3l2.2-2.1l5.5,5.8l4.7-4.5L57,49.7l2.2-2.1
			L72.4,61.5z"/>
		<path class="st0" d="M78.5,45.6l-6.2,4.9l3.7,4.7l7.3-5.7l1.6,2L75,59.2L63.2,44.1l9.7-7.6l1.6,2.1l-7.2,5.6l3.3,4.3l6.2-4.9
			L78.5,45.6z"/>
		<path class="st0" d="M101.3,28.7c0.6-0.3,1-0.6,1.3-0.9c0.3-0.3,0.6-0.7,0.7-1c0.1-0.4,0.2-0.7,0.1-1.1c0-0.4-0.2-0.8-0.4-1.2
			c-0.2-0.4-0.4-0.7-0.7-0.9c-0.3-0.3-0.6-0.4-1-0.5c-0.4-0.1-0.8-0.1-1.3,0c-0.5,0.1-1,0.3-1.6,0.6c-0.4,0.2-0.8,0.5-1.1,0.8
			c-0.3,0.3-0.5,0.7-0.7,1c-0.2,0.4-0.2,0.7-0.2,1.1c0,0.4,0.1,0.8,0.3,1.1l-2.8,1.5c-0.4-0.7-0.6-1.5-0.5-2.2
			c0-0.8,0.2-1.5,0.5-2.2c0.3-0.7,0.8-1.3,1.4-1.9c0.6-0.6,1.3-1.1,2.1-1.5c0.9-0.5,1.8-0.8,2.7-1c0.9-0.2,1.7-0.2,2.4-0.1
			c0.7,0.1,1.4,0.4,2,0.9c0.6,0.5,1.1,1.1,1.5,1.9c0.2,0.4,0.3,0.8,0.4,1.2c0.1,0.4,0.1,0.9,0,1.3c-0.1,0.4-0.2,0.9-0.4,1.3
			c-0.2,0.4-0.5,0.8-0.8,1.3c1.1-0.2,2.1,0,2.9,0.4c0.9,0.4,1.5,1.1,2,2.1c0.4,0.8,0.6,1.6,0.6,2.4c0,0.8-0.2,1.5-0.5,2.3
			c-0.3,0.7-0.9,1.4-1.5,2c-0.7,0.6-1.5,1.2-2.4,1.7c-0.7,0.4-1.5,0.7-2.4,0.9c-0.8,0.2-1.6,0.2-2.4,0.1c-0.8-0.1-1.5-0.4-2.2-0.8
			c-0.7-0.4-1.2-1.1-1.7-2l2.8-1.5c0.2,0.4,0.5,0.7,0.8,0.9c0.3,0.3,0.7,0.4,1.1,0.5c0.4,0.1,0.9,0.1,1.3,0c0.5-0.1,1-0.2,1.5-0.5
			c0.6-0.3,1-0.6,1.4-1c0.4-0.4,0.6-0.8,0.8-1.2c0.2-0.4,0.3-0.8,0.2-1.2c0-0.4-0.1-0.8-0.3-1.2c-0.5-1-1.2-1.5-2-1.7
			c-0.8-0.2-1.8,0.1-2.9,0.6l-2.2,1.1l-1.1-2.2L101.3,28.7z"/>
		<path class="st0" d="M128.6,33.9l-2.6,1l-1.8-4.4l-7.6,3.1l1.8,4.4l-2.5,1l-3.2-6.6l0.7-0.3c0.3-0.4,0.5-0.8,0.6-1.3
			c0.1-0.5,0.2-1.1,0.1-1.8s-0.2-1.6-0.5-2.5c-0.3-1-0.6-2.1-1.1-3.4l-2.5-7.5l8.4-3.4l6.2,15.4l1.5-0.6L128.6,33.9z M115.6,21.8
			c0.7,2,1.2,3.7,1.5,5.1c0.3,1.4,0.4,2.7,0.3,3.7l4.5-1.8l-5.3-13.1l-2.7,1.1L115.6,21.8z"/>
		<path class="st0" d="M139.7,16.8c0.3,1.1,0.5,2.2,0.5,3.3s-0.1,2.1-0.5,3c-0.3,0.9-0.8,1.7-1.5,2.4c-0.7,0.7-1.6,1.2-2.7,1.5
			c-1.1,0.3-2.1,0.4-3.1,0.2s-1.8-0.6-2.6-1.2c-0.8-0.6-1.4-1.4-2-2.3c-0.6-0.9-1-1.9-1.3-3l-0.7-2.4c-0.2-0.7-0.4-1.5-0.4-2.2
			c-0.1-0.7-0.1-1.4,0-2.1c0.1-0.7,0.2-1.3,0.4-2c0.2-0.6,0.5-1.2,0.9-1.7c0.4-0.5,0.8-1,1.4-1.4c0.5-0.4,1.2-0.7,1.9-0.9
			C131,7.8,132,7.8,133,8c1,0.2,1.8,0.6,2.6,1.2c0.8,0.6,1.5,1.4,2,2.3c0.6,0.9,1,1.9,1.4,3L139.7,16.8z M135.9,15.4
			c-0.2-0.7-0.5-1.4-0.8-2c-0.3-0.6-0.7-1.2-1.1-1.6c-0.4-0.5-0.9-0.8-1.5-1c-0.6-0.2-1.2-0.2-1.9,0c-0.7,0.2-1.2,0.5-1.6,1
			c-0.4,0.5-0.6,1-0.7,1.6c-0.1,0.6-0.1,1.3,0,2c0.1,0.7,0.2,1.4,0.4,2.1l0.7,2.4c0.2,0.7,0.5,1.4,0.8,2c0.3,0.6,0.7,1.2,1.1,1.7
			c0.4,0.5,0.9,0.8,1.5,1c0.6,0.2,1.2,0.2,1.8,0c0.7-0.2,1.2-0.5,1.6-1c0.4-0.5,0.6-1,0.7-1.6c0.1-0.6,0.1-1.3,0-2
			c-0.1-0.7-0.2-1.4-0.4-2.1L135.9,15.4z"/>
		<path class="st0" d="M146.7,16.3l1.4,7.2l-3.1,0.6l-3.7-18.8l6.3-1.2c0.9-0.2,1.8-0.2,2.7-0.1c0.9,0.1,1.6,0.4,2.3,0.8
			c0.7,0.4,1.3,0.9,1.7,1.6c0.5,0.7,0.8,1.4,1,2.3c0.2,0.9,0.2,1.7,0,2.5c-0.2,0.8-0.5,1.5-1,2.1c-0.5,0.6-1.1,1.1-1.8,1.6
			s-1.6,0.7-2.5,0.9L146.7,16.3z M146.2,13.8l3.2-0.6c0.5-0.1,1-0.3,1.4-0.5c0.4-0.2,0.7-0.5,0.9-0.9c0.2-0.3,0.4-0.7,0.5-1.2
			c0.1-0.4,0.1-0.9,0-1.3c-0.1-0.5-0.3-0.9-0.5-1.3c-0.2-0.4-0.5-0.7-0.9-0.9c-0.4-0.2-0.8-0.4-1.2-0.5c-0.4-0.1-0.9-0.1-1.5,0
			l-3.2,0.6L146.2,13.8z"/>
		<path class="st0" d="M172.4,11.7c0.1,1.1,0.1,2.2-0.1,3.3c-0.2,1.1-0.5,2-1,2.9c-0.5,0.8-1.1,1.6-2,2.1c-0.8,0.6-1.8,0.9-3,1
			c-1.1,0.1-2.2,0-3.1-0.4c-0.9-0.4-1.7-0.9-2.3-1.7c-0.6-0.7-1.2-1.6-1.5-2.6c-0.4-1-0.6-2.1-0.8-3.2l-0.2-2.4
			c-0.1-0.8-0.1-1.5,0-2.2c0.1-0.7,0.2-1.4,0.4-2.1c0.2-0.7,0.4-1.3,0.8-1.9c0.3-0.6,0.7-1.1,1.2-1.5c0.5-0.4,1-0.8,1.6-1.1
			c0.6-0.3,1.3-0.5,2.1-0.5c1.2-0.1,2.2,0,3.1,0.4c0.9,0.4,1.7,0.9,2.3,1.7c0.7,0.7,1.2,1.6,1.6,2.6c0.4,1,0.6,2.1,0.8,3.2
			L172.4,11.7z M169,9.5c-0.1-0.7-0.2-1.4-0.4-2.1c-0.2-0.7-0.5-1.3-0.8-1.8c-0.3-0.5-0.8-0.9-1.3-1.2c-0.5-0.3-1.1-0.4-1.8-0.3
			c-0.7,0.1-1.3,0.3-1.7,0.7c-0.4,0.4-0.8,0.9-1,1.5c-0.2,0.6-0.3,1.2-0.4,2c0,0.7,0,1.4,0,2.2l0.2,2.5c0.1,0.7,0.2,1.4,0.4,2.1
			c0.2,0.7,0.4,1.3,0.8,1.8c0.3,0.5,0.8,1,1.3,1.3c0.5,0.3,1.1,0.4,1.8,0.3c0.7-0.1,1.3-0.3,1.7-0.7c0.4-0.4,0.8-0.9,1-1.5
			c0.2-0.6,0.4-1.2,0.4-2c0-0.7,0-1.4,0-2.2L169,9.5z"/>
		<path class="st0" d="M176,19.9l-0.1-19.2l6.1,0c0.9,0,1.8,0.1,2.6,0.3c0.8,0.2,1.5,0.5,2.1,0.9c0.6,0.4,1.1,1,1.4,1.6
			c0.3,0.7,0.5,1.4,0.5,2.3c0,1-0.3,1.8-0.8,2.4s-1.2,1.2-2.1,1.6c0.5,0.1,1,0.4,1.4,0.6c0.4,0.3,0.8,0.6,1.1,1
			c0.3,0.4,0.5,0.8,0.7,1.3c0.2,0.5,0.2,1,0.2,1.5c0,0.9-0.2,1.7-0.5,2.4c-0.3,0.7-0.8,1.3-1.4,1.8c-0.6,0.5-1.3,0.8-2.1,1.1
			c-0.8,0.2-1.7,0.4-2.6,0.4L176,19.9z M179.1,8.8l3,0c0.5,0,0.9-0.1,1.3-0.2c0.4-0.1,0.8-0.3,1.1-0.5c0.3-0.2,0.5-0.5,0.7-0.9
			s0.3-0.7,0.3-1.2c0-0.5-0.1-0.9-0.3-1.2c-0.2-0.3-0.4-0.6-0.7-0.8c-0.3-0.2-0.7-0.4-1.1-0.5c-0.4-0.1-0.9-0.2-1.4-0.2l-3,0
			L179.1,8.8z M179.1,11.2l0,6.1l3.5,0c0.5,0,1-0.1,1.4-0.2c0.4-0.1,0.8-0.3,1.1-0.6c0.3-0.3,0.5-0.6,0.7-0.9s0.3-0.8,0.2-1.2
			c0-0.5-0.1-0.9-0.2-1.3c-0.2-0.4-0.4-0.7-0.7-1c-0.3-0.3-0.6-0.5-1-0.6s-0.9-0.2-1.4-0.2L179.1,11.2z"/>
		<path class="st0" d="M200.2,2l-0.8,5.1l-2.2-0.2l0.6-6.8l2.5,0.2L200.2,2z"/>
		<path class="st0" d="M216.1,23l1.4-7.7l-3.3-0.6l-5.1,7l-3.3-0.6l5.8-7.8c-1-0.7-1.8-1.5-2.2-2.4c-0.4-0.9-0.6-1.9-0.3-3.1
			c0.2-0.9,0.5-1.6,0.9-2.3c0.4-0.6,1-1.1,1.7-1.5c0.7-0.4,1.5-0.6,2.3-0.7c0.9-0.1,1.8,0,2.9,0.2l5.9,1.1l-3.4,18.9L216.1,23z
			 M212.1,8.6c-0.2,1,0,1.8,0.5,2.5c0.5,0.7,1.4,1.1,2.6,1.4l2.8,0.5l1.1-6.3l-2.8-0.5c-1.2-0.2-2.2-0.1-2.9,0.3
			C212.7,6.9,212.2,7.6,212.1,8.6z"/>
		<path class="st0" d="M248.5,37.8l-2.6-1l1.7-4.4l-7.6-2.9l-1.7,4.4l-2.5-1l2.1-7l0.7,0.3c0.5-0.1,0.9-0.3,1.3-0.5
			c0.4-0.3,0.9-0.7,1.3-1.3c0.4-0.6,0.9-1.3,1.4-2.2c0.5-0.9,1-2,1.5-3.3l3.3-7.2l8.5,3.2l-6,15.5l1.5,0.6L248.5,37.8z M247.2,20.1
			c-0.8,1.9-1.6,3.5-2.4,4.7c-0.8,1.2-1.5,2.2-2.3,2.9l4.5,1.7l5-13.2l-2.7-1L247.2,20.1z"/>
		<path class="st0" d="M272.4,22.9l-8.5,17.2l-2.8-1.4l7.4-14.9l-4.2-2.1l-3.4,6.9c-0.7,1.4-1.4,2.6-2.1,3.5
			c-0.7,0.9-1.4,1.6-2.1,2.1c-0.7,0.5-1.4,0.7-2.1,0.7c-0.7,0-1.5-0.2-2.3-0.5l-0.7-0.4l1.1-2.3l0.5,0.2c0.4,0.2,0.8,0.2,1.1,0.1
			c0.4-0.1,0.7-0.3,1.1-0.7c0.4-0.4,0.8-0.9,1.2-1.6c0.4-0.7,0.9-1.6,1.4-2.6l4.6-9.1L272.4,22.9z"/>
		<path class="st0" d="M274.3,46.4l4.1-6.6l-2.9-1.8l-7.3,4.6l-2.9-1.8l8.3-5.1c-0.7-1-1.1-2-1.2-3c-0.1-1,0.2-2,0.8-3
			c0.5-0.8,1-1.4,1.7-1.8c0.6-0.4,1.3-0.7,2.1-0.8c0.8-0.1,1.6,0,2.4,0.2c0.9,0.2,1.7,0.6,2.6,1.2l5.1,3.1L277,48L274.3,46.4z
			 M275.9,31.4c-0.5,0.9-0.7,1.7-0.5,2.5c0.2,0.8,0.9,1.6,1.9,2.2l2.4,1.5l3.4-5.4l-2.4-1.5c-1.1-0.7-2-0.9-2.8-0.8
			C277,30.1,276.4,30.6,275.9,31.4z"/>
		<path class="st0" d="M304.2,54.9l-1.3,3.1l10.5-5.1l2.6,2.4l-15.8,7c-0.5,0.2-1,0.4-1.5,0.5c-0.5,0.1-1,0.2-1.5,0.2
			c-0.5,0-1.1-0.1-1.6-0.4c-0.5-0.2-1.1-0.6-1.6-1.1c-0.5-0.4-0.8-0.8-1.1-1.2s-0.5-0.7-0.6-1l1.9-1.6c0.1,0.1,0.1,0.2,0.2,0.4
			c0.1,0.1,0.2,0.3,0.3,0.4c0.1,0.2,0.2,0.3,0.4,0.5c0.1,0.1,0.3,0.3,0.4,0.4c0.3,0.3,0.6,0.5,0.9,0.6c0.3,0.1,0.6,0.2,0.9,0.2
			c0.3,0,0.6,0,0.8-0.1c0.3-0.1,0.5-0.2,0.8-0.3l1-0.4l4.7-14.8l2.6,2.4L304.2,54.9z"/>
		<path class="st0" d="M313.7,68.9l-1.3-1.4l-6.1,5.5l-2.1-2.4l14.2-12.9l2.1,2.4l-6.3,5.7l1,1.1l9.8-1.7l2.5,2.7l-10.9,1.7l-3,11.4
			l-2.5-2.8L313.7,68.9z"/>
		<path class="st0" d="M322.6,80.7l-5.9,4.4l-1.9-2.5l15.4-11.5l3.9,5.1c0.6,0.8,1,1.6,1.3,2.4c0.3,0.8,0.4,1.6,0.3,2.4
			c-0.1,0.8-0.3,1.5-0.7,2.2c-0.4,0.7-1,1.3-1.7,1.9c-0.7,0.5-1.5,0.9-2.2,1.1c-0.8,0.2-1.5,0.2-2.3,0c-0.8-0.2-1.5-0.5-2.2-1
			s-1.3-1.1-1.9-1.9L322.6,80.7z M324.7,79.2l2,2.6c0.3,0.4,0.7,0.8,1.1,1c0.4,0.2,0.8,0.4,1.2,0.5c0.4,0.1,0.8,0,1.2-0.1
			c0.4-0.1,0.8-0.3,1.2-0.6c0.4-0.3,0.7-0.6,1-1s0.4-0.8,0.5-1.2c0.1-0.4,0-0.9-0.1-1.3c-0.1-0.4-0.3-0.9-0.7-1.3l-2-2.6L324.7,79.2
			z"/>
		<path class="st0" d="M332.7,100.8l-3.1-5.1l-4.5,1.2l-1.7-2.8l19.6-4.7l1.5,2.4L331.3,107l-1.7-2.8L332.7,100.8z M332.3,94.9
			l2.3,3.8l5.3-5.8L332.3,94.9z"/>
		<path class="st0" d="M349.5,100.6l5,10.2l-2.4,1.2l-1.8-3.7l-12.5,6.2l1.8,3.7l-2.3,1.2l-5-10.2l2.3-1.2l1.8,3.6l12.5-6.2
			l-1.8-3.6L349.5,100.6z M352.8,99.6c0.4-0.2,0.8-0.2,1.2-0.1c0.4,0.1,0.7,0.4,0.9,0.9c0.2,0.5,0.3,0.9,0.1,1.3
			c-0.1,0.4-0.4,0.7-0.8,0.9c-0.4,0.2-0.8,0.2-1.2,0.1c-0.4-0.1-0.7-0.4-0.9-0.9c-0.2-0.5-0.3-0.9-0.1-1.3
			C352.2,100.1,352.4,99.8,352.8,99.6z M355.5,105c0.4-0.2,0.8-0.2,1.2-0.1c0.4,0.1,0.7,0.4,0.9,0.9c0.2,0.5,0.3,0.9,0.1,1.3
			c-0.1,0.4-0.4,0.7-0.8,0.9c-0.4,0.2-0.8,0.2-1.2,0.1c-0.4-0.1-0.7-0.4-0.9-0.9c-0.2-0.5-0.3-0.9-0.1-1.3
			C354.8,105.5,355.1,105.2,355.5,105z"/>
		<path class="st0" d="M343.3,134.5l-1.1-2.9l8-3l-2.3-6.1l-8,3l-1.1-2.9l17.9-6.8l1.1,2.9l-7.5,2.9l2.3,6.1l7.5-2.9l1.1,2.9
			L343.3,134.5z"/>
		<path class="st0" d="M365.3,141.3l0.8,3.1l-18.5,5.1l-0.8-3.1l12.6-3.5l-14.2-2.4l-0.8-3.1l18.5-5.1l0.8,3.1l-12.6,3.5
			L365.3,141.3z"/>
	</g>
	<g>
		<path class="st0" d="M19.2,256.8l-2.4,2.3l11.7-0.2l1.4,3.3l-17.2-0.2c-0.5,0-1.1-0.1-1.6-0.1c-0.5-0.1-1-0.3-1.5-0.5
			c-0.5-0.2-0.9-0.6-1.3-1c-0.4-0.4-0.7-1-1-1.7c-0.2-0.6-0.4-1.1-0.5-1.6c-0.1-0.5-0.1-0.9-0.2-1.2l2.4-0.7c0,0.1,0,0.3,0.1,0.4
			s0.1,0.3,0.1,0.5c0,0.2,0.1,0.4,0.1,0.6s0.1,0.4,0.2,0.5c0.2,0.4,0.3,0.7,0.6,0.9c0.2,0.2,0.4,0.4,0.7,0.6
			c0.2,0.1,0.5,0.2,0.8,0.3c0.3,0,0.5,0.1,0.8,0.1l1,0l10.5-11.5l1.3,3.2L19.2,256.8z"/>
		<path class="st0" d="M23.2,273l-0.9-1.7l-7.3,3.9l-1.5-2.8l16.9-9l1.5,2.8l-7.5,4l0.7,1.3l10,0.7l1.7,3.2l-11-1l-5.7,10.4
			l-1.8-3.3L23.2,273z"/>
		<path class="st0" d="M29.9,286.3l-6.1,4l-1.7-2.6l16-10.5l3.5,5.4c0.5,0.8,0.9,1.6,1.1,2.5c0.2,0.8,0.3,1.6,0.2,2.4
			c-0.1,0.8-0.4,1.5-0.8,2.2c-0.4,0.7-1,1.3-1.8,1.8c-0.7,0.5-1.5,0.8-2.3,0.9s-1.6,0.1-2.3-0.1c-0.7-0.2-1.5-0.6-2.1-1.1
			c-0.7-0.5-1.3-1.2-1.8-2L29.9,286.3z M32,284.9l1.8,2.7c0.3,0.4,0.6,0.8,1,1.1c0.4,0.3,0.8,0.4,1.2,0.5c0.4,0.1,0.8,0.1,1.2,0
			c0.4-0.1,0.8-0.3,1.2-0.5c0.4-0.3,0.8-0.6,1-1c0.3-0.4,0.4-0.8,0.5-1.2c0.1-0.4,0.1-0.8,0-1.3c-0.1-0.4-0.3-0.9-0.6-1.3l-1.8-2.7
			L32,284.9z"/>
		<path class="st0" d="M40.8,306.3l-3.7-4.7l-4.3,1.7l-2-2.6l18.9-7.1l1.7,2.2l-11.2,16.7l-2-2.5L40.8,306.3z M39.7,300.5l2.7,3.4
			l4.5-6.4L39.7,300.5z"/>
		<path class="st0" d="M56.6,302.2l7.9,8.2l-1.9,1.8l-2.9-3l-10.1,9.7l2.9,3l-1.9,1.8l-7.9-8.2l1.9-1.8l2.8,2.9l10.1-9.7l-2.8-2.9
			L56.6,302.2z M59.5,300.2c0.3-0.3,0.7-0.5,1.1-0.4c0.4,0,0.8,0.2,1.2,0.6c0.4,0.4,0.5,0.8,0.5,1.2c0,0.4-0.2,0.8-0.5,1.1
			c-0.3,0.3-0.7,0.5-1.1,0.4c-0.4,0-0.8-0.2-1.2-0.6c-0.4-0.4-0.5-0.8-0.5-1.2C59,300.9,59.2,300.5,59.5,300.2z M63.6,304.5
			c0.3-0.3,0.7-0.5,1.1-0.4c0.4,0,0.8,0.2,1.2,0.6c0.4,0.4,0.5,0.8,0.5,1.2c0,0.4-0.2,0.8-0.5,1.1c-0.3,0.3-0.7,0.5-1.1,0.4
			c-0.4,0-0.8-0.2-1.2-0.6s-0.5-0.8-0.5-1.2C63.1,305.2,63.3,304.8,63.6,304.5z"/>
		<path class="st0" d="M64,335.6l-2.3-2l5.6-6.5l-4.9-4.3l-5.6,6.5l-2.3-2L67,312.8l2.3,2l-5.3,6.1l4.9,4.3l5.3-6.1l2.3,2L64,335.6z
			"/>
		<path class="st0" d="M83.2,339.4c-0.7,0.9-1.4,1.7-2.3,2.4c-0.8,0.7-1.7,1.2-2.7,1.5c-0.9,0.3-1.9,0.4-2.9,0.3
			c-1-0.1-1.9-0.5-2.9-1.2c-0.9-0.7-1.6-1.4-2-2.3s-0.6-1.8-0.6-2.8c0-1,0.2-2,0.6-3c0.4-1,0.9-2,1.6-2.9l1.4-2
			c0.4-0.6,0.9-1.2,1.4-1.7c0.5-0.5,1.1-1,1.6-1.3c0.6-0.4,1.2-0.7,1.8-0.9c0.6-0.2,1.2-0.3,1.9-0.4c0.6,0,1.3,0.1,1.9,0.3
			c0.6,0.2,1.3,0.5,1.9,1c0.9,0.7,1.6,1.5,2.1,2.4c0.4,0.9,0.6,1.8,0.6,2.8c0,1-0.2,2-0.6,3c-0.4,1-0.9,2-1.6,2.9L83.2,339.4z
			 M82.1,335.5c0.4-0.6,0.8-1.2,1.1-1.9c0.3-0.6,0.5-1.3,0.6-1.9c0.1-0.6,0-1.2-0.1-1.8c-0.2-0.6-0.6-1.1-1.2-1.5
			c-0.6-0.4-1.2-0.6-1.7-0.6c-0.6,0-1.2,0.2-1.7,0.5c-0.6,0.3-1.1,0.7-1.6,1.2c-0.5,0.5-1,1.1-1.4,1.6l-1.4,2
			c-0.4,0.6-0.8,1.2-1.1,1.8c-0.3,0.6-0.5,1.3-0.6,1.9c-0.1,0.6-0.1,1.2,0.1,1.8c0.2,0.6,0.6,1,1.1,1.5c0.6,0.4,1.2,0.6,1.8,0.6
			c0.6,0,1.2-0.2,1.7-0.4c0.6-0.3,1.1-0.7,1.6-1.2c0.5-0.5,1-1.1,1.4-1.6L82.1,335.5z"/>
		<path class="st0" d="M95.8,348.3l-9.1-5.4l1.3-2.2l9.1,5.4L95.8,348.3z"/>
		<path class="st0" d="M107.4,340.7l-7.1,15.1l2,0.9l7.1-15.1l2.8,1.3L105,358l2,0.9l7.1-15.1l2.8,1.3l-8.2,17.4l-12.4-5.8l8.2-17.4
			L107.4,340.7z"/>
		<path class="st0" d="M112.6,364.2l6.6-18l5.8,2.1c0.9,0.3,1.6,0.7,2.3,1.2s1.2,1,1.7,1.6c0.4,0.6,0.7,1.3,0.8,2
			c0.1,0.7,0,1.5-0.3,2.4c-0.3,0.9-0.9,1.6-1.6,2c-0.7,0.5-1.6,0.7-2.5,0.7c0.5,0.3,0.8,0.7,1.1,1.1c0.3,0.4,0.5,0.8,0.6,1.3
			c0.1,0.5,0.2,0.9,0.2,1.4c0,0.5-0.1,1-0.3,1.5c-0.3,0.9-0.7,1.6-1.3,2.1c-0.6,0.5-1.2,0.9-1.9,1.2c-0.7,0.2-1.5,0.3-2.3,0.3
			c-0.8-0.1-1.7-0.2-2.6-0.6L112.6,364.2z M118.6,357.1l-2.1,5.7l3.2,1.2c0.5,0.2,0.9,0.3,1.4,0.3c0.4,0,0.8-0.1,1.2-0.2
			c0.4-0.1,0.7-0.3,1-0.6c0.3-0.3,0.5-0.6,0.7-1.1c0.2-0.5,0.2-0.9,0.2-1.3c0-0.4-0.1-0.8-0.3-1.1c-0.2-0.3-0.4-0.7-0.8-0.9
			c-0.3-0.3-0.7-0.5-1.2-0.7L118.6,357.1z M119.4,354.9l2.8,1c0.4,0.2,0.9,0.2,1.3,0.3c0.4,0,0.8,0,1.2-0.1c0.4-0.1,0.7-0.3,1-0.6
			c0.3-0.3,0.5-0.6,0.6-1c0.2-0.5,0.2-0.9,0.2-1.3c0-0.4-0.2-0.7-0.4-1s-0.5-0.6-0.8-0.8c-0.4-0.2-0.8-0.4-1.2-0.6l-2.8-1
			L119.4,354.9z"/>
		<path class="st0" d="M142,364.5l-7.6-2l-1.6,5.8l8.9,2.4l-0.7,2.5l-12-3.2l4.9-18.5l11.9,3.2l-0.7,2.5l-8.8-2.4L135,360l7.6,2
			L142,364.5z"/>
		<path class="st0" d="M157.8,356.8l3.1,0.5l-3.2,18.9l-3.1-0.5l2.2-12.8l-8.2,11.8l-3.1-0.5l3.2-18.9l3.1,0.5l-2.2,12.8
			L157.8,356.8z M159.8,351.9c-0.1,0.5-0.3,1-0.5,1.4c-0.3,0.4-0.6,0.8-1,1c-0.4,0.3-0.9,0.4-1.4,0.5c-0.5,0.1-1.1,0.1-1.8,0
			c-0.6-0.1-1.2-0.3-1.7-0.6c-0.5-0.3-0.9-0.6-1.2-1c-0.3-0.4-0.5-0.8-0.6-1.3c-0.1-0.5-0.1-1,0-1.5l2.3,0.4c0,0.2,0,0.5,0,0.7
			s0.1,0.4,0.2,0.6c0.1,0.2,0.3,0.4,0.5,0.5c0.2,0.1,0.5,0.2,0.8,0.3c0.3,0.1,0.6,0.1,0.9,0c0.3-0.1,0.5-0.2,0.6-0.3
			c0.2-0.1,0.3-0.3,0.4-0.5c0.1-0.2,0.2-0.4,0.2-0.7L159.8,351.9z"/>
		<path class="st0" d="M164,357.7l3.2,0.2l-1.3,16.6l5.9,0.5l1.3-16.6l3.2,0.2l-1.3,16.6l2.2,0.2l-0.8,7.2l-2.9-0.2l0.4-4.6
			l-11.3-0.9L164,357.7z"/>
		<path class="st0" d="M189.2,373.4l-6,0.1l-1.3,4.5l-3.3,0l6-19.3l2.8,0l6.4,19.1l-3.3,0L189.2,373.4z M184,370.8l4.4-0.1l-2.3-7.5
			L184,370.8z"/>
		<path class="st0" d="M199.8,369.8l0.8,7.3l-3.1,0.3l-2-19.1l6.4-0.7c1-0.1,1.8,0,2.7,0.1c0.8,0.2,1.6,0.5,2.2,1
			c0.6,0.4,1.2,1,1.6,1.7c0.4,0.7,0.7,1.5,0.8,2.4c0.1,0.9,0,1.7-0.2,2.5c-0.3,0.8-0.6,1.4-1.2,2s-1.2,1-2,1.4
			c-0.8,0.4-1.6,0.6-2.6,0.7L199.8,369.8z M199.5,367.3l3.2-0.3c0.5-0.1,1-0.2,1.4-0.4c0.4-0.2,0.7-0.5,1-0.8
			c0.3-0.3,0.5-0.7,0.6-1.1c0.1-0.4,0.1-0.9,0.1-1.3c-0.1-0.5-0.2-0.9-0.4-1.4c-0.2-0.4-0.5-0.7-0.8-1c-0.3-0.3-0.7-0.5-1.1-0.6
			c-0.4-0.1-0.9-0.2-1.5-0.1l-3.2,0.3L199.5,367.3z"/>
		<path class="st0" d="M225.9,367.2c0.1,0.9,0,1.8-0.2,2.6c-0.2,0.8-0.5,1.5-1,2.2c-0.5,0.6-1.1,1.2-1.8,1.6
			c-0.7,0.4-1.5,0.8-2.5,0.9c-1.1,0.2-2.2,0.2-3.1-0.1s-1.8-0.7-2.5-1.4c-0.7-0.6-1.3-1.4-1.8-2.4c-0.5-1-0.8-2-1.1-3.2l-0.5-2.6
			c-0.2-1.1-0.3-2.3-0.2-3.3c0.1-1.1,0.3-2.1,0.8-2.9s1-1.6,1.8-2.2c0.8-0.6,1.7-1,2.8-1.3c1-0.2,1.9-0.2,2.7-0.1
			c0.8,0.1,1.6,0.4,2.2,0.8c0.7,0.4,1.2,1,1.7,1.7c0.5,0.7,0.9,1.5,1.1,2.4l-3.1,0.6c-0.2-0.5-0.4-1-0.6-1.4c-0.2-0.4-0.5-0.8-0.9-1
			c-0.3-0.3-0.7-0.4-1.2-0.5c-0.5-0.1-1-0.1-1.5,0c-0.7,0.1-1.3,0.4-1.7,0.8c-0.4,0.4-0.7,0.9-0.9,1.5c-0.2,0.6-0.3,1.3-0.3,2
			c0,0.7,0.1,1.5,0.3,2.3l0.5,2.6c0.2,0.8,0.4,1.6,0.6,2.2c0.3,0.7,0.6,1.3,1,1.7c0.4,0.5,0.9,0.8,1.4,1c0.5,0.2,1.2,0.3,1.9,0.1
			c1.1-0.2,1.9-0.7,2.3-1.4c0.4-0.7,0.6-1.7,0.5-2.8L225.9,367.2z"/>
		<path class="st0" d="M230.9,359.7l2.7-0.8c1-0.3,2-0.4,2.9-0.4c0.9,0,1.7,0.2,2.4,0.5c0.7,0.3,1.3,0.8,1.8,1.4
			c0.5,0.6,0.9,1.3,1.1,2.2c0.3,0.8,0.3,1.7,0.3,2.4c-0.1,0.8-0.3,1.5-0.7,2.2c-0.4,0.7-1,1.3-1.7,1.8s-1.6,0.9-2.6,1.2l-5.7,1.7
			l-5.5-18.4l3-0.9L230.9,359.7z M231.6,362.2l1.9,6.4l2.7-0.8c0.6-0.2,1.1-0.4,1.5-0.7s0.7-0.7,0.9-1c0.2-0.4,0.3-0.8,0.3-1.2
			c0-0.4,0-0.9-0.2-1.3c-0.1-0.4-0.3-0.8-0.6-1.1c-0.2-0.3-0.6-0.6-0.9-0.8c-0.4-0.2-0.8-0.3-1.3-0.3c-0.5,0-1,0-1.6,0.2
			L231.6,362.2z"/>
		<path class="st0" d="M249.4,357.2l-1.7,0.7l3.1,7.7l-3,1.2l-7.1-17.8l3-1.2l3.1,7.9l1.3-0.5l1.8-9.8l3.4-1.3l-2.2,10.9l9.7,6.8
			l-3.5,1.4L249.4,357.2z"/>
		<path class="st0" d="M263,339l2.8-1.4l8.7,17.1l-2.8,1.4l-5.9-11.6l0.5,14.4l-2.8,1.4l-8.7-17.1l2.8-1.4l5.9,11.6L263,339z"/>
		<path class="st0" d="M274.6,326.2c0.3,0.5,0.5,0.9,0.5,1.4c0.1,0.5,0,1-0.1,1.4c-0.1,0.5-0.4,0.9-0.7,1.3
			c-0.3,0.4-0.8,0.8-1.3,1.2s-1.1,0.6-1.6,0.7c-0.5,0.1-1,0.1-1.5,0.1c-0.5-0.1-0.9-0.3-1.3-0.5c-0.4-0.3-0.8-0.7-1-1.1l2-1.3
			c0.1,0.2,0.3,0.4,0.5,0.5c0.2,0.2,0.4,0.3,0.6,0.3c0.2,0.1,0.5,0.1,0.7,0c0.3,0,0.5-0.1,0.8-0.3c0.3-0.2,0.5-0.4,0.6-0.6
			c0.1-0.2,0.2-0.4,0.3-0.7s0-0.4,0-0.7c-0.1-0.2-0.2-0.4-0.3-0.6L274.6,326.2z M276.4,331.1l2.7-1.7l10.2,16.3l-2.7,1.7l-6.9-11
			l1.8,14.3l-2.7,1.7L268.6,336l2.7-1.7l6.9,11L276.4,331.1z"/>
		<path class="st0" d="M316.1,323.9l-2.3,2.1l-11.2-12.3l-4.5,4.1l11.2,12.3l-2.3,2.1l-13-14.1l9.2-8.4L316.1,323.9z"/>
		<path class="st0" d="M316.4,312.9l5.4,4.9l-2.1,2.3l-14.2-12.9l4.3-4.8c0.7-0.7,1.4-1.3,2.1-1.7c0.8-0.4,1.5-0.7,2.3-0.8
			c0.8-0.1,1.5,0,2.3,0.2c0.8,0.3,1.5,0.7,2.2,1.3c0.7,0.6,1.2,1.3,1.5,2c0.3,0.7,0.5,1.5,0.4,2.3c0,0.8-0.2,1.6-0.5,2.3
			c-0.3,0.8-0.8,1.5-1.5,2.3L316.4,312.9z M314.6,311.2l2.2-2.4c0.4-0.4,0.6-0.8,0.8-1.2c0.2-0.4,0.2-0.8,0.2-1.3
			c0-0.4-0.1-0.8-0.3-1.2c-0.2-0.4-0.5-0.7-0.8-1.1c-0.4-0.3-0.8-0.6-1.2-0.8c-0.4-0.2-0.8-0.2-1.3-0.2c-0.4,0-0.8,0.1-1.2,0.3
			c-0.4,0.2-0.8,0.5-1.2,0.9l-2.2,2.4L314.6,311.2z"/>
		<path class="st0" d="M332.2,292c0.9,0.7,1.7,1.5,2.3,2.3c0.7,0.9,1.1,1.8,1.4,2.7c0.3,0.9,0.4,1.9,0.2,2.9c-0.1,1-0.6,1.9-1.3,2.9
			c-0.7,0.9-1.5,1.6-2.4,2c-0.9,0.4-1.8,0.6-2.8,0.6c-1,0-2-0.2-3-0.6s-2-0.9-2.9-1.6l-2-1.5c-0.6-0.5-1.2-1-1.7-1.5
			s-0.9-1.1-1.3-1.7c-0.4-0.6-0.6-1.2-0.8-1.8c-0.2-0.6-0.3-1.3-0.3-1.9c0-0.6,0.1-1.3,0.3-1.9c0.2-0.6,0.5-1.3,1-1.9
			c0.7-0.9,1.5-1.6,2.4-2c0.9-0.4,1.8-0.6,2.8-0.6s2,0.2,3,0.6c1,0.4,2,0.9,2.9,1.6L332.2,292z M328.3,293c-0.6-0.4-1.2-0.8-1.8-1.1
			c-0.6-0.3-1.3-0.5-1.9-0.7c-0.6-0.1-1.2-0.1-1.8,0.1c-0.6,0.2-1.1,0.5-1.5,1.1c-0.4,0.6-0.6,1.1-0.6,1.7c0,0.6,0.1,1.2,0.4,1.7
			c0.3,0.6,0.7,1.1,1.2,1.6c0.5,0.5,1,1,1.6,1.4l2,1.5c0.6,0.4,1.2,0.8,1.8,1.1c0.6,0.3,1.3,0.6,1.9,0.7c0.6,0.1,1.2,0.1,1.8-0.1
			c0.6-0.2,1.1-0.5,1.5-1.1c0.4-0.6,0.7-1.2,0.7-1.8c0-0.6-0.1-1.2-0.4-1.7c-0.3-0.6-0.7-1.1-1.2-1.6c-0.5-0.5-1-1-1.6-1.4
			L328.3,293z"/>
		<path class="st0" d="M343.2,279.2c0.7,0.6,1.3,1.2,1.8,1.9s0.8,1.4,0.9,2.2c0.2,0.8,0.1,1.6,0,2.4c-0.2,0.8-0.5,1.7-1.1,2.5
			c-0.6,0.9-1.2,1.6-2,2.1c-0.8,0.5-1.6,0.9-2.5,1c-0.9,0.1-1.8,0.1-2.8-0.1c-1-0.2-2-0.7-3-1.3l-3.4-2.1c-1-0.6-1.9-1.3-2.5-2.1
			c-0.7-0.8-1.1-1.6-1.4-2.5s-0.4-1.8-0.2-2.7c0.1-0.9,0.4-1.8,1-2.7c0.6-0.9,1.2-1.6,1.8-2.2c0.7-0.5,1.4-0.9,2.2-1.1
			c0.8-0.2,1.6-0.2,2.4-0.1c0.8,0.1,1.7,0.4,2.6,0.9l-1.7,2.7c-0.6-0.3-1.1-0.5-1.6-0.6c-0.5-0.1-0.9-0.1-1.4,0s-0.8,0.3-1.2,0.6
			c-0.4,0.3-0.7,0.7-1,1.2c-0.3,0.5-0.5,1-0.5,1.5c0,0.5,0.1,1,0.3,1.5c0.2,0.5,0.6,1,1.1,1.5c0.5,0.5,1.1,0.9,1.8,1.4l0.6,0.4
			l3.6-5.8l2.2,1.3l-3.6,5.8l0.7,0.4c1.5,0.9,2.8,1.3,3.9,1.3c1.1-0.1,2-0.6,2.6-1.6c0.6-1,0.8-1.8,0.6-2.6
			c-0.2-0.8-0.8-1.6-1.8-2.3L343.2,279.2z"/>
		<path class="st0" d="M345.1,270.4l-0.8,1.7l7.4,3.7l-1.4,2.8L333,270l1.4-2.8l7.6,3.8l0.6-1.3l-5.2-8.6l1.6-3.3l5.6,9.6l11.8-1.3
			l-1.7,3.4L345.1,270.4z"/>
		<path class="st0" d="M347.2,244.4l-2.1,5.5l15.4,6l-1.1,2.9l-15.4-6l-2.1,5.5l-2.4-1l5.4-13.9L347.2,244.4z"/>
	</g>
</g>
</svg>
