<?xml version="1.0" encoding="utf-8"?>
<!-- Generator: Adobe Illustrator 23.0.6, SVG Export Plug-In . SVG Version: 6.00 Build 0)  -->
<svg version="1.1" id="Layer_1" xmlns="http://www.w3.org/2000/svg" xmlns:xlink="http://www.w3.org/1999/xlink" x="0px" y="0px"
	 viewBox="0 0 780.87 382.7" style="enable-background:new 0 0 780.87 382.7;" xml:space="preserve">
<style type="text/css">
	.st0{fill:#7500FF;}
</style>
<g>
	<g>
		<path class="st0" d="M300.75,112.45c-1.7,1.69-1.71,4.44-0.02,6.14c1.69,1.7,4.44,1.71,6.14,0.02c1.7-1.69,1.71-4.44,0.02-6.14
			C305.2,110.76,302.45,110.75,300.75,112.45"/>
		<path class="st0" d="M285.26,106.57c-1.7,1.69-1.71,4.44-0.02,6.14c1.69,1.7,4.44,1.71,6.14,0.02c1.7-1.69,1.71-4.44,0.02-6.14
			C289.71,104.89,286.96,104.88,285.26,106.57"/>
		<path class="st0" d="M269.75,102.68c-1.7,1.69-1.71,4.44-0.02,6.14c1.69,1.7,4.44,1.71,6.14,0.02c1.7-1.69,1.71-4.44,0.02-6.14
			C274.21,100.99,271.45,100.99,269.75,102.68"/>
		<path class="st0" d="M255.12,100.65c-1.7,1.69-1.71,4.44-0.02,6.14c1.69,1.7,4.44,1.71,6.14,0.02c1.7-1.69,1.71-4.44,0.02-6.14
			C259.57,98.97,256.82,98.96,255.12,100.65"/>
		<path class="st0" d="M247.09,107.77c1.7-1.69,1.71-4.44,0.02-6.14c-1.69-1.7-4.44-1.71-6.14-0.02c-1.7,1.69-1.71,4.44-0.02,6.14
			C242.64,109.45,245.39,109.46,247.09,107.77"/>
		<path class="st0" d="M228.8,102.81c-1.7,1.69-1.71,4.44-0.02,6.14c1.69,1.7,4.44,1.71,6.14,0.02c1.7-1.69,1.71-4.44,0.02-6.14
			C233.25,101.13,230.5,101.12,228.8,102.81"/>
		<path class="st0" d="M215.64,105.26c-1.7,1.69-1.71,4.44-0.02,6.14c1.69,1.7,4.44,1.71,6.14,0.02c1.7-1.69,1.71-4.44,0.02-6.14
			C220.09,103.57,217.34,103.57,215.64,105.26"/>
		<path class="st0" d="M204.95,111.43c-1.7,1.69-1.71,4.44-0.02,6.14c1.69,1.7,4.44,1.71,6.14,0.02c1.7-1.69,1.71-4.44,0.02-6.14
			C209.4,109.75,206.65,109.74,204.95,111.43"/>
		<path class="st0" d="M195.74,118.36c-1.7,1.69-1.71,4.44-0.02,6.14c1.69,1.7,4.44,1.71,6.14,0.02c1.7-1.69,1.71-4.44,0.02-6.14
			C200.19,116.67,197.44,116.67,195.74,118.36"/>
		<path class="st0" d="M187.53,125.78c-1.7,1.69-1.71,4.44-0.02,6.14c1.69,1.7,4.44,1.71,6.14,0.02c1.7-1.69,1.71-4.44,0.02-6.14
			C191.98,124.1,189.23,124.09,187.53,125.78"/>
		<path class="st0" d="M181.55,133.21c-1.7,1.69-1.71,4.44-0.02,6.14c1.69,1.7,4.44,1.71,6.14,0.02c1.7-1.69,1.71-4.44,0.02-6.14
			C186.01,131.53,183.26,131.52,181.55,133.21"/>
		<path class="st0" d="M183.44,147.3c1.7-1.69,1.71-4.44,0.02-6.14s-4.44-1.71-6.14-0.02c-1.7,1.69-1.71,4.44-0.02,6.14
			C178.99,148.98,181.74,148.99,183.44,147.3"/>
		<path class="st0" d="M289.71,89.85c-1.99-1.34-4.69-0.81-6.03,1.18c-1.34,1.99-0.81,4.69,1.18,6.03c1.99,1.34,4.69,0.81,6.03-1.18
			C292.23,93.88,291.7,91.18,289.71,89.85"/>
		<path class="st0" d="M273.36,87.11c-1.99-1.34-4.69-0.81-6.03,1.18c-1.34,1.99-0.81,4.69,1.18,6.03s4.69,0.81,6.03-1.18
			C275.88,91.14,275.35,88.44,273.36,87.11"/>
		<path class="st0" d="M251.37,87.5c-1.34,1.99-0.81,4.69,1.18,6.03c1.99,1.34,4.69,0.81,6.03-1.18c1.34-1.99,0.81-4.69-1.18-6.03
			C255.41,84.98,252.71,85.5,251.37,87.5"/>
		<path class="st0" d="M242.65,87.18c-1.99-1.34-4.69-0.81-6.03,1.18c-1.34,1.99-0.81,4.69,1.18,6.03c1.99,1.34,4.69,0.81,6.03-1.18
			C245.17,91.22,244.64,88.52,242.65,87.18"/>
		<path class="st0" d="M228.96,90.88c-1.99-1.34-4.69-0.81-6.03,1.18c-1.34,1.99-0.81,4.69,1.18,6.03c1.99,1.34,4.69,0.81,6.03-1.18
			C231.48,94.92,230.95,92.22,228.96,90.88"/>
		<path class="st0" d="M217.26,94.43c-1.99-1.34-4.69-0.81-6.03,1.18c-1.34,1.99-0.81,4.69,1.18,6.03c1.99,1.34,4.69,0.81,6.03-1.18
			C219.78,98.47,219.25,95.77,217.26,94.43"/>
		<path class="st0" d="M198.8,100.58c-1.34,1.99-0.81,4.69,1.18,6.03c1.99,1.34,4.69,0.81,6.03-1.18c1.34-1.99,0.81-4.69-1.18-6.03
			C202.83,98.06,200.14,98.59,198.8,100.58"/>
		<path class="st0" d="M195.55,107.54c-1.99-1.34-4.69-0.81-6.03,1.18c-1.34,1.99-0.81,4.69,1.18,6.03
			c1.99,1.34,4.69,0.81,6.03-1.18C198.07,111.58,197.54,108.88,195.55,107.54"/>
		<path class="st0" d="M187.87,116.13c-1.99-1.34-4.69-0.81-6.03,1.18c-1.34,1.99-0.81,4.69,1.18,6.03
			c1.99,1.34,4.69,0.81,6.03-1.18C190.39,120.17,189.86,117.47,187.87,116.13"/>
		<path class="st0" d="M181.26,125.01c-1.99-1.34-4.69-0.81-6.03,1.18c-1.34,1.99-0.81,4.69,1.18,6.03
			c1.99,1.34,4.69,0.81,6.03-1.18C183.78,129.05,183.26,126.35,181.26,125.01"/>
		<path class="st0" d="M170.82,134.65c-1.34,1.99-0.81,4.69,1.18,6.03c1.99,1.34,4.69,0.81,6.03-1.18c1.34-1.99,0.81-4.69-1.18-6.03
			C174.86,132.13,172.16,132.66,170.82,134.65"/>
		<path class="st0" d="M168.21,143.25c-1.34,1.99-0.81,4.69,1.18,6.03c1.99,1.34,4.69,0.81,6.03-1.18c1.34-1.99,0.81-4.69-1.18-6.03
			C172.25,140.73,169.55,141.26,168.21,143.25"/>
		<path class="st0" d="M265.09,79.03c2.21,0.92,4.76-0.12,5.68-2.33c0.92-2.21-0.12-4.76-2.33-5.68c-2.21-0.92-4.76,0.12-5.68,2.34
			C261.83,75.56,262.88,78.11,265.09,79.03"/>
		<path class="st0" d="M254.21,77.2c0.92-2.21-0.12-4.76-2.34-5.68c-2.21-0.92-4.76,0.12-5.68,2.33c-0.92,2.21,0.12,4.76,2.34,5.68
			C250.74,80.46,253.28,79.41,254.21,77.2"/>
		<path class="st0" d="M236.06,73.85c-2.21-0.92-4.76,0.12-5.68,2.34c-0.92,2.21,0.12,4.76,2.34,5.68c2.21,0.92,4.76-0.12,5.68-2.34
			C239.32,77.32,238.28,74.78,236.06,73.85"/>
		<path class="st0" d="M216.08,79.92c-0.92,2.21,0.12,4.76,2.33,5.68c2.21,0.92,4.76-0.12,5.68-2.33c0.92-2.21-0.12-4.76-2.34-5.68
			C219.55,76.66,217,77.7,216.08,79.92"/>
		<path class="st0" d="M203.37,86.21c-0.92,2.21,0.12,4.76,2.33,5.68c2.21,0.92,4.76-0.12,5.68-2.33c0.92-2.21-0.12-4.76-2.34-5.68
			C206.84,82.95,204.3,84,203.37,86.21"/>
		<path class="st0" d="M198.28,89.65c-2.21-0.92-4.76,0.12-5.68,2.34c-0.92,2.21,0.12,4.76,2.34,5.68c2.21,0.92,4.76-0.12,5.68-2.34
			C201.54,93.12,200.49,90.57,198.28,89.65"/>
		<path class="st0" d="M181.37,99.28c-0.93,2.21,0.12,4.76,2.33,5.68c2.21,0.92,4.76-0.12,5.68-2.33c0.92-2.21-0.12-4.76-2.33-5.68
			C184.84,96.02,182.29,97.07,181.37,99.28"/>
		<path class="st0" d="M179.54,106.74c-2.21-0.92-4.76,0.12-5.68,2.34c-0.92,2.21,0.12,4.76,2.34,5.68
			c2.21,0.92,4.76-0.12,5.68-2.34C182.8,110.21,181.75,107.67,179.54,106.74"/>
		<path class="st0" d="M168,119c-0.92,2.21,0.12,4.76,2.33,5.68s4.76-0.12,5.68-2.34c0.92-2.21-0.12-4.76-2.34-5.68
			C171.47,115.74,168.93,116.78,168,119"/>
		<path class="st0" d="M163.26,129c-0.92,2.21,0.12,4.76,2.33,5.68s4.76-0.12,5.68-2.34c0.92-2.21-0.12-4.76-2.34-5.68
			S164.18,126.78,163.26,129"/>
		<path class="st0" d="M166.26,135.81c-2.21-0.92-4.76,0.12-5.68,2.34c-0.92,2.21,0.12,4.76,2.34,5.68
			c2.21,0.92,4.76-0.12,5.68-2.34C169.52,139.28,168.47,136.74,166.26,135.81"/>
		<path class="st0" d="M167.71,150.44c0.92-2.21-0.12-4.76-2.34-5.68c-2.21-0.92-4.76,0.12-5.68,2.33
			c-0.92,2.21,0.12,4.76,2.34,5.68S166.79,152.66,167.71,150.44"/>
		<path class="st0" d="M243.91,56.7c-2.35-0.47-4.64,1.05-5.12,3.4c-0.48,2.35,1.05,4.64,3.4,5.12c2.35,0.48,4.64-1.05,5.12-3.4
			C247.78,59.46,246.26,57.17,243.91,56.7"/>
		<path class="st0" d="M227.76,60.42c-2.35-0.47-4.64,1.05-5.12,3.4c-0.47,2.35,1.05,4.64,3.4,5.12c2.35,0.48,4.64-1.05,5.12-3.4
			C231.63,63.19,230.11,60.89,227.76,60.42"/>
		<path class="st0" d="M207.59,69.2c-0.48,2.35,1.05,4.64,3.4,5.12c2.35,0.48,4.64-1.05,5.12-3.4c0.47-2.35-1.05-4.64-3.4-5.12
			C210.35,65.32,208.06,66.84,207.59,69.2"/>
		<path class="st0" d="M197.69,80.76c2.35,0.48,4.64-1.05,5.12-3.4c0.48-2.35-1.05-4.64-3.4-5.12c-2.35-0.47-4.64,1.05-5.12,3.4
			C193.82,77.99,195.34,80.28,197.69,80.76"/>
		<path class="st0" d="M186.45,89.41c2.35,0.48,4.64-1.05,5.12-3.4c0.48-2.35-1.05-4.64-3.4-5.12c-2.35-0.47-4.64,1.05-5.12,3.4
			C182.58,86.65,184.1,88.94,186.45,89.41"/>
		<path class="st0" d="M178.73,88.66c-2.35-0.47-4.64,1.05-5.12,3.4c-0.47,2.35,1.05,4.64,3.4,5.12c2.35,0.47,4.64-1.05,5.12-3.4
			C182.6,91.43,181.08,89.13,178.73,88.66"/>
		<path class="st0" d="M169.14,98.01c-2.35-0.47-4.64,1.05-5.12,3.4c-0.48,2.35,1.05,4.64,3.4,5.12c2.35,0.48,4.64-1.05,5.12-3.4
			C173.01,100.77,171.49,98.48,169.14,98.01"/>
		<path class="st0" d="M163.68,109.08c-2.35-0.47-4.64,1.05-5.12,3.4c-0.48,2.35,1.05,4.64,3.4,5.12c2.35,0.47,4.64-1.05,5.12-3.4
			C167.55,111.85,166.03,109.55,163.68,109.08"/>
		<path class="st0" d="M159.88,119.95c-2.35-0.47-4.64,1.05-5.12,3.4c-0.47,2.35,1.05,4.64,3.4,5.12c2.35,0.48,4.64-1.05,5.12-3.4
			C163.75,122.72,162.23,120.42,159.88,119.95"/>
		<path class="st0" d="M152.05,134.08c-0.47,2.35,1.05,4.64,3.4,5.12c2.35,0.48,4.64-1.05,5.12-3.4c0.48-2.35-1.05-4.64-3.4-5.12
			C154.82,130.21,152.53,131.73,152.05,134.08"/>
		<path class="st0" d="M154.61,148.7c2.35,0.48,4.64-1.05,5.12-3.4c0.48-2.35-1.05-4.64-3.4-5.12c-2.35-0.47-4.64,1.05-5.12,3.4
			C150.74,145.93,152.26,148.22,154.61,148.7"/>
		<path class="st0" d="M160.61,154.25c0.47-2.35-1.05-4.64-3.4-5.12c-2.35-0.47-4.64,1.05-5.12,3.4c-0.47,2.35,1.05,4.64,3.4,5.12
			C157.84,158.12,160.13,156.6,160.61,154.25"/>
		<path class="st0" d="M217.05,47.44c-2.4-0.01-4.35,1.93-4.36,4.33c-0.01,2.4,1.93,4.35,4.33,4.36s4.35-1.93,4.36-4.33
			C221.39,49.4,219.45,47.44,217.05,47.44"/>
		<path class="st0" d="M201.91,62.93c2.4,0.01,4.35-1.93,4.36-4.33c0.01-2.4-1.93-4.35-4.33-4.36c-2.4-0.01-4.35,1.93-4.36,4.33
			C197.57,60.97,199.51,62.92,201.91,62.93"/>
		<path class="st0" d="M188.22,62.45c-2.4-0.01-4.35,1.93-4.36,4.33c-0.01,2.4,1.93,4.35,4.33,4.36s4.35-1.93,4.36-4.33
			C192.56,64.41,190.62,62.46,188.22,62.45"/>
		<path class="st0" d="M176.44,71.37c-2.4-0.01-4.35,1.93-4.36,4.33c-0.01,2.4,1.93,4.35,4.33,4.36s4.35-1.93,4.36-4.33
			C180.78,73.33,178.84,71.38,176.44,71.37"/>
		<path class="st0" d="M167.11,82.05c-2.4-0.01-4.35,1.93-4.36,4.33c-0.01,2.4,1.93,4.35,4.33,4.36s4.35-1.93,4.36-4.33
			C171.44,84.01,169.51,82.05,167.11,82.05"/>
		<path class="st0" d="M159.36,91.5c-2.4-0.01-4.35,1.93-4.36,4.33c-0.01,2.4,1.93,4.35,4.33,4.36s4.35-1.93,4.36-4.33
			C163.69,93.46,161.75,91.51,159.36,91.5"/>
		<path class="st0" d="M151.78,102.54c-2.4-0.01-4.35,1.93-4.36,4.33c-0.01,2.4,1.93,4.35,4.33,4.36s4.35-1.93,4.36-4.33
			C156.12,104.5,154.18,102.55,151.78,102.54"/>
		<path class="st0" d="M144.23,118.8c-0.01,2.4,1.93,4.35,4.33,4.36c2.4,0.01,4.35-1.93,4.36-4.33c0.01-2.4-1.93-4.35-4.33-4.36
			C146.19,114.46,144.24,116.4,144.23,118.8"/>
		<path class="st0" d="M146.97,125.87c-2.4-0.01-4.35,1.93-4.36,4.33c-0.01,2.4,1.93,4.35,4.33,4.36c2.4,0.01,4.35-1.93,4.36-4.33
			C151.31,127.83,149.37,125.88,146.97,125.87"/>
		<path class="st0" d="M146.39,145.61c2.4,0.01,4.35-1.93,4.36-4.33c0.01-2.4-1.93-4.35-4.33-4.36c-2.4-0.01-4.35,1.93-4.36,4.33
			C142.05,143.66,143.99,145.61,146.39,145.61"/>
		<path class="st0" d="M147.44,146.41c-2.4-0.01-4.35,1.93-4.36,4.33c-0.01,2.4,1.93,4.35,4.33,4.36c2.4,0.01,4.35-1.93,4.36-4.33
			S149.84,146.41,147.44,146.41"/>
		<path class="st0" d="M154.38,159.37c0.01-2.4-1.93-4.35-4.33-4.36c-2.4-0.01-4.35,1.93-4.36,4.33c-0.01,2.4,1.93,4.35,4.33,4.36
			S154.37,161.77,154.38,159.37"/>
		<path class="st0" d="M185.48,48.7c0.46,2.35,2.74,3.89,5.1,3.43s3.89-2.74,3.43-5.1c-0.46-2.35-2.74-3.89-5.1-3.43
			C186.55,44.06,185.01,46.34,185.48,48.7"/>
		<path class="st0" d="M177.08,61.74c2.35-0.46,3.89-2.74,3.43-5.1c-0.46-2.35-2.74-3.89-5.1-3.43c-2.35,0.46-3.89,2.74-3.43,5.1
			C172.44,60.67,174.72,62.2,177.08,61.74"/>
		<path class="st0" d="M163.56,63.95c-2.35,0.46-3.89,2.74-3.43,5.1s2.74,3.89,5.1,3.43c2.35-0.46,3.89-2.74,3.43-5.1
			C168.2,65.02,165.91,63.48,163.56,63.95"/>
		<path class="st0" d="M153.74,74.99c-2.35,0.46-3.89,2.74-3.43,5.1s2.74,3.89,5.1,3.43s3.89-2.74,3.43-5.1
			C158.38,76.06,156.09,74.53,153.74,74.99"/>
		<path class="st0" d="M143.24,92.38c0.46,2.35,2.74,3.89,5.1,3.43c2.35-0.46,3.89-2.74,3.43-5.1c-0.46-2.35-2.74-3.89-5.1-3.43
			C144.32,87.75,142.78,90.03,143.24,92.38"/>
		<path class="st0" d="M140.91,98.07c-2.35,0.46-3.89,2.74-3.43,5.1s2.74,3.89,5.1,3.43s3.89-2.74,3.43-5.1
			C145.55,99.14,143.27,97.61,140.91,98.07"/>
		<path class="st0" d="M135.63,110.37c-2.35,0.46-3.89,2.74-3.43,5.1s2.74,3.89,5.1,3.43s3.89-2.74,3.43-5.1
			C140.27,111.45,137.99,109.91,135.63,110.37"/>
		<path class="st0" d="M131.4,127.79c0.46,2.35,2.74,3.89,5.1,3.43s3.89-2.74,3.43-5.1c-0.46-2.35-2.74-3.89-5.1-3.43
			C132.48,123.15,130.94,125.44,131.4,127.79"/>
		<path class="st0" d="M135.47,134.19c-2.35,0.46-3.89,2.74-3.43,5.1c0.46,2.35,2.74,3.89,5.1,3.43c2.35-0.46,3.89-2.74,3.43-5.1
			C140.11,135.27,137.83,133.73,135.47,134.19"/>
		<path class="st0" d="M137.08,145.15c-2.35,0.46-3.89,2.74-3.43,5.1s2.74,3.89,5.1,3.43s3.89-2.74,3.43-5.1
			C141.72,146.22,139.44,144.68,137.08,145.15"/>
		<path class="st0" d="M139.94,154.24c-2.35,0.46-3.89,2.74-3.43,5.1s2.74,3.89,5.1,3.43s3.89-2.74,3.43-5.1
			C144.58,155.32,142.29,153.78,139.94,154.24"/>
		<path class="st0" d="M149.27,165.6c-0.46-2.35-2.74-3.89-5.1-3.43c-2.35,0.46-3.89,2.74-3.43,5.1s2.74,3.89,5.1,3.43
			C148.2,170.24,149.74,167.96,149.27,165.6"/>
		<path class="st0" d="M160.55,45.32c-2.22,0.91-3.28,3.45-2.37,5.67c0.91,2.22,3.45,3.28,5.67,2.37c2.22-0.91,3.28-3.45,2.37-5.67
			C165.3,45.47,162.77,44.41,160.55,45.32"/>
		<path class="st0" d="M149.19,57.39c-2.22,0.91-3.28,3.45-2.37,5.67c0.91,2.22,3.45,3.28,5.67,2.37c2.22-0.91,3.28-3.45,2.37-5.67
			C153.94,57.54,151.41,56.48,149.19,57.39"/>
		<path class="st0" d="M139.66,70.22c-2.22,0.91-3.28,3.45-2.37,5.67c0.91,2.22,3.45,3.28,5.67,2.37c2.22-0.91,3.28-3.45,2.37-5.67
			C144.42,70.37,141.88,69.31,139.66,70.22"/>
		<path class="st0" d="M129.82,88.64c0.91,2.22,3.45,3.28,5.67,2.37c2.22-0.91,3.28-3.45,2.37-5.67c-0.91-2.22-3.45-3.28-5.67-2.37
			C129.97,83.88,128.91,86.42,129.82,88.64"/>
		<path class="st0" d="M127.65,96.41c-2.22,0.91-3.28,3.45-2.37,5.67c0.91,2.22,3.45,3.28,5.67,2.37c2.22-0.91,3.28-3.45,2.37-5.67
			C132.41,96.56,129.87,95.5,127.65,96.41"/>
		<path class="st0" d="M121.74,113.78c0.91,2.22,3.45,3.28,5.67,2.37c2.22-0.91,3.28-3.45,2.37-5.67c-0.91-2.22-3.45-3.28-5.67-2.37
			C121.89,109.02,120.83,111.56,121.74,113.78"/>
		<path class="st0" d="M121.33,121.21c-2.22,0.91-3.28,3.45-2.37,5.67c0.91,2.22,3.45,3.28,5.67,2.37s3.28-3.45,2.37-5.67
			C126.09,121.35,123.55,120.29,121.33,121.21"/>
		<path class="st0" d="M122.94,133.45c-2.22,0.91-3.28,3.45-2.37,5.67c0.91,2.22,3.45,3.28,5.67,2.37c2.22-0.91,3.28-3.45,2.37-5.67
			C127.7,133.59,125.16,132.53,122.94,133.45"/>
		<path class="st0" d="M125.82,144.6c-2.22,0.91-3.28,3.45-2.37,5.67c0.91,2.22,3.45,3.28,5.67,2.37s3.28-3.45,2.37-5.67
			C130.58,144.75,128.04,143.69,125.82,144.6"/>
		<path class="st0" d="M129.53,155.03c-2.22,0.91-3.28,3.45-2.37,5.67c0.91,2.22,3.45,3.28,5.67,2.37c2.22-0.91,3.28-3.45,2.37-5.67
			C134.29,155.18,131.75,154.12,129.53,155.03"/>
		<path class="st0" d="M134.11,163.39c-2.22,0.91-3.28,3.45-2.37,5.67c0.91,2.22,3.45,3.28,5.67,2.37c2.22-0.91,3.28-3.45,2.37-5.67
			C138.87,163.54,136.33,162.48,134.11,163.39"/>
		<path class="st0" d="M145.48,172.71c-0.91-2.22-3.45-3.28-5.67-2.37c-2.22,0.91-3.28,3.45-2.37,5.67
			c0.91,2.22,3.45,3.28,5.67,2.37C145.33,177.47,146.39,174.93,145.48,172.71"/>
		<path class="st0" d="M133.07,52.54c-2,1.33-2.54,4.02-1.22,6.02c1.33,2,4.02,2.54,6.02,1.22c2-1.33,2.54-4.02,1.22-6.02
			C137.77,51.76,135.07,51.22,133.07,52.54"/>
		<path class="st0" d="M123.07,72.62c1.33,2,4.02,2.54,6.02,1.22c2-1.33,2.54-4.02,1.22-6.02c-1.33-2-4.02-2.54-6.02-1.22
			C122.29,67.92,121.74,70.62,123.07,72.62"/>
		<path class="st0" d="M117.45,81.04c-2,1.33-2.54,4.02-1.22,6.02c1.33,2,4.02,2.54,6.02,1.22c2-1.33,2.54-4.02,1.22-6.02
			C122.14,80.26,119.44,79.71,117.45,81.04"/>
		<path class="st0" d="M112.6,95c-2,1.33-2.54,4.02-1.22,6.02c1.33,2,4.02,2.54,6.02,1.22c2-1.33,2.54-4.02,1.22-6.02
			C117.3,94.22,114.6,93.68,112.6,95"/>
		<path class="st0" d="M115.58,116.3c2-1.33,2.54-4.02,1.22-6.02c-1.33-2-4.02-2.54-6.02-1.22c-2,1.33-2.54,4.02-1.21,6.02
			C110.89,117.09,113.58,117.63,115.58,116.3"/>
		<path class="st0" d="M108.37,127.26c1.33,2,4.02,2.54,6.02,1.22c2-1.33,2.54-4.02,1.22-6.02c-1.33-2-4.02-2.54-6.02-1.21
			C107.59,122.56,107.04,125.26,108.37,127.26"/>
		<path class="st0" d="M108.2,140.64c1.33,2,4.02,2.54,6.02,1.22c2-1.33,2.54-4.02,1.22-6.02c-1.33-2-4.02-2.54-6.02-1.22
			C107.42,135.95,106.87,138.64,108.2,140.64"/>
		<path class="st0" d="M113.38,146.31c-2,1.33-2.54,4.02-1.22,6.02c1.33,2,4.02,2.54,6.02,1.22c2-1.33,2.54-4.02,1.22-6.02
			C118.08,145.53,115.38,144.98,113.38,146.31"/>
		<path class="st0" d="M118.38,156.69c-2,1.33-2.54,4.02-1.22,6.02c1.33,2,4.02,2.54,6.02,1.22c2-1.33,2.54-4.02,1.22-6.02
			C123.07,155.91,120.38,155.36,118.38,156.69"/>
		<path class="st0" d="M124.06,166.19c-2,1.33-2.54,4.02-1.22,6.02c1.33,2,4.02,2.54,6.02,1.22c2-1.33,2.54-4.02,1.22-6.02
			C128.75,165.41,126.06,164.86,124.06,166.19"/>
		<path class="st0" d="M128.96,179.53c1.33,2,4.02,2.54,6.02,1.22c2-1.33,2.54-4.02,1.21-6.02c-1.33-2-4.02-2.54-6.02-1.22
			C128.18,174.83,127.64,177.53,128.96,179.53"/>
		<path class="st0" d="M143.15,180.43c-1.33-2-4.02-2.54-6.02-1.22c-2,1.33-2.54,4.02-1.22,6.02c1.33,2,4.02,2.54,6.02,1.22
			C143.93,185.12,144.48,182.43,143.15,180.43"/>
		<path class="st0" d="M107.54,64.99c-1.7,1.69-1.71,4.44-0.02,6.14c1.69,1.7,4.44,1.71,6.14,0.02c1.7-1.69,1.71-4.44,0.02-6.14
			C111.99,63.3,109.24,63.3,107.54,64.99"/>
		<path class="st0" d="M101.66,80.48c-1.7,1.69-1.71,4.44-0.02,6.14c1.69,1.7,4.44,1.71,6.14,0.02c1.7-1.69,1.71-4.44,0.02-6.14
			C106.11,78.8,103.36,78.79,101.66,80.48"/>
		<path class="st0" d="M97.75,102.13c1.69,1.7,4.44,1.71,6.14,0.02c1.7-1.69,1.71-4.44,0.02-6.14c-1.69-1.7-4.44-1.71-6.14-0.02
			C96.07,97.68,96.06,100.43,97.75,102.13"/>
		<path class="st0" d="M95.72,116.77c1.69,1.7,4.44,1.71,6.14,0.02c1.7-1.69,1.71-4.44,0.02-6.14c-1.69-1.7-4.44-1.71-6.14-0.02
			C94.04,112.32,94.03,115.07,95.72,116.77"/>
		<path class="st0" d="M102.82,130.94c1.7-1.69,1.71-4.44,0.02-6.14c-1.69-1.7-4.44-1.71-6.14-0.02c-1.7,1.69-1.71,4.44-0.02,6.14
			C98.37,132.62,101.12,132.63,102.82,130.94"/>
		<path class="st0" d="M104.02,143.1c1.7-1.69,1.71-4.44,0.02-6.14c-1.69-1.7-4.44-1.71-6.14-0.02c-1.7,1.69-1.71,4.44-0.02,6.14
			C99.57,144.79,102.32,144.79,104.02,143.1"/>
		<path class="st0" d="M100.34,150.1c-1.7,1.69-1.71,4.44-0.02,6.14c1.69,1.7,4.44,1.71,6.14,0.02c1.7-1.69,1.71-4.44,0.02-6.14
			C104.8,148.42,102.05,148.41,100.34,150.1"/>
		<path class="st0" d="M106.52,160.79c-1.7,1.69-1.71,4.44-0.02,6.14c1.69,1.7,4.44,1.71,6.14,0.02c1.7-1.69,1.71-4.44,0.02-6.14
			C110.97,159.11,108.22,159.1,106.52,160.79"/>
		<path class="st0" d="M113.42,176.14c1.69,1.7,4.44,1.71,6.14,0.02c1.7-1.69,1.71-4.44,0.02-6.14c-1.69-1.7-4.44-1.71-6.14-0.02
			C111.74,171.69,111.73,174.44,113.42,176.14"/>
		<path class="st0" d="M120.87,178.21c-1.7,1.69-1.71,4.44-0.02,6.14c1.69,1.7,4.44,1.71,6.14,0.02c1.7-1.69,1.71-4.44,0.02-6.14
			C125.32,176.53,122.57,176.52,120.87,178.21"/>
		<path class="st0" d="M128.29,184.19c-1.7,1.69-1.71,4.44-0.02,6.14c1.69,1.7,4.44,1.71,6.14,0.02c1.7-1.69,1.71-4.44,0.02-6.14
			C132.75,182.51,130,182.5,128.29,184.19"/>
		<path class="st0" d="M136.23,188.43c-1.7,1.69-1.71,4.44-0.02,6.14c1.69,1.7,4.44,1.71,6.14,0.02c1.7-1.69,1.71-4.44,0.02-6.14
			C140.68,186.75,137.93,186.74,136.23,188.43"/>
		<path class="st0" d="M86.1,88.2c1.99,1.34,4.69,0.81,6.03-1.18c1.34-1.99,0.81-4.69-1.18-6.03c-1.99-1.34-4.69-0.81-6.03,1.18
			C83.58,84.16,84.11,86.86,86.1,88.2"/>
		<path class="st0" d="M88.21,97.34c-1.99-1.34-4.69-0.81-6.03,1.18c-1.34,1.99-0.81,4.69,1.18,6.03c1.99,1.34,4.69,0.81,6.03-1.18
			C90.72,101.37,90.2,98.68,88.21,97.34"/>
		<path class="st0" d="M82.57,120.51c1.99,1.34,4.69,0.81,6.03-1.18c1.34-1.99,0.81-4.69-1.18-6.03c-1.99-1.34-4.69-0.81-6.03,1.18
			C80.05,116.47,80.57,119.17,82.57,120.51"/>
		<path class="st0" d="M88.28,128.05c-1.99-1.34-4.69-0.81-6.03,1.18c-1.34,1.99-0.81,4.69,1.18,6.03c1.99,1.34,4.69,0.81,6.03-1.18
			C90.8,132.09,90.27,129.39,88.28,128.05"/>
		<path class="st0" d="M91.97,141.75c-1.99-1.34-4.69-0.81-6.03,1.18c-1.34,1.99-0.81,4.69,1.18,6.03c1.99,1.34,4.69,0.81,6.03-1.18
			C94.49,145.78,93.97,143.09,91.97,141.75"/>
		<path class="st0" d="M89.5,154.63c-1.34,1.99-0.81,4.69,1.18,6.03c1.99,1.34,4.69,0.81,6.03-1.18c1.34-1.99,0.81-4.69-1.18-6.03
			C93.54,152.11,90.84,152.63,89.5,154.63"/>
		<path class="st0" d="M94.47,167.06c-1.34,1.99-0.81,4.69,1.18,6.03c1.99,1.34,4.69,0.81,6.03-1.18c1.34-1.99,0.81-4.69-1.18-6.03
			C98.5,164.54,95.81,165.07,94.47,167.06"/>
		<path class="st0" d="M102.61,176.34c-1.34,1.99-0.81,4.69,1.18,6.03c1.99,1.34,4.69,0.81,6.03-1.18c1.34-1.99,0.81-4.69-1.18-6.03
			C106.65,173.82,103.95,174.35,102.61,176.34"/>
		<path class="st0" d="M111.2,184.02c-1.34,1.99-0.81,4.69,1.18,6.03c1.99,1.34,4.69,0.81,6.03-1.18c1.34-1.99,0.81-4.69-1.18-6.03
			C115.23,181.5,112.53,182.02,111.2,184.02"/>
		<path class="st0" d="M121.26,196.65c1.99,1.34,4.69,0.81,6.03-1.18c1.34-1.99,0.81-4.69-1.18-6.03c-1.99-1.34-4.69-0.81-6.03,1.18
			C118.74,192.61,119.27,195.31,121.26,196.65"/>
		<path class="st0" d="M129.71,201.06c1.99,1.34,4.69,0.81,6.03-1.18c1.34-1.99,0.81-4.69-1.18-6.03c-1.99-1.34-4.69-0.81-6.03,1.18
			C127.19,197.03,127.72,199.73,129.71,201.06"/>
		<path class="st0" d="M138.32,203.68c1.99,1.34,4.69,0.81,6.03-1.18c1.34-1.99,0.81-4.69-1.18-6.03c-1.99-1.34-4.69-0.81-6.03,1.18
			C135.8,199.64,136.33,202.34,138.32,203.68"/>
		<path class="st0" d="M71.77,101.11c-2.21-0.92-4.76,0.12-5.68,2.33c-0.92,2.21,0.12,4.76,2.33,5.68c2.21,0.92,4.76-0.12,5.68-2.34
			C75.03,104.57,73.98,102.03,71.77,101.11"/>
		<path class="st0" d="M72.27,117.67c-2.21-0.92-4.76,0.12-5.68,2.33c-0.92,2.21,0.12,4.76,2.33,5.68c2.21,0.93,4.76-0.12,5.68-2.33
			C75.53,121.14,74.48,118.6,72.27,117.67"/>
		<path class="st0" d="M74.61,133.49c-2.21-0.92-4.76,0.12-5.68,2.33c-0.92,2.21,0.12,4.76,2.33,5.68c2.21,0.92,4.76-0.12,5.68-2.34
			C77.86,136.95,76.82,134.41,74.61,133.49"/>
		<path class="st0" d="M78.33,147.79c-2.21-0.92-4.76,0.12-5.68,2.33c-0.92,2.21,0.12,4.76,2.34,5.68c2.21,0.92,4.76-0.12,5.68-2.34
			C81.59,151.25,80.55,148.71,78.33,147.79"/>
		<path class="st0" d="M86.96,166.18c0.92-2.21-0.12-4.76-2.34-5.68c-2.21-0.93-4.76,0.12-5.68,2.33c-0.92,2.21,0.12,4.76,2.33,5.68
			C83.49,169.44,86.04,168.39,86.96,166.18"/>
		<path class="st0" d="M87.05,179.29c2.21,0.92,4.76-0.12,5.68-2.33c0.92-2.21-0.12-4.76-2.33-5.68c-2.21-0.92-4.76,0.12-5.68,2.33
			C83.79,175.82,84.84,178.37,87.05,179.29"/>
		<path class="st0" d="M94.35,190.51c2.21,0.93,4.76-0.12,5.68-2.33c0.92-2.21-0.12-4.76-2.34-5.68c-2.21-0.93-4.76,0.12-5.68,2.33
			C91.09,187.05,92.13,189.59,94.35,190.51"/>
		<path class="st0" d="M104.14,198.03c2.21,0.93,4.76-0.12,5.68-2.33c0.92-2.21-0.12-4.76-2.33-5.68c-2.21-0.92-4.76,0.12-5.68,2.33
			C100.88,194.56,101.93,197.1,104.14,198.03"/>
		<path class="st0" d="M119.74,201.55c0.92-2.21-0.12-4.76-2.33-5.68c-2.21-0.92-4.76,0.12-5.68,2.33
			c-0.92,2.21,0.12,4.76,2.33,5.68C116.28,204.81,118.82,203.76,119.74,201.55"/>
		<path class="st0" d="M124.06,208.63c2.21,0.92,4.76-0.12,5.68-2.33c0.93-2.21-0.12-4.76-2.33-5.68c-2.21-0.92-4.76,0.12-5.68,2.33
			C120.8,205.16,121.85,207.71,124.06,208.63"/>
		<path class="st0" d="M138.9,208.98c0.92-2.21-0.12-4.76-2.33-5.68c-2.21-0.92-4.76,0.12-5.68,2.33c-0.93,2.21,0.12,4.76,2.33,5.68
			C135.43,212.23,137.97,211.19,138.9,208.98"/>
		<path class="st0" d="M147.85,209.86c0.92-2.21-0.12-4.76-2.33-5.68c-2.21-0.92-4.76,0.12-5.68,2.33
			c-0.92,2.21,0.12,4.76,2.34,5.68C144.38,213.12,146.92,212.07,147.85,209.86"/>
		<path class="st0" d="M56.88,124.58c-2.35-0.47-4.64,1.05-5.12,3.4c-0.48,2.35,1.05,4.64,3.4,5.12c2.35,0.48,4.64-1.05,5.12-3.4
			C60.76,127.34,59.23,125.05,56.88,124.58"/>
		<path class="st0" d="M60.61,140.73c-2.35-0.47-4.64,1.05-5.12,3.4c-0.47,2.35,1.05,4.64,3.4,5.12c2.35,0.48,4.64-1.05,5.12-3.4
			C64.48,143.49,62.96,141.2,60.61,140.73"/>
		<path class="st0" d="M60.86,159.18c-0.48,2.35,1.05,4.64,3.4,5.12c2.35,0.48,4.64-1.05,5.12-3.4c0.47-2.35-1.05-4.64-3.4-5.12
			C63.63,155.3,61.34,156.83,60.86,159.18"/>
		<path class="st0" d="M72.43,169.08c-2.35-0.47-4.64,1.05-5.12,3.4c-0.47,2.35,1.05,4.64,3.4,5.12c2.35,0.48,4.64-1.05,5.12-3.4
			C76.3,171.84,74.78,169.55,72.43,169.08"/>
		<path class="st0" d="M79.36,188.83c2.35,0.48,4.64-1.05,5.12-3.4s-1.05-4.64-3.4-5.12c-2.35-0.47-4.64,1.05-5.12,3.4
			C75.49,186.06,77.01,188.36,79.36,188.83"/>
		<path class="st0" d="M92.24,194.88c0.47-2.35-1.05-4.64-3.4-5.12c-2.35-0.48-4.64,1.05-5.12,3.4c-0.47,2.35,1.05,4.64,3.4,5.12
			C89.48,198.75,91.77,197.23,92.24,194.88"/>
		<path class="st0" d="M96.47,207.86c2.35,0.48,4.64-1.05,5.12-3.4s-1.05-4.64-3.4-5.12c-2.35-0.47-4.64,1.05-5.12,3.4
			C92.6,205.1,94.12,207.39,96.47,207.86"/>
		<path class="st0" d="M107.54,213.32c2.35,0.48,4.64-1.05,5.12-3.4c0.47-2.35-1.05-4.64-3.4-5.12c-2.35-0.47-4.64,1.05-5.12,3.4
			C103.67,210.56,105.19,212.85,107.54,213.32"/>
		<path class="st0" d="M118.41,217.13c2.35,0.48,4.64-1.05,5.12-3.4s-1.05-4.64-3.4-5.12c-2.35-0.47-4.64,1.05-5.12,3.4
			C114.54,214.36,116.06,216.65,118.41,217.13"/>
		<path class="st0" d="M129.15,219.83c2.35,0.48,4.64-1.05,5.12-3.4c0.47-2.35-1.05-4.64-3.4-5.12c-2.35-0.47-4.64,1.05-5.12,3.4
			C125.28,217.07,126.8,219.36,129.15,219.83"/>
		<path class="st0" d="M138.65,220.68c2.35,0.48,4.64-1.05,5.12-3.4c0.48-2.35-1.05-4.64-3.4-5.12c-2.35-0.47-4.64,1.05-5.12,3.4
			C134.77,217.91,136.29,220.2,138.65,220.68"/>
		<path class="st0" d="M147.6,219.8c2.35,0.48,4.64-1.05,5.12-3.4c0.48-2.35-1.05-4.64-3.4-5.12c-2.35-0.47-4.64,1.05-5.12,3.4
			C143.72,217.03,145.25,219.32,147.6,219.8"/>
		<path class="st0" d="M46.86,150.5c-2.4-0.01-4.35,1.93-4.36,4.33c-0.01,2.4,1.93,4.35,4.33,4.36c2.4,0.01,4.35-1.93,4.36-4.33
			S49.26,150.51,46.86,150.5"/>
		<path class="st0" d="M49.31,169.95c-0.01,2.4,1.93,4.35,4.33,4.36c2.4,0.01,4.35-1.93,4.36-4.33s-1.93-4.35-4.33-4.36
			C51.26,165.61,49.31,167.55,49.31,169.95"/>
		<path class="st0" d="M66.2,183.68c0.01-2.4-1.93-4.35-4.33-4.36c-2.4-0.01-4.35,1.93-4.36,4.33c-0.01,2.4,1.93,4.35,4.33,4.36
			C64.25,188.02,66.2,186.08,66.2,183.68"/>
		<path class="st0" d="M70.77,199.8c2.4,0.01,4.35-1.93,4.36-4.33c0.01-2.4-1.93-4.35-4.33-4.36c-2.4-0.01-4.35,1.93-4.36,4.33
			C66.43,197.84,68.37,199.79,70.77,199.8"/>
		<path class="st0" d="M85.8,204.8c0.01-2.4-1.93-4.35-4.33-4.35c-2.4-0.01-4.35,1.93-4.36,4.33c-0.01,2.4,1.93,4.35,4.33,4.35
			C83.84,209.14,85.79,207.2,85.8,204.8"/>
		<path class="st0" d="M90.9,216.88c2.4,0.01,4.35-1.93,4.36-4.33c0.01-2.4-1.93-4.35-4.33-4.36c-2.4-0.01-4.35,1.93-4.36,4.33
			C86.56,214.93,88.5,216.88,90.9,216.88"/>
		<path class="st0" d="M101.94,224.46c2.4,0.01,4.35-1.93,4.36-4.33c0.01-2.4-1.93-4.35-4.33-4.36c-2.4-0.01-4.35,1.93-4.36,4.33
			C97.6,222.51,99.54,224.46,101.94,224.46"/>
		<path class="st0" d="M118.22,223.33c0.01-2.4-1.93-4.35-4.33-4.35c-2.4-0.01-4.35,1.93-4.36,4.33c-0.01,2.4,1.93,4.35,4.33,4.35
			S118.21,225.72,118.22,223.33"/>
		<path class="st0" d="M129.62,224.94c0.01-2.4-1.93-4.35-4.33-4.36c-2.4-0.01-4.35,1.93-4.36,4.33c-0.01,2.4,1.93,4.35,4.33,4.36
			C127.66,229.28,129.61,227.34,129.62,224.94"/>
		<path class="st0" d="M140.68,225.5c0.01-2.4-1.93-4.35-4.33-4.35c-2.4-0.01-4.35,1.93-4.36,4.33c-0.01,2.4,1.93,4.35,4.33,4.35
			C138.72,229.83,140.67,227.9,140.68,225.5"/>
		<path class="st0" d="M150.16,224.47c0.01-2.4-1.93-4.35-4.33-4.35c-2.4-0.01-4.35,1.93-4.36,4.33c-0.01,2.4,1.93,4.35,4.33,4.36
			S150.15,226.87,150.16,224.47"/>
		<path class="st0" d="M154.41,226.19c2.4,0.01,4.35-1.93,4.36-4.33c0.01-2.4-1.93-4.35-4.33-4.36c-2.4-0.01-4.35,1.93-4.36,4.33
			C150.07,224.24,152.01,226.19,154.41,226.19"/>
		<path class="st0" d="M38.66,182.98c0.46,2.36,2.74,3.89,5.1,3.43c2.35-0.46,3.89-2.74,3.43-5.1c-0.46-2.35-2.74-3.89-5.1-3.43
			C39.74,178.34,38.2,180.62,38.66,182.98"/>
		<path class="st0" d="M51.71,191.38c-2.35,0.46-3.89,2.74-3.43,5.1c0.46,2.35,2.74,3.89,5.1,3.43c2.35-0.46,3.89-2.74,3.43-5.1
			C56.35,192.45,54.06,190.92,51.71,191.38"/>
		<path class="st0" d="M64.11,211.75c2.36-0.46,3.89-2.74,3.43-5.1c-0.46-2.35-2.74-3.89-5.1-3.43c-2.35,0.46-3.89,2.74-3.43,5.1
			C59.47,210.68,61.75,212.21,64.11,211.75"/>
		<path class="st0" d="M75.15,221.57c2.35-0.46,3.89-2.74,3.43-5.1c-0.46-2.35-2.74-3.89-5.1-3.43c-2.35,0.46-3.89,2.74-3.43,5.1
			C70.52,220.5,72.8,222.03,75.15,221.57"/>
		<path class="st0" d="M90.88,223.54c-0.46-2.35-2.74-3.89-5.1-3.43c-2.35,0.46-3.89,2.74-3.43,5.1c0.46,2.35,2.74,3.89,5.1,3.43
			C89.8,228.18,91.34,225.9,90.88,223.54"/>
		<path class="st0" d="M101.66,229.3c-0.46-2.35-2.74-3.89-5.1-3.43c-2.35,0.46-3.89,2.74-3.43,5.1c0.46,2.35,2.74,3.89,5.1,3.43
			C100.59,233.94,102.12,231.65,101.66,229.3"/>
		<path class="st0" d="M113.96,234.58c-0.46-2.35-2.74-3.89-5.1-3.43c-2.35,0.46-3.89,2.74-3.43,5.1c0.46,2.35,2.74,3.89,5.1,3.43
			C112.89,239.22,114.42,236.93,113.96,234.58"/>
		<path class="st0" d="M126.28,235.39c-0.46-2.35-2.74-3.89-5.1-3.43c-2.35,0.46-3.89,2.74-3.43,5.1c0.46,2.35,2.74,3.89,5.1,3.43
			C125.21,240.02,126.74,237.74,126.28,235.39"/>
		<path class="st0" d="M137.78,234.74c-0.46-2.35-2.74-3.89-5.1-3.43s-3.89,2.74-3.43,5.1c0.46,2.35,2.74,3.89,5.1,3.43
			C136.71,239.38,138.24,237.1,137.78,234.74"/>
		<path class="st0" d="M145.31,238.23c2.35-0.46,3.89-2.74,3.43-5.1c-0.46-2.35-2.74-3.89-5.1-3.43c-2.35,0.46-3.89,2.74-3.43,5.1
			C140.67,237.16,142.95,238.69,145.31,238.23"/>
		<path class="st0" d="M154.4,235.38c2.35-0.46,3.89-2.74,3.43-5.1c-0.46-2.35-2.74-3.89-5.1-3.43c-2.35,0.46-3.89,2.74-3.43,5.1
			C149.77,234.3,152.05,235.84,154.4,235.38"/>
		<path class="st0" d="M162.34,231.14c2.35-0.46,3.89-2.74,3.43-5.1c-0.46-2.35-2.74-3.89-5.1-3.43c-2.35,0.46-3.89,2.74-3.43,5.1
			C157.7,230.07,159.98,231.6,162.34,231.14"/>
		<path class="st0" d="M46.05,213.7c2.22-0.91,3.28-3.45,2.37-5.67c-0.91-2.22-3.45-3.28-5.67-2.37c-2.22,0.91-3.28,3.45-2.37,5.67
			C41.3,213.55,43.83,214.61,46.05,213.7"/>
		<path class="st0" d="M58.12,225.06c2.22-0.91,3.28-3.45,2.37-5.67c-0.91-2.22-3.45-3.28-5.67-2.37c-2.22,0.91-3.28,3.45-2.37,5.67
			C53.36,224.91,55.9,225.97,58.12,225.06"/>
		<path class="st0" d="M73.32,228.92c-0.91-2.22-3.45-3.28-5.67-2.37c-2.22,0.91-3.28,3.45-2.37,5.67c0.91,2.22,3.45,3.28,5.67,2.37
			C73.17,233.68,74.23,231.14,73.32,228.92"/>
		<path class="st0" d="M86.07,236.4c-0.91-2.22-3.45-3.28-5.67-2.37c-2.22,0.91-3.28,3.45-2.37,5.67c0.91,2.22,3.45,3.28,5.67,2.37
			C85.92,241.15,86.98,238.62,86.07,236.4"/>
		<path class="st0" d="M97.14,246.6c2.22-0.91,3.28-3.45,2.37-5.67c-0.91-2.22-3.45-3.28-5.67-2.37c-2.22,0.91-3.28,3.45-2.37,5.67
			C92.38,246.45,94.92,247.51,97.14,246.6"/>
		<path class="st0" d="M108.84,250.14c2.22-0.91,3.28-3.45,2.37-5.67s-3.45-3.28-5.67-2.37c-2.22,0.91-3.28,3.45-2.37,5.67
			C104.09,250,106.62,251.06,108.84,250.14"/>
		<path class="st0" d="M118.64,244.89c-2.22,0.91-3.28,3.45-2.37,5.67c0.91,2.22,3.45,3.28,5.67,2.37c2.22-0.91,3.28-3.45,2.37-5.67
			C123.39,245.04,120.86,243.98,118.64,244.89"/>
		<path class="st0" d="M134.18,251.31c2.22-0.91,3.28-3.45,2.37-5.67c-0.91-2.22-3.45-3.28-5.67-2.37
			c-2.22,0.91-3.28,3.45-2.37,5.67C129.42,251.16,131.96,252.22,134.18,251.31"/>
		<path class="st0" d="M145.33,248.44c2.22-0.91,3.28-3.45,2.37-5.67c-0.91-2.22-3.45-3.28-5.67-2.37
			c-2.22,0.91-3.28,3.45-2.37,5.67C140.57,248.29,143.11,249.35,145.33,248.44"/>
		<path class="st0" d="M155.76,244.72c2.22-0.91,3.28-3.45,2.37-5.67c-0.91-2.22-3.45-3.28-5.67-2.37
			c-2.22,0.91-3.28,3.45-2.37,5.67C151,244.57,153.54,245.63,155.76,244.72"/>
		<path class="st0" d="M164.13,240.15c2.22-0.91,3.28-3.45,2.37-5.67c-0.91-2.22-3.45-3.28-5.67-2.37
			c-2.22,0.91-3.28,3.45-2.37,5.67C159.37,240,161.91,241.06,164.13,240.15"/>
		<path class="st0" d="M171.08,234.44c2.22-0.91,3.28-3.45,2.37-5.67c-0.91-2.22-3.45-3.28-5.67-2.37
			c-2.22,0.91-3.28,3.45-2.37,5.67C166.32,234.29,168.86,235.35,171.08,234.44"/>
		<path class="st0" d="M53.63,240.02c2-1.33,2.54-4.02,1.22-6.02c-1.33-2-4.02-2.54-6.02-1.22c-2,1.33-2.54,4.02-1.22,6.02
			C48.93,240.81,51.63,241.35,53.63,240.02"/>
		<path class="st0" d="M68.9,242.79c-1.33-2-4.02-2.54-6.02-1.22c-2,1.33-2.54,4.02-1.22,6.02c1.33,2,4.02,2.54,6.02,1.21
			C69.68,247.49,70.22,244.79,68.9,242.79"/>
		<path class="st0" d="M83.34,249.63c-1.33-2-4.02-2.54-6.02-1.22c-2,1.33-2.54,4.02-1.22,6.02c1.33,2,4.02,2.54,6.02,1.22
			C84.12,254.33,84.67,251.63,83.34,249.63"/>
		<path class="st0" d="M96.09,260.5c2-1.33,2.54-4.02,1.22-6.02c-1.33-2-4.02-2.54-6.02-1.22c-2,1.33-2.54,4.02-1.21,6.02
			C91.39,261.28,94.09,261.83,96.09,260.5"/>
		<path class="st0" d="M110.15,262.33c2-1.33,2.54-4.02,1.22-6.02c-1.33-2-4.02-2.54-6.02-1.22c-2,1.33-2.54,4.02-1.22,6.02
			C105.46,263.11,108.15,263.65,110.15,262.33"/>
		<path class="st0" d="M122.32,263.52c2-1.33,2.54-4.02,1.22-6.02c-1.33-2-4.02-2.54-6.02-1.22c-2,1.33-2.54,4.02-1.22,6.02
			C117.62,264.3,120.32,264.85,122.32,263.52"/>
		<path class="st0" d="M135.71,263.69c2-1.33,2.54-4.02,1.22-6.02c-1.33-2-4.02-2.54-6.02-1.22c-2,1.33-2.54,4.02-1.22,6.02
			C131.01,264.47,133.71,265.02,135.71,263.69"/>
		<path class="st0" d="M147.4,259.72c2-1.33,2.54-4.02,1.22-6.02c-1.33-2-4.02-2.54-6.02-1.22c-2,1.33-2.54,4.02-1.22,6.02
			C142.7,260.5,145.4,261.05,147.4,259.72"/>
		<path class="st0" d="M157.77,254.73c2-1.33,2.54-4.02,1.22-6.02c-1.33-2-4.02-2.54-6.02-1.22c-2,1.33-2.54,4.02-1.22,6.02
			C153.08,255.51,155.78,256.05,157.77,254.73"/>
		<path class="st0" d="M167.28,249.05c2-1.33,2.54-4.02,1.22-6.02c-1.33-2-4.02-2.54-6.02-1.22c-2,1.33-2.54,4.02-1.22,6.02
			C162.58,249.83,165.28,250.38,167.28,249.05"/>
		<path class="st0" d="M174.59,242.93c2-1.33,2.54-4.02,1.22-6.02c-1.33-2-4.02-2.54-6.02-1.22c-2,1.33-2.54,4.02-1.21,6.02
			C169.9,243.71,172.59,244.25,174.59,242.93"/>
		<path class="st0" d="M174.28,234.76c1.33,2,4.02,2.54,6.02,1.22c2-1.33,2.54-4.02,1.22-6.02c-1.33-2-4.02-2.54-6.02-1.21
			C173.49,230.07,172.95,232.76,174.28,234.76"/>
		<path class="st0" d="M66.19,264.37c1.7-1.69,1.71-4.44,0.02-6.14c-1.69-1.7-4.44-1.71-6.14-0.02c-1.7,1.69-1.71,4.44-0.02,6.14
			C61.74,266.05,64.49,266.06,66.19,264.37"/>
		<path class="st0" d="M81.69,270.24c1.7-1.69,1.71-4.44,0.02-6.14c-1.69-1.7-4.44-1.71-6.14-0.02c-1.7,1.69-1.71,4.44-0.02,6.14
			C77.24,271.93,79.99,271.93,81.69,270.24"/>
		<path class="st0" d="M97.19,274.14c1.7-1.69,1.71-4.44,0.02-6.14c-1.69-1.7-4.44-1.71-6.14-0.02c-1.7,1.69-1.71,4.44-0.02,6.14
			C92.74,275.82,95.49,275.83,97.19,274.14"/>
		<path class="st0" d="M111.83,276.16c1.7-1.69,1.71-4.44,0.02-6.14c-1.69-1.7-4.44-1.71-6.14-0.02c-1.7,1.69-1.71,4.44-0.02,6.14
			C107.38,277.85,110.13,277.86,111.83,276.16"/>
		<path class="st0" d="M125.98,275.21c1.7-1.69,1.71-4.44,0.02-6.14c-1.69-1.7-4.44-1.71-6.14-0.02c-1.7,1.69-1.71,4.44-0.02,6.14
			C121.53,276.9,124.28,276.9,125.98,275.21"/>
		<path class="st0" d="M138.15,274.01c1.7-1.69,1.71-4.44,0.02-6.14c-1.69-1.7-4.44-1.71-6.14-0.02c-1.7,1.69-1.71,4.44-0.02,6.14
			C133.7,275.69,136.45,275.7,138.15,274.01"/>
		<path class="st0" d="M151.31,271.56c1.7-1.69,1.71-4.44,0.02-6.14c-1.69-1.7-4.44-1.71-6.14-0.02c-1.7,1.69-1.71,4.44-0.02,6.14
			C146.86,273.25,149.61,273.25,151.31,271.56"/>
		<path class="st0" d="M162,265.39c1.7-1.69,1.71-4.44,0.02-6.14c-1.69-1.7-4.44-1.71-6.14-0.02c-1.7,1.69-1.71,4.44-0.02,6.14
			C157.55,267.07,160.3,267.08,162,265.39"/>
		<path class="st0" d="M171.2,258.47c1.7-1.69,1.71-4.44,0.02-6.14c-1.69-1.7-4.44-1.71-6.14-0.02c-1.7,1.69-1.71,4.44-0.02,6.14
			C166.75,260.15,169.5,260.16,171.2,258.47"/>
		<path class="st0" d="M179.42,251.04c1.7-1.69,1.71-4.44,0.02-6.14c-1.69-1.7-4.44-1.71-6.14-0.02c-1.7,1.69-1.71,4.44-0.02,6.14
			C174.97,252.73,177.72,252.73,179.42,251.04"/>
		<path class="st0" d="M185.4,243.61c1.7-1.69,1.71-4.44,0.02-6.14c-1.69-1.7-4.44-1.71-6.14-0.02c-1.7,1.69-1.71,4.44-0.02,6.14
			C180.95,245.3,183.7,245.3,185.4,243.61"/>
		<path class="st0" d="M189.64,235.68c1.7-1.69,1.71-4.44,0.02-6.14c-1.69-1.7-4.44-1.71-6.14-0.02c-1.7,1.69-1.71,4.44-0.02,6.14
			C185.19,237.37,187.94,237.37,189.64,235.68"/>
		<path class="st0" d="M77.23,286.97c1.99,1.34,4.69,0.81,6.03-1.18c1.34-1.99,0.81-4.69-1.18-6.03c-1.99-1.34-4.69-0.81-6.03,1.18
			C74.71,282.93,75.24,285.63,77.23,286.97"/>
		<path class="st0" d="M99.61,288.53c1.34-1.99,0.81-4.69-1.18-6.03c-1.99-1.34-4.69-0.81-6.03,1.18c-1.34,1.99-0.81,4.69,1.18,6.03
			C95.57,291.05,98.27,290.52,99.61,288.53"/>
		<path class="st0" d="M109.54,290.5c1.99,1.34,4.69,0.81,6.03-1.18c1.34-1.99,0.81-4.69-1.18-6.03c-1.99-1.34-4.69-0.81-6.03,1.18
			C107.02,286.47,107.55,289.16,109.54,290.5"/>
		<path class="st0" d="M124.3,289.64c1.99,1.34,4.69,0.81,6.03-1.18c1.34-1.99,0.81-4.69-1.18-6.03s-4.69-0.81-6.03,1.18
			C121.78,285.6,122.3,288.3,124.3,289.64"/>
		<path class="st0" d="M137.99,285.94c1.99,1.34,4.69,0.81,6.03-1.18c1.34-1.99,0.81-4.69-1.18-6.03c-1.99-1.34-4.69-0.81-6.03,1.18
			C135.47,281.91,136,284.6,137.99,285.94"/>
		<path class="st0" d="M155.72,281.21c1.34-1.99,0.81-4.69-1.18-6.03c-1.99-1.34-4.69-0.81-6.03,1.18
			c-1.34,1.99-0.81,4.69,1.18,6.03C151.68,283.73,154.38,283.2,155.72,281.21"/>
		<path class="st0" d="M162.12,277.42c1.99,1.34,4.69,0.81,6.03-1.18c1.34-1.99,0.81-4.69-1.18-6.03c-1.99-1.34-4.69-0.81-6.03,1.18
			C159.6,273.39,160.13,276.08,162.12,277.42"/>
		<path class="st0" d="M171.4,269.28c1.99,1.34,4.69,0.81,6.03-1.18c1.34-1.99,0.81-4.69-1.18-6.03c-1.99-1.34-4.69-0.81-6.03,1.18
			C168.88,265.24,169.41,267.94,171.4,269.28"/>
		<path class="st0" d="M179.08,260.7c1.99,1.34,4.69,0.81,6.03-1.18c1.34-1.99,0.81-4.69-1.18-6.03c-1.99-1.34-4.69-0.81-6.03,1.18
			C176.56,256.66,177.09,259.36,179.08,260.7"/>
		<path class="st0" d="M185.69,251.81c1.99,1.34,4.69,0.81,6.03-1.18c1.34-1.99,0.81-4.69-1.18-6.03c-1.99-1.34-4.69-0.81-6.03,1.18
			C183.17,247.78,183.69,250.47,185.69,251.81"/>
		<path class="st0" d="M196.13,242.18c1.34-1.99,0.81-4.69-1.18-6.03c-1.99-1.34-4.69-0.81-6.03,1.18
			c-1.34,1.99-0.81,4.69,1.18,6.03C192.09,244.7,194.79,244.17,196.13,242.18"/>
		<path class="st0" d="M198.74,233.57c1.34-1.99,0.81-4.69-1.18-6.03c-1.99-1.34-4.69-0.81-6.03,1.18
			c-1.34,1.99-0.81,4.69,1.18,6.03C194.71,236.09,197.4,235.56,198.74,233.57"/>
		<path class="st0" d="M96.17,300.12c-0.93,2.21,0.12,4.76,2.33,5.68c2.21,0.92,4.76-0.12,5.68-2.34c0.92-2.21-0.12-4.76-2.33-5.68
			C99.64,296.86,97.09,297.91,96.17,300.12"/>
		<path class="st0" d="M115.07,305.3c2.21,0.92,4.76-0.12,5.68-2.33c0.92-2.21-0.12-4.76-2.33-5.68c-2.21-0.92-4.76,0.12-5.68,2.33
			C111.81,301.83,112.85,304.38,115.07,305.3"/>
		<path class="st0" d="M130.88,302.97c2.21,0.92,4.76-0.12,5.68-2.33c0.93-2.21-0.12-4.76-2.33-5.68c-2.21-0.92-4.76,0.12-5.68,2.33
			C127.62,299.5,128.67,302.04,130.88,302.97"/>
		<path class="st0" d="M148.53,291.22c-2.21-0.92-4.76,0.12-5.68,2.33c-0.93,2.21,0.12,4.76,2.33,5.68
			c2.21,0.92,4.76-0.12,5.68-2.33C151.79,294.69,150.74,292.15,148.53,291.22"/>
		<path class="st0" d="M163.57,290.61c0.92-2.21-0.12-4.76-2.33-5.68c-2.21-0.92-4.76,0.12-5.68,2.33
			c-0.93,2.21,0.12,4.76,2.33,5.68C160.1,293.87,162.65,292.82,163.57,290.61"/>
		<path class="st0" d="M174.35,284.84c0.92-2.21-0.12-4.76-2.33-5.68c-2.21-0.92-4.76,0.12-5.68,2.33
			c-0.93,2.21,0.12,4.76,2.33,5.68C170.88,288.1,173.43,287.05,174.35,284.84"/>
		<path class="st0" d="M185.58,277.54c0.92-2.21-0.12-4.76-2.33-5.68c-2.21-0.92-4.76,0.12-5.68,2.33
			c-0.93,2.21,0.12,4.76,2.33,5.68C182.11,280.8,184.65,279.76,185.58,277.54"/>
		<path class="st0" d="M187.41,270.08c2.21,0.92,4.76-0.12,5.68-2.33c0.93-2.21-0.12-4.76-2.33-5.68c-2.21-0.92-4.76,0.12-5.68,2.33
			C184.15,266.62,185.2,269.16,187.41,270.08"/>
		<path class="st0" d="M198.95,257.83c0.92-2.21-0.12-4.76-2.33-5.68c-2.21-0.92-4.76,0.12-5.68,2.33
			c-0.93,2.21,0.12,4.76,2.33,5.68C195.48,261.09,198.02,260.05,198.95,257.83"/>
		<path class="st0" d="M203.69,247.83c0.92-2.21-0.12-4.76-2.33-5.68c-2.21-0.92-4.76,0.12-5.68,2.33
			c-0.93,2.21,0.12,4.76,2.33,5.68C200.22,251.09,202.77,250.04,203.69,247.83"/>
		<path class="st0" d="M200.69,241.01c2.21,0.93,4.76-0.12,5.68-2.33c0.93-2.21-0.12-4.76-2.33-5.68c-2.21-0.92-4.76,0.12-5.68,2.33
			C197.43,237.54,198.48,240.09,200.69,241.01"/>
		<path class="st0" d="M199.24,226.38c-0.93,2.21,0.12,4.76,2.33,5.68c2.21,0.92,4.76-0.12,5.68-2.34c0.93-2.21-0.12-4.76-2.33-5.68
			C202.71,223.12,200.17,224.17,199.24,226.38"/>
		<path class="st0" d="M123.03,320.12c2.35,0.48,4.64-1.05,5.12-3.4c0.47-2.35-1.05-4.64-3.4-5.12c-2.35-0.48-4.64,1.05-5.12,3.4
			C119.16,317.36,120.68,319.65,123.03,320.12"/>
		<path class="st0" d="M140.9,307.89c-2.35-0.48-4.64,1.05-5.12,3.4c-0.47,2.35,1.05,4.64,3.4,5.12c2.35,0.47,4.64-1.05,5.12-3.4
			C144.78,310.65,143.26,308.36,140.9,307.89"/>
		<path class="st0" d="M155.96,302.51c-2.35-0.48-4.64,1.05-5.12,3.4c-0.47,2.35,1.05,4.64,3.4,5.12c2.35,0.47,4.64-1.05,5.12-3.4
			C159.83,305.28,158.31,302.99,155.96,302.51"/>
		<path class="st0" d="M172.65,301.18c0.47-2.35-1.05-4.64-3.4-5.12c-2.35-0.48-4.64,1.05-5.12,3.4c-0.48,2.35,1.05,4.64,3.4,5.12
			C169.89,305.05,172.18,303.53,172.65,301.18"/>
		<path class="st0" d="M180.49,287.41c-2.35-0.48-4.64,1.05-5.12,3.4c-0.47,2.35,1.05,4.64,3.4,5.12c2.35,0.47,4.64-1.05,5.12-3.4
			C184.37,290.18,182.85,287.89,180.49,287.41"/>
		<path class="st0" d="M188.22,288.17c2.35,0.48,4.64-1.05,5.12-3.4c0.47-2.35-1.05-4.64-3.4-5.12c-2.35-0.48-4.64,1.05-5.12,3.4
			C184.35,285.4,185.87,287.69,188.22,288.17"/>
		<path class="st0" d="M197.81,278.82c2.35,0.48,4.64-1.05,5.12-3.4c0.47-2.35-1.05-4.64-3.4-5.12c-2.35-0.47-4.64,1.05-5.12,3.4
			C193.94,276.06,195.46,278.35,197.81,278.82"/>
		<path class="st0" d="M208.39,264.35c0.47-2.35-1.05-4.64-3.4-5.12c-2.35-0.48-4.64,1.05-5.12,3.4c-0.48,2.35,1.05,4.64,3.4,5.12
			C205.62,268.22,207.91,266.7,208.39,264.35"/>
		<path class="st0" d="M207.07,256.88c2.35,0.48,4.64-1.05,5.12-3.4c0.47-2.35-1.05-4.64-3.4-5.12c-2.35-0.47-4.64,1.05-5.12,3.4
			C203.2,254.11,204.72,256.4,207.07,256.88"/>
		<path class="st0" d="M209.78,246.14c2.35,0.48,4.64-1.05,5.12-3.4c0.47-2.35-1.05-4.64-3.4-5.12c-2.35-0.47-4.64,1.05-5.12,3.4
			C205.91,243.38,207.43,245.67,209.78,246.14"/>
		<path class="st0" d="M212.34,228.13c-2.35-0.48-4.64,1.05-5.12,3.4c-0.47,2.35,1.05,4.64,3.4,5.12c2.35,0.47,4.64-1.05,5.12-3.4
			C216.22,230.9,214.7,228.6,212.34,228.13"/>
		<path class="st0" d="M214.86,224.29c0.47-2.35-1.05-4.64-3.4-5.12c-2.35-0.47-4.64,1.05-5.12,3.4c-0.48,2.35,1.05,4.64,3.4,5.12
			C212.1,228.17,214.39,226.65,214.86,224.29"/>
		<path class="st0" d="M145.56,325.03c-0.01,2.4,1.93,4.35,4.33,4.36c2.4,0.01,4.35-1.93,4.36-4.33c0.01-2.4-1.93-4.35-4.33-4.36
			S145.57,322.63,145.56,325.03"/>
		<path class="st0" d="M165.03,313.9c-2.4-0.01-4.35,1.93-4.36,4.33c-0.01,2.4,1.93,4.35,4.33,4.36c2.4,0.01,4.35-1.93,4.36-4.33
			C169.37,315.85,167.43,313.9,165.03,313.9"/>
		<path class="st0" d="M178.72,314.38c2.4,0.01,4.35-1.93,4.36-4.33c0.01-2.4-1.93-4.35-4.33-4.36c-2.4-0.01-4.35,1.93-4.36,4.33
			C174.38,312.42,176.32,314.37,178.72,314.38"/>
		<path class="st0" d="M190.51,305.46c2.4,0.01,4.35-1.93,4.36-4.33c0.01-2.4-1.93-4.35-4.33-4.36c-2.4-0.01-4.35,1.93-4.36,4.33
			C186.17,303.5,188.11,305.45,190.51,305.46"/>
		<path class="st0" d="M204.2,290.45c0.01-2.4-1.93-4.35-4.33-4.36c-2.4-0.01-4.35,1.93-4.36,4.33c-0.01,2.4,1.93,4.35,4.33,4.36
			C202.24,294.79,204.19,292.85,204.2,290.45"/>
		<path class="st0" d="M211.95,280.99c0.01-2.4-1.93-4.35-4.33-4.36c-2.4-0.01-4.35,1.93-4.36,4.33c-0.01,2.4,1.93,4.35,4.33,4.36
			C209.99,285.33,211.94,283.39,211.95,280.99"/>
		<path class="st0" d="M215.17,274.29c2.4,0.01,4.35-1.93,4.36-4.33c0.01-2.4-1.93-4.35-4.33-4.36c-2.4-0.01-4.35,1.93-4.36,4.33
			C210.83,272.33,212.77,274.28,215.17,274.29"/>
		<path class="st0" d="M222.72,258.03c0.01-2.4-1.93-4.35-4.33-4.36c-2.4-0.01-4.35,1.93-4.36,4.33c-0.01,2.4,1.93,4.35,4.33,4.36
			C220.76,262.37,222.71,260.43,222.72,258.03"/>
		<path class="st0" d="M224.34,246.63c0.01-2.4-1.93-4.35-4.33-4.36c-2.4-0.01-4.35,1.93-4.36,4.33c-0.01,2.4,1.93,4.35,4.33,4.36
			C222.38,250.97,224.33,249.03,224.34,246.63"/>
		<path class="st0" d="M220.56,231.22c-2.4-0.01-4.35,1.93-4.36,4.33c-0.01,2.4,1.93,4.35,4.33,4.36c2.4,0.01,4.35-1.93,4.36-4.33
			C224.9,233.17,222.96,231.22,220.56,231.22"/>
		<path class="st0" d="M219.51,230.42c2.4,0.01,4.35-1.93,4.36-4.33c0.01-2.4-1.93-4.35-4.33-4.36c-2.4-0.01-4.35,1.93-4.36,4.33
			C215.17,228.46,217.11,230.41,219.51,230.42"/>
		<path class="st0" d="M221.26,217.48c0.01-2.4-1.93-4.35-4.33-4.36c-2.4-0.01-4.35,1.93-4.36,4.33c-0.01,2.4,1.93,4.35,4.33,4.36
			S221.25,219.88,221.26,217.48"/>
		<path class="st0" d="M181.47,328.13c-0.46-2.35-2.74-3.89-5.1-3.43s-3.89,2.74-3.43,5.1c0.46,2.35,2.74,3.89,5.1,3.43
			C180.39,332.77,181.93,330.49,181.47,328.13"/>
		<path class="st0" d="M189.87,315.09c-2.35,0.46-3.89,2.74-3.43,5.1c0.46,2.35,2.74,3.89,5.1,3.43c2.35-0.46,3.89-2.74,3.43-5.1
			C194.5,316.16,192.22,314.62,189.87,315.09"/>
		<path class="st0" d="M201.72,304.36c-2.35,0.46-3.89,2.74-3.43,5.1c0.46,2.35,2.74,3.89,5.1,3.43c2.35-0.46,3.89-2.74,3.43-5.1
			S204.07,303.9,201.72,304.36"/>
		<path class="st0" d="M213.21,301.84c2.35-0.46,3.89-2.74,3.43-5.1c-0.46-2.35-2.74-3.89-5.1-3.43c-2.35,0.46-3.89,2.74-3.43,5.1
			C208.57,300.77,210.85,302.3,213.21,301.84"/>
		<path class="st0" d="M223.7,284.45c-0.46-2.35-2.74-3.89-5.1-3.43s-3.89,2.74-3.43,5.1c0.46,2.35,2.74,3.89,5.1,3.43
			C222.63,289.08,224.17,286.8,223.7,284.45"/>
		<path class="st0" d="M226.03,278.76c2.35-0.46,3.89-2.74,3.43-5.1c-0.46-2.35-2.74-3.89-5.1-3.43c-2.35,0.46-3.89,2.74-3.43,5.1
			C221.4,277.69,223.68,279.22,226.03,278.76"/>
		<path class="st0" d="M231.31,266.46c2.35-0.46,3.89-2.74,3.43-5.1s-2.74-3.89-5.1-3.43c-2.35,0.46-3.89,2.74-3.43,5.1
			C226.68,265.38,228.96,266.92,231.31,266.46"/>
		<path class="st0" d="M235.55,249.04c-0.46-2.35-2.74-3.89-5.1-3.43s-3.89,2.74-3.43,5.1c0.46,2.35,2.74,3.89,5.1,3.43
			C234.48,253.68,236.01,251.39,235.55,249.04"/>
		<path class="st0" d="M229.81,234.11c-2.35,0.46-3.89,2.74-3.43,5.1s2.74,3.89,5.1,3.43c2.35-0.46,3.89-2.74,3.43-5.1
			S232.16,233.65,229.81,234.11"/>
		<path class="st0" d="M229.87,231.68c2.35-0.46,3.89-2.74,3.43-5.1c-0.46-2.35-2.74-3.89-5.1-3.43c-2.35,0.46-3.89,2.74-3.43,5.1
			C225.23,230.61,227.52,232.15,229.87,231.68"/>
		<path class="st0" d="M227.02,222.59c2.35-0.46,3.89-2.74,3.43-5.1c-0.46-2.35-2.74-3.89-5.1-3.43c-2.35,0.46-3.89,2.74-3.43,5.1
			C222.38,221.51,224.66,223.05,227.02,222.59"/>
		<path class="st0" d="M222.78,214.65c2.35-0.46,3.89-2.74,3.43-5.1s-2.74-3.89-5.1-3.43c-2.35,0.46-3.89,2.74-3.43,5.1
			C218.14,213.58,220.43,215.11,222.78,214.65"/>
		<path class="st0" d="M208.76,325.84c-0.91-2.22-3.45-3.28-5.67-2.37c-2.22,0.91-3.28,3.45-2.37,5.67
			c0.91,2.22,3.45,3.28,5.67,2.37C208.61,330.6,209.67,328.06,208.76,325.84"/>
		<path class="st0" d="M217.76,319.44c2.22-0.91,3.28-3.45,2.37-5.67c-0.91-2.22-3.45-3.28-5.67-2.37
			c-2.22,0.91-3.28,3.45-2.37,5.67C213,319.29,215.54,320.35,217.76,319.44"/>
		<path class="st0" d="M229.65,300.94c-0.91-2.22-3.45-3.28-5.67-2.37c-2.22,0.91-3.28,3.45-2.37,5.67
			c0.91,2.22,3.45,3.28,5.67,2.37C229.5,305.7,230.56,303.16,229.65,300.94"/>
		<path class="st0" d="M234.76,293.86c2.22-0.91,3.28-3.45,2.37-5.67c-0.91-2.22-3.45-3.28-5.67-2.37
			c-2.22,0.91-3.28,3.45-2.37,5.67C230,293.71,232.54,294.77,234.76,293.86"/>
		<path class="st0" d="M239.3,280.42c2.22-0.91,3.28-3.45,2.37-5.67c-0.91-2.22-3.45-3.28-5.67-2.37c-2.22,0.91-3.28,3.45-2.37,5.67
			C234.54,280.27,237.08,281.33,239.3,280.42"/>
		<path class="st0" d="M245.21,263.05c-0.91-2.22-3.45-3.28-5.67-2.37c-2.22,0.91-3.28,3.45-2.37,5.67
			c0.91,2.22,3.45,3.28,5.67,2.37C245.06,267.81,246.12,265.27,245.21,263.05"/>
		<path class="st0" d="M245.62,255.63c2.22-0.91,3.28-3.45,2.37-5.67c-0.91-2.22-3.45-3.28-5.67-2.37
			c-2.22,0.91-3.28,3.45-2.37,5.67C240.86,255.48,243.4,256.54,245.62,255.63"/>
		<path class="st0" d="M244.01,243.38c2.22-0.91,3.28-3.45,2.37-5.67c-0.91-2.22-3.45-3.28-5.67-2.37
			c-2.22,0.91-3.28,3.45-2.37,5.67C239.25,243.24,241.79,244.3,244.01,243.38"/>
		<path class="st0" d="M241.14,232.23c2.22-0.91,3.28-3.45,2.37-5.67c-0.91-2.22-3.45-3.28-5.67-2.37
			c-2.22,0.91-3.28,3.45-2.37,5.67C236.38,232.08,238.92,233.14,241.14,232.23"/>
		<path class="st0" d="M237.42,221.8c2.22-0.91,3.28-3.45,2.37-5.67c-0.91-2.22-3.45-3.28-5.67-2.37c-2.22,0.91-3.28,3.45-2.37,5.67
			C232.66,221.65,235.2,222.71,237.42,221.8"/>
		<path class="st0" d="M232.85,213.44c2.22-0.91,3.28-3.45,2.37-5.67c-0.91-2.22-3.45-3.28-5.67-2.37
			c-2.22,0.91-3.28,3.45-2.37,5.67C228.09,213.29,230.63,214.35,232.85,213.44"/>
		<path class="st0" d="M229.51,200.81c-0.91-2.22-3.45-3.28-5.67-2.37c-2.22,0.91-3.28,3.45-2.37,5.67
			c0.91,2.22,3.45,3.28,5.67,2.37C229.36,205.57,230.42,203.03,229.51,200.81"/>
		<path class="st0" d="M229.06,317.05c-2,1.33-2.54,4.02-1.22,6.02c1.33,2,4.02,2.54,6.02,1.22s2.54-4.02,1.22-6.02
			C233.76,316.27,231.06,315.72,229.06,317.05"/>
		<path class="st0" d="M243.88,304.22c-1.33-2-4.02-2.54-6.02-1.22c-2,1.33-2.54,4.02-1.22,6.02c1.33,2,4.02,2.54,6.02,1.22
			C244.66,308.91,245.2,306.21,243.88,304.22"/>
		<path class="st0" d="M249.5,295.79c2-1.33,2.54-4.02,1.22-6.02c-1.33-2-4.02-2.54-6.02-1.22c-2,1.33-2.54,4.02-1.22,6.02
			C244.81,296.58,247.5,297.12,249.5,295.79"/>
		<path class="st0" d="M254.35,281.83c2-1.33,2.54-4.02,1.22-6.02c-1.33-2-4.02-2.54-6.02-1.22c-2,1.33-2.54,4.02-1.22,6.02
			C249.65,282.61,252.35,283.16,254.35,281.83"/>
		<path class="st0" d="M251.37,260.53c-2,1.33-2.54,4.02-1.22,6.02c1.33,2,4.02,2.54,6.02,1.22c2-1.33,2.54-4.02,1.22-6.02
			C256.07,259.75,253.37,259.2,251.37,260.53"/>
		<path class="st0" d="M258.58,249.58c-1.33-2-4.02-2.54-6.02-1.22c-2,1.33-2.54,4.02-1.22,6.02c1.33,2,4.02,2.54,6.02,1.21
			C259.37,254.27,259.91,251.58,258.58,249.58"/>
		<path class="st0" d="M258.76,236.19c-1.33-2-4.02-2.54-6.02-1.22c-2,1.33-2.54,4.02-1.22,6.02c1.33,2,4.02,2.54,6.02,1.21
			C259.54,240.88,260.08,238.19,258.76,236.19"/>
		<path class="st0" d="M253.57,230.52c2-1.33,2.54-4.02,1.22-6.02c-1.33-2-4.02-2.54-6.02-1.22s-2.54,4.02-1.22,6.02
			C248.88,231.3,251.57,231.85,253.57,230.52"/>
		<path class="st0" d="M248.58,220.14c2-1.33,2.54-4.02,1.22-6.02c-1.33-2-4.02-2.54-6.02-1.22c-2,1.33-2.54,4.02-1.22,6.02
			C243.88,220.92,246.58,221.47,248.58,220.14"/>
		<path class="st0" d="M242.9,210.64c2-1.33,2.54-4.02,1.22-6.02c-1.33-2-4.02-2.54-6.02-1.22s-2.54,4.02-1.22,6.02
			C238.2,211.42,240.9,211.97,242.9,210.64"/>
		<path class="st0" d="M236.78,203.32c2-1.33,2.54-4.02,1.22-6.02c-1.33-2-4.02-2.54-6.02-1.22c-2,1.33-2.54,4.02-1.22,6.02
			C232.09,204.11,234.78,204.65,236.78,203.32"/>
		<path class="st0" d="M231.05,191.59c-1.33-2-4.02-2.54-6.02-1.22c-2,1.33-2.54,4.02-1.22,6.02c1.33,2,4.02,2.54,6.02,1.21
			C231.83,196.29,232.37,193.59,231.05,191.59"/>
		<path class="st0" d="M259.41,311.85c1.7-1.69,1.71-4.44,0.02-6.14c-1.69-1.7-4.44-1.71-6.14-0.02c-1.7,1.69-1.71,4.44-0.02,6.14
			C254.96,313.53,257.71,313.54,259.41,311.85"/>
		<path class="st0" d="M265.29,296.35c1.7-1.69,1.71-4.44,0.02-6.14c-1.69-1.7-4.44-1.71-6.14-0.02c-1.7,1.69-1.71,4.44-0.02,6.14
			C260.84,298.04,263.59,298.04,265.29,296.35"/>
		<path class="st0" d="M269.2,274.71c-1.69-1.7-4.44-1.71-6.14-0.02c-1.7,1.69-1.71,4.44-0.02,6.14c1.69,1.7,4.44,1.71,6.14,0.02
			C270.88,279.16,270.89,276.41,269.2,274.71"/>
		<path class="st0" d="M271.23,260.07c-1.69-1.7-4.44-1.71-6.14-0.02c-1.7,1.69-1.71,4.44-0.02,6.14c1.69,1.7,4.44,1.71,6.14,0.02
			C272.91,264.52,272.92,261.77,271.23,260.07"/>
		<path class="st0" d="M264.14,245.9c-1.7,1.69-1.71,4.44-0.02,6.14c1.69,1.7,4.44,1.71,6.14,0.02c1.7-1.69,1.71-4.44,0.02-6.14
			C268.59,244.21,265.84,244.21,264.14,245.9"/>
		<path class="st0" d="M262.93,233.73c-1.7,1.69-1.71,4.44-0.02,6.14c1.69,1.7,4.44,1.71,6.14,0.02c1.7-1.69,1.71-4.44,0.02-6.14
			C267.38,232.05,264.63,232.04,262.93,233.73"/>
		<path class="st0" d="M266.61,226.73c1.7-1.69,1.71-4.44,0.02-6.14c-1.69-1.7-4.44-1.71-6.14-0.02c-1.7,1.69-1.71,4.44-0.02,6.14
			C262.16,228.41,264.91,228.42,266.61,226.73"/>
		<path class="st0" d="M260.44,216.04c1.7-1.69,1.71-4.44,0.02-6.14c-1.69-1.7-4.44-1.71-6.14-0.02c-1.7,1.69-1.71,4.44-0.02,6.14
			C255.99,217.72,258.74,217.73,260.44,216.04"/>
		<path class="st0" d="M253.53,200.69c-1.69-1.7-4.44-1.71-6.14-0.02c-1.7,1.69-1.71,4.44-0.02,6.14c1.69,1.7,4.44,1.71,6.14,0.02
			C255.22,205.14,255.23,202.39,253.53,200.69"/>
		<path class="st0" d="M246.09,198.62c1.7-1.69,1.71-4.44,0.02-6.14c-1.69-1.7-4.44-1.71-6.14-0.02c-1.7,1.69-1.71,4.44-0.02,6.14
			C241.64,200.3,244.39,200.31,246.09,198.62"/>
		<path class="st0" d="M238.67,192.64c1.7-1.69,1.71-4.44,0.02-6.14c-1.69-1.7-4.44-1.71-6.14-0.02c-1.7,1.69-1.71,4.44-0.02,6.14
			C234.21,194.32,236.96,194.33,238.67,192.64"/>
		<path class="st0" d="M230.73,188.4c1.7-1.69,1.71-4.44,0.02-6.14c-1.69-1.7-4.44-1.71-6.14-0.02c-1.7,1.69-1.71,4.44-0.02,6.14
			C226.28,190.08,229.03,190.09,230.73,188.4"/>
		<path class="st0" d="M276,295.85c1.99,1.34,4.69,0.81,6.03-1.18c1.34-1.99,0.81-4.69-1.18-6.03c-1.99-1.34-4.69-0.81-6.03,1.18
			C273.48,291.81,274.01,294.51,276,295.85"/>
		<path class="st0" d="M284.77,278.32c1.34-1.99,0.81-4.69-1.18-6.03c-1.99-1.34-4.69-0.81-6.03,1.18
			c-1.34,1.99-0.81,4.69,1.18,6.03C280.74,280.84,283.44,280.31,284.77,278.32"/>
		<path class="st0" d="M284.39,256.33c-1.99-1.34-4.69-0.81-6.03,1.18c-1.34,1.99-0.81,4.69,1.18,6.03
			c1.99,1.34,4.69,0.81,6.03-1.18C286.91,260.36,286.38,257.67,284.39,256.33"/>
		<path class="st0" d="M283.52,241.57c-1.99-1.34-4.69-0.81-6.03,1.18c-1.34,1.99-0.81,4.69,1.18,6.03
			c1.99,1.34,4.69,0.81,6.03-1.18C286.04,245.61,285.51,242.91,283.52,241.57"/>
		<path class="st0" d="M274.98,235.09c1.99,1.34,4.69,0.81,6.03-1.18c1.34-1.99,0.81-4.69-1.18-6.03c-1.99-1.34-4.69-0.81-6.03,1.18
			C272.46,231.05,272.99,233.75,274.98,235.09"/>
		<path class="st0" d="M277.46,222.21c1.34-1.99,0.81-4.69-1.18-6.03c-1.99-1.34-4.69-0.81-6.03,1.18
			c-1.34,1.99-0.81,4.69,1.18,6.03C273.42,224.73,276.12,224.2,277.46,222.21"/>
		<path class="st0" d="M272.49,209.78c1.34-1.99,0.81-4.69-1.18-6.03c-1.99-1.34-4.69-0.81-6.03,1.18
			c-1.34,1.99-0.81,4.69,1.18,6.03C268.45,212.3,271.15,211.77,272.49,209.78"/>
		<path class="st0" d="M264.35,200.49c1.34-1.99,0.81-4.69-1.18-6.03c-1.99-1.34-4.69-0.81-6.03,1.18
			c-1.34,1.99-0.81,4.69,1.18,6.03C260.31,203.01,263.01,202.48,264.35,200.49"/>
		<path class="st0" d="M255.76,192.82c1.34-1.99,0.81-4.69-1.18-6.03c-1.99-1.34-4.69-0.81-6.03,1.18
			c-1.34,1.99-0.81,4.69,1.18,6.03C251.73,195.34,254.43,194.81,255.76,192.82"/>
		<path class="st0" d="M245.7,180.18c-1.99-1.34-4.69-0.81-6.03,1.18c-1.34,1.99-0.81,4.69,1.18,6.03c1.99,1.34,4.69,0.81,6.03-1.18
			C248.22,184.22,247.69,181.52,245.7,180.18"/>
		<path class="st0" d="M237.25,175.76c-1.99-1.34-4.69-0.81-6.03,1.18s-0.81,4.69,1.18,6.03c1.99,1.34,4.69,0.81,6.03-1.18
			C239.77,179.8,239.24,177.1,237.25,175.76"/>
		<path class="st0" d="M223.79,180.36c1.99,1.34,4.69,0.81,6.03-1.18c1.34-1.99,0.81-4.69-1.18-6.03c-1.99-1.34-4.69-0.81-6.03,1.18
			S221.8,179.02,223.79,180.36"/>
		<path class="st0" d="M295.18,275.73c2.21,0.92,4.76-0.12,5.68-2.33c0.92-2.21-0.12-4.76-2.33-5.68c-2.21-0.92-4.76,0.12-5.68,2.33
			C291.92,272.26,292.97,274.81,295.18,275.73"/>
		<path class="st0" d="M294.69,259.17c2.21,0.92,4.76-0.12,5.68-2.33c0.93-2.21-0.12-4.76-2.33-5.68c-2.21-0.92-4.76,0.12-5.68,2.33
			C291.43,255.7,292.47,258.24,294.69,259.17"/>
		<path class="st0" d="M298.03,241.02c0.92-2.21-0.12-4.76-2.33-5.68c-2.21-0.92-4.76,0.12-5.68,2.33
			c-0.92,2.21,0.12,4.76,2.33,5.68C294.56,244.28,297.11,243.23,298.03,241.02"/>
		<path class="st0" d="M294.31,226.72c0.92-2.21-0.12-4.76-2.33-5.68c-2.21-0.92-4.76,0.12-5.68,2.33
			c-0.92,2.21,0.12,4.76,2.33,5.68C290.84,229.97,293.38,228.93,294.31,226.72"/>
		<path class="st0" d="M288.01,214.01c0.92-2.21-0.12-4.76-2.34-5.68c-2.21-0.92-4.76,0.12-5.68,2.33
			c-0.92,2.21,0.12,4.76,2.33,5.68C284.54,217.26,287.09,216.22,288.01,214.01"/>
		<path class="st0" d="M276.56,205.56c2.21,0.92,4.76-0.12,5.68-2.33c0.92-2.21-0.12-4.76-2.33-5.68c-2.21-0.92-4.76,0.12-5.68,2.33
			C273.3,202.09,274.35,204.64,276.56,205.56"/>
		<path class="st0" d="M274.95,192c0.92-2.21-0.12-4.76-2.33-5.68c-2.21-0.92-4.76,0.12-5.68,2.33c-0.92,2.21,0.12,4.76,2.33,5.68
			C271.48,195.26,274.02,194.21,274.95,192"/>
		<path class="st0" d="M262.82,178.8c-2.21-0.92-4.76,0.12-5.68,2.33c-0.93,2.21,0.12,4.76,2.33,5.68c2.21,0.92,4.76-0.12,5.68-2.33
			C266.08,182.27,265.03,179.73,262.82,178.8"/>
		<path class="st0" d="M247.22,175.28c-0.93,2.21,0.12,4.76,2.33,5.68c2.21,0.92,4.76-0.12,5.68-2.33c0.93-2.21-0.12-4.76-2.33-5.68
			C250.69,172.02,248.14,173.07,247.22,175.28"/>
		<path class="st0" d="M242.9,168.2c-2.21-0.92-4.76,0.12-5.68,2.33c-0.92,2.21,0.12,4.76,2.33,5.68c2.21,0.92,4.76-0.12,5.68-2.33
			C246.16,171.67,245.11,169.12,242.9,168.2"/>
		<path class="st0" d="M228.07,167.85c-0.93,2.21,0.12,4.76,2.33,5.68c2.21,0.92,4.76-0.12,5.68-2.33c0.92-2.21-0.12-4.76-2.33-5.68
			C231.54,164.59,228.99,165.64,228.07,167.85"/>
		<path class="st0" d="M221.45,172.65c2.21,0.93,4.76-0.12,5.68-2.33c0.93-2.21-0.12-4.76-2.33-5.68c-2.21-0.93-4.76,0.12-5.68,2.33
			C218.19,169.18,219.24,171.72,221.45,172.65"/>
		<path class="st0" d="M310.07,252.26c2.35,0.48,4.64-1.05,5.12-3.4c0.48-2.35-1.05-4.64-3.4-5.12c-2.35-0.48-4.64,1.05-5.12,3.4
			C306.2,249.5,307.72,251.79,310.07,252.26"/>
		<path class="st0" d="M306.35,236.11c2.35,0.48,4.64-1.05,5.12-3.4c0.48-2.35-1.05-4.65-3.4-5.12c-2.35-0.48-4.64,1.05-5.12,3.4
			C302.48,233.34,304,235.64,306.35,236.11"/>
		<path class="st0" d="M306.1,217.66c0.47-2.35-1.05-4.64-3.4-5.12c-2.35-0.48-4.64,1.05-5.12,3.4c-0.48,2.35,1.05,4.64,3.4,5.12
			C303.33,221.53,305.62,220.01,306.1,217.66"/>
		<path class="st0" d="M294.53,207.76c2.35,0.48,4.64-1.05,5.12-3.4c0.48-2.35-1.05-4.64-3.4-5.12c-2.35-0.47-4.64,1.05-5.12,3.4
			C290.66,204.99,292.18,207.28,294.53,207.76"/>
		<path class="st0" d="M291,193.12c0.47-2.35-1.05-4.64-3.4-5.12c-2.35-0.47-4.64,1.05-5.12,3.4c-0.48,2.35,1.05,4.64,3.4,5.12
			C288.23,196.99,290.52,195.47,291,193.12"/>
		<path class="st0" d="M279.84,178.56c-2.35-0.47-4.64,1.05-5.12,3.4c-0.48,2.35,1.05,4.64,3.4,5.12c2.35,0.48,4.64-1.05,5.12-3.4
			C283.71,181.32,282.19,179.03,279.84,178.56"/>
		<path class="st0" d="M265.38,172.37c-0.48,2.35,1.05,4.64,3.4,5.12c2.35,0.47,4.64-1.05,5.12-3.4c0.48-2.35-1.05-4.64-3.4-5.12
			C268.14,168.49,265.85,170.01,265.38,172.37"/>
		<path class="st0" d="M259.42,163.51c-2.35-0.47-4.64,1.05-5.12,3.4c-0.47,2.35,1.05,4.64,3.4,5.12c2.35,0.48,4.64-1.05,5.12-3.4
			C263.29,166.27,261.77,163.98,259.42,163.51"/>
		<path class="st0" d="M248.55,159.7c-2.35-0.47-4.64,1.05-5.12,3.4c-0.47,2.35,1.05,4.64,3.4,5.12c2.35,0.48,4.64-1.05,5.12-3.4
			C252.42,162.47,250.9,160.18,248.55,159.7"/>
		<path class="st0" d="M236.1,165.51c2.35,0.48,4.64-1.05,5.12-3.4c0.47-2.35-1.05-4.64-3.4-5.12c-2.35-0.48-4.64,1.05-5.12,3.4
			C232.22,162.74,233.74,165.04,236.1,165.51"/>
		<path class="st0" d="M228.32,156.15c-2.35-0.47-4.64,1.05-5.12,3.4c-0.47,2.35,1.05,4.64,3.4,5.12c2.35,0.48,4.64-1.05,5.12-3.4
			C232.19,158.92,230.67,156.62,228.32,156.15"/>
		<path class="st0" d="M222.76,162.15c0.47-2.35-1.05-4.64-3.4-5.12c-2.35-0.48-4.64,1.05-5.12,3.4c-0.48,2.35,1.05,4.64,3.4,5.12
			C220,166.02,222.29,164.5,222.76,162.15"/>
		<path class="st0" d="M320.1,226.34c2.4,0.01,4.35-1.93,4.36-4.33c0.01-2.4-1.93-4.35-4.33-4.36c-2.4-0.01-4.35,1.93-4.36,4.33
			C315.76,224.38,317.7,226.33,320.1,226.34"/>
		<path class="st0" d="M317.65,206.89c0.01-2.4-1.93-4.35-4.33-4.36c-2.4-0.01-4.35,1.93-4.36,4.33c-0.01,2.4,1.93,4.35,4.33,4.36
			C315.7,211.23,317.65,209.29,317.65,206.89"/>
		<path class="st0" d="M305.09,197.51c2.4,0.01,4.35-1.93,4.36-4.33c0.01-2.4-1.93-4.35-4.33-4.36c-2.4-0.01-4.35,1.93-4.36,4.33
			C300.75,195.55,302.69,197.5,305.09,197.51"/>
		<path class="st0" d="M296.2,177.03c-2.4-0.01-4.35,1.93-4.36,4.33c-0.01,2.4,1.93,4.35,4.33,4.36c2.4,0.01,4.35-1.93,4.36-4.33
			C300.54,178.99,298.6,177.04,296.2,177.03"/>
		<path class="st0" d="M289.85,172.06c0.01-2.4-1.93-4.35-4.33-4.36c-2.4-0.01-4.35,1.93-4.36,4.33c-0.01,2.4,1.93,4.35,4.33,4.36
			C287.89,176.39,289.84,174.45,289.85,172.06"/>
		<path class="st0" d="M271.71,164.28c-0.01,2.4,1.93,4.35,4.33,4.36c2.4,0.01,4.35-1.93,4.36-4.33c0.01-2.4-1.93-4.35-4.33-4.36
			C273.67,159.94,271.71,161.88,271.71,164.28"/>
		<path class="st0" d="M260.67,156.7c-0.01,2.4,1.93,4.35,4.33,4.36c2.4,0.01,4.35-1.93,4.36-4.33c0.01-2.4-1.93-4.35-4.33-4.36
			C262.63,152.36,260.68,154.3,260.67,156.7"/>
		<path class="st0" d="M248.75,153.5c-0.01,2.4,1.93,4.35,4.33,4.36s4.35-1.93,4.36-4.33c0.01-2.4-1.93-4.35-4.33-4.36
			S248.75,151.1,248.75,153.5"/>
		<path class="st0" d="M246.03,151.91c0.01-2.4-1.93-4.35-4.33-4.36s-4.35,1.93-4.36,4.33c-0.01,2.4,1.93,4.35,4.33,4.36
			S246.02,154.31,246.03,151.91"/>
		<path class="st0" d="M226.29,151.33c-0.01,2.4,1.93,4.35,4.33,4.36s4.35-1.93,4.36-4.33c0.01-2.4-1.93-4.35-4.33-4.36
			S226.29,148.93,226.29,151.33"/>
		<path class="st0" d="M216.81,152.35c-0.01,2.4,1.93,4.35,4.33,4.36s4.35-1.93,4.36-4.33c0.01-2.4-1.93-4.35-4.33-4.36
			S216.81,149.95,216.81,152.35"/>
		<path class="st0" d="M212.55,150.63c-2.4-0.01-4.35,1.93-4.36,4.33s1.93,4.35,4.33,4.36c2.4,0.01,4.35-1.93,4.36-4.33
			S214.95,150.64,212.55,150.63"/>
		<path class="st0" d="M328.3,193.86c-0.46-2.35-2.74-3.89-5.1-3.43c-2.35,0.46-3.89,2.74-3.43,5.1c0.46,2.35,2.74,3.89,5.1,3.43
			C327.23,198.5,328.76,196.22,328.3,193.86"/>
		<path class="st0" d="M313.58,176.93c-2.35,0.46-3.89,2.74-3.43,5.1c0.46,2.35,2.74,3.89,5.1,3.43c2.35-0.46,3.89-2.74,3.43-5.1
			C318.22,178.01,315.94,176.47,313.58,176.93"/>
		<path class="st0" d="M304.53,173.61c2.35-0.46,3.89-2.74,3.43-5.1c-0.46-2.35-2.74-3.89-5.1-3.43c-2.36,0.46-3.89,2.74-3.43,5.1
			S302.17,174.07,304.53,173.61"/>
		<path class="st0" d="M291.81,155.26c-2.35,0.46-3.89,2.74-3.43,5.1c0.46,2.35,2.74,3.89,5.1,3.43c2.35-0.46,3.89-2.74,3.43-5.1
			C296.45,156.34,294.17,154.8,291.81,155.26"/>
		<path class="st0" d="M279.52,148.19c-2.35,0.46-3.89,2.74-3.43,5.1s2.74,3.89,5.1,3.43c2.35-0.46,3.89-2.74,3.43-5.1
			C284.16,149.26,281.87,147.73,279.52,148.19"/>
		<path class="st0" d="M265.3,147.53c0.46,2.35,2.74,3.89,5.1,3.43c2.36-0.46,3.89-2.74,3.43-5.1c-0.46-2.35-2.74-3.89-5.1-3.43
			C266.38,142.89,264.84,145.18,265.3,147.53"/>
		<path class="st0" d="M253,142.25c0.46,2.35,2.74,3.89,5.1,3.43c2.35-0.46,3.89-2.74,3.43-5.1c-0.46-2.35-2.74-3.89-5.1-3.43
			C254.08,137.61,252.54,139.89,253,142.25"/>
		<path class="st0" d="M249.21,139.77c-0.46-2.35-2.74-3.89-5.1-3.43c-2.35,0.46-3.89,2.74-3.43,5.1c0.46,2.35,2.74,3.89,5.1,3.43
			C248.13,144.41,249.67,142.13,249.21,139.77"/>
		<path class="st0" d="M229.18,142.08c0.46,2.35,2.74,3.89,5.1,3.43c2.35-0.46,3.89-2.74,3.43-5.1c-0.46-2.35-2.74-3.89-5.1-3.43
			C230.26,137.45,228.72,139.73,229.18,142.08"/>
		<path class="st0" d="M223.33,147.12c2.35-0.46,3.89-2.74,3.43-5.1c-0.46-2.35-2.74-3.89-5.1-3.43c-2.35,0.46-3.89,2.74-3.43,5.1
			S220.97,147.58,223.33,147.12"/>
		<path class="st0" d="M212.56,141.45c-2.35,0.46-3.89,2.74-3.43,5.1s2.74,3.89,5.1,3.43c2.35-0.46,3.89-2.74,3.43-5.1
			C217.2,142.52,214.91,140.99,212.56,141.45"/>
		<path class="st0" d="M204.62,145.68c-2.35,0.46-3.89,2.74-3.43,5.1s2.74,3.89,5.1,3.43c2.35-0.46,3.89-2.74,3.43-5.1
			C209.26,146.76,206.98,145.22,204.62,145.68"/>
		<path class="st0" d="M324.21,171.17c2.22-0.91,3.28-3.45,2.37-5.67c-0.91-2.22-3.45-3.28-5.67-2.37
			c-2.22,0.91-3.28,3.45-2.37,5.67C319.46,171.02,321.99,172.08,324.21,171.17"/>
		<path class="st0" d="M308.85,151.77c-2.22,0.91-3.28,3.45-2.37,5.67c0.91,2.22,3.45,3.28,5.67,2.37c2.22-0.91,3.28-3.45,2.37-5.67
			C313.6,151.92,311.06,150.86,308.85,151.77"/>
		<path class="st0" d="M293.65,147.91c0.91,2.22,3.45,3.28,5.67,2.37c2.22-0.91,3.28-3.45,2.37-5.67c-0.91-2.22-3.45-3.28-5.67-2.37
			C293.79,143.15,292.73,145.69,293.65,147.91"/>
		<path class="st0" d="M280.9,140.43c0.91,2.22,3.45,3.28,5.67,2.37c2.22-0.91,3.28-3.45,2.37-5.67c-0.91-2.22-3.45-3.28-5.67-2.37
			C281.05,135.68,279.99,138.21,280.9,140.43"/>
		<path class="st0" d="M269.83,130.23c-2.22,0.91-3.28,3.45-2.37,5.67c0.91,2.22,3.45,3.28,5.67,2.37c2.22-0.91,3.28-3.45,2.37-5.67
			C274.58,130.38,272.05,129.32,269.83,130.23"/>
		<path class="st0" d="M258.13,126.68c-2.22,0.91-3.28,3.45-2.37,5.67c0.91,2.22,3.45,3.28,5.67,2.37c2.22-0.91,3.28-3.45,2.37-5.67
			C262.88,126.83,260.35,125.77,258.13,126.68"/>
		<path class="st0" d="M250.7,126.27c-0.91-2.22-3.45-3.28-5.67-2.37c-2.22,0.91-3.28,3.45-2.37,5.67c0.91,2.22,3.45,3.28,5.67,2.37
			C250.55,131.03,251.61,128.49,250.7,126.27"/>
		<path class="st0" d="M232.79,125.51c-2.22,0.91-3.28,3.45-2.37,5.67c0.91,2.22,3.45,3.28,5.67,2.37c2.22-0.91,3.28-3.45,2.37-5.67
			C237.55,125.66,235.01,124.6,232.79,125.51"/>
		<path class="st0" d="M221.63,128.39c-2.22,0.91-3.28,3.45-2.37,5.67c0.91,2.22,3.45,3.28,5.67,2.37c2.22-0.91,3.28-3.45,2.37-5.67
			C226.39,128.54,223.85,127.48,221.63,128.39"/>
		<path class="st0" d="M211.21,132.1c-2.22,0.91-3.28,3.45-2.37,5.67c0.91,2.22,3.45,3.28,5.67,2.37c2.22-0.91,3.28-3.45,2.37-5.67
			C215.96,132.25,213.43,131.19,211.21,132.1"/>
		<path class="st0" d="M202.84,136.68c-2.22,0.91-3.28,3.45-2.37,5.67c0.91,2.22,3.45,3.28,5.67,2.37c2.22-0.91,3.28-3.45,2.37-5.67
			C207.6,136.82,205.06,135.76,202.84,136.68"/>
		<path class="st0" d="M195.88,142.38c-2.22,0.91-3.28,3.45-2.37,5.67c0.91,2.22,3.45,3.28,5.67,2.37c2.22-0.91,3.28-3.45,2.37-5.67
			C200.64,142.53,198.1,141.47,195.88,142.38"/>
		<path class="st0" d="M313.34,136.81c-2,1.33-2.54,4.02-1.22,6.02c1.33,2,4.02,2.54,6.02,1.22c2-1.33,2.54-4.02,1.22-6.02
			C318.04,136.03,315.34,135.48,313.34,136.81"/>
		<path class="st0" d="M298.07,134.04c1.33,2,4.02,2.54,6.02,1.22c2-1.33,2.54-4.02,1.22-6.02c-1.33-2-4.02-2.54-6.02-1.22
			C297.29,129.35,296.75,132.04,298.07,134.04"/>
		<path class="st0" d="M283.63,127.2c1.33,2,4.02,2.54,6.02,1.22c2-1.33,2.54-4.02,1.22-6.02c-1.33-2-4.02-2.54-6.02-1.22
			C282.85,122.5,282.3,125.2,283.63,127.2"/>
		<path class="st0" d="M270.88,116.33c-2,1.33-2.54,4.02-1.22,6.02c1.33,2,4.02,2.54,6.02,1.22c2-1.33,2.54-4.02,1.22-6.02
			C275.58,115.55,272.88,115,270.88,116.33"/>
		<path class="st0" d="M256.82,114.5c-2,1.33-2.54,4.02-1.22,6.02c1.33,2,4.02,2.54,6.02,1.22c2-1.33,2.54-4.02,1.22-6.02
			C261.51,113.72,258.82,113.17,256.82,114.5"/>
		<path class="st0" d="M244.65,113.31c-2,1.33-2.54,4.02-1.22,6.02c1.33,2,4.02,2.54,6.02,1.22c2-1.33,2.54-4.02,1.22-6.02
			C249.35,112.53,246.65,111.98,244.65,113.31"/>
		<path class="st0" d="M231.26,113.13c-2,1.33-2.54,4.02-1.22,6.02c1.33,2,4.02,2.54,6.02,1.22c2-1.33,2.54-4.02,1.22-6.02
			C235.96,112.35,233.26,111.81,231.26,113.13"/>
		<path class="st0" d="M219.57,117.1c-2,1.33-2.54,4.02-1.22,6.02c1.33,2,4.02,2.54,6.02,1.22c2-1.33,2.54-4.02,1.22-6.02
			C224.27,116.32,221.57,115.78,219.57,117.1"/>
		<path class="st0" d="M209.19,122.1c-2,1.33-2.54,4.02-1.22,6.02c1.33,2,4.02,2.54,6.02,1.22c2-1.33,2.54-4.02,1.22-6.02
			C213.89,121.31,211.19,120.77,209.19,122.1"/>
		<path class="st0" d="M199.69,127.77c-2,1.33-2.54,4.02-1.22,6.02c1.33,2,4.02,2.54,6.02,1.22c2-1.33,2.54-4.02,1.22-6.02
			C204.38,126.99,201.69,126.45,199.69,127.77"/>
		<path class="st0" d="M192.37,133.89c-2,1.33-2.54,4.02-1.22,6.02c1.33,2,4.02,2.54,6.02,1.22c2-1.33,2.54-4.02,1.22-6.02
			C197.07,133.11,194.37,132.57,192.37,133.89"/>
		<path class="st0" d="M192.69,142.06c-1.33-2-4.02-2.54-6.02-1.22c-2,1.33-2.54,4.02-1.22,6.02c1.33,2,4.02,2.54,6.02,1.22
			C193.47,146.76,194.01,144.06,192.69,142.06"/>
	</g>
	<polygon class="st0" points="664.22,164.37 644.81,164.37 644.81,183.78 624.68,183.78 644.82,125.27 625.41,125.27 605.27,183.78 
		605.46,183.78 605.46,203.2 644.81,203.2 644.81,242.29 664.22,242.29 664.22,203.2 683.64,203.2 683.64,183.78 664.22,183.78 	"/>
	<polygon class="st0" points="566.99,174.08 527.64,174.08 527.64,125.27 508.23,125.27 508.23,174.08 508.23,193.49 508.23,242.29 
		527.64,242.29 527.64,193.49 566.99,193.49 566.99,242.29 586.4,242.29 586.4,193.49 586.4,174.08 586.4,125.27 566.99,125.27 	"/>
	<polygon class="st0" points="469.76,125.27 469.76,125.27 469.76,125.27 450.08,166.7 430.41,125.27 430.41,125.27 411,125.27 
		411,125.27 411,125.27 411,242.29 430.41,242.29 430.41,187.21 428.02,167.27 430.41,166.14 440.41,187.2 440.41,187.21 
		440.41,187.21 459.76,187.21 459.76,187.21 459.76,187.2 469.76,166.14 472.15,167.27 469.76,187.21 469.76,242.29 489.17,242.29 
		489.17,125.27 489.17,125.27 	"/>
	<path class="st0" d="M761.46,125.27v44.16v33.76c0,10.87-8.81,19.68-19.68,19.68c-10.87,0-19.68-8.81-19.68-19.68v-33.76v-44.16
		h-19.41v77.93c0,14.41,7.8,26.99,19.41,33.77c5.78,3.38,12.5,5.32,19.68,5.32c7.18,0,13.9-1.94,19.68-5.32
		c11.61-6.78,19.41-19.36,19.41-33.77v-77.93H761.46z"/>
	<g>
		<path class="st0" d="M21.81,140.26l-0.79,3.08l-16.11-4.14l-1.51,5.87l16.11,4.14l-0.79,3.08l-18.59-4.78l3.09-12.03L21.81,140.26
			z"/>
		<path class="st0" d="M21.68,122.76c0.84,0.4,1.56,0.89,2.15,1.48c0.6,0.59,1.05,1.25,1.36,1.98c0.31,0.73,0.47,1.51,0.48,2.35
			c0.01,0.84-0.15,1.71-0.48,2.62c-0.4,1.1-0.95,1.98-1.68,2.65c-0.72,0.67-1.54,1.14-2.47,1.42c-0.93,0.28-1.92,0.39-3,0.31
			c-1.07-0.08-2.17-0.31-3.28-0.7l-2.47-0.89c-1.1-0.4-2.08-0.92-2.96-1.56s-1.58-1.36-2.12-2.17c-0.53-0.81-0.87-1.71-1-2.68
			c-0.13-0.97,0-2,0.39-3.08c0.34-0.95,0.79-1.75,1.34-2.39c0.55-0.64,1.17-1.14,1.88-1.48c0.7-0.34,1.48-0.54,2.33-0.59
			c0.85-0.05,1.74,0.04,2.68,0.28l-1.07,2.98c-0.55-0.14-1.06-0.21-1.55-0.22c-0.49,0-0.94,0.07-1.34,0.22
			c-0.4,0.15-0.76,0.4-1.07,0.74c-0.31,0.34-0.56,0.79-0.76,1.33c-0.24,0.67-0.29,1.29-0.15,1.85c0.14,0.57,0.42,1.08,0.84,1.55
			c0.42,0.47,0.94,0.88,1.58,1.25c0.63,0.36,1.32,0.68,2.07,0.95l2.49,0.9c0.78,0.28,1.53,0.48,2.25,0.61
			c0.73,0.13,1.39,0.14,2,0.06c0.61-0.09,1.15-0.31,1.61-0.65c0.46-0.35,0.81-0.86,1.06-1.54c0.37-1.04,0.36-1.94-0.03-2.7
			c-0.4-0.76-1.11-1.38-2.16-1.87L21.68,122.76z"/>
		<path class="st0" d="M14.83,105.77l1.35-2.88l17.37,8.18l-1.35,2.88l-11.79-5.55l9.2,11.05l-1.35,2.88l-17.37-8.17l1.35-2.88
			l11.79,5.55L14.83,105.77z"/>
		<path class="st0" d="M28.01,96.44l-4.27-6.81l1.9-3.21l5.41,9.55l11.18,0.1l-1.89,3.19l-8.19-0.43l4.32,6.97l-1.91,3.22
			l-5.48-9.75l-10.97-0.15l1.89-3.19L28.01,96.44z"/>
		<path class="st0" d="M28.08,82.85l6.71-9.24l2.12,1.54l-2.44,3.36l11.3,8.2l2.44-3.36l2.11,1.53l-6.71,9.24L41.5,92.6l2.39-3.29
			l-11.3-8.2l-2.38,3.29L28.08,82.85z"/>
		<path class="st0" d="M46.59,59.76L61,72.44l-2.1,2.39l-5.68-5c-0.21,0.48-0.47,0.96-0.76,1.44c-0.29,0.48-0.64,0.94-1.03,1.39
			c-0.59,0.67-1.21,1.21-1.86,1.59c-0.65,0.39-1.32,0.61-2.02,0.67c-0.7,0.05-1.42-0.07-2.18-0.38c-0.76-0.31-1.55-0.82-2.36-1.54
			l-4.54-4l2.09-2.38l4.54,4c0.52,0.46,0.99,0.8,1.4,1.01c0.41,0.22,0.79,0.33,1.13,0.35c0.34,0.02,0.67-0.07,0.97-0.24
			c0.3-0.18,0.6-0.44,0.9-0.77c0.35-0.4,0.68-0.84,0.99-1.33c0.31-0.49,0.58-0.99,0.81-1.49l-6.81-5.99L46.59,59.76z"/>
		<path class="st0" d="M72.37,61.52l-2.24,2.12l-5.88-6.24l-4.75,4.48l5.88,6.24l-2.23,2.11L49.98,56.25l2.23-2.11l5.51,5.84
			l4.75-4.48l-5.51-5.84l2.24-2.12L72.37,61.52z"/>
		<path class="st0" d="M78.48,45.64l-6.22,4.86l3.71,4.75l7.28-5.69l1.59,2.04l-9.79,7.64L63.23,44.11l9.71-7.59l1.61,2.06
			l-7.21,5.63l3.33,4.27l6.22-4.86L78.48,45.64z"/>
		<path class="st0" d="M101.31,28.71c0.56-0.29,1.01-0.6,1.34-0.93c0.33-0.33,0.56-0.68,0.7-1.04c0.14-0.36,0.18-0.73,0.13-1.11
			c-0.05-0.38-0.17-0.77-0.38-1.16c-0.18-0.35-0.42-0.65-0.71-0.9c-0.29-0.25-0.64-0.42-1.03-0.52c-0.4-0.1-0.84-0.11-1.33-0.03
			c-0.49,0.07-1.03,0.26-1.6,0.56c-0.44,0.22-0.81,0.5-1.12,0.82c-0.31,0.32-0.55,0.66-0.71,1.02c-0.17,0.36-0.25,0.74-0.25,1.13
			c0,0.39,0.09,0.77,0.28,1.13l-2.81,1.45c-0.38-0.73-0.56-1.48-0.55-2.23c0.01-0.75,0.18-1.47,0.51-2.16
			c0.33-0.69,0.79-1.33,1.39-1.91c0.6-0.59,1.3-1.09,2.1-1.5c0.94-0.48,1.84-0.82,2.7-1c0.87-0.18,1.67-0.21,2.42-0.08
			c0.75,0.13,1.42,0.43,2.02,0.88c0.6,0.46,1.11,1.08,1.52,1.88c0.2,0.39,0.33,0.8,0.4,1.22c0.06,0.42,0.06,0.85,0,1.29
			c-0.07,0.44-0.2,0.87-0.4,1.3c-0.2,0.43-0.46,0.85-0.79,1.25c1.11-0.16,2.1-0.04,2.95,0.37c0.85,0.41,1.54,1.11,2.05,2.1
			c0.41,0.8,0.62,1.59,0.63,2.38c0.01,0.79-0.17,1.54-0.52,2.26c-0.35,0.72-0.86,1.39-1.52,2.02c-0.67,0.63-1.47,1.18-2.4,1.66
			c-0.75,0.39-1.54,0.68-2.37,0.86c-0.83,0.19-1.64,0.23-2.43,0.13c-0.79-0.1-1.52-0.37-2.21-0.81c-0.68-0.44-1.25-1.1-1.7-1.97
			l2.82-1.46c0.19,0.38,0.46,0.69,0.79,0.94c0.33,0.25,0.71,0.42,1.13,0.52c0.42,0.09,0.87,0.11,1.35,0.04
			c0.48-0.07,0.97-0.23,1.47-0.49c0.57-0.29,1.04-0.63,1.41-1c0.37-0.37,0.65-0.76,0.83-1.16c0.18-0.4,0.26-0.81,0.25-1.23
			c-0.01-0.42-0.12-0.82-0.32-1.21c-0.5-0.98-1.16-1.54-1.96-1.69c-0.81-0.15-1.77,0.06-2.88,0.64l-2.21,1.14l-1.15-2.23
			L101.31,28.71z"/>
		<path class="st0" d="M128.62,33.86l-2.58,1.04l-1.76-4.38l-7.57,3.05l1.77,4.39l-2.5,1.01l-3.17-6.57l0.73-0.29
			c0.28-0.37,0.48-0.8,0.61-1.3c0.12-0.5,0.16-1.11,0.09-1.83s-0.22-1.57-0.48-2.55c-0.26-0.98-0.62-2.13-1.1-3.45l-2.5-7.47
			l8.42-3.39l6.22,15.44l1.45-0.59L128.62,33.86z M115.63,21.78c0.71,1.98,1.2,3.68,1.48,5.11c0.27,1.43,0.36,2.65,0.27,3.67
			l4.51-1.82l-5.27-13.07l-2.69,1.08L115.63,21.78z"/>
		<path class="st0" d="M139.68,16.83c0.32,1.09,0.5,2.17,0.51,3.25s-0.13,2.08-0.46,3.01c-0.33,0.93-0.83,1.74-1.53,2.44
			c-0.7,0.7-1.6,1.21-2.71,1.54c-1.1,0.33-2.13,0.39-3.08,0.17s-1.81-0.62-2.58-1.22c-0.77-0.6-1.44-1.36-2.01-2.27
			c-0.57-0.91-1.02-1.91-1.34-3l-0.7-2.35c-0.21-0.72-0.36-1.45-0.45-2.18c-0.08-0.73-0.1-1.43-0.04-2.11
			c0.06-0.68,0.19-1.34,0.39-1.96c0.21-0.62,0.49-1.19,0.87-1.71c0.37-0.51,0.84-0.97,1.38-1.36c0.55-0.39,1.19-0.7,1.92-0.92
			c1.11-0.33,2.15-0.39,3.11-0.18c0.97,0.21,1.84,0.61,2.62,1.21c0.78,0.6,1.46,1.36,2.04,2.28c0.58,0.92,1.03,1.92,1.35,3.01
			L139.68,16.83z M135.93,15.36c-0.21-0.69-0.48-1.36-0.8-2c-0.32-0.65-0.7-1.2-1.14-1.65c-0.44-0.45-0.94-0.78-1.49-0.97
			c-0.56-0.2-1.18-0.19-1.87,0.01c-0.68,0.2-1.2,0.54-1.55,1c-0.35,0.47-0.58,1.01-0.68,1.63c-0.11,0.62-0.11,1.28-0.01,1.99
			c0.1,0.71,0.24,1.41,0.44,2.1l0.71,2.38c0.21,0.69,0.48,1.36,0.79,2c0.31,0.65,0.68,1.2,1.11,1.66c0.43,0.46,0.92,0.8,1.47,1
			c0.55,0.2,1.17,0.2,1.85,0c0.69-0.21,1.22-0.54,1.57-1.02c0.36-0.47,0.6-1.02,0.71-1.64c0.12-0.62,0.13-1.29,0.04-2.01
			c-0.09-0.72-0.23-1.42-0.43-2.12L135.93,15.36z"/>
		<path class="st0" d="M146.68,16.33l1.42,7.22l-3.1,0.61l-3.72-18.83l6.3-1.24c0.94-0.18,1.84-0.21,2.69-0.09
			c0.85,0.11,1.62,0.37,2.29,0.76c0.68,0.39,1.25,0.91,1.71,1.57c0.46,0.66,0.79,1.44,0.97,2.34c0.17,0.88,0.17,1.71-0.02,2.48
			c-0.18,0.77-0.52,1.46-0.99,2.08c-0.48,0.61-1.09,1.13-1.84,1.56s-1.59,0.73-2.52,0.93L146.68,16.33z M146.19,13.82l3.19-0.63
			c0.53-0.1,0.98-0.28,1.36-0.52c0.38-0.24,0.69-0.53,0.93-0.88c0.24-0.34,0.39-0.73,0.47-1.16c0.08-0.43,0.07-0.87-0.02-1.34
			c-0.1-0.49-0.26-0.93-0.5-1.31c-0.24-0.38-0.53-0.69-0.88-0.93c-0.35-0.24-0.75-0.4-1.2-0.48c-0.45-0.08-0.93-0.08-1.46,0.02
			l-3.19,0.63L146.19,13.82z"/>
		<path class="st0" d="M172.37,11.69c0.11,1.13,0.08,2.22-0.1,3.29c-0.18,1.07-0.52,2.02-1.02,2.87c-0.49,0.85-1.15,1.55-1.96,2.11
			c-0.82,0.55-1.8,0.89-2.95,1.01c-1.15,0.12-2.17-0.02-3.06-0.41c-0.9-0.39-1.67-0.95-2.31-1.68c-0.64-0.73-1.16-1.6-1.55-2.61
			c-0.39-1-0.64-2.07-0.75-3.2l-0.25-2.44c-0.08-0.75-0.09-1.49-0.03-2.22c0.05-0.73,0.17-1.42,0.36-2.08
			c0.18-0.66,0.44-1.28,0.75-1.85c0.32-0.58,0.71-1.08,1.17-1.52c0.46-0.44,1-0.79,1.61-1.08c0.61-0.28,1.3-0.46,2.06-0.54
			c1.15-0.12,2.19,0.02,3.1,0.4c0.91,0.38,1.69,0.94,2.35,1.68c0.66,0.73,1.18,1.61,1.58,2.62c0.39,1.01,0.65,2.08,0.76,3.21
			L172.37,11.69z M168.96,9.55c-0.08-0.72-0.22-1.42-0.41-2.12c-0.19-0.7-0.46-1.31-0.81-1.83c-0.35-0.53-0.77-0.94-1.29-1.24
			c-0.51-0.3-1.13-0.41-1.84-0.34c-0.71,0.07-1.28,0.3-1.71,0.7c-0.43,0.39-0.76,0.88-0.98,1.47c-0.22,0.59-0.35,1.24-0.38,1.95
			c-0.04,0.72-0.03,1.43,0.04,2.15l0.25,2.47c0.08,0.72,0.21,1.42,0.4,2.11c0.19,0.69,0.44,1.31,0.78,1.84
			c0.33,0.54,0.75,0.96,1.25,1.26c0.5,0.3,1.11,0.42,1.82,0.35c0.72-0.07,1.3-0.31,1.74-0.71c0.44-0.4,0.78-0.89,1.01-1.48
			c0.23-0.59,0.37-1.24,0.42-1.96c0.05-0.72,0.04-1.44-0.03-2.16L168.96,9.55z"/>
		<path class="st0" d="M175.97,19.9l-0.13-19.2l6.13-0.04c0.92,0,1.79,0.1,2.59,0.3c0.81,0.2,1.51,0.5,2.12,0.92
			c0.6,0.42,1.08,0.95,1.43,1.6c0.35,0.65,0.52,1.43,0.52,2.32c0,0.95-0.26,1.76-0.77,2.44s-1.21,1.2-2.09,1.58
			c0.54,0.15,1.01,0.36,1.43,0.63c0.42,0.27,0.77,0.6,1.06,0.99c0.28,0.38,0.5,0.81,0.65,1.28c0.15,0.47,0.23,0.97,0.24,1.49
			c0.01,0.92-0.16,1.72-0.49,2.42c-0.33,0.7-0.79,1.28-1.38,1.75c-0.59,0.47-1.29,0.83-2.1,1.08c-0.81,0.25-1.69,0.38-2.63,0.39
			L175.97,19.9z M179.07,8.76l3.03-0.02c0.47-0.01,0.92-0.08,1.32-0.2c0.41-0.12,0.76-0.3,1.06-0.53c0.3-0.24,0.53-0.52,0.71-0.86
			s0.26-0.73,0.26-1.17c0-0.48-0.09-0.9-0.26-1.24c-0.17-0.34-0.41-0.62-0.71-0.84c-0.3-0.22-0.66-0.38-1.08-0.47
			c-0.41-0.1-0.87-0.15-1.36-0.16l-3.01,0.02L179.07,8.76z M179.09,11.17l0.04,6.12l3.46-0.02c0.5-0.01,0.96-0.09,1.37-0.24
			c0.41-0.15,0.77-0.35,1.06-0.61c0.3-0.26,0.53-0.57,0.7-0.94s0.25-0.78,0.25-1.24c0-0.48-0.08-0.92-0.23-1.3
			c-0.15-0.38-0.37-0.7-0.65-0.96c-0.28-0.26-0.63-0.46-1.03-0.61s-0.86-0.22-1.36-0.22L179.09,11.17z"/>
		<path class="st0" d="M200.15,1.99l-0.77,5.09l-2.19-0.19l0.58-6.75l2.52,0.22L200.15,1.99z"/>
		<path class="st0" d="M216.11,23.02l1.38-7.65l-3.35-0.6l-5.13,6.98l-3.34-0.6l5.81-7.77c-1.02-0.67-1.75-1.47-2.19-2.38
			c-0.44-0.91-0.56-1.94-0.35-3.1c0.16-0.88,0.46-1.64,0.9-2.26c0.44-0.63,1-1.12,1.67-1.48c0.68-0.36,1.46-0.58,2.34-0.67
			c0.88-0.09,1.85-0.04,2.89,0.15l5.89,1.06l-3.4,18.89L216.11,23.02z M212.05,8.56c-0.18,0.99-0.01,1.82,0.5,2.51
			c0.51,0.69,1.38,1.14,2.61,1.36l2.76,0.5l1.13-6.28l-2.76-0.5c-1.24-0.22-2.21-0.11-2.92,0.33
			C212.66,6.92,212.22,7.61,212.05,8.56z"/>
		<path class="st0" d="M248.47,37.83l-2.6-1l1.69-4.41l-7.62-2.92l-1.69,4.42l-2.51-0.96l2.15-6.97l0.74,0.28
			c0.45-0.08,0.9-0.26,1.33-0.54c0.43-0.28,0.87-0.71,1.32-1.28c0.44-0.57,0.9-1.3,1.38-2.19c0.48-0.89,0.99-1.98,1.54-3.27
			l3.25-7.17l8.48,3.25l-5.96,15.55l1.47,0.56L248.47,37.83z M247.17,20.14c-0.82,1.93-1.62,3.52-2.4,4.75
			c-0.77,1.23-1.54,2.19-2.3,2.87l4.54,1.74l5.04-13.16l-2.71-1.04L247.17,20.14z"/>
		<path class="st0" d="M272.38,22.89l-8.52,17.2l-2.85-1.41l7.38-14.91l-4.16-2.06l-3.42,6.85c-0.72,1.41-1.42,2.58-2.1,3.5
			c-0.69,0.93-1.37,1.62-2.06,2.09c-0.69,0.47-1.4,0.71-2.12,0.74c-0.72,0.02-1.48-0.16-2.27-0.55l-0.72-0.36l1.13-2.28l0.47,0.23
			c0.39,0.16,0.76,0.2,1.12,0.12c0.36-0.08,0.72-0.31,1.1-0.69c0.38-0.38,0.78-0.91,1.2-1.6c0.42-0.69,0.89-1.56,1.42-2.61
			l4.57-9.14L272.38,22.89z"/>
		<path class="st0" d="M274.33,46.38l4.09-6.62l-2.89-1.79l-7.33,4.61l-2.88-1.78l8.25-5.09c-0.7-1-1.09-2.01-1.17-3.02
			c-0.07-1.01,0.2-2.01,0.82-3.01c0.47-0.76,1.03-1.36,1.66-1.78c0.64-0.42,1.34-0.68,2.1-0.76c0.76-0.09,1.57-0.01,2.42,0.23
			c0.85,0.24,1.73,0.64,2.64,1.2l5.09,3.15l-10.1,16.32L274.33,46.38z M275.86,31.44c-0.53,0.85-0.68,1.69-0.46,2.52
			c0.22,0.83,0.87,1.57,1.93,2.22l2.39,1.48l3.36-5.43l-2.39-1.48c-1.07-0.66-2.01-0.92-2.83-0.77
			C277.04,30.13,276.37,30.61,275.86,31.44z"/>
		<path class="st0" d="M304.24,54.87l-1.27,3.07l10.48-5.1l2.62,2.39l-15.75,7.01c-0.49,0.22-0.98,0.4-1.49,0.53
			c-0.5,0.13-1.02,0.19-1.54,0.17c-0.52-0.02-1.06-0.14-1.59-0.37c-0.54-0.22-1.09-0.59-1.64-1.1c-0.47-0.43-0.84-0.84-1.13-1.25
			s-0.5-0.73-0.64-0.98l1.86-1.6c0.06,0.1,0.14,0.22,0.23,0.37c0.1,0.14,0.2,0.29,0.32,0.44c0.12,0.15,0.24,0.3,0.37,0.45
			c0.13,0.15,0.25,0.28,0.38,0.39c0.3,0.28,0.6,0.49,0.9,0.62c0.3,0.13,0.58,0.21,0.86,0.24c0.28,0.03,0.55,0,0.82-0.06
			c0.26-0.07,0.52-0.16,0.76-0.29l0.97-0.4l4.68-14.82l2.57,2.35L304.24,54.87z"/>
		<path class="st0" d="M313.75,68.87l-1.26-1.39l-6.11,5.54l-2.13-2.35l14.22-12.89l2.13,2.35l-6.26,5.68l0.97,1.06l9.85-1.72
			l2.45,2.71l-10.94,1.73l-3.02,11.44l-2.53-2.79L313.75,68.87z"/>
		<path class="st0" d="M322.61,80.74l-5.89,4.41l-1.9-2.53l15.36-11.51l3.85,5.14c0.57,0.77,0.99,1.57,1.25,2.38
			c0.27,0.82,0.37,1.61,0.31,2.39c-0.06,0.78-0.28,1.52-0.67,2.22c-0.39,0.7-0.95,1.33-1.69,1.89c-0.72,0.54-1.46,0.89-2.24,1.06
			c-0.77,0.17-1.54,0.17-2.3,0c-0.76-0.17-1.49-0.49-2.2-0.98s-1.35-1.11-1.93-1.87L322.61,80.74z M324.65,79.21l1.95,2.61
			c0.32,0.43,0.67,0.76,1.06,1c0.38,0.24,0.78,0.39,1.19,0.46c0.41,0.07,0.83,0.04,1.24-0.08c0.42-0.12,0.82-0.32,1.2-0.6
			c0.4-0.3,0.72-0.64,0.96-1.02s0.4-0.78,0.46-1.2c0.06-0.42,0.04-0.85-0.08-1.29c-0.12-0.44-0.34-0.87-0.65-1.31l-1.95-2.61
			L324.65,79.21z"/>
		<path class="st0" d="M332.68,100.76l-3.14-5.11l-4.49,1.21l-1.71-2.79l19.62-4.72l1.46,2.37l-13.16,15.25l-1.7-2.78L332.68,100.76
			z M332.27,94.92l2.3,3.75l5.28-5.79L332.27,94.92z"/>
		<path class="st0" d="M349.52,100.57l5.04,10.25l-2.35,1.16l-1.83-3.73l-12.53,6.16l1.83,3.73l-2.34,1.15l-5.04-10.25l2.34-1.15
			l1.79,3.64l12.53-6.16l-1.79-3.64L349.52,100.57z M352.84,99.58c0.39-0.19,0.79-0.22,1.19-0.09c0.4,0.13,0.71,0.43,0.94,0.9
			c0.23,0.47,0.27,0.9,0.14,1.29c-0.14,0.4-0.4,0.69-0.8,0.88c-0.39,0.19-0.79,0.22-1.18,0.09c-0.39-0.13-0.71-0.43-0.94-0.9
			c-0.23-0.47-0.28-0.9-0.14-1.29C352.18,100.06,352.44,99.77,352.84,99.58z M355.47,104.97c0.4-0.19,0.79-0.23,1.18-0.1
			c0.39,0.13,0.7,0.43,0.93,0.89c0.23,0.46,0.28,0.89,0.14,1.29c-0.14,0.39-0.4,0.69-0.79,0.88c-0.39,0.19-0.79,0.22-1.19,0.09
			c-0.4-0.13-0.71-0.43-0.94-0.9c-0.23-0.46-0.27-0.89-0.13-1.29C354.81,105.45,355.08,105.16,355.47,104.97z"/>
		<path class="st0" d="M343.35,134.52l-1.1-2.88l8.01-3.04l-2.32-6.1l-8.01,3.04l-1.09-2.87l17.94-6.82l1.09,2.87l-7.5,2.85
			l2.32,6.1l7.5-2.85l1.1,2.88L343.35,134.52z"/>
		<path class="st0" d="M365.3,141.34l0.85,3.06l-18.5,5.11l-0.84-3.06l12.56-3.46l-14.17-2.39l-0.84-3.06l18.5-5.11l0.85,3.06
			l-12.56,3.46L365.3,141.34z"/>
	</g>
	<g>
		<path class="st0" d="M19.21,256.85l-2.44,2.25l11.65-0.24l1.37,3.27l-17.24-0.23c-0.54,0-1.06-0.05-1.57-0.14
			c-0.51-0.09-1-0.25-1.47-0.49c-0.47-0.24-0.9-0.57-1.29-1c-0.39-0.43-0.74-0.99-1.03-1.69c-0.24-0.58-0.41-1.12-0.5-1.6
			c-0.09-0.49-0.15-0.87-0.17-1.16l2.36-0.68c0.01,0.12,0.03,0.26,0.06,0.43s0.06,0.35,0.1,0.54c0.04,0.19,0.09,0.38,0.14,0.56
			s0.11,0.36,0.18,0.51c0.16,0.38,0.35,0.69,0.56,0.94c0.21,0.24,0.44,0.44,0.69,0.58c0.25,0.14,0.5,0.24,0.77,0.28
			c0.27,0.05,0.54,0.07,0.81,0.06l1.05,0.05l10.46-11.49l1.35,3.21L19.21,256.85z"/>
		<path class="st0" d="M23.23,272.98l-0.88-1.65l-7.28,3.88l-1.5-2.8l16.94-9.03l1.5,2.8l-7.46,3.98l0.68,1.27l9.97,0.73l1.72,3.22
			l-11.03-0.99l-5.72,10.36l-1.77-3.33L23.23,272.98z"/>
		<path class="st0" d="M29.87,286.26l-6.15,4.04l-1.74-2.65l16.05-10.54l3.52,5.37c0.52,0.8,0.88,1.63,1.1,2.46
			c0.21,0.83,0.27,1.63,0.16,2.41c-0.11,0.77-0.38,1.5-0.81,2.18c-0.43,0.68-1.04,1.27-1.81,1.78c-0.75,0.49-1.52,0.8-2.3,0.92
			s-1.55,0.07-2.3-0.14c-0.75-0.21-1.46-0.58-2.14-1.11c-0.67-0.53-1.28-1.19-1.81-1.99L29.87,286.26z M32.01,284.85l1.79,2.72
			c0.29,0.45,0.63,0.8,0.99,1.07c0.37,0.26,0.75,0.44,1.16,0.53c0.41,0.09,0.82,0.09,1.25,0c0.42-0.09,0.84-0.26,1.23-0.53
			c0.42-0.27,0.76-0.59,1.03-0.96c0.27-0.36,0.44-0.75,0.53-1.17c0.09-0.42,0.09-0.85,0-1.29c-0.09-0.44-0.28-0.89-0.57-1.35
			l-1.79-2.72L32.01,284.85z"/>
		<path class="st0" d="M40.81,306.27l-3.74-4.69l-4.31,1.75l-2.04-2.56l18.9-7.08l1.73,2.18l-11.2,16.74l-2.03-2.55L40.81,306.27z
			 M39.68,300.52l2.74,3.44l4.53-6.39L39.68,300.52z"/>
		<path class="st0" d="M56.62,302.16l7.9,8.24l-1.89,1.82l-2.87-3l-10.08,9.67l2.88,3l-1.88,1.81l-7.9-8.24l1.88-1.81l2.81,2.93
			l10.08-9.66l-2.81-2.93L56.62,302.16z M59.47,300.21c0.32-0.3,0.69-0.46,1.11-0.45c0.42,0.01,0.81,0.2,1.17,0.57
			c0.36,0.37,0.53,0.77,0.52,1.19c-0.01,0.42-0.18,0.78-0.49,1.09c-0.32,0.3-0.68,0.45-1.1,0.44c-0.42-0.01-0.8-0.2-1.16-0.57
			c-0.36-0.37-0.53-0.77-0.53-1.19C58.99,300.87,59.16,300.51,59.47,300.21z M63.62,304.54c0.32-0.3,0.68-0.45,1.1-0.45
			c0.41,0,0.8,0.2,1.16,0.57c0.36,0.38,0.53,0.77,0.53,1.19c-0.01,0.42-0.17,0.78-0.49,1.08c-0.32,0.3-0.69,0.45-1.1,0.45
			c-0.42-0.01-0.81-0.2-1.17-0.57s-0.53-0.77-0.52-1.19C63.13,305.21,63.3,304.85,63.62,304.54z"/>
		<path class="st0" d="M63.99,335.6l-2.33-2.02l5.61-6.47l-4.93-4.28l-5.61,6.47l-2.32-2.01l12.58-14.5l2.32,2.01l-5.26,6.07
			l4.93,4.28l5.26-6.07l2.33,2.02L63.99,335.6z"/>
		<path class="st0" d="M83.23,339.4c-0.66,0.92-1.41,1.72-2.26,2.4c-0.84,0.68-1.73,1.17-2.66,1.48c-0.93,0.31-1.89,0.4-2.86,0.28
			c-0.98-0.12-1.94-0.52-2.88-1.2c-0.94-0.67-1.61-1.45-2.03-2.33s-0.62-1.81-0.62-2.79c0-0.98,0.19-1.97,0.57-2.98
			c0.37-1.01,0.89-1.97,1.55-2.9l1.43-1.99c0.44-0.61,0.92-1.18,1.45-1.69c0.52-0.51,1.07-0.95,1.65-1.32
			c0.57-0.37,1.17-0.67,1.79-0.89c0.62-0.22,1.25-0.34,1.88-0.36c0.64-0.02,1.28,0.07,1.92,0.26c0.65,0.19,1.28,0.51,1.9,0.96
			c0.94,0.68,1.63,1.46,2.05,2.35c0.43,0.89,0.64,1.83,0.65,2.81c0.01,0.99-0.18,1.99-0.55,3.01c-0.38,1.02-0.89,1.99-1.55,2.91
			L83.23,339.4z M82.1,335.53c0.41-0.59,0.78-1.21,1.09-1.86c0.31-0.65,0.52-1.29,0.61-1.91c0.09-0.62,0.04-1.21-0.14-1.78
			c-0.19-0.56-0.57-1.05-1.16-1.47c-0.58-0.42-1.16-0.62-1.74-0.61c-0.58,0.01-1.15,0.16-1.71,0.45c-0.55,0.29-1.08,0.7-1.58,1.21
			c-0.5,0.51-0.97,1.05-1.4,1.63l-1.45,2.01c-0.41,0.59-0.78,1.21-1.1,1.85c-0.32,0.64-0.53,1.27-0.64,1.89
			c-0.11,0.62-0.07,1.21,0.11,1.77c0.18,0.56,0.55,1.05,1.13,1.46c0.58,0.42,1.17,0.63,1.77,0.62c0.59-0.01,1.17-0.15,1.74-0.44
			c0.56-0.29,1.1-0.69,1.61-1.2c0.51-0.51,0.98-1.05,1.41-1.63L82.1,335.53z"/>
		<path class="st0" d="M95.8,348.35l-9.1-5.36l1.29-2.19l9.1,5.36L95.8,348.35z"/>
		<path class="st0" d="M107.38,340.75l-7.12,15.05l1.98,0.94l7.12-15.05l2.77,1.31l-7.12,15.05l1.97,0.93l7.12-15.05l2.82,1.34
			l-8.2,17.35l-12.36-5.84l8.2-17.36L107.38,340.75z"/>
		<path class="st0" d="M112.6,364.2l6.6-18.03l5.76,2.11c0.86,0.33,1.64,0.72,2.32,1.19s1.24,1,1.66,1.6c0.42,0.6,0.68,1.27,0.78,2
			c0.1,0.73-0.01,1.52-0.33,2.36c-0.33,0.89-0.86,1.56-1.58,2.01c-0.72,0.45-1.55,0.7-2.51,0.75c0.45,0.33,0.83,0.69,1.12,1.09
			c0.3,0.4,0.51,0.83,0.64,1.29c0.13,0.46,0.19,0.94,0.17,1.43c-0.02,0.49-0.12,0.99-0.3,1.48c-0.31,0.86-0.75,1.56-1.3,2.09
			c-0.55,0.54-1.19,0.92-1.9,1.15c-0.72,0.23-1.5,0.33-2.35,0.27c-0.85-0.05-1.71-0.24-2.6-0.55L112.6,364.2z M118.58,357.12
			l-2.1,5.74l3.24,1.19c0.47,0.16,0.93,0.25,1.37,0.25c0.44,0.01,0.84-0.06,1.21-0.2c0.37-0.14,0.7-0.35,0.98-0.64
			c0.29-0.29,0.51-0.65,0.67-1.08c0.17-0.45,0.25-0.89,0.24-1.3c-0.01-0.41-0.1-0.79-0.27-1.13c-0.17-0.34-0.42-0.65-0.75-0.93
			c-0.33-0.27-0.73-0.5-1.2-0.68L118.58,357.12z M119.41,354.86l2.85,1.04c0.45,0.16,0.89,0.25,1.31,0.28
			c0.42,0.03,0.82-0.01,1.18-0.13c0.36-0.12,0.68-0.3,0.96-0.56c0.28-0.26,0.5-0.59,0.65-1.01c0.17-0.45,0.23-0.87,0.19-1.25
			c-0.04-0.38-0.16-0.72-0.37-1.03s-0.49-0.58-0.84-0.82c-0.35-0.24-0.76-0.44-1.22-0.62l-2.82-1.03L119.41,354.86z"/>
		<path class="st0" d="M141.99,364.5l-7.63-2.03l-1.55,5.82l8.93,2.38l-0.67,2.5l-12-3.2l4.94-18.55l11.91,3.17l-0.67,2.52
			l-8.84-2.35l-1.4,5.24l7.63,2.03L141.99,364.5z"/>
		<path class="st0" d="M157.83,356.76l3.13,0.54l-3.24,18.92l-3.13-0.54l2.2-12.84l-8.19,11.81l-3.13-0.54l3.24-18.92l3.13,0.54
			l-2.2,12.84L157.83,356.76z M159.79,351.88c-0.09,0.54-0.27,1.01-0.55,1.43c-0.27,0.42-0.62,0.76-1.03,1.02
			c-0.42,0.26-0.89,0.43-1.44,0.52c-0.55,0.09-1.14,0.08-1.78-0.03c-0.64-0.11-1.21-0.3-1.69-0.56c-0.48-0.27-0.88-0.59-1.18-0.97
			c-0.3-0.38-0.52-0.81-0.63-1.3c-0.12-0.48-0.13-0.99-0.04-1.53l2.34,0.4c-0.04,0.24-0.05,0.48-0.02,0.71s0.1,0.44,0.22,0.63
			c0.12,0.2,0.28,0.36,0.5,0.5c0.21,0.14,0.49,0.24,0.83,0.29c0.33,0.06,0.62,0.05,0.87,0c0.25-0.06,0.46-0.16,0.63-0.31
			c0.17-0.14,0.31-0.32,0.41-0.53c0.1-0.21,0.17-0.43,0.22-0.67L159.79,351.88z"/>
		<path class="st0" d="M164,357.69l3.15,0.25l-1.3,16.6l5.86,0.46l1.3-16.6l3.17,0.25l-1.3,16.57l2.23,0.17l-0.83,7.16l-2.88-0.23
			l0.36-4.61l-11.28-0.88L164,357.69z"/>
		<path class="st0" d="M189.19,373.38l-6,0.08l-1.26,4.47l-3.27,0.04l5.98-19.28l2.78-0.04l6.37,19.11l-3.26,0.04L189.19,373.38z
			 M183.96,370.75l4.4-0.06l-2.27-7.5L183.96,370.75z"/>
		<path class="st0" d="M199.82,369.83l0.77,7.31l-3.15,0.33l-2.01-19.09l6.38-0.67c0.95-0.09,1.85-0.04,2.69,0.15
			c0.84,0.19,1.58,0.51,2.22,0.96c0.64,0.45,1.16,1.02,1.57,1.72c0.41,0.7,0.66,1.5,0.75,2.42c0.09,0.89,0.01,1.71-0.24,2.46
			c-0.25,0.75-0.64,1.41-1.18,1.98s-1.19,1.03-1.97,1.39c-0.78,0.36-1.65,0.59-2.6,0.7L199.82,369.83z M199.55,367.29l3.24-0.34
			c0.53-0.06,1-0.19,1.4-0.39c0.4-0.21,0.74-0.47,1-0.79c0.27-0.32,0.46-0.69,0.57-1.11c0.11-0.42,0.15-0.86,0.1-1.34
			c-0.05-0.5-0.18-0.95-0.38-1.35c-0.2-0.4-0.47-0.74-0.8-1.01c-0.33-0.27-0.71-0.47-1.15-0.59c-0.44-0.12-0.92-0.16-1.46-0.11
			l-3.24,0.34L199.55,367.29z"/>
		<path class="st0" d="M225.91,367.15c0.09,0.92,0.04,1.79-0.15,2.6c-0.2,0.81-0.53,1.54-0.99,2.19c-0.46,0.64-1.05,1.19-1.77,1.63
			c-0.71,0.44-1.54,0.76-2.49,0.95c-1.15,0.23-2.19,0.21-3.13-0.07s-1.77-0.73-2.49-1.38c-0.72-0.65-1.32-1.45-1.81-2.41
			c-0.49-0.96-0.85-2.02-1.09-3.17l-0.51-2.57c-0.22-1.15-0.29-2.26-0.2-3.34c0.09-1.08,0.34-2.06,0.77-2.94s1.01-1.62,1.78-2.24
			c0.76-0.61,1.71-1.03,2.84-1.26c0.99-0.2,1.9-0.23,2.74-0.09c0.83,0.14,1.58,0.42,2.24,0.84c0.66,0.42,1.23,0.99,1.71,1.69
			c0.48,0.7,0.86,1.51,1.14,2.43l-3.1,0.62c-0.16-0.54-0.37-1.02-0.62-1.44c-0.25-0.42-0.54-0.76-0.88-1.03
			c-0.34-0.27-0.74-0.45-1.19-0.54c-0.45-0.09-0.96-0.08-1.53,0.04c-0.7,0.14-1.25,0.42-1.66,0.83c-0.41,0.41-0.71,0.92-0.89,1.52
			c-0.19,0.6-0.27,1.26-0.25,1.99c0.02,0.73,0.1,1.49,0.26,2.26l0.52,2.6c0.16,0.81,0.38,1.56,0.64,2.24
			c0.27,0.69,0.6,1.27,0.99,1.75c0.39,0.48,0.85,0.82,1.39,1.04c0.54,0.22,1.16,0.25,1.86,0.11c1.09-0.21,1.85-0.69,2.3-1.42
			c0.45-0.73,0.61-1.67,0.49-2.82L225.91,367.15z"/>
		<path class="st0" d="M230.9,359.71l2.68-0.79c1.04-0.31,2-0.45,2.89-0.42c0.89,0.03,1.68,0.2,2.38,0.52
			c0.7,0.32,1.3,0.78,1.79,1.38c0.49,0.6,0.87,1.32,1.11,2.15c0.25,0.84,0.33,1.66,0.25,2.44c-0.08,0.79-0.33,1.51-0.74,2.18
			c-0.41,0.67-0.97,1.26-1.7,1.78s-1.61,0.93-2.64,1.24l-5.73,1.7l-5.46-18.4l3.05-0.9L230.9,359.71z M231.62,362.15l1.89,6.38
			l2.68-0.79c0.61-0.18,1.1-0.42,1.49-0.73s0.67-0.65,0.87-1.04c0.19-0.39,0.3-0.8,0.31-1.23c0.02-0.44-0.04-0.87-0.17-1.31
			c-0.13-0.42-0.31-0.8-0.56-1.13c-0.25-0.34-0.55-0.6-0.92-0.8c-0.37-0.2-0.79-0.31-1.28-0.35c-0.49-0.04-1.03,0.04-1.64,0.22
			L231.62,362.15z"/>
		<path class="st0" d="M249.43,357.17l-1.74,0.69l3.05,7.67l-2.95,1.17l-7.1-17.83l2.95-1.17l3.12,7.85l1.34-0.53l1.84-9.83
			l3.39-1.35l-2.21,10.85l9.66,6.84l-3.5,1.39L249.43,357.17z"/>
		<path class="st0" d="M263.05,338.96l2.84-1.43l8.66,17.13l-2.84,1.43l-5.88-11.63l0.45,14.37l-2.84,1.43l-8.66-17.13l2.83-1.43
			l5.88,11.63L263.05,338.96z"/>
		<path class="st0" d="M274.64,326.16c0.29,0.46,0.47,0.94,0.54,1.43c0.07,0.49,0.04,0.97-0.09,1.44c-0.14,0.47-0.38,0.92-0.73,1.35
			c-0.35,0.43-0.8,0.82-1.35,1.16s-1.1,0.58-1.64,0.7c-0.54,0.13-1.05,0.15-1.53,0.06c-0.48-0.08-0.93-0.26-1.34-0.55
			c-0.41-0.28-0.76-0.66-1.05-1.12l2.01-1.26c0.13,0.21,0.28,0.39,0.46,0.54c0.17,0.15,0.37,0.26,0.58,0.33
			c0.22,0.07,0.45,0.08,0.7,0.04c0.25-0.04,0.52-0.15,0.81-0.33c0.28-0.18,0.5-0.37,0.65-0.58c0.15-0.21,0.24-0.43,0.27-0.65
			s0.02-0.44-0.04-0.67c-0.06-0.22-0.16-0.44-0.29-0.65L274.64,326.16z M276.43,331.11l2.69-1.68l10.18,16.28l-2.69,1.69
			l-6.91-11.04l1.75,14.27l-2.69,1.68l-10.18-16.28l2.69-1.68l6.91,11.05L276.43,331.11z"/>
		<path class="st0" d="M316.09,323.91l-2.34,2.15l-11.24-12.26l-4.47,4.1l11.24,12.26l-2.34,2.15l-12.97-14.15l9.15-8.39
			L316.09,323.91z"/>
		<path class="st0" d="M316.45,312.9l5.45,4.94l-2.13,2.34l-14.22-12.9l4.31-4.75c0.65-0.7,1.35-1.26,2.1-1.68
			c0.75-0.42,1.52-0.67,2.29-0.76c0.78-0.09,1.55-0.01,2.31,0.24c0.77,0.25,1.49,0.68,2.17,1.3c0.66,0.6,1.15,1.27,1.46,2
			c0.31,0.73,0.46,1.48,0.44,2.26c-0.02,0.78-0.2,1.56-0.54,2.35c-0.34,0.79-0.83,1.54-1.47,2.25L316.45,312.9z M314.55,311.19
			l2.19-2.41c0.36-0.4,0.62-0.8,0.79-1.23c0.16-0.42,0.24-0.84,0.22-1.26c-0.01-0.42-0.12-0.82-0.31-1.21
			c-0.19-0.39-0.47-0.74-0.82-1.06c-0.37-0.33-0.77-0.59-1.19-0.75c-0.42-0.17-0.84-0.24-1.27-0.22c-0.42,0.02-0.84,0.13-1.25,0.33
			c-0.41,0.2-0.79,0.5-1.16,0.89l-2.19,2.41L314.55,311.19z"/>
		<path class="st0" d="M332.2,292c0.91,0.68,1.69,1.45,2.35,2.31c0.66,0.86,1.13,1.76,1.42,2.7c0.29,0.94,0.36,1.9,0.22,2.87
			c-0.15,0.97-0.57,1.93-1.26,2.85c-0.69,0.92-1.49,1.58-2.38,1.97c-0.89,0.4-1.83,0.58-2.8,0.56c-0.98-0.03-1.97-0.24-2.97-0.63
			s-1.95-0.93-2.86-1.62l-1.96-1.47c-0.6-0.46-1.16-0.95-1.65-1.49s-0.93-1.09-1.29-1.68c-0.36-0.58-0.64-1.19-0.85-1.81
			c-0.21-0.62-0.31-1.25-0.32-1.89c0-0.64,0.1-1.28,0.31-1.92c0.21-0.64,0.54-1.27,1-1.88c0.7-0.93,1.5-1.59,2.4-2
			c0.9-0.41,1.84-0.6,2.83-0.59s1.98,0.22,2.99,0.62c1.01,0.4,1.97,0.94,2.87,1.62L332.2,292z M328.31,293.05
			c-0.58-0.43-1.19-0.8-1.84-1.13c-0.64-0.33-1.27-0.55-1.89-0.65c-0.62-0.1-1.21-0.07-1.78,0.1c-0.56,0.17-1.06,0.55-1.5,1.13
			c-0.43,0.57-0.65,1.15-0.65,1.73c-0.01,0.58,0.13,1.16,0.42,1.71c0.28,0.56,0.67,1.1,1.17,1.61c0.5,0.51,1.03,0.99,1.6,1.43
			l1.98,1.49c0.58,0.43,1.19,0.81,1.82,1.14c0.63,0.33,1.26,0.56,1.88,0.68c0.62,0.12,1.21,0.1,1.77-0.07
			c0.56-0.17,1.06-0.53,1.49-1.1c0.43-0.58,0.65-1.16,0.66-1.76c0.01-0.59-0.13-1.17-0.4-1.75c-0.27-0.57-0.66-1.12-1.16-1.64
			c-0.5-0.52-1.03-1-1.6-1.45L328.31,293.05z"/>
		<path class="st0" d="M343.16,279.22c0.74,0.55,1.35,1.17,1.82,1.85s0.78,1.41,0.94,2.18c0.16,0.77,0.15,1.58-0.03,2.42
			c-0.17,0.84-0.52,1.69-1.06,2.55c-0.55,0.9-1.21,1.61-1.97,2.14c-0.76,0.53-1.59,0.86-2.48,1.01c-0.9,0.14-1.84,0.1-2.83-0.14
			c-0.99-0.24-2-0.67-3.02-1.3l-3.39-2.1c-1.02-0.63-1.85-1.34-2.51-2.13c-0.65-0.79-1.12-1.62-1.39-2.48s-0.35-1.75-0.23-2.66
			c0.12-0.9,0.45-1.79,0.98-2.65c0.56-0.9,1.17-1.62,1.84-2.16c0.67-0.54,1.39-0.92,2.15-1.12c0.76-0.2,1.56-0.24,2.4-0.1
			c0.84,0.13,1.7,0.42,2.59,0.87l-1.67,2.69c-0.56-0.27-1.08-0.46-1.56-0.57c-0.49-0.11-0.94-0.12-1.36-0.04s-0.82,0.27-1.19,0.56
			c-0.37,0.29-0.71,0.7-1.03,1.22c-0.31,0.49-0.47,0.99-0.5,1.5c-0.03,0.51,0.07,1.01,0.29,1.51c0.23,0.5,0.58,0.99,1.06,1.48
			c0.48,0.48,1.07,0.94,1.77,1.38l0.57,0.35l3.61-5.84l2.17,1.35l-3.61,5.84l0.66,0.41c1.47,0.91,2.76,1.34,3.87,1.28
			c1.11-0.06,1.98-0.6,2.62-1.62c0.59-0.96,0.79-1.83,0.6-2.63c-0.19-0.8-0.79-1.58-1.79-2.34L343.16,279.22z"/>
		<path class="st0" d="M345.06,270.42l-0.84,1.67l7.38,3.69l-1.42,2.84l-17.17-8.58l1.42-2.84l7.56,3.78l0.64-1.29l-5.17-8.55
			l1.63-3.27l5.58,9.57l11.76-1.33l-1.69,3.37L345.06,270.42z"/>
		<path class="st0" d="M347.17,244.45l-2.15,5.49l15.45,6.04l-1.15,2.93l-15.44-6.04l-2.13,5.45l-2.43-0.95l5.43-13.87
			L347.17,244.45z"/>
	</g>
</g>
</svg>
