<svg xmlns="http://www.w3.org/2000/svg" viewBox="0 0 290 290" width="290" height="290">
	<style>
		tspan { white-space:pre }
		.shp0 { fill: #7500ff } 
	</style>
	<g id="Layer">
		<path id="Layer" class="shp0" d="M262.17 68.93C260.47 70.62 260.46 73.37 262.15 75.07C263.84 76.77 266.59 76.78 268.29 75.09C269.99 73.4 270 70.65 268.31 68.95C266.62 67.25 263.87 67.24 262.17 68.93Z" />
		<path id="Layer" class="shp0" d="M246.68 63.05C244.98 64.74 244.97 67.49 246.66 69.19C248.35 70.89 251.1 70.9 252.8 69.21C254.5 67.52 254.51 64.77 252.82 63.07C251.13 61.37 248.38 61.36 246.68 63.05Z" />
		<path id="Layer" class="shp0" d="M231.17 59.16C229.47 60.85 229.46 63.6 231.15 65.3C232.84 67 235.59 67.01 237.29 65.32C238.99 63.63 239 60.88 237.31 59.18C235.62 57.48 232.87 57.47 231.17 59.16Z" />
		<path id="Layer" class="shp0" d="M216.53 57.14C214.83 58.83 214.82 61.58 216.51 63.28C218.2 64.98 220.95 64.99 222.65 63.3C224.35 61.61 224.36 58.86 222.67 57.16C220.99 55.45 218.24 55.45 216.53 57.14Z" />
		<path id="Layer" class="shp0" d="M208.51 64.25C210.21 62.56 210.22 59.81 208.53 58.11C206.84 56.41 204.09 56.4 202.39 58.09C200.69 59.78 200.68 62.53 202.37 64.23C204.06 65.93 206.81 65.94 208.51 64.25Z" />
		<path id="Layer" class="shp0" d="M190.22 59.3C188.52 60.99 188.51 63.74 190.2 65.44C191.89 67.14 194.64 67.15 196.34 65.46C198.04 63.77 198.05 61.02 196.36 59.32C194.67 57.61 191.92 57.61 190.22 59.3Z" />
		<path id="Layer" class="shp0" d="M177.06 61.74C175.36 63.43 175.35 66.18 177.04 67.88C178.73 69.58 181.48 69.59 183.18 67.9C184.88 66.21 184.89 63.46 183.2 61.76C181.51 60.06 178.76 60.05 177.06 61.74Z" />
		<path id="Layer" class="shp0" d="M166.37 67.92C164.67 69.61 164.66 72.36 166.35 74.06C168.04 75.76 170.79 75.77 172.49 74.08C174.19 72.39 174.2 69.64 172.51 67.94C170.82 66.23 168.07 66.23 166.37 67.92Z" />
		<path id="Layer" class="shp0" d="M157.16 74.84C155.46 76.53 155.45 79.28 157.14 80.98C158.83 82.68 161.58 82.69 163.28 81C164.98 79.31 164.99 76.56 163.3 74.86C161.61 73.16 158.86 73.15 157.16 74.84Z" />
		<path id="Layer" class="shp0" d="M148.95 82.26C147.25 83.95 147.24 86.7 148.93 88.4C150.62 90.1 153.37 90.11 155.07 88.42C156.77 86.73 156.78 83.98 155.09 82.28C153.4 80.58 150.65 80.57 148.95 82.26Z" />
		<path id="Layer" class="shp0" d="M142.97 89.69C141.27 91.38 141.26 94.13 142.95 95.83C144.64 97.53 147.39 97.54 149.09 95.85C150.79 94.16 150.8 91.41 149.11 89.71C147.43 88.01 144.67 88 142.97 89.69Z" />
		<path id="Layer" class="shp0" d="M144.86 103.78C146.56 102.09 146.57 99.34 144.88 97.64C143.19 95.94 140.44 95.93 138.74 97.62C137.04 99.31 137.03 102.06 138.72 103.76C140.41 105.47 143.16 105.48 144.86 103.78Z" />
		<path id="Layer" class="shp0" d="M251.13 46.33C249.14 44.99 246.44 45.52 245.1 47.51C243.76 49.5 244.29 52.2 246.28 53.54C248.27 54.88 250.97 54.35 252.31 52.36C253.65 50.37 253.12 47.67 251.13 46.33Z" />
		<path id="Layer" class="shp0" d="M234.78 43.59C232.79 42.25 230.09 42.78 228.75 44.77C227.41 46.76 227.94 49.46 229.93 50.8C231.92 52.14 234.62 51.61 235.96 49.62C237.3 47.63 236.77 44.93 234.78 43.59Z" />
		<path id="Layer" class="shp0" d="M212.79 43.98C211.45 45.97 211.98 48.67 213.97 50.01C215.96 51.35 218.66 50.82 220 48.83C221.34 46.84 220.81 44.14 218.82 42.8C216.83 41.46 214.13 41.99 212.79 43.98Z" />
		<path id="Layer" class="shp0" d="M204.07 43.67C202.08 42.33 199.38 42.86 198.04 44.85C196.7 46.84 197.23 49.54 199.22 50.88C201.21 52.22 203.91 51.69 205.25 49.7C206.59 47.7 206.06 45 204.07 43.67Z" />
		<path id="Layer" class="shp0" d="M190.37 47.36C188.38 46.02 185.68 46.55 184.34 48.54C183 50.53 183.53 53.23 185.52 54.57C187.51 55.91 190.21 55.38 191.55 53.39C192.89 51.4 192.36 48.7 190.37 47.36Z" />
		<path id="Layer" class="shp0" d="M178.68 50.92C176.69 49.58 173.99 50.11 172.65 52.1C171.31 54.09 171.84 56.79 173.83 58.13C175.82 59.47 178.52 58.94 179.86 56.95C181.2 54.96 180.67 52.26 178.68 50.92Z" />
		<path id="Layer" class="shp0" d="M160.22 57.07C158.88 59.06 159.41 61.76 161.4 63.1C163.39 64.44 166.09 63.91 167.43 61.92C168.77 59.93 168.24 57.23 166.25 55.89C164.25 54.55 161.56 55.07 160.22 57.07Z" />
		<path id="Layer" class="shp0" d="M156.97 64.03C154.98 62.69 152.28 63.22 150.94 65.21C149.6 67.2 150.13 69.9 152.12 71.24C154.11 72.58 156.81 72.05 158.15 70.06C159.49 68.06 158.96 65.37 156.97 64.03Z" />
		<path id="Layer" class="shp0" d="M149.29 72.61C147.3 71.27 144.6 71.8 143.26 73.79C141.92 75.78 142.45 78.48 144.44 79.82C146.43 81.16 149.13 80.63 150.47 78.64C151.81 76.65 151.28 73.95 149.29 72.61Z" />
		<path id="Layer" class="shp0" d="M142.68 81.5C140.69 80.16 137.99 80.69 136.65 82.68C135.31 84.67 135.84 87.37 137.83 88.71C139.82 90.05 142.52 89.52 143.86 87.53C145.2 85.53 144.67 82.83 142.68 81.5Z" />
		<path id="Layer" class="shp0" d="M132.24 91.13C130.9 93.12 131.43 95.82 133.42 97.16C135.41 98.5 138.11 97.97 139.45 95.98C140.79 93.99 140.26 91.29 138.27 89.95C136.28 88.61 133.58 89.14 132.24 91.13Z" />
		<path id="Layer" class="shp0" d="M129.63 99.74C128.29 101.73 128.82 104.43 130.81 105.77C132.8 107.11 135.5 106.58 136.84 104.59C138.18 102.6 137.65 99.9 135.66 98.56C133.67 97.22 130.97 97.75 129.63 99.74Z" />
		<path id="Layer" class="shp0" d="M226.51 35.52C228.72 36.44 231.27 35.4 232.19 33.19C233.11 30.98 232.07 28.43 229.86 27.51C227.65 26.59 225.1 27.63 224.18 29.85C223.26 32.07 224.3 34.59 226.51 35.52Z" />
		<path id="Layer" class="shp0" d="M215.63 33.68C216.55 31.47 215.51 28.92 213.3 28C211.09 27.08 208.54 28.12 207.62 30.34C206.7 32.55 207.74 35.1 209.96 36.02C212.16 36.94 214.7 35.9 215.63 33.68Z" />
		<path id="Layer" class="shp0" d="M197.48 30.34C195.27 29.42 192.72 30.46 191.8 32.67C190.88 34.88 191.92 37.43 194.14 38.35C196.35 39.27 198.9 38.23 199.82 36.02C200.74 33.81 199.7 31.26 197.48 30.34Z" />
		<path id="Layer" class="shp0" d="M177.5 36.4C176.58 38.61 177.62 41.16 179.84 42.08C182.05 43 184.6 41.96 185.52 39.75C186.44 37.54 185.4 34.99 183.18 34.07C180.97 33.14 178.42 34.19 177.5 36.4Z" />
		<path id="Layer" class="shp0" d="M164.79 42.7C163.87 44.91 164.91 47.46 167.13 48.38C169.34 49.3 171.89 48.26 172.81 46.04C173.73 43.83 172.69 41.28 170.47 40.36C168.26 39.44 165.72 40.48 164.79 42.7Z" />
		<path id="Layer" class="shp0" d="M159.7 46.13C157.49 45.21 154.94 46.25 154.02 48.46C153.1 50.67 154.14 53.22 156.35 54.14C158.56 55.06 161.11 54.02 162.03 51.81C162.95 49.6 161.91 47.06 159.7 46.13Z" />
		<path id="Layer" class="shp0" d="M142.79 55.76C141.87 57.97 142.91 60.52 145.12 61.44C147.33 62.36 149.88 61.32 150.8 59.1C151.72 56.89 150.68 54.34 148.46 53.42C146.26 52.51 143.71 53.55 142.79 55.76Z" />
		<path id="Layer" class="shp0" d="M140.96 63.23C138.75 62.31 136.2 63.35 135.28 65.57C134.36 67.78 135.4 70.33 137.62 71.25C139.83 72.17 142.38 71.13 143.3 68.92C144.22 66.69 143.17 64.15 140.96 63.23Z" />
		<path id="Layer" class="shp0" d="M129.42 75.48C128.5 77.69 129.54 80.24 131.76 81.16C133.97 82.08 136.52 81.04 137.44 78.82C138.36 76.61 137.32 74.06 135.11 73.14C132.9 72.22 130.35 73.27 129.42 75.48Z" />
		<path id="Layer" class="shp0" d="M124.68 85.48C123.76 87.69 124.8 90.24 127.02 91.16C129.23 92.08 131.78 91.04 132.7 88.83C133.62 86.62 132.58 84.07 130.37 83.15C128.16 82.23 125.6 83.27 124.68 85.48Z" />
		<path id="Layer" class="shp0" d="M127.68 92.3C125.47 91.38 122.92 92.42 122 94.63C121.08 96.84 122.12 99.39 124.34 100.31C126.55 101.23 129.1 100.19 130.02 97.98C130.94 95.77 129.89 93.22 127.68 92.3Z" />
		<path id="Layer" class="shp0" d="M129.13 106.93C130.05 104.72 129.01 102.17 126.79 101.25C124.58 100.32 122.03 101.37 121.11 103.58C120.19 105.79 121.23 108.34 123.44 109.26C125.66 110.19 128.21 109.14 129.13 106.93Z" />
		<path id="Layer" class="shp0" d="M205.32 13.18C202.97 12.71 200.68 14.23 200.2 16.58C199.73 18.93 201.25 21.22 203.6 21.7C205.95 22.17 208.24 20.65 208.72 18.3C209.2 15.95 207.68 13.66 205.32 13.18Z" />
		<path id="Layer" class="shp0" d="M189.17 16.9C186.82 16.43 184.53 17.95 184.05 20.3C183.58 22.65 185.1 24.94 187.45 25.42C189.8 25.9 192.09 24.37 192.57 22.02C193.05 19.67 191.53 17.38 189.17 16.9Z" />
		<path id="Layer" class="shp0" d="M169.01 25.68C168.53 28.03 170.06 30.32 172.41 30.8C174.76 31.27 177.05 29.75 177.53 27.4C178.01 25.05 176.48 22.76 174.13 22.28C171.77 21.81 169.48 23.33 169.01 25.68Z" />
		<path id="Layer" class="shp0" d="M159.11 37.24C161.46 37.72 163.75 36.19 164.23 33.84C164.7 31.49 163.18 29.2 160.83 28.72C158.48 28.25 156.19 29.77 155.71 32.12C155.23 34.48 156.75 36.77 159.11 37.24Z" />
		<path id="Layer" class="shp0" d="M147.87 45.9C150.22 46.37 152.51 44.85 152.99 42.5C153.47 40.15 151.94 37.86 149.59 37.38C147.24 36.91 144.95 38.43 144.47 40.78C144 43.13 145.52 45.42 147.87 45.9Z" />
		<path id="Layer" class="shp0" d="M140.14 45.14C137.79 44.67 135.5 46.19 135.02 48.54C134.55 50.89 136.07 53.18 138.42 53.66C140.77 54.13 143.06 52.61 143.54 50.26C144.02 47.91 142.49 45.62 140.14 45.14Z" />
		<path id="Layer" class="shp0" d="M130.56 54.49C128.21 54.02 125.92 55.54 125.44 57.89C124.96 60.24 126.49 62.53 128.84 63.01C131.19 63.48 133.48 61.96 133.96 59.61C134.43 57.26 132.91 54.96 130.56 54.49Z" />
		<path id="Layer" class="shp0" d="M125.1 65.56C122.75 65.09 120.46 66.61 119.98 68.96C119.51 71.31 121.03 73.6 123.38 74.08C125.73 74.55 128.02 73.03 128.5 70.68C128.97 68.33 127.45 66.04 125.1 65.56Z" />
		<path id="Layer" class="shp0" d="M121.29 76.43C118.94 75.96 116.65 77.48 116.17 79.83C115.7 82.18 117.22 84.47 119.57 84.95C121.92 85.43 124.21 83.9 124.69 81.55C125.17 79.2 123.65 76.91 121.29 76.43Z" />
		<path id="Layer" class="shp0" d="M113.47 90.57C113 92.92 114.52 95.21 116.87 95.69C119.22 96.17 121.51 94.64 121.99 92.29C122.47 89.94 120.94 87.65 118.59 87.17C116.24 86.69 113.95 88.21 113.47 90.57Z" />
		<path id="Layer" class="shp0" d="M116.03 105.18C118.38 105.66 120.67 104.13 121.15 101.78C121.62 99.43 120.1 97.14 117.75 96.66C115.4 96.19 113.11 97.71 112.63 100.06C112.16 102.42 113.68 104.71 116.03 105.18Z" />
		<path id="Layer" class="shp0" d="M122.03 110.74C122.51 108.39 120.98 106.1 118.63 105.62C116.28 105.15 113.99 106.67 113.51 109.02C113.03 111.37 114.56 113.66 116.91 114.14C119.26 114.61 121.55 113.09 122.03 110.74Z" />
		<path id="Layer" class="shp0" d="M178.47 3.92C176.07 3.91 174.12 5.85 174.12 8.25C174.11 10.65 176.05 12.6 178.45 12.61C180.85 12.62 182.8 10.68 182.81 8.28C182.81 5.88 180.87 3.93 178.47 3.92Z" />
		<path id="Layer" class="shp0" d="M163.33 19.41C165.73 19.42 167.68 17.48 167.69 15.08C167.7 12.68 165.76 10.73 163.36 10.72C160.96 10.71 159.01 12.65 159 15.05C158.99 17.45 160.93 19.4 163.33 19.41Z" />
		<path id="Layer" class="shp0" d="M149.64 18.94C147.24 18.93 145.29 20.87 145.28 23.27C145.27 25.67 147.21 27.62 149.61 27.63C152.01 27.64 153.96 25.7 153.97 23.3C153.98 20.89 152.04 18.94 149.64 18.94Z" />
		<path id="Layer" class="shp0" d="M137.86 27.85C135.46 27.84 133.51 29.78 133.5 32.18C133.49 34.58 135.43 36.53 137.83 36.54C140.23 36.55 142.18 34.61 142.19 32.21C142.2 29.81 140.26 27.86 137.86 27.85Z" />
		<path id="Layer" class="shp0" d="M128.53 38.53C126.13 38.52 124.18 40.46 124.17 42.86C124.16 45.26 126.1 47.21 128.5 47.22C130.9 47.23 132.85 45.29 132.86 42.89C132.86 40.49 130.92 38.54 128.53 38.53Z" />
		<path id="Layer" class="shp0" d="M120.78 47.99C118.38 47.98 116.43 49.92 116.42 52.32C116.41 54.72 118.35 56.67 120.75 56.68C123.15 56.69 125.1 54.75 125.11 52.35C125.11 49.95 123.17 48 120.78 47.99Z" />
		<path id="Layer" class="shp0" d="M113.2 59.02C110.8 59.01 108.85 60.95 108.84 63.35C108.83 65.75 110.77 67.7 113.17 67.71C115.57 67.72 117.52 65.78 117.53 63.38C117.54 60.98 115.6 59.03 113.2 59.02Z" />
		<path id="Layer" class="shp0" d="M105.65 75.28C105.64 77.68 107.58 79.63 109.98 79.64C112.38 79.65 114.33 77.71 114.34 75.31C114.35 72.91 112.41 70.96 110.01 70.95C107.61 70.94 105.65 72.88 105.65 75.28Z" />
		<path id="Layer" class="shp0" d="M108.39 82.35C105.99 82.34 104.04 84.28 104.03 86.68C104.02 89.08 105.96 91.03 108.36 91.04C110.76 91.05 112.71 89.11 112.72 86.71C112.73 84.31 110.79 82.36 108.39 82.35Z" />
		<path id="Layer" class="shp0" d="M107.81 102.1C110.21 102.11 112.16 100.17 112.17 97.77C112.18 95.37 110.24 93.42 107.84 93.41C105.44 93.4 103.49 95.34 103.48 97.74C103.47 100.14 105.41 102.09 107.81 102.1Z" />
		<path id="Layer" class="shp0" d="M108.86 102.89C106.46 102.88 104.51 104.82 104.5 107.22C104.49 109.62 106.43 111.57 108.83 111.58C111.23 111.59 113.18 109.65 113.19 107.25C113.2 104.85 111.26 102.9 108.86 102.89Z" />
		<path id="Layer" class="shp0" d="M115.8 115.85C115.81 113.45 113.87 111.5 111.47 111.49C109.07 111.48 107.12 113.42 107.11 115.82C107.1 118.22 109.04 120.17 111.44 120.18C113.84 120.19 115.79 118.25 115.8 115.85Z" />
		<path id="Layer" class="shp0" d="M146.89 5.18C147.35 7.53 149.63 9.07 151.99 8.61C154.35 8.15 155.88 5.87 155.42 3.51C154.96 1.16 152.68 -0.38 150.32 0.08C147.96 0.54 146.43 2.83 146.89 5.18Z" />
		<path id="Layer" class="shp0" d="M138.5 18.23C140.85 17.77 142.39 15.49 141.93 13.13C141.47 10.78 139.19 9.24 136.83 9.7C134.48 10.16 132.94 12.44 133.4 14.8C133.86 17.15 136.14 18.69 138.5 18.23Z" />
		<path id="Layer" class="shp0" d="M124.98 20.43C122.63 20.89 121.09 23.17 121.55 25.53C122.01 27.89 124.29 29.42 126.65 28.96C129 28.5 130.54 26.22 130.08 23.86C129.62 21.5 127.33 19.97 124.98 20.43Z" />
		<path id="Layer" class="shp0" d="M115.16 31.47C112.81 31.93 111.27 34.21 111.73 36.57C112.19 38.93 114.47 40.46 116.83 40C119.18 39.54 120.72 37.26 120.26 34.9C119.8 32.54 117.51 31.01 115.16 31.47Z" />
		<path id="Layer" class="shp0" d="M104.66 48.87C105.12 51.22 107.4 52.76 109.76 52.3C112.11 51.84 113.65 49.56 113.19 47.2C112.73 44.85 110.45 43.31 108.09 43.77C105.74 44.23 104.2 46.51 104.66 48.87Z" />
		<path id="Layer" class="shp0" d="M102.33 54.56C99.98 55.02 98.44 57.3 98.9 59.66C99.36 62.02 101.64 63.55 104 63.09C106.35 62.63 107.89 60.35 107.43 57.99C106.97 55.63 104.69 54.09 102.33 54.56Z" />
		<path id="Layer" class="shp0" d="M97.05 66.86C94.7 67.32 93.16 69.6 93.62 71.96C94.08 74.32 96.36 75.85 98.72 75.39C101.07 74.93 102.61 72.65 102.15 70.29C101.69 67.93 99.41 66.4 97.05 66.86Z" />
		<path id="Layer" class="shp0" d="M92.82 84.28C93.28 86.63 95.56 88.17 97.92 87.71C100.27 87.25 101.81 84.97 101.35 82.61C100.89 80.26 98.61 78.72 96.25 79.18C93.89 79.64 92.36 81.92 92.82 84.28Z" />
		<path id="Layer" class="shp0" d="M96.89 90.68C94.54 91.14 93 93.42 93.46 95.78C93.92 98.13 96.2 99.67 98.56 99.21C100.91 98.75 102.45 96.47 101.99 94.11C101.53 91.75 99.25 90.22 96.89 90.68Z" />
		<path id="Layer" class="shp0" d="M98.5 101.63C96.15 102.09 94.61 104.37 95.07 106.73C95.53 109.09 97.81 110.62 100.17 110.16C102.52 109.7 104.06 107.42 103.6 105.06C103.14 102.7 100.86 101.17 98.5 101.63Z" />
		<path id="Layer" class="shp0" d="M101.36 110.73C99.01 111.19 97.47 113.47 97.93 115.83C98.39 118.19 100.67 119.72 103.03 119.26C105.39 118.8 106.92 116.52 106.46 114.16C106 111.8 103.71 110.27 101.36 110.73Z" />
		<path id="Layer" class="shp0" d="M110.69 122.09C110.23 119.74 107.95 118.2 105.59 118.66C103.24 119.12 101.7 121.4 102.16 123.76C102.62 126.12 104.9 127.65 107.26 127.19C109.62 126.72 111.16 124.44 110.69 122.09Z" />
		<path id="Layer" class="shp0" d="M121.97 1.81C119.75 2.72 118.69 5.26 119.6 7.48C120.51 9.7 123.05 10.76 125.27 9.85C127.49 8.94 128.55 6.4 127.64 4.18C126.72 1.95 124.19 0.89 121.97 1.81Z" />
		<path id="Layer" class="shp0" d="M110.61 13.87C108.39 14.78 107.33 17.32 108.24 19.54C109.15 21.76 111.69 22.82 113.91 21.91C116.13 21 117.19 18.46 116.28 16.24C115.36 14.02 112.83 12.96 110.61 13.87Z" />
		<path id="Layer" class="shp0" d="M101.08 26.71C98.86 27.62 97.8 30.16 98.71 32.38C99.62 34.6 102.16 35.66 104.38 34.75C106.6 33.84 107.66 31.3 106.75 29.08C105.84 26.85 103.3 25.8 101.08 26.71Z" />
		<path id="Layer" class="shp0" d="M91.24 45.12C92.15 47.34 94.69 48.4 96.91 47.49C99.13 46.58 100.19 44.04 99.28 41.82C98.37 39.6 95.83 38.54 93.61 39.45C91.38 40.37 90.33 42.9 91.24 45.12Z" />
		<path id="Layer" class="shp0" d="M89.07 52.89C86.85 53.8 85.79 56.34 86.7 58.56C87.61 60.78 90.15 61.84 92.37 60.93C94.59 60.02 95.65 57.48 94.74 55.26C93.83 53.04 91.29 51.98 89.07 52.89Z" />
		<path id="Layer" class="shp0" d="M83.16 70.26C84.07 72.48 86.61 73.54 88.83 72.63C91.05 71.72 92.11 69.18 91.2 66.96C90.29 64.74 87.75 63.68 85.53 64.59C83.31 65.51 82.25 68.04 83.16 70.26Z" />
		<path id="Layer" class="shp0" d="M82.75 77.69C80.53 78.6 79.47 81.14 80.38 83.36C81.29 85.58 83.83 86.64 86.05 85.73C88.27 84.82 89.33 82.28 88.42 80.06C87.51 77.84 84.97 76.78 82.75 77.69Z" />
		<path id="Layer" class="shp0" d="M84.36 89.93C82.14 90.84 81.08 93.38 81.99 95.6C82.9 97.82 85.44 98.88 87.66 97.97C89.88 97.06 90.94 94.52 90.03 92.3C89.12 90.08 86.58 89.02 84.36 89.93Z" />
		<path id="Layer" class="shp0" d="M87.24 101.08C85.02 101.99 83.96 104.53 84.87 106.75C85.78 108.97 88.32 110.03 90.54 109.12C92.76 108.21 93.82 105.67 92.91 103.45C91.99 101.23 89.46 100.17 87.24 101.08Z" />
		<path id="Layer" class="shp0" d="M90.95 111.51C88.73 112.42 87.67 114.96 88.58 117.18C89.49 119.4 92.03 120.46 94.25 119.55C96.47 118.64 97.53 116.1 96.62 113.88C95.71 111.66 93.17 110.6 90.95 111.51Z" />
		<path id="Layer" class="shp0" d="M95.53 119.88C93.31 120.79 92.25 123.33 93.16 125.55C94.07 127.77 96.61 128.83 98.83 127.92C101.05 127.01 102.11 124.47 101.2 122.25C100.29 120.02 97.75 118.97 95.53 119.88Z" />
		<path id="Layer" class="shp0" d="M106.9 129.2C105.99 126.98 103.45 125.92 101.23 126.83C99.01 127.74 97.95 130.28 98.86 132.5C99.77 134.72 102.31 135.78 104.53 134.87C106.75 133.96 107.81 131.42 106.9 129.2Z" />
		<path id="Layer" class="shp0" d="M94.49 9.03C92.49 10.36 91.95 13.05 93.27 15.05C94.6 17.05 97.29 17.59 99.29 16.27C101.29 14.94 101.83 12.25 100.51 10.25C99.19 8.24 96.49 7.7 94.49 9.03Z" />
		<path id="Layer" class="shp0" d="M84.49 29.1C85.82 31.1 88.51 31.64 90.51 30.32C92.51 28.99 93.05 26.3 91.73 24.3C90.4 22.3 87.71 21.76 85.71 23.08C83.71 24.41 83.16 27.1 84.49 29.1Z" />
		<path id="Layer" class="shp0" d="M78.86 37.53C76.86 38.86 76.32 41.55 77.64 43.55C78.97 45.55 81.66 46.09 83.66 44.77C85.66 43.44 86.2 40.75 84.88 38.75C83.56 36.74 80.86 36.2 78.86 37.53Z" />
		<path id="Layer" class="shp0" d="M74.02 51.49C72.02 52.82 71.48 55.51 72.8 57.51C74.13 59.51 76.82 60.05 78.82 58.72C80.82 57.39 81.36 54.7 80.04 52.7C78.72 50.7 76.02 50.16 74.02 51.49Z" />
		<path id="Layer" class="shp0" d="M77 72.79C79 71.46 79.54 68.77 78.22 66.77C76.89 64.77 74.2 64.23 72.2 65.55C70.2 66.88 69.66 69.57 70.98 71.57C72.31 73.57 75 74.12 77 72.79Z" />
		<path id="Layer" class="shp0" d="M69.79 83.74C71.12 85.74 73.81 86.28 75.81 84.96C77.81 83.63 78.35 80.94 77.03 78.94C75.7 76.94 73.01 76.4 71.01 77.72C69.01 79.05 68.46 81.74 69.79 83.74Z" />
		<path id="Layer" class="shp0" d="M69.62 97.13C70.95 99.13 73.64 99.67 75.64 98.35C77.64 97.02 78.18 94.33 76.85 92.33C75.52 90.33 72.83 89.79 70.83 91.11C68.83 92.43 68.29 95.13 69.62 97.13Z" />
		<path id="Layer" class="shp0" d="M74.8 102.8C72.8 104.13 72.26 106.82 73.58 108.82C74.91 110.82 77.6 111.36 79.6 110.04C81.6 108.71 82.14 106.02 80.82 104.02C79.5 102.01 76.8 101.47 74.8 102.8Z" />
		<path id="Layer" class="shp0" d="M79.8 113.17C77.8 114.5 77.26 117.19 78.59 119.19C79.92 121.19 82.61 121.73 84.61 120.41C86.61 119.09 87.15 116.39 85.83 114.39C84.49 112.39 81.8 111.85 79.8 113.17Z" />
		<path id="Layer" class="shp0" d="M85.48 122.68C83.48 124.01 82.94 126.7 84.27 128.7C85.6 130.7 88.29 131.24 90.29 129.92C92.29 128.59 92.83 125.9 91.51 123.9C90.17 121.89 87.48 121.35 85.48 122.68Z" />
		<path id="Layer" class="shp0" d="M90.38 136.01C91.71 138.01 94.4 138.55 96.4 137.23C98.4 135.9 98.94 133.21 97.61 131.21C96.28 129.21 93.59 128.67 91.59 129.99C89.6 131.32 89.05 134.01 90.38 136.01Z" />
		<path id="Layer" class="shp0" d="M104.57 136.91C103.24 134.91 100.55 134.37 98.55 135.69C96.55 137.02 96.01 139.71 97.34 141.71C98.67 143.71 101.36 144.25 103.36 142.93C105.35 141.61 105.9 138.91 104.57 136.91Z" />
		<path id="Layer" class="shp0" d="M68.96 21.47C67.26 23.16 67.25 25.91 68.94 27.61C70.63 29.31 73.38 29.32 75.08 27.63C76.78 25.94 76.79 23.19 75.1 21.49C73.41 19.79 70.66 19.78 68.96 21.47Z" />
		<path id="Layer" class="shp0" d="M63.08 36.97C61.38 38.66 61.37 41.41 63.06 43.11C64.75 44.81 67.5 44.82 69.2 43.13C70.9 41.44 70.91 38.69 69.22 36.99C67.53 35.28 64.78 35.28 63.08 36.97Z" />
		<path id="Layer" class="shp0" d="M59.17 58.61C60.86 60.31 63.61 60.32 65.31 58.63C67.01 56.94 67.02 54.19 65.33 52.49C63.64 50.79 60.89 50.78 59.19 52.47C57.49 54.16 57.48 56.91 59.17 58.61Z" />
		<path id="Layer" class="shp0" d="M57.14 73.25C58.83 74.95 61.58 74.96 63.28 73.27C64.98 71.58 64.99 68.83 63.3 67.13C61.61 65.43 58.86 65.42 57.16 67.11C55.46 68.8 55.45 71.55 57.14 73.25Z" />
		<path id="Layer" class="shp0" d="M64.24 87.42C65.94 85.73 65.95 82.98 64.26 81.28C62.57 79.58 59.82 79.57 58.12 81.26C56.42 82.95 56.41 85.7 58.1 87.4C59.79 89.1 62.54 89.11 64.24 87.42Z" />
		<path id="Layer" class="shp0" d="M65.44 99.59C67.14 97.9 67.15 95.15 65.46 93.45C63.77 91.75 61.02 91.74 59.32 93.43C57.62 95.12 57.61 97.87 59.3 99.57C60.99 101.27 63.74 101.28 65.44 99.59Z" />
		<path id="Layer" class="shp0" d="M61.76 106.59C60.06 108.28 60.05 111.03 61.74 112.73C63.43 114.43 66.18 114.44 67.88 112.75C69.58 111.06 69.59 108.31 67.9 106.61C66.21 104.9 63.46 104.9 61.76 106.59Z" />
		<path id="Layer" class="shp0" d="M67.94 117.28C66.24 118.97 66.23 121.72 67.92 123.42C69.61 125.12 72.36 125.13 74.06 123.44C75.76 121.75 75.77 119 74.08 117.3C72.39 115.6 69.64 115.59 67.94 117.28Z" />
		<path id="Layer" class="shp0" d="M74.84 132.63C76.53 134.33 79.28 134.34 80.98 132.65C82.68 130.96 82.69 128.21 81 126.51C79.31 124.81 76.56 124.8 74.86 126.49C73.16 128.17 73.15 130.92 74.84 132.63Z" />
		<path id="Layer" class="shp0" d="M82.28 134.7C80.58 136.39 80.57 139.14 82.26 140.84C83.95 142.54 86.7 142.55 88.4 140.86C90.1 139.17 90.11 136.42 88.42 134.72C86.74 133.01 83.99 133 82.28 134.7Z" />
		<path id="Layer" class="shp0" d="M89.71 140.67C88.01 142.36 88 145.11 89.69 146.81C91.38 148.51 94.13 148.52 95.83 146.83C97.53 145.14 97.54 142.39 95.85 140.69C94.16 138.99 91.41 138.98 89.71 140.67Z" />
		<path id="Layer" class="shp0" d="M97.64 144.91C95.94 146.6 95.93 149.35 97.62 151.05C99.31 152.75 102.06 152.76 103.76 151.07C105.46 149.38 105.47 146.63 103.78 144.93C102.1 143.23 99.35 143.22 97.64 144.91Z" />
		<path id="Layer" class="shp0" d="M47.52 44.69C49.51 46.03 52.21 45.5 53.55 43.51C54.89 41.52 54.36 38.82 52.37 37.48C50.38 36.14 47.68 36.67 46.34 38.66C45 40.65 45.53 43.35 47.52 44.69Z" />
		<path id="Layer" class="shp0" d="M49.62 53.82C47.63 52.48 44.93 53.01 43.59 55C42.25 56.99 42.78 59.69 44.77 61.03C46.76 62.37 49.46 61.84 50.8 59.85C52.14 57.86 51.61 55.16 49.62 53.82Z" />
		<path id="Layer" class="shp0" d="M43.98 76.99C45.97 78.33 48.67 77.8 50.01 75.81C51.35 73.82 50.82 71.12 48.83 69.78C46.84 68.44 44.14 68.97 42.8 70.96C41.46 72.96 41.99 75.66 43.98 76.99Z" />
		<path id="Layer" class="shp0" d="M49.7 84.54C47.71 83.2 45.01 83.73 43.67 85.72C42.33 87.71 42.86 90.41 44.85 91.75C46.84 93.09 49.54 92.56 50.88 90.57C52.22 88.58 51.69 85.88 49.7 84.54Z" />
		<path id="Layer" class="shp0" d="M53.39 98.23C51.4 96.89 48.7 97.42 47.36 99.41C46.02 101.4 46.55 104.1 48.54 105.44C50.53 106.78 53.23 106.25 54.57 104.26C55.91 102.27 55.38 99.57 53.39 98.23Z" />
		<path id="Layer" class="shp0" d="M50.92 111.11C49.58 113.1 50.11 115.8 52.1 117.14C54.09 118.48 56.79 117.95 58.13 115.96C59.47 113.97 58.94 111.27 56.95 109.93C54.96 108.59 52.26 109.12 50.92 111.11Z" />
		<path id="Layer" class="shp0" d="M55.89 123.54C54.55 125.53 55.08 128.23 57.07 129.57C59.06 130.91 61.76 130.38 63.1 128.39C64.44 126.4 63.91 123.7 61.92 122.36C59.92 121.02 57.22 121.55 55.89 123.54Z" />
		<path id="Layer" class="shp0" d="M64.03 132.82C62.69 134.81 63.22 137.51 65.21 138.85C67.2 140.19 69.9 139.66 71.24 137.67C72.58 135.68 72.05 132.98 70.06 131.64C68.07 130.3 65.37 130.83 64.03 132.82Z" />
		<path id="Layer" class="shp0" d="M72.61 140.5C71.27 142.49 71.8 145.19 73.79 146.53C75.78 147.87 78.48 147.34 79.82 145.35C81.16 143.36 80.63 140.66 78.64 139.32C76.65 137.98 73.95 138.51 72.61 140.5Z" />
		<path id="Layer" class="shp0" d="M82.68 153.13C84.67 154.47 87.37 153.94 88.71 151.95C90.05 149.96 89.52 147.26 87.53 145.92C85.54 144.58 82.84 145.11 81.5 147.1C80.16 149.1 80.69 151.8 82.68 153.13Z" />
		<path id="Layer" class="shp0" d="M91.13 157.55C93.12 158.89 95.82 158.36 97.16 156.37C98.5 154.38 97.97 151.68 95.98 150.34C93.99 149 91.29 149.53 89.95 151.52C88.61 153.51 89.14 156.21 91.13 157.55Z" />
		<path id="Layer" class="shp0" d="M99.74 160.16C101.73 161.5 104.43 160.97 105.77 158.98C107.11 156.99 106.58 154.29 104.59 152.95C102.6 151.61 99.9 152.14 98.56 154.13C97.22 156.12 97.75 158.82 99.74 160.16Z" />
		<path id="Layer" class="shp0" d="M33.19 57.59C30.98 56.67 28.43 57.71 27.51 59.92C26.59 62.13 27.63 64.68 29.85 65.6C32.06 66.52 34.61 65.48 35.53 63.26C36.45 61.06 35.4 58.52 33.19 57.59Z" />
		<path id="Layer" class="shp0" d="M33.69 74.16C31.48 73.24 28.93 74.28 28.01 76.49C27.09 78.7 28.13 81.25 30.34 82.17C32.55 83.09 35.1 82.05 36.02 79.84C36.94 77.63 35.9 75.08 33.69 74.16Z" />
		<path id="Layer" class="shp0" d="M36.02 89.97C33.81 89.05 31.26 90.09 30.34 92.3C29.42 94.51 30.46 97.06 32.67 97.98C34.88 98.9 37.43 97.86 38.35 95.65C39.28 93.44 38.24 90.89 36.02 89.97Z" />
		<path id="Layer" class="shp0" d="M39.75 104.27C37.54 103.35 34.99 104.39 34.07 106.6C33.15 108.81 34.19 111.36 36.41 112.28C38.62 113.2 41.17 112.16 42.09 109.94C43.01 107.74 41.97 105.19 39.75 104.27Z" />
		<path id="Layer" class="shp0" d="M48.38 122.66C49.3 120.45 48.26 117.9 46.05 116.98C43.84 116.05 41.29 117.1 40.37 119.31C39.45 121.52 40.49 124.07 42.7 124.99C44.91 125.92 47.46 124.88 48.38 122.66Z" />
		<path id="Layer" class="shp0" d="M48.47 135.77C50.68 136.69 53.23 135.65 54.15 133.44C55.07 131.23 54.03 128.68 51.82 127.76C49.61 126.84 47.06 127.88 46.14 130.09C45.21 132.31 46.26 134.85 48.47 135.77Z" />
		<path id="Layer" class="shp0" d="M55.77 147C57.98 147.93 60.53 146.88 61.45 144.67C62.37 142.46 61.33 139.91 59.11 138.99C56.9 138.06 54.35 139.11 53.43 141.32C52.51 143.53 53.55 146.07 55.77 147Z" />
		<path id="Layer" class="shp0" d="M65.56 154.51C67.77 155.44 70.32 154.39 71.24 152.18C72.16 149.97 71.12 147.42 68.91 146.5C66.7 145.58 64.15 146.62 63.23 148.83C62.3 151.04 63.35 153.59 65.56 154.51Z" />
		<path id="Layer" class="shp0" d="M81.16 158.03C82.08 155.82 81.04 153.27 78.83 152.35C76.62 151.43 74.07 152.47 73.15 154.68C72.23 156.89 73.27 159.44 75.48 160.36C77.69 161.29 80.24 160.25 81.16 158.03Z" />
		<path id="Layer" class="shp0" d="M85.48 165.11C87.69 166.03 90.24 164.99 91.16 162.78C92.08 160.57 91.04 158.02 88.83 157.1C86.62 156.17 84.07 157.22 83.15 159.43C82.22 161.65 83.27 164.19 85.48 165.11Z" />
		<path id="Layer" class="shp0" d="M100.31 165.46C101.23 163.25 100.19 160.7 97.98 159.78C95.77 158.85 93.22 159.9 92.3 162.11C91.38 164.32 92.42 166.87 94.63 167.79C96.85 168.72 99.39 167.67 100.31 165.46Z" />
		<path id="Layer" class="shp0" d="M109.26 166.34C110.18 164.13 109.14 161.58 106.93 160.66C104.72 159.73 102.17 160.78 101.25 162.99C100.33 165.2 101.37 167.75 103.59 168.67C105.8 169.6 108.34 168.56 109.26 166.34Z" />
		<path id="Layer" class="shp0" d="M18.3 81.06C15.95 80.59 13.66 82.11 13.18 84.46C12.7 86.81 14.23 89.1 16.58 89.58C18.93 90.05 21.22 88.53 21.7 86.18C22.17 83.83 20.65 81.54 18.3 81.06Z" />
		<path id="Layer" class="shp0" d="M22.02 97.21C19.67 96.74 17.38 98.26 16.9 100.61C16.43 102.96 17.95 105.25 20.3 105.73C22.65 106.21 24.94 104.68 25.42 102.33C25.9 99.98 24.37 97.69 22.02 97.21Z" />
		<path id="Layer" class="shp0" d="M22.28 115.66C21.8 118.01 23.33 120.3 25.68 120.78C28.03 121.25 30.32 119.73 30.8 117.38C31.27 115.03 29.75 112.74 27.4 112.26C25.05 111.79 22.76 113.31 22.28 115.66Z" />
		<path id="Layer" class="shp0" d="M33.85 125.56C31.5 125.09 29.21 126.61 28.73 128.96C28.26 131.31 29.78 133.6 32.13 134.08C34.48 134.56 36.77 133.03 37.25 130.68C37.72 128.33 36.2 126.04 33.85 125.56Z" />
		<path id="Layer" class="shp0" d="M40.78 145.31C43.13 145.78 45.42 144.26 45.9 141.91C46.37 139.56 44.85 137.27 42.5 136.79C40.15 136.32 37.86 137.84 37.38 140.19C36.91 142.55 38.43 144.84 40.78 145.31Z" />
		<path id="Layer" class="shp0" d="M53.66 151.36C54.13 149.01 52.61 146.72 50.26 146.24C47.91 145.77 45.62 147.29 45.14 149.64C44.66 151.99 46.19 154.28 48.54 154.76C50.89 155.24 53.19 153.71 53.66 151.36Z" />
		<path id="Layer" class="shp0" d="M57.89 164.35C60.24 164.83 62.53 163.3 63.01 160.95C63.48 158.6 61.96 156.31 59.61 155.83C57.26 155.36 54.97 156.88 54.49 159.23C54.01 161.58 55.54 163.87 57.89 164.35Z" />
		<path id="Layer" class="shp0" d="M68.96 169.81C71.31 170.29 73.6 168.76 74.08 166.41C74.56 164.06 73.03 161.77 70.68 161.29C68.33 160.82 66.04 162.34 65.56 164.69C65.09 167.04 66.61 169.33 68.96 169.81Z" />
		<path id="Layer" class="shp0" d="M79.83 173.61C82.18 174.08 84.47 172.56 84.95 170.21C85.43 167.86 83.9 165.57 81.55 165.09C79.2 164.61 76.91 166.14 76.43 168.49C75.96 170.85 77.48 173.14 79.83 173.61Z" />
		<path id="Layer" class="shp0" d="M90.57 176.32C92.92 176.8 95.21 175.27 95.69 172.92C96.17 170.57 94.64 168.28 92.29 167.8C89.94 167.33 87.65 168.85 87.17 171.2C86.69 173.55 88.21 175.84 90.57 176.32Z" />
		<path id="Layer" class="shp0" d="M100.07 177.16C102.42 177.63 104.71 176.11 105.19 173.76C105.66 171.41 104.14 169.12 101.79 168.64C99.44 168.16 97.15 169.69 96.67 172.04C96.19 174.39 97.71 176.68 100.07 177.16Z" />
		<path id="Layer" class="shp0" d="M109.02 176.28C111.37 176.75 113.66 175.23 114.14 172.88C114.61 170.53 113.09 168.24 110.74 167.76C108.39 167.29 106.1 168.81 105.62 171.16C105.14 173.52 106.66 175.81 109.02 176.28Z" />
		<path id="Layer" class="shp0" d="M8.28 106.98C5.88 106.97 3.93 108.91 3.92 111.31C3.91 113.71 5.85 115.66 8.25 115.67C10.65 115.68 12.6 113.74 12.61 111.34C12.62 108.94 10.68 106.99 8.28 106.98Z" />
		<path id="Layer" class="shp0" d="M10.73 126.43C10.72 128.83 12.66 130.78 15.06 130.79C17.46 130.8 19.41 128.86 19.42 126.46C19.43 124.06 17.49 122.11 15.09 122.1C12.68 122.09 10.73 124.03 10.73 126.43Z" />
		<path id="Layer" class="shp0" d="M27.62 140.17C27.63 137.77 25.69 135.82 23.29 135.81C20.89 135.8 18.94 137.74 18.93 140.14C18.92 142.54 20.86 144.49 23.26 144.5C25.67 144.51 27.62 142.57 27.62 140.17Z" />
		<path id="Layer" class="shp0" d="M32.18 156.28C34.58 156.29 36.53 154.35 36.54 151.95C36.55 149.55 34.61 147.6 32.21 147.59C29.81 147.58 27.86 149.52 27.85 151.92C27.85 154.33 29.79 156.28 32.18 156.28Z" />
		<path id="Layer" class="shp0" d="M47.22 161.29C47.23 158.89 45.29 156.94 42.89 156.93C40.49 156.92 38.54 158.86 38.53 161.26C38.52 163.66 40.46 165.61 42.86 165.62C45.26 165.62 47.21 163.69 47.22 161.29Z" />
		<path id="Layer" class="shp0" d="M52.32 173.37C54.72 173.38 56.67 171.44 56.68 169.04C56.69 166.64 54.75 164.69 52.35 164.68C49.95 164.67 48 166.61 47.99 169.01C47.98 171.41 49.92 173.36 52.32 173.37Z" />
		<path id="Layer" class="shp0" d="M63.35 180.95C65.75 180.96 67.7 179.02 67.71 176.62C67.72 174.22 65.78 172.27 63.38 172.26C60.98 172.25 59.03 174.19 59.02 176.59C59.02 178.99 60.96 180.94 63.35 180.95Z" />
		<path id="Layer" class="shp0" d="M79.64 179.81C79.65 177.41 77.71 175.46 75.31 175.45C72.91 175.44 70.96 177.38 70.95 179.78C70.94 182.18 72.88 184.13 75.28 184.14C77.68 184.15 79.63 182.21 79.64 179.81Z" />
		<path id="Layer" class="shp0" d="M91.04 181.42C91.05 179.02 89.11 177.07 86.71 177.06C84.31 177.05 82.36 178.99 82.35 181.39C82.34 183.79 84.28 185.74 86.68 185.75C89.08 185.76 91.03 183.82 91.04 181.42Z" />
		<path id="Layer" class="shp0" d="M102.1 181.98C102.11 179.58 100.17 177.63 97.77 177.62C95.37 177.61 93.42 179.55 93.41 181.95C93.4 184.35 95.34 186.3 97.74 186.31C100.14 186.32 102.09 184.38 102.1 181.98Z" />
		<path id="Layer" class="shp0" d="M111.58 180.96C111.59 178.56 109.65 176.61 107.25 176.6C104.85 176.59 102.9 178.53 102.89 180.93C102.88 183.33 104.82 185.28 107.22 185.29C109.62 185.29 111.57 183.35 111.58 180.96Z" />
		<path id="Layer" class="shp0" d="M115.83 182.68C118.23 182.69 120.18 180.75 120.19 178.35C120.2 175.95 118.26 174 115.86 173.99C113.46 173.98 111.51 175.92 111.5 178.32C111.49 180.72 113.43 182.67 115.83 182.68Z" />
		<path id="Layer" class="shp0" d="M0.08 139.46C0.54 141.81 2.82 143.35 5.18 142.89C7.53 142.43 9.07 140.15 8.61 137.79C8.15 135.44 5.87 133.9 3.51 134.36C1.16 134.83 -0.38 137.11 0.08 139.46Z" />
		<path id="Layer" class="shp0" d="M13.13 147.86C10.78 148.32 9.24 150.6 9.7 152.96C10.16 155.31 12.44 156.85 14.8 156.39C17.15 155.93 18.69 153.65 18.23 151.29C17.77 148.93 15.48 147.4 13.13 147.86Z" />
		<path id="Layer" class="shp0" d="M25.53 168.24C27.88 167.78 29.42 165.5 28.96 163.14C28.5 160.78 26.22 159.25 23.86 159.71C21.51 160.17 19.97 162.45 20.43 164.81C20.89 167.17 23.17 168.7 25.53 168.24Z" />
		<path id="Layer" class="shp0" d="M36.57 178.06C38.93 177.6 40.46 175.32 40 172.96C39.54 170.6 37.26 169.07 34.9 169.53C32.55 169.99 31.01 172.27 31.47 174.63C31.93 176.98 34.22 178.52 36.57 178.06Z" />
		<path id="Layer" class="shp0" d="M52.29 180.03C51.83 177.68 49.55 176.14 47.19 176.6C44.84 177.06 43.3 179.34 43.76 181.7C44.22 184.05 46.5 185.59 48.86 185.13C51.22 184.66 52.75 182.38 52.29 180.03Z" />
		<path id="Layer" class="shp0" d="M63.08 185.78C62.62 183.43 60.34 181.89 57.98 182.35C55.63 182.81 54.09 185.09 54.55 187.45C55.01 189.8 57.29 191.34 59.65 190.88C62.01 190.42 63.54 188.14 63.08 185.78Z" />
		<path id="Layer" class="shp0" d="M75.38 191.06C74.92 188.71 72.64 187.17 70.28 187.63C67.93 188.09 66.39 190.37 66.85 192.73C67.31 195.08 69.59 196.62 71.95 196.16C74.31 195.7 75.84 193.42 75.38 191.06Z" />
		<path id="Layer" class="shp0" d="M87.7 191.87C87.24 189.52 84.96 187.98 82.6 188.44C80.25 188.9 78.71 191.18 79.17 193.54C79.63 195.89 81.91 197.43 84.27 196.97C86.63 196.51 88.16 194.22 87.7 191.87Z" />
		<path id="Layer" class="shp0" d="M99.2 191.23C98.74 188.88 96.46 187.34 94.1 187.8C91.75 188.26 90.21 190.54 90.67 192.9C91.13 195.25 93.41 196.79 95.77 196.33C98.13 195.86 99.66 193.58 99.2 191.23Z" />
		<path id="Layer" class="shp0" d="M106.73 194.72C109.08 194.26 110.62 191.98 110.16 189.62C109.7 187.26 107.42 185.73 105.06 186.19C102.71 186.65 101.17 188.93 101.63 191.29C102.09 193.64 104.37 195.18 106.73 194.72Z" />
		<path id="Layer" class="shp0" d="M115.82 191.86C118.18 191.4 119.71 189.12 119.25 186.76C118.79 184.4 116.51 182.87 114.15 183.33C111.8 183.79 110.26 186.07 110.72 188.43C111.19 190.79 113.47 192.32 115.82 191.86Z" />
		<path id="Layer" class="shp0" d="M123.76 187.62C126.11 187.16 127.65 184.88 127.19 182.52C126.73 180.16 124.45 178.63 122.09 179.09C119.74 179.55 118.2 181.83 118.66 184.19C119.12 186.55 121.4 188.08 123.76 187.62Z" />
		<path id="Layer" class="shp0" d="M7.47 170.19C9.69 169.28 10.75 166.74 9.84 164.52C8.93 162.3 6.39 161.24 4.17 162.15C1.95 163.06 0.89 165.6 1.8 167.82C2.72 170.04 5.25 171.1 7.47 170.19Z" />
		<path id="Layer" class="shp0" d="M19.54 181.55C21.76 180.64 22.82 178.1 21.91 175.88C21 173.66 18.46 172.6 16.24 173.51C14.02 174.42 12.96 176.96 13.87 179.18C14.78 181.4 17.32 182.46 19.54 181.55Z" />
		<path id="Layer" class="shp0" d="M34.74 185.41C33.83 183.19 31.29 182.13 29.07 183.04C26.85 183.95 25.79 186.49 26.7 188.71C27.61 190.93 30.15 191.99 32.37 191.08C34.59 190.16 35.65 187.63 34.74 185.41Z" />
		<path id="Layer" class="shp0" d="M47.49 192.88C46.58 190.66 44.04 189.6 41.82 190.51C39.6 191.42 38.54 193.96 39.45 196.18C40.36 198.4 42.9 199.46 45.12 198.55C47.34 197.64 48.4 195.1 47.49 192.88Z" />
		<path id="Layer" class="shp0" d="M58.56 203.09C60.78 202.18 61.84 199.64 60.93 197.42C60.02 195.2 57.48 194.14 55.26 195.05C53.04 195.96 51.98 198.5 52.89 200.72C53.8 202.94 56.34 204 58.56 203.09Z" />
		<path id="Layer" class="shp0" d="M70.26 206.63C72.48 205.72 73.54 203.18 72.63 200.96C71.72 198.74 69.18 197.68 66.96 198.59C64.74 199.5 63.68 202.04 64.59 204.26C65.5 206.48 68.04 207.54 70.26 206.63Z" />
		<path id="Layer" class="shp0" d="M80.06 201.37C77.84 202.28 76.78 204.82 77.69 207.04C78.6 209.26 81.14 210.32 83.36 209.41C85.58 208.5 86.64 205.96 85.73 203.74C84.81 201.52 82.27 200.46 80.06 201.37Z" />
		<path id="Layer" class="shp0" d="M95.6 207.79C97.82 206.88 98.88 204.34 97.97 202.12C97.06 199.9 94.52 198.84 92.3 199.75C90.08 200.66 89.02 203.2 89.93 205.42C90.84 207.65 93.38 208.71 95.6 207.79Z" />
		<path id="Layer" class="shp0" d="M106.75 204.92C108.97 204.01 110.03 201.47 109.12 199.25C108.21 197.03 105.67 195.97 103.45 196.88C101.23 197.79 100.17 200.33 101.08 202.55C101.99 204.77 104.53 205.83 106.75 204.92Z" />
		<path id="Layer" class="shp0" d="M117.18 201.21C119.4 200.3 120.46 197.76 119.55 195.54C118.64 193.32 116.1 192.26 113.88 193.17C111.66 194.08 110.6 196.62 111.51 198.84C112.42 201.06 114.96 202.12 117.18 201.21Z" />
		<path id="Layer" class="shp0" d="M125.55 196.63C127.77 195.72 128.83 193.18 127.92 190.96C127.01 188.74 124.47 187.68 122.25 188.59C120.03 189.5 118.97 192.04 119.88 194.26C120.79 196.48 123.33 197.54 125.55 196.63Z" />
		<path id="Layer" class="shp0" d="M132.5 190.93C134.72 190.02 135.78 187.48 134.87 185.26C133.96 183.04 131.42 181.98 129.2 182.89C126.98 183.8 125.92 186.34 126.83 188.56C127.74 190.78 130.28 191.84 132.5 190.93Z" />
		<path id="Layer" class="shp0" d="M15.05 196.51C17.05 195.18 17.59 192.49 16.27 190.49C14.94 188.49 12.25 187.95 10.25 189.27C8.25 190.6 7.71 193.29 9.03 195.29C10.35 197.29 13.05 197.84 15.05 196.51Z" />
		<path id="Layer" class="shp0" d="M30.31 199.28C28.98 197.28 26.29 196.74 24.29 198.06C22.29 199.39 21.75 202.08 23.07 204.08C24.4 206.08 27.09 206.62 29.09 205.29C31.1 203.97 31.64 201.27 30.31 199.28Z" />
		<path id="Layer" class="shp0" d="M44.76 206.12C43.43 204.12 40.74 203.58 38.74 204.9C36.74 206.23 36.2 208.92 37.52 210.92C38.85 212.92 41.54 213.46 43.54 212.14C45.54 210.81 46.09 208.12 44.76 206.12Z" />
		<path id="Layer" class="shp0" d="M57.51 216.98C59.51 215.65 60.05 212.96 58.73 210.96C57.4 208.96 54.71 208.42 52.71 209.74C50.71 211.07 50.17 213.76 51.5 215.76C52.81 217.77 55.51 218.31 57.51 216.98Z" />
		<path id="Layer" class="shp0" d="M71.57 218.81C73.57 217.48 74.11 214.79 72.79 212.79C71.46 210.79 68.77 210.25 66.77 211.57C64.77 212.9 64.23 215.59 65.55 217.59C66.88 219.59 69.57 220.14 71.57 218.81Z" />
		<path id="Layer" class="shp0" d="M83.74 220C85.74 218.67 86.28 215.98 84.96 213.98C83.63 211.98 80.94 211.44 78.94 212.76C76.94 214.09 76.4 216.78 77.72 218.78C79.04 220.79 81.74 221.33 83.74 220Z" />
		<path id="Layer" class="shp0" d="M97.12 220.17C99.12 218.84 99.66 216.15 98.34 214.15C97.01 212.15 94.32 211.61 92.32 212.93C90.32 214.26 89.78 216.95 91.1 218.95C92.43 220.96 95.13 221.5 97.12 220.17Z" />
		<path id="Layer" class="shp0" d="M108.81 216.2C110.81 214.87 111.35 212.18 110.03 210.18C108.7 208.18 106.01 207.64 104.01 208.96C102.01 210.29 101.47 212.98 102.79 214.98C104.12 216.99 106.82 217.53 108.81 216.2Z" />
		<path id="Layer" class="shp0" d="M119.19 211.21C121.19 209.88 121.73 207.19 120.41 205.19C119.08 203.19 116.39 202.65 114.39 203.97C112.39 205.3 111.85 207.99 113.17 209.99C114.5 211.99 117.19 212.54 119.19 211.21Z" />
		<path id="Layer" class="shp0" d="M128.7 205.53C130.7 204.2 131.24 201.51 129.92 199.51C128.59 197.51 125.9 196.97 123.9 198.29C121.9 199.62 121.36 202.31 122.68 204.31C124 206.31 126.7 206.86 128.7 205.53Z" />
		<path id="Layer" class="shp0" d="M136.01 199.41C138.01 198.08 138.55 195.39 137.23 193.39C135.9 191.39 133.21 190.85 131.21 192.17C129.21 193.5 128.67 196.19 129.99 198.19C131.31 200.19 134.01 200.74 136.01 199.41Z" />
		<path id="Layer" class="shp0" d="M135.7 191.25C137.03 193.25 139.72 193.79 141.72 192.46C143.72 191.13 144.26 188.44 142.94 186.44C141.61 184.44 138.92 183.9 136.92 185.22C134.91 186.55 134.37 189.25 135.7 191.25Z" />
		<path id="Layer" class="shp0" d="M27.61 220.85C29.31 219.16 29.32 216.41 27.63 214.71C25.94 213.01 23.19 213 21.49 214.69C19.79 216.38 19.78 219.13 21.47 220.83C23.16 222.53 25.91 222.54 27.61 220.85Z" />
		<path id="Layer" class="shp0" d="M43.11 226.73C44.81 225.04 44.82 222.29 43.13 220.59C41.44 218.89 38.69 218.88 36.99 220.57C35.29 222.26 35.28 225.01 36.97 226.71C38.65 228.41 41.41 228.42 43.11 226.73Z" />
		<path id="Layer" class="shp0" d="M58.61 230.62C60.31 228.93 60.32 226.18 58.63 224.48C56.94 222.78 54.19 222.77 52.49 224.46C50.79 226.15 50.78 228.9 52.47 230.6C54.16 232.3 56.91 232.31 58.61 230.62Z" />
		<path id="Layer" class="shp0" d="M73.25 232.65C74.95 230.96 74.96 228.21 73.27 226.51C71.58 224.81 68.83 224.8 67.13 226.49C65.43 228.18 65.42 230.93 67.11 232.63C68.8 234.33 71.55 234.34 73.25 232.65Z" />
		<path id="Layer" class="shp0" d="M87.4 231.7C89.1 230.01 89.11 227.26 87.42 225.56C85.73 223.86 82.98 223.85 81.28 225.54C79.58 227.23 79.57 229.98 81.26 231.68C82.95 233.38 85.7 233.39 87.4 231.7Z" />
		<path id="Layer" class="shp0" d="M99.56 230.49C101.26 228.8 101.27 226.05 99.58 224.35C97.89 222.65 95.14 222.64 93.44 224.33C91.74 226.02 91.73 228.77 93.42 230.47C95.11 232.17 97.86 232.18 99.56 230.49Z" />
		<path id="Layer" class="shp0" d="M112.73 228.05C114.43 226.36 114.44 223.61 112.75 221.91C111.06 220.21 108.31 220.2 106.61 221.89C104.91 223.58 104.9 226.33 106.59 228.03C108.28 229.73 111.03 229.74 112.73 228.05Z" />
		<path id="Layer" class="shp0" d="M123.42 221.87C125.12 220.18 125.13 217.43 123.44 215.73C121.75 214.03 119 214.02 117.3 215.71C115.6 217.4 115.59 220.15 117.28 221.85C118.97 223.56 121.72 223.56 123.42 221.87Z" />
		<path id="Layer" class="shp0" d="M132.62 214.95C134.32 213.26 134.33 210.51 132.64 208.81C130.95 207.11 128.2 207.1 126.5 208.79C124.8 210.48 124.79 213.23 126.48 214.93C128.17 216.63 130.92 216.64 132.62 214.95Z" />
		<path id="Layer" class="shp0" d="M140.84 207.53C142.54 205.84 142.55 203.09 140.86 201.39C139.17 199.69 136.42 199.68 134.72 201.37C133.02 203.06 133.01 205.81 134.7 207.51C136.39 209.21 139.14 209.22 140.84 207.53Z" />
		<path id="Layer" class="shp0" d="M146.82 200.1C148.52 198.41 148.53 195.66 146.84 193.96C145.15 192.26 142.4 192.25 140.7 193.94C139 195.63 138.99 198.38 140.68 200.08C142.36 201.78 145.11 201.79 146.82 200.1Z" />
		<path id="Layer" class="shp0" d="M151.06 192.17C152.76 190.48 152.77 187.73 151.08 186.03C149.39 184.33 146.64 184.32 144.94 186.01C143.24 187.7 143.23 190.45 144.92 192.15C146.61 193.85 149.36 193.86 151.06 192.17Z" />
		<path id="Layer" class="shp0" d="M38.65 243.45C40.64 244.79 43.34 244.26 44.68 242.27C46.02 240.28 45.49 237.58 43.5 236.24C41.51 234.9 38.81 235.43 37.47 237.42C36.13 239.41 36.66 242.11 38.65 243.45Z" />
		<path id="Layer" class="shp0" d="M61.03 245.01C62.37 243.02 61.84 240.32 59.85 238.98C57.86 237.64 55.16 238.17 53.82 240.16C52.48 242.15 53.01 244.85 55 246.19C56.99 247.53 59.69 247 61.03 245.01Z" />
		<path id="Layer" class="shp0" d="M70.96 246.99C72.95 248.33 75.65 247.8 76.99 245.81C78.33 243.82 77.8 241.12 75.81 239.78C73.82 238.44 71.12 238.97 69.78 240.96C68.44 242.95 68.97 245.65 70.96 246.99Z" />
		<path id="Layer" class="shp0" d="M85.71 246.12C87.7 247.46 90.4 246.93 91.74 244.94C93.08 242.95 92.55 240.25 90.56 238.91C88.57 237.57 85.87 238.1 84.53 240.09C83.2 242.08 83.72 244.78 85.71 246.12Z" />
		<path id="Layer" class="shp0" d="M99.41 242.43C101.4 243.77 104.1 243.24 105.44 241.25C106.78 239.26 106.25 236.56 104.26 235.22C102.27 233.88 99.57 234.41 98.23 236.4C96.89 238.39 97.42 241.09 99.41 242.43Z" />
		<path id="Layer" class="shp0" d="M117.13 237.69C118.47 235.7 117.94 233 115.95 231.66C113.96 230.32 111.26 230.85 109.92 232.84C108.58 234.83 109.11 237.53 111.1 238.87C113.1 240.21 115.8 239.68 117.13 237.69Z" />
		<path id="Layer" class="shp0" d="M123.54 233.91C125.53 235.25 128.23 234.72 129.57 232.73C130.91 230.74 130.38 228.04 128.39 226.7C126.4 225.36 123.7 225.89 122.36 227.88C121.02 229.87 121.55 232.57 123.54 233.91Z" />
		<path id="Layer" class="shp0" d="M132.82 225.77C134.81 227.11 137.51 226.58 138.85 224.59C140.19 222.6 139.66 219.9 137.67 218.56C135.68 217.22 132.98 217.75 131.64 219.74C130.3 221.73 130.83 224.43 132.82 225.77Z" />
		<path id="Layer" class="shp0" d="M140.5 217.18C142.49 218.52 145.19 217.99 146.53 216C147.87 214.01 147.34 211.31 145.35 209.97C143.36 208.63 140.66 209.16 139.32 211.15C137.98 213.14 138.51 215.84 140.5 217.18Z" />
		<path id="Layer" class="shp0" d="M147.1 208.3C149.09 209.64 151.79 209.11 153.13 207.12C154.47 205.13 153.94 202.43 151.95 201.09C149.96 199.75 147.26 200.28 145.92 202.27C144.59 204.26 145.11 206.96 147.1 208.3Z" />
		<path id="Layer" class="shp0" d="M157.55 198.66C158.89 196.67 158.36 193.97 156.37 192.63C154.38 191.29 151.68 191.82 150.34 193.81C149 195.8 149.53 198.5 151.52 199.84C153.51 201.18 156.21 200.65 157.55 198.66Z" />
		<path id="Layer" class="shp0" d="M160.16 190.06C161.5 188.07 160.97 185.37 158.98 184.03C156.99 182.69 154.29 183.22 152.95 185.21C151.61 187.2 152.14 189.9 154.13 191.24C156.12 192.58 158.82 192.05 160.16 190.06Z" />
		<path id="Layer" class="shp0" d="M57.59 256.6C56.67 258.81 57.71 261.36 59.92 262.28C62.13 263.2 64.68 262.16 65.6 259.95C66.53 257.74 65.48 255.19 63.27 254.27C61.05 253.34 58.51 254.39 57.59 256.6Z" />
		<path id="Layer" class="shp0" d="M76.49 261.79C78.7 262.71 81.25 261.67 82.17 259.46C83.09 257.25 82.05 254.7 79.84 253.78C77.63 252.85 75.08 253.9 74.16 256.11C73.23 258.32 74.27 260.86 76.49 261.79Z" />
		<path id="Layer" class="shp0" d="M92.3 259.45C94.51 260.37 97.06 259.33 97.98 257.12C98.9 254.91 97.86 252.36 95.65 251.44C93.44 250.51 90.89 251.56 89.97 253.77C89.04 255.98 90.08 258.53 92.3 259.45Z" />
		<path id="Layer" class="shp0" d="M109.95 247.71C107.74 246.79 105.19 247.83 104.27 250.04C103.34 252.25 104.39 254.8 106.6 255.72C108.81 256.64 111.36 255.6 112.28 253.39C113.21 251.17 112.16 248.63 109.95 247.71Z" />
		<path id="Layer" class="shp0" d="M124.99 247.09C125.91 244.88 124.87 242.33 122.66 241.41C120.45 240.49 117.9 241.53 116.98 243.74C116.06 245.95 117.1 248.5 119.31 249.42C121.52 250.35 124.07 249.31 124.99 247.09Z" />
		<path id="Layer" class="shp0" d="M135.77 241.32C136.69 239.11 135.65 236.56 133.44 235.64C131.23 234.72 128.68 235.76 127.76 237.97C126.84 240.18 127.88 242.73 130.09 243.65C132.3 244.58 134.85 243.54 135.77 241.32Z" />
		<path id="Layer" class="shp0" d="M147 234.03C147.92 231.82 146.88 229.27 144.67 228.35C142.46 227.43 139.91 228.47 138.99 230.68C138.07 232.89 139.11 235.44 141.32 236.36C143.53 237.29 146.07 236.24 147 234.03Z" />
		<path id="Layer" class="shp0" d="M148.83 226.57C151.04 227.49 153.59 226.45 154.51 224.24C155.43 222.03 154.39 219.48 152.18 218.56C149.97 217.64 147.42 218.68 146.5 220.89C145.57 223.1 146.62 225.64 148.83 226.57Z" />
		<path id="Layer" class="shp0" d="M160.37 214.31C161.29 212.1 160.25 209.55 158.04 208.63C155.83 207.7 153.28 208.75 152.36 210.96C151.43 213.17 152.48 215.72 154.69 216.64C156.9 217.57 159.44 216.53 160.37 214.31Z" />
		<path id="Layer" class="shp0" d="M165.11 204.31C166.03 202.1 164.99 199.55 162.78 198.63C160.57 197.71 158.02 198.75 157.1 200.96C156.18 203.17 157.22 205.72 159.43 206.64C161.64 207.57 164.19 206.53 165.11 204.31Z" />
		<path id="Layer" class="shp0" d="M162.11 197.5C164.32 198.43 166.87 197.38 167.79 195.17C168.71 192.96 167.67 190.41 165.46 189.49C163.25 188.57 160.7 189.61 159.78 191.82C158.85 194.03 159.9 196.57 162.11 197.5Z" />
		<path id="Layer" class="shp0" d="M160.66 182.86C159.74 185.07 160.78 187.62 162.99 188.54C165.2 189.46 167.75 188.42 168.67 186.21C169.59 184 168.55 181.45 166.34 180.53C164.13 179.61 161.59 180.65 160.66 182.86Z" />
		<path id="Layer" class="shp0" d="M84.45 276.61C86.8 277.08 89.09 275.56 89.57 273.21C90.04 270.86 88.52 268.57 86.17 268.09C83.82 267.61 81.53 269.14 81.05 271.49C80.58 273.84 82.1 276.13 84.45 276.61Z" />
		<path id="Layer" class="shp0" d="M102.32 264.37C99.97 263.89 97.68 265.42 97.2 267.77C96.72 270.12 98.25 272.41 100.6 272.89C102.95 273.37 105.24 271.84 105.72 269.49C106.2 267.14 104.67 264.85 102.32 264.37Z" />
		<path id="Layer" class="shp0" d="M117.38 259C115.03 258.52 112.74 260.05 112.26 262.4C111.79 264.75 113.31 267.04 115.66 267.52C118.01 267.99 120.3 266.47 120.78 264.12C121.25 261.76 119.73 259.47 117.38 259Z" />
		<path id="Layer" class="shp0" d="M134.07 257.67C134.55 255.32 133.02 253.03 130.67 252.55C128.32 252.08 126.03 253.6 125.55 255.95C125.08 258.3 126.6 260.59 128.95 261.07C131.31 261.54 133.6 260.02 134.07 257.67Z" />
		<path id="Layer" class="shp0" d="M141.91 243.9C139.56 243.42 137.27 244.95 136.79 247.3C136.32 249.65 137.84 251.94 140.19 252.42C142.54 252.9 144.83 251.37 145.31 249.02C145.79 246.66 144.26 244.37 141.91 243.9Z" />
		<path id="Layer" class="shp0" d="M149.64 244.65C151.99 245.13 154.28 243.6 154.76 241.25C155.24 238.9 153.71 236.61 151.36 236.13C149.01 235.66 146.72 237.18 146.24 239.53C145.77 241.88 147.29 244.18 149.64 244.65Z" />
		<path id="Layer" class="shp0" d="M159.23 235.31C161.58 235.79 163.87 234.26 164.35 231.91C164.82 229.56 163.3 227.27 160.95 226.79C158.6 226.32 156.31 227.84 155.83 230.19C155.35 232.54 156.87 234.83 159.23 235.31Z" />
		<path id="Layer" class="shp0" d="M169.8 220.83C170.27 218.48 168.75 216.19 166.4 215.71C164.05 215.23 161.76 216.76 161.28 219.11C160.81 221.46 162.33 223.75 164.68 224.23C167.04 224.71 169.33 223.19 169.8 220.83Z" />
		<path id="Layer" class="shp0" d="M168.49 213.36C170.84 213.83 173.13 212.31 173.61 209.96C174.08 207.61 172.56 205.32 170.21 204.84C167.86 204.37 165.57 205.89 165.09 208.24C164.62 210.6 166.14 212.89 168.49 213.36Z" />
		<path id="Layer" class="shp0" d="M171.2 202.63C173.55 203.1 175.84 201.58 176.32 199.23C176.79 196.88 175.27 194.59 172.92 194.11C170.57 193.64 168.28 195.16 167.8 197.51C167.33 199.86 168.85 202.15 171.2 202.63Z" />
		<path id="Layer" class="shp0" d="M173.76 184.61C171.41 184.13 169.12 185.66 168.64 188.01C168.17 190.36 169.69 192.65 172.04 193.13C174.39 193.6 176.68 192.08 177.16 189.73C177.64 187.38 176.11 185.09 173.76 184.61Z" />
		<path id="Layer" class="shp0" d="M176.28 180.78C176.75 178.43 175.23 176.14 172.88 175.66C170.53 175.18 168.24 176.71 167.76 179.06C167.29 181.41 168.81 183.7 171.16 184.18C173.52 184.65 175.81 183.13 176.28 180.78Z" />
		<path id="Layer" class="shp0" d="M106.98 281.51C106.97 283.91 108.91 285.86 111.31 285.87C113.71 285.88 115.66 283.94 115.67 281.54C115.68 279.14 113.74 277.19 111.34 277.18C108.94 277.17 106.99 279.11 106.98 281.51Z" />
		<path id="Layer" class="shp0" d="M126.45 270.38C124.05 270.37 122.1 272.31 122.09 274.71C122.08 277.11 124.02 279.06 126.42 279.07C128.82 279.08 130.77 277.14 130.78 274.74C130.79 272.34 128.85 270.39 126.45 270.38Z" />
		<path id="Layer" class="shp0" d="M140.14 270.86C142.54 270.87 144.49 268.93 144.5 266.53C144.51 264.13 142.57 262.18 140.17 262.17C137.77 262.16 135.82 264.1 135.81 266.5C135.8 268.9 137.74 270.85 140.14 270.86Z" />
		<path id="Layer" class="shp0" d="M151.92 261.94C154.32 261.95 156.27 260.01 156.28 257.61C156.29 255.21 154.35 253.26 151.95 253.25C149.55 253.24 147.6 255.18 147.59 257.58C147.59 259.99 149.53 261.94 151.92 261.94Z" />
		<path id="Layer" class="shp0" d="M165.62 246.93C165.63 244.53 163.69 242.58 161.29 242.57C158.89 242.56 156.94 244.5 156.93 246.9C156.92 249.3 158.86 251.25 161.26 251.26C163.66 251.27 165.61 249.33 165.62 246.93Z" />
		<path id="Layer" class="shp0" d="M173.37 237.48C173.38 235.08 171.44 233.13 169.04 233.12C166.64 233.11 164.69 235.05 164.68 237.45C164.67 239.85 166.61 241.8 169.01 241.81C171.41 241.82 173.36 239.88 173.37 237.48Z" />
		<path id="Layer" class="shp0" d="M176.59 230.77C178.99 230.78 180.94 228.84 180.95 226.44C180.96 224.04 179.02 222.09 176.62 222.08C174.22 222.07 172.27 224.01 172.26 226.41C172.25 228.82 174.19 230.77 176.59 230.77Z" />
		<path id="Layer" class="shp0" d="M184.14 214.52C184.15 212.12 182.21 210.17 179.81 210.16C177.41 210.15 175.46 212.09 175.45 214.49C175.44 216.89 177.38 218.84 179.78 218.85C182.18 218.85 184.13 216.92 184.14 214.52Z" />
		<path id="Layer" class="shp0" d="M185.75 203.11C185.76 200.71 183.82 198.76 181.42 198.75C179.02 198.74 177.07 200.68 177.06 203.08C177.05 205.48 178.99 207.43 181.39 207.44C183.8 207.45 185.75 205.51 185.75 203.11Z" />
		<path id="Layer" class="shp0" d="M181.98 187.7C179.58 187.69 177.63 189.63 177.62 192.03C177.61 194.43 179.55 196.38 181.95 196.39C184.35 196.4 186.3 194.46 186.31 192.06C186.32 189.66 184.38 187.71 181.98 187.7Z" />
		<path id="Layer" class="shp0" d="M180.93 186.91C183.33 186.92 185.28 184.98 185.29 182.58C185.3 180.18 183.36 178.23 180.96 178.22C178.56 178.21 176.61 180.15 176.6 182.55C176.59 184.95 178.53 186.9 180.93 186.91Z" />
		<path id="Layer" class="shp0" d="M182.68 173.97C182.69 171.57 180.75 169.62 178.35 169.61C175.95 169.6 174 171.54 173.99 173.94C173.98 176.34 175.92 178.29 178.32 178.3C180.72 178.31 182.67 176.37 182.68 173.97Z" />
		<path id="Layer" class="shp0" d="M142.88 284.62C142.42 282.27 140.14 280.73 137.78 281.19C135.43 281.65 133.89 283.93 134.35 286.29C134.81 288.64 137.09 290.18 139.45 289.72C141.81 289.25 143.35 286.97 142.88 284.62Z" />
		<path id="Layer" class="shp0" d="M151.28 271.57C148.93 272.03 147.39 274.31 147.85 276.67C148.31 279.02 150.59 280.56 152.95 280.1C155.3 279.64 156.84 277.36 156.38 275C155.92 272.64 153.64 271.11 151.28 271.57Z" />
		<path id="Layer" class="shp0" d="M163.13 260.84C160.78 261.3 159.24 263.58 159.7 265.94C160.16 268.29 162.44 269.83 164.8 269.37C167.15 268.91 168.69 266.63 168.23 264.27C167.77 261.91 165.49 260.38 163.13 260.84Z" />
		<path id="Layer" class="shp0" d="M174.62 258.32C176.97 257.86 178.51 255.58 178.05 253.22C177.59 250.86 175.31 249.33 172.95 249.79C170.59 250.25 169.06 252.53 169.52 254.89C169.99 257.25 172.27 258.78 174.62 258.32Z" />
		<path id="Layer" class="shp0" d="M185.12 240.93C184.66 238.58 182.38 237.04 180.02 237.5C177.66 237.96 176.13 240.24 176.59 242.6C177.05 244.95 179.33 246.49 181.69 246.03C184.05 245.57 185.58 243.29 185.12 240.93Z" />
		<path id="Layer" class="shp0" d="M187.45 235.24C189.8 234.78 191.34 232.5 190.88 230.14C190.42 227.78 188.14 226.25 185.78 226.71C183.43 227.17 181.89 229.45 182.35 231.81C182.82 234.17 185.1 235.7 187.45 235.24Z" />
		<path id="Layer" class="shp0" d="M192.73 222.94C195.08 222.48 196.62 220.2 196.16 217.84C195.7 215.48 193.42 213.95 191.06 214.41C188.71 214.87 187.17 217.15 187.63 219.51C188.1 221.87 190.38 223.4 192.73 222.94Z" />
		<path id="Layer" class="shp0" d="M196.97 205.52C196.51 203.17 194.23 201.63 191.87 202.09C189.52 202.55 187.98 204.83 188.44 207.19C188.9 209.55 191.18 211.08 193.54 210.62C195.89 210.16 197.43 207.88 196.97 205.52Z" />
		<path id="Layer" class="shp0" d="M191.23 190.6C188.88 191.06 187.34 193.34 187.8 195.7C188.26 198.06 190.54 199.59 192.9 199.13C195.25 198.67 196.79 196.39 196.33 194.03C195.87 191.67 193.58 190.13 191.23 190.6Z" />
		<path id="Layer" class="shp0" d="M191.29 188.17C193.64 187.71 195.18 185.43 194.72 183.07C194.26 180.72 191.98 179.18 189.62 179.64C187.27 180.1 185.73 182.38 186.19 184.74C186.65 187.09 188.93 188.63 191.29 188.17Z" />
		<path id="Layer" class="shp0" d="M188.43 179.07C190.78 178.61 192.32 176.33 191.86 173.97C191.4 171.61 189.12 170.08 186.76 170.54C184.4 171 182.87 173.28 183.33 175.64C183.8 178 186.08 179.53 188.43 179.07Z" />
		<path id="Layer" class="shp0" d="M184.2 171.14C186.55 170.68 188.09 168.4 187.63 166.04C187.17 163.68 184.89 162.15 182.53 162.61C180.17 163.07 178.64 165.35 179.1 167.71C179.56 170.07 181.84 171.6 184.2 171.14Z" />
		<path id="Layer" class="shp0" d="M170.18 282.32C169.27 280.1 166.73 279.04 164.51 279.95C162.29 280.86 161.23 283.4 162.14 285.62C163.05 287.84 165.59 288.9 167.81 287.99C170.03 287.08 171.09 284.54 170.18 282.32Z" />
		<path id="Layer" class="shp0" d="M179.17 275.93C181.39 275.02 182.45 272.48 181.54 270.26C180.63 268.04 178.09 266.98 175.87 267.89C173.65 268.8 172.59 271.34 173.5 273.56C174.42 275.78 176.96 276.84 179.17 275.93Z" />
		<path id="Layer" class="shp0" d="M191.07 257.43C190.16 255.21 187.62 254.15 185.4 255.06C183.18 255.97 182.12 258.51 183.03 260.73C183.94 262.95 186.48 264.01 188.7 263.1C190.92 262.18 191.98 259.64 191.07 257.43Z" />
		<path id="Layer" class="shp0" d="M196.18 250.35C198.4 249.44 199.46 246.9 198.55 244.68C197.64 242.46 195.1 241.4 192.88 242.31C190.66 243.22 189.6 245.76 190.51 247.98C191.42 250.2 193.96 251.26 196.18 250.35Z" />
		<path id="Layer" class="shp0" d="M200.72 236.91C202.94 236 204 233.46 203.09 231.24C202.18 229.02 199.64 227.96 197.42 228.87C195.2 229.78 194.14 232.32 195.05 234.54C195.96 236.76 198.5 237.82 200.72 236.91Z" />
		<path id="Layer" class="shp0" d="M206.63 219.54C205.72 217.32 203.18 216.26 200.96 217.17C198.74 218.08 197.68 220.62 198.59 222.84C199.5 225.06 202.04 226.12 204.26 225.21C206.48 224.29 207.54 221.76 206.63 219.54Z" />
		<path id="Layer" class="shp0" d="M207.04 212.11C209.26 211.2 210.32 208.66 209.41 206.44C208.5 204.22 205.96 203.16 203.74 204.07C201.52 204.98 200.46 207.52 201.37 209.74C202.28 211.96 204.82 213.02 207.04 212.11Z" />
		<path id="Layer" class="shp0" d="M205.43 199.87C207.65 198.96 208.71 196.42 207.8 194.2C206.89 191.98 204.35 190.92 202.13 191.83C199.91 192.74 198.85 195.28 199.76 197.5C200.67 199.72 203.21 200.78 205.43 199.87Z" />
		<path id="Layer" class="shp0" d="M202.55 188.72C204.77 187.81 205.83 185.27 204.92 183.05C204.01 180.83 201.47 179.77 199.25 180.68C197.03 181.59 195.97 184.13 196.88 186.35C197.8 188.57 200.34 189.63 202.55 188.72Z" />
		<path id="Layer" class="shp0" d="M198.84 178.29C201.06 177.38 202.12 174.84 201.21 172.62C200.3 170.4 197.76 169.34 195.54 170.25C193.32 171.16 192.26 173.7 193.17 175.92C194.08 178.14 196.62 179.2 198.84 178.29Z" />
		<path id="Layer" class="shp0" d="M194.26 169.92C196.48 169.01 197.54 166.47 196.63 164.25C195.72 162.03 193.18 160.97 190.96 161.88C188.74 162.79 187.68 165.33 188.59 167.55C189.51 169.77 192.05 170.83 194.26 169.92Z" />
		<path id="Layer" class="shp0" d="M190.93 157.3C190.02 155.08 187.48 154.02 185.26 154.93C183.04 155.84 181.98 158.38 182.89 160.6C183.8 162.82 186.34 163.88 188.56 162.97C190.78 162.05 191.84 159.52 190.93 157.3Z" />
		<path id="Layer" class="shp0" d="M190.48 273.54C188.48 274.87 187.94 277.56 189.26 279.56C190.59 281.56 193.28 282.1 195.28 280.78C197.28 279.45 197.82 276.76 196.5 274.76C195.18 272.75 192.48 272.21 190.48 273.54Z" />
		<path id="Layer" class="shp0" d="M205.29 260.7C203.96 258.7 201.27 258.16 199.27 259.48C197.27 260.81 196.73 263.5 198.05 265.5C199.38 267.5 202.07 268.04 204.07 266.72C206.08 265.4 206.62 262.7 205.29 260.7Z" />
		<path id="Layer" class="shp0" d="M210.92 252.28C212.92 250.95 213.46 248.26 212.14 246.26C210.81 244.26 208.12 243.72 206.12 245.04C204.12 246.37 203.58 249.06 204.9 251.06C206.23 253.06 208.92 253.6 210.92 252.28Z" />
		<path id="Layer" class="shp0" d="M215.77 238.32C217.77 236.99 218.31 234.3 216.99 232.3C215.66 230.3 212.97 229.76 210.97 231.08C208.97 232.41 208.43 235.1 209.75 237.1C211.07 239.1 213.77 239.64 215.77 238.32Z" />
		<path id="Layer" class="shp0" d="M212.79 217.01C210.79 218.34 210.25 221.03 211.57 223.03C212.9 225.03 215.59 225.57 217.59 224.25C219.59 222.92 220.13 220.23 218.81 218.23C217.49 216.23 214.79 215.68 212.79 217.01Z" />
		<path id="Layer" class="shp0" d="M220 206.06C218.67 204.06 215.98 203.52 213.98 204.84C211.98 206.17 211.44 208.86 212.76 210.86C214.09 212.86 216.78 213.4 218.78 212.08C220.79 210.76 221.33 208.06 220 206.06Z" />
		<path id="Layer" class="shp0" d="M220.17 192.67C218.84 190.67 216.15 190.13 214.15 191.45C212.15 192.78 211.61 195.47 212.93 197.47C214.26 199.47 216.95 200.01 218.95 198.69C220.96 197.37 221.5 194.67 220.17 192.67Z" />
		<path id="Layer" class="shp0" d="M214.99 187C216.99 185.67 217.53 182.98 216.21 180.98C214.88 178.98 212.19 178.44 210.19 179.76C208.19 181.09 207.65 183.78 208.97 185.78C210.29 187.79 212.99 188.33 214.99 187Z" />
		<path id="Layer" class="shp0" d="M210 176.63C212 175.3 212.54 172.61 211.22 170.61C209.89 168.61 207.2 168.07 205.2 169.39C203.2 170.72 202.66 173.41 203.98 175.41C205.3 177.41 208 177.95 210 176.63Z" />
		<path id="Layer" class="shp0" d="M204.32 167.12C206.32 165.79 206.86 163.1 205.54 161.1C204.21 159.1 201.52 158.56 199.52 159.88C197.52 161.21 196.98 163.9 198.3 165.9C199.62 167.9 202.32 168.45 204.32 167.12Z" />
		<path id="Layer" class="shp0" d="M198.2 159.81C200.2 158.48 200.74 155.79 199.42 153.79C198.09 151.79 195.4 151.25 193.4 152.57C191.4 153.89 190.86 156.59 192.18 158.59C193.5 160.59 196.2 161.14 198.2 159.81Z" />
		<path id="Layer" class="shp0" d="M192.46 148.08C191.13 146.08 188.44 145.54 186.44 146.86C184.44 148.19 183.9 150.88 185.22 152.88C186.55 154.88 189.24 155.42 191.24 154.1C193.25 152.77 193.79 150.08 192.46 148.08Z" />
		<path id="Layer" class="shp0" d="M220.83 268.33C222.53 266.64 222.54 263.89 220.85 262.19C219.16 260.49 216.41 260.48 214.71 262.17C213.01 263.86 213 266.61 214.69 268.31C216.38 270.02 219.13 270.02 220.83 268.33Z" />
		<path id="Layer" class="shp0" d="M226.71 252.84C228.41 251.15 228.42 248.4 226.73 246.7C225.04 245 222.29 244.99 220.59 246.68C218.89 248.37 218.88 251.12 220.57 252.82C222.26 254.52 225.01 254.53 226.71 252.84Z" />
		<path id="Layer" class="shp0" d="M230.62 231.19C228.93 229.49 226.18 229.48 224.48 231.17C222.78 232.86 222.77 235.61 224.46 237.31C226.15 239.01 228.9 239.02 230.6 237.33C232.3 235.64 232.31 232.89 230.62 231.19Z" />
		<path id="Layer" class="shp0" d="M232.65 216.55C230.96 214.85 228.21 214.84 226.51 216.53C224.81 218.22 224.8 220.97 226.49 222.67C228.18 224.37 230.93 224.38 232.63 222.69C234.33 221 234.34 218.25 232.65 216.55Z" />
		<path id="Layer" class="shp0" d="M225.55 202.38C223.85 204.07 223.84 206.82 225.53 208.52C227.22 210.22 229.97 210.23 231.67 208.54C233.37 206.85 233.38 204.1 231.69 202.4C230.01 200.7 227.26 200.69 225.55 202.38Z" />
		<path id="Layer" class="shp0" d="M224.35 190.22C222.65 191.91 222.64 194.66 224.33 196.36C226.02 198.06 228.77 198.07 230.47 196.38C232.17 194.69 232.18 191.94 230.49 190.24C228.8 188.53 226.05 188.52 224.35 190.22Z" />
		<path id="Layer" class="shp0" d="M228.03 183.21C229.73 181.52 229.74 178.77 228.05 177.07C226.36 175.37 223.61 175.36 221.91 177.05C220.21 178.74 220.2 181.49 221.89 183.19C223.58 184.9 226.33 184.91 228.03 183.21Z" />
		<path id="Layer" class="shp0" d="M221.86 172.52C223.56 170.83 223.57 168.08 221.88 166.38C220.19 164.68 217.44 164.67 215.74 166.36C214.04 168.05 214.03 170.8 215.72 172.5C217.41 174.2 220.16 174.21 221.86 172.52Z" />
		<path id="Layer" class="shp0" d="M214.95 157.17C213.26 155.47 210.51 155.46 208.81 157.15C207.11 158.84 207.1 161.59 208.79 163.29C210.48 164.99 213.23 165 214.93 163.31C216.64 161.63 216.64 158.88 214.95 157.17Z" />
		<path id="Layer" class="shp0" d="M207.51 155.1C209.21 153.41 209.22 150.66 207.53 148.96C205.84 147.26 203.09 147.25 201.39 148.94C199.69 150.63 199.68 153.38 201.37 155.08C203.06 156.79 205.81 156.79 207.51 155.1Z" />
		<path id="Layer" class="shp0" d="M200.08 149.12C201.78 147.43 201.79 144.68 200.1 142.98C198.41 141.28 195.66 141.27 193.96 142.96C192.26 144.65 192.25 147.4 193.94 149.1C195.63 150.81 198.38 150.82 200.08 149.12Z" />
		<path id="Layer" class="shp0" d="M192.15 144.88C193.85 143.19 193.86 140.44 192.17 138.74C190.48 137.04 187.73 137.03 186.03 138.72C184.33 140.41 184.32 143.16 186.01 144.86C187.7 146.56 190.45 146.57 192.15 144.88Z" />
		<path id="Layer" class="shp0" d="M237.42 252.33C239.41 253.67 242.11 253.14 243.45 251.15C244.79 249.16 244.26 246.46 242.27 245.12C240.28 243.78 237.58 244.31 236.24 246.3C234.9 248.29 235.43 250.99 237.42 252.33Z" />
		<path id="Layer" class="shp0" d="M246.19 234.8C247.53 232.81 247 230.11 245.01 228.77C243.02 227.43 240.32 227.96 238.98 229.95C237.64 231.94 238.17 234.64 240.16 235.98C242.16 237.32 244.86 236.79 246.19 234.8Z" />
		<path id="Layer" class="shp0" d="M245.81 212.81C243.82 211.47 241.12 212 239.78 213.99C238.44 215.98 238.97 218.68 240.96 220.02C242.95 221.36 245.65 220.83 246.99 218.84C248.33 216.85 247.8 214.15 245.81 212.81Z" />
		<path id="Layer" class="shp0" d="M244.94 198.06C242.95 196.72 240.25 197.25 238.91 199.24C237.57 201.23 238.1 203.93 240.09 205.27C242.08 206.61 244.78 206.08 246.12 204.09C247.46 202.09 246.93 199.4 244.94 198.06Z" />
		<path id="Layer" class="shp0" d="M236.4 191.57C238.39 192.91 241.09 192.38 242.43 190.39C243.77 188.4 243.24 185.7 241.25 184.36C239.26 183.02 236.56 183.55 235.22 185.54C233.88 187.53 234.41 190.23 236.4 191.57Z" />
		<path id="Layer" class="shp0" d="M238.87 178.69C240.21 176.7 239.68 174 237.69 172.66C235.7 171.32 233 171.85 231.66 173.84C230.32 175.83 230.85 178.53 232.84 179.87C234.84 181.21 237.53 180.68 238.87 178.69Z" />
		<path id="Layer" class="shp0" d="M233.91 166.26C235.25 164.27 234.72 161.57 232.73 160.23C230.74 158.89 228.04 159.42 226.7 161.41C225.36 163.4 225.89 166.1 227.88 167.44C229.87 168.78 232.57 168.25 233.91 166.26Z" />
		<path id="Layer" class="shp0" d="M225.77 156.98C227.11 154.99 226.58 152.29 224.59 150.95C222.6 149.61 219.9 150.14 218.56 152.13C217.22 154.12 217.75 156.82 219.74 158.16C221.73 159.5 224.43 158.97 225.77 156.98Z" />
		<path id="Layer" class="shp0" d="M217.18 149.3C218.52 147.31 217.99 144.61 216 143.27C214.01 141.93 211.31 142.46 209.97 144.45C208.63 146.44 209.16 149.14 211.15 150.48C213.15 151.82 215.84 151.29 217.18 149.3Z" />
		<path id="Layer" class="shp0" d="M207.12 136.66C205.13 135.32 202.43 135.85 201.09 137.84C199.75 139.83 200.28 142.53 202.27 143.87C204.26 145.21 206.96 144.68 208.3 142.69C209.64 140.7 209.11 138 207.12 136.66Z" />
		<path id="Layer" class="shp0" d="M198.67 132.25C196.68 130.91 193.98 131.44 192.64 133.43C191.3 135.42 191.83 138.12 193.82 139.46C195.81 140.8 198.51 140.27 199.85 138.28C201.19 136.29 200.66 133.59 198.67 132.25Z" />
		<path id="Layer" class="shp0" d="M185.21 136.84C187.2 138.18 189.9 137.65 191.24 135.66C192.58 133.67 192.05 130.97 190.06 129.63C188.07 128.29 185.37 128.82 184.03 130.81C182.69 132.8 183.22 135.5 185.21 136.84Z" />
		<path id="Layer" class="shp0" d="M256.6 232.22C258.81 233.14 261.36 232.1 262.28 229.89C263.2 227.68 262.16 225.13 259.95 224.21C257.74 223.28 255.19 224.33 254.27 226.54C253.34 228.75 254.39 231.29 256.6 232.22Z" />
		<path id="Layer" class="shp0" d="M256.1 215.65C258.31 216.57 260.86 215.53 261.78 213.32C262.7 211.11 261.66 208.56 259.45 207.64C257.24 206.71 254.69 207.76 253.77 209.97C252.85 212.18 253.89 214.72 256.1 215.65Z" />
		<path id="Layer" class="shp0" d="M259.45 197.5C260.37 195.29 259.33 192.74 257.12 191.82C254.91 190.89 252.36 191.94 251.44 194.15C250.52 196.36 251.56 198.91 253.77 199.83C255.98 200.76 258.53 199.72 259.45 197.5Z" />
		<path id="Layer" class="shp0" d="M255.72 183.2C256.65 180.99 255.6 178.44 253.39 177.52C251.18 176.59 248.63 177.64 247.71 179.85C246.78 182.06 247.83 184.61 250.04 185.53C252.26 186.46 254.8 185.41 255.72 183.2Z" />
		<path id="Layer" class="shp0" d="M249.43 170.49C250.35 168.28 249.31 165.73 247.09 164.81C244.88 163.88 242.33 164.93 241.41 167.14C240.49 169.35 241.53 171.9 243.74 172.82C245.96 173.75 248.51 172.7 249.43 170.49Z" />
		<path id="Layer" class="shp0" d="M237.98 162.04C240.19 162.96 242.74 161.92 243.66 159.71C244.58 157.5 243.54 154.95 241.33 154.03C239.12 153.11 236.57 154.15 235.65 156.36C234.72 158.58 235.77 161.12 237.98 162.04Z" />
		<path id="Layer" class="shp0" d="M236.37 148.48C237.29 146.27 236.25 143.72 234.04 142.8C231.83 141.87 229.28 142.92 228.36 145.13C227.44 147.34 228.48 149.89 230.69 150.81C232.9 151.74 235.44 150.7 236.37 148.48Z" />
		<path id="Layer" class="shp0" d="M224.24 135.29C222.03 134.36 219.48 135.41 218.56 137.62C217.63 139.83 218.68 142.38 220.89 143.3C223.1 144.22 225.65 143.18 226.57 140.97C227.5 138.75 226.45 136.21 224.24 135.29Z" />
		<path id="Layer" class="shp0" d="M208.64 131.76C207.72 133.97 208.76 136.52 210.97 137.44C213.18 138.36 215.73 137.32 216.65 135.11C217.57 132.9 216.53 130.35 214.32 129.43C212.11 128.51 209.56 129.55 208.64 131.76Z" />
		<path id="Layer" class="shp0" d="M204.32 124.68C202.11 123.76 199.56 124.8 198.64 127.01C197.72 129.22 198.76 131.77 200.97 132.69C203.18 133.61 205.73 132.57 206.65 130.36C207.58 128.15 206.53 125.61 204.32 124.68Z" />
		<path id="Layer" class="shp0" d="M189.49 124.34C188.57 126.55 189.61 129.1 191.82 130.02C194.03 130.94 196.58 129.9 197.5 127.69C198.42 125.48 197.38 122.93 195.17 122.01C192.95 121.08 190.41 122.12 189.49 124.34Z" />
		<path id="Layer" class="shp0" d="M182.87 129.13C185.08 130.06 187.63 129.01 188.55 126.8C189.47 124.59 188.43 122.04 186.22 121.12C184.01 120.19 181.46 121.24 180.54 123.45C179.61 125.66 180.65 128.21 182.87 129.13Z" />
		<path id="Layer" class="shp0" d="M271.49 208.75C273.84 209.23 276.13 207.7 276.61 205.35C277.08 203 275.56 200.71 273.21 200.23C270.86 199.76 268.57 201.28 268.09 203.63C267.62 205.98 269.14 208.27 271.49 208.75Z" />
		<path id="Layer" class="shp0" d="M267.77 192.59C270.12 193.07 272.41 191.54 272.89 189.19C273.36 186.84 271.84 184.55 269.49 184.07C267.14 183.6 264.85 185.12 264.37 187.47C263.9 189.83 265.42 192.12 267.77 192.59Z" />
		<path id="Layer" class="shp0" d="M267.51 174.14C267.98 171.79 266.46 169.5 264.11 169.02C261.76 168.55 259.47 170.07 258.99 172.42C258.51 174.77 260.04 177.06 262.39 177.54C264.75 178.02 267.04 176.5 267.51 174.14Z" />
		<path id="Layer" class="shp0" d="M255.95 164.24C258.3 164.72 260.59 163.19 261.07 160.84C261.54 158.49 260.02 156.2 257.67 155.72C255.32 155.24 253.03 156.77 252.55 159.12C252.08 161.47 253.6 163.77 255.95 164.24Z" />
		<path id="Layer" class="shp0" d="M252.42 149.61C252.9 147.26 251.37 144.97 249.02 144.49C246.67 144.02 244.38 145.54 243.9 147.89C243.43 150.24 244.95 152.53 247.3 153.01C249.65 153.48 251.94 151.96 252.42 149.61Z" />
		<path id="Layer" class="shp0" d="M241.26 135.04C238.91 134.57 236.62 136.09 236.14 138.44C235.66 140.79 237.19 143.08 239.54 143.56C241.89 144.03 244.18 142.51 244.66 140.16C245.13 137.81 243.61 135.52 241.26 135.04Z" />
		<path id="Layer" class="shp0" d="M226.79 128.85C226.32 131.2 227.84 133.49 230.19 133.97C232.54 134.45 234.83 132.92 235.31 130.57C235.79 128.22 234.26 125.93 231.91 125.45C229.56 124.98 227.27 126.5 226.79 128.85Z" />
		<path id="Layer" class="shp0" d="M220.84 119.99C218.49 119.51 216.2 121.04 215.72 123.39C215.24 125.74 216.77 128.03 219.12 128.51C221.47 128.98 223.76 127.46 224.24 125.11C224.71 122.76 223.19 120.47 220.84 119.99Z" />
		<path id="Layer" class="shp0" d="M209.97 116.18C207.62 115.7 205.33 117.23 204.85 119.58C204.38 121.93 205.9 124.22 208.25 124.7C210.6 125.18 212.89 123.65 213.37 121.3C213.84 118.95 212.32 116.66 209.97 116.18Z" />
		<path id="Layer" class="shp0" d="M197.51 121.99C199.86 122.47 202.15 120.94 202.63 118.59C203.11 116.24 201.58 113.95 199.23 113.47C196.88 113 194.59 114.52 194.11 116.87C193.64 119.23 195.16 121.52 197.51 121.99Z" />
		<path id="Layer" class="shp0" d="M189.74 112.63C187.39 112.16 185.1 113.68 184.62 116.03C184.14 118.38 185.67 120.67 188.02 121.15C190.37 121.62 192.66 120.1 193.14 117.75C193.61 115.4 192.09 113.11 189.74 112.63Z" />
		<path id="Layer" class="shp0" d="M184.18 118.63C184.66 116.28 183.13 113.99 180.78 113.51C178.43 113.04 176.14 114.56 175.66 116.91C175.19 119.26 176.71 121.55 179.06 122.03C181.42 122.5 183.71 120.98 184.18 118.63Z" />
		<path id="Layer" class="shp0" d="M281.52 182.82C283.92 182.83 285.87 180.89 285.88 178.49C285.89 176.09 283.95 174.14 281.55 174.13C279.15 174.12 277.2 176.06 277.19 178.46C277.18 180.87 279.12 182.82 281.52 182.82Z" />
		<path id="Layer" class="shp0" d="M279.07 163.38C279.08 160.98 277.14 159.03 274.74 159.02C272.34 159.01 270.39 160.95 270.38 163.35C270.37 165.75 272.31 167.7 274.71 167.71C277.12 167.72 279.07 165.78 279.07 163.38Z" />
		<path id="Layer" class="shp0" d="M266.51 153.99C268.91 154 270.86 152.06 270.87 149.66C270.88 147.26 268.94 145.31 266.54 145.3C264.14 145.29 262.19 147.23 262.18 149.63C262.17 152.03 264.11 153.99 266.51 153.99Z" />
		<path id="Layer" class="shp0" d="M257.62 133.52C255.22 133.51 253.27 135.45 253.26 137.85C253.25 140.25 255.19 142.2 257.59 142.21C259.99 142.22 261.94 140.28 261.95 137.88C261.96 135.48 260.02 133.52 257.62 133.52Z" />
		<path id="Layer" class="shp0" d="M251.27 128.54C251.28 126.14 249.34 124.19 246.94 124.18C244.54 124.17 242.59 126.11 242.58 128.51C242.57 130.91 244.51 132.86 246.91 132.87C249.31 132.88 251.26 130.94 251.27 128.54Z" />
		<path id="Layer" class="shp0" d="M233.13 120.76C233.12 123.16 235.06 125.11 237.46 125.12C239.86 125.13 241.81 123.19 241.82 120.79C241.83 118.39 239.89 116.44 237.49 116.43C235.08 116.42 233.13 118.36 233.13 120.76Z" />
		<path id="Layer" class="shp0" d="M222.09 113.18C222.08 115.58 224.02 117.53 226.42 117.54C228.82 117.55 230.77 115.61 230.78 113.21C230.79 110.81 228.85 108.86 226.45 108.85C224.05 108.84 222.1 110.78 222.09 113.18Z" />
		<path id="Layer" class="shp0" d="M210.17 109.99C210.16 112.39 212.1 114.34 214.5 114.35C216.9 114.36 218.85 112.42 218.86 110.02C218.87 107.62 216.93 105.67 214.53 105.66C212.12 105.65 210.17 107.59 210.17 109.99Z" />
		<path id="Layer" class="shp0" d="M207.45 108.4C207.46 106 205.52 104.05 203.12 104.04C200.72 104.03 198.77 105.97 198.76 108.37C198.75 110.77 200.69 112.72 203.09 112.73C205.49 112.74 207.44 110.8 207.45 108.4Z" />
		<path id="Layer" class="shp0" d="M187.71 107.81C187.7 110.21 189.64 112.16 192.04 112.17C194.44 112.18 196.39 110.24 196.4 107.84C196.41 105.44 194.47 103.49 192.07 103.48C189.66 103.47 187.71 105.41 187.71 107.81Z" />
		<path id="Layer" class="shp0" d="M178.22 108.84C178.21 111.24 180.15 113.19 182.55 113.2C184.95 113.21 186.9 111.27 186.91 108.87C186.92 106.47 184.98 104.52 182.58 104.51C180.18 104.5 178.23 106.44 178.22 108.84Z" />
		<path id="Layer" class="shp0" d="M173.97 107.11C171.57 107.1 169.62 109.04 169.61 111.44C169.6 113.84 171.54 115.79 173.94 115.8C176.34 115.81 178.29 113.87 178.3 111.47C178.31 109.07 176.37 107.12 173.97 107.11Z" />
		<path id="Layer" class="shp0" d="M289.72 150.35C289.26 148 286.98 146.46 284.62 146.92C282.27 147.38 280.73 149.66 281.19 152.02C281.65 154.38 283.93 155.91 286.29 155.45C288.64 154.98 290.18 152.7 289.72 150.35Z" />
		<path id="Layer" class="shp0" d="M275 133.42C272.65 133.88 271.11 136.16 271.57 138.52C272.03 140.87 274.31 142.41 276.67 141.95C279.02 141.49 280.56 139.21 280.1 136.85C279.64 134.49 277.36 132.96 275 133.42Z" />
		<path id="Layer" class="shp0" d="M265.95 130.09C268.3 129.63 269.84 127.35 269.38 124.99C268.92 122.64 266.64 121.1 264.28 121.56C261.93 122.02 260.39 124.3 260.85 126.66C261.31 129.02 263.59 130.55 265.95 130.09Z" />
		<path id="Layer" class="shp0" d="M253.23 111.75C250.88 112.21 249.34 114.49 249.8 116.85C250.26 119.2 252.54 120.74 254.9 120.28C257.25 119.82 258.79 117.54 258.33 115.18C257.87 112.82 255.59 111.29 253.23 111.75Z" />
		<path id="Layer" class="shp0" d="M240.94 104.67C238.59 105.13 237.05 107.41 237.51 109.77C237.97 112.12 240.25 113.66 242.61 113.2C244.96 112.74 246.5 110.46 246.04 108.1C245.57 105.75 243.29 104.21 240.94 104.67Z" />
		<path id="Layer" class="shp0" d="M226.72 104.01C227.18 106.36 229.46 107.9 231.82 107.44C234.18 106.98 235.71 104.7 235.25 102.34C234.79 99.99 232.51 98.45 230.15 98.91C227.8 99.38 226.26 101.66 226.72 104.01Z" />
		<path id="Layer" class="shp0" d="M214.42 98.73C214.88 101.08 217.16 102.62 219.52 102.16C221.87 101.7 223.41 99.42 222.95 97.06C222.49 94.71 220.21 93.17 217.85 93.63C215.5 94.09 213.96 96.38 214.42 98.73Z" />
		<path id="Layer" class="shp0" d="M210.63 96.26C210.17 93.91 207.89 92.37 205.53 92.83C203.18 93.29 201.64 95.57 202.1 97.93C202.56 100.28 204.84 101.82 207.2 101.36C209.55 100.89 211.09 98.61 210.63 96.26Z" />
		<path id="Layer" class="shp0" d="M190.6 98.57C191.06 100.92 193.34 102.46 195.7 102C198.05 101.54 199.59 99.26 199.13 96.9C198.67 94.55 196.39 93.01 194.03 93.47C191.68 93.93 190.14 96.21 190.6 98.57Z" />
		<path id="Layer" class="shp0" d="M184.75 103.6C187.1 103.14 188.64 100.86 188.18 98.5C187.72 96.15 185.44 94.61 183.08 95.07C180.73 95.53 179.19 97.81 179.65 100.17C180.11 102.53 182.39 104.06 184.75 103.6Z" />
		<path id="Layer" class="shp0" d="M173.98 97.93C171.63 98.39 170.09 100.67 170.55 103.03C171.01 105.38 173.29 106.92 175.65 106.46C178 106 179.54 103.72 179.08 101.36C178.61 99.01 176.33 97.47 173.98 97.93Z" />
		<path id="Layer" class="shp0" d="M166.04 102.17C163.69 102.63 162.15 104.91 162.61 107.27C163.07 109.63 165.35 111.16 167.71 110.7C170.06 110.24 171.6 107.96 171.14 105.6C170.68 103.24 168.4 101.71 166.04 102.17Z" />
		<path id="Layer" class="shp0" d="M285.63 127.66C287.85 126.75 288.91 124.21 288 121.99C287.09 119.77 284.55 118.71 282.33 119.62C280.11 120.53 279.05 123.07 279.96 125.29C280.87 127.51 283.41 128.57 285.63 127.66Z" />
		<path id="Layer" class="shp0" d="M270.26 108.26C268.04 109.17 266.98 111.71 267.89 113.93C268.8 116.15 271.34 117.21 273.56 116.3C275.78 115.39 276.84 112.85 275.93 110.63C275.02 108.41 272.48 107.35 270.26 108.26Z" />
		<path id="Layer" class="shp0" d="M255.06 104.4C255.97 106.62 258.51 107.68 260.73 106.77C262.95 105.86 264.01 103.32 263.1 101.1C262.19 98.88 259.65 97.82 257.43 98.73C255.21 99.64 254.15 102.18 255.06 104.4Z" />
		<path id="Layer" class="shp0" d="M242.32 96.92C243.23 99.14 245.77 100.2 247.99 99.29C250.21 98.38 251.27 95.84 250.36 93.62C249.45 91.4 246.91 90.34 244.69 91.25C242.47 92.16 241.4 94.7 242.32 96.92Z" />
		<path id="Layer" class="shp0" d="M231.25 86.71C229.03 87.62 227.97 90.16 228.88 92.38C229.79 94.6 232.33 95.66 234.55 94.75C236.77 93.84 237.83 91.3 236.92 89.08C236 86.86 233.47 85.8 231.25 86.71Z" />
		<path id="Layer" class="shp0" d="M219.54 83.17C217.32 84.08 216.26 86.62 217.17 88.84C218.08 91.06 220.62 92.12 222.84 91.21C225.06 90.3 226.12 87.76 225.21 85.54C224.3 83.32 221.76 82.26 219.54 83.17Z" />
		<path id="Layer" class="shp0" d="M212.12 82.76C211.21 80.54 208.67 79.48 206.45 80.39C204.23 81.3 203.17 83.84 204.08 86.06C204.99 88.28 207.53 89.34 209.75 88.43C211.97 87.51 213.03 84.97 212.12 82.76Z" />
		<path id="Layer" class="shp0" d="M194.21 82C191.99 82.91 190.93 85.45 191.84 87.67C192.75 89.89 195.29 90.95 197.51 90.04C199.73 89.13 200.79 86.59 199.88 84.37C198.96 82.15 196.43 81.09 194.21 82Z" />
		<path id="Layer" class="shp0" d="M183.05 84.87C180.83 85.78 179.77 88.32 180.68 90.54C181.59 92.76 184.13 93.82 186.35 92.91C188.57 92 189.63 89.46 188.72 87.24C187.81 85.02 185.27 83.96 183.05 84.87Z" />
		<path id="Layer" class="shp0" d="M172.63 88.59C170.41 89.5 169.35 92.04 170.26 94.26C171.17 96.48 173.71 97.54 175.93 96.63C178.15 95.72 179.21 93.18 178.3 90.96C177.38 88.73 174.84 87.67 172.63 88.59Z" />
		<path id="Layer" class="shp0" d="M164.26 93.16C162.04 94.07 160.98 96.61 161.89 98.83C162.8 101.05 165.34 102.11 167.56 101.2C169.78 100.29 170.84 97.75 169.93 95.53C169.01 93.31 166.48 92.25 164.26 93.16Z" />
		<path id="Layer" class="shp0" d="M157.3 98.86C155.08 99.77 154.02 102.31 154.93 104.53C155.84 106.75 158.38 107.81 160.6 106.9C162.82 105.99 163.88 103.45 162.97 101.23C162.06 99.01 159.52 97.95 157.3 98.86Z" />
		<path id="Layer" class="shp0" d="M274.76 93.29C272.76 94.62 272.22 97.31 273.54 99.31C274.87 101.31 277.56 101.85 279.56 100.53C281.56 99.2 282.1 96.51 280.78 94.51C279.46 92.51 276.76 91.97 274.76 93.29Z" />
		<path id="Layer" class="shp0" d="M259.49 90.53C260.82 92.53 263.51 93.07 265.51 91.75C267.51 90.42 268.05 87.73 266.73 85.73C265.4 83.73 262.71 83.19 260.71 84.51C258.71 85.83 258.16 88.53 259.49 90.53Z" />
		<path id="Layer" class="shp0" d="M245.05 83.68C246.38 85.68 249.07 86.22 251.07 84.9C253.07 83.57 253.61 80.88 252.29 78.88C250.96 76.88 248.27 76.34 246.27 77.66C244.27 78.99 243.72 81.68 245.05 83.68Z" />
		<path id="Layer" class="shp0" d="M232.3 72.81C230.3 74.14 229.76 76.83 231.08 78.83C232.41 80.83 235.1 81.37 237.1 80.05C239.1 78.72 239.64 76.03 238.32 74.03C237 72.03 234.3 71.49 232.3 72.81Z" />
		<path id="Layer" class="shp0" d="M218.24 70.98C216.24 72.31 215.7 75 217.02 77C218.35 79 221.04 79.54 223.04 78.22C225.04 76.89 225.58 74.2 224.26 72.2C222.93 70.2 220.24 69.66 218.24 70.98Z" />
		<path id="Layer" class="shp0" d="M206.07 69.79C204.07 71.12 203.53 73.81 204.85 75.81C206.18 77.81 208.87 78.35 210.87 77.03C212.87 75.7 213.41 73.01 212.09 71.01C210.76 69.01 208.07 68.46 206.07 69.79Z" />
		<path id="Layer" class="shp0" d="M192.68 69.62C190.68 70.95 190.14 73.64 191.46 75.64C192.79 77.64 195.48 78.18 197.48 76.86C199.48 75.53 200.02 72.84 198.7 70.84C197.38 68.84 194.68 68.29 192.68 69.62Z" />
		<path id="Layer" class="shp0" d="M180.99 73.59C178.99 74.92 178.45 77.61 179.77 79.61C181.1 81.61 183.79 82.15 185.79 80.83C187.79 79.5 188.33 76.81 187.01 74.81C185.69 72.81 182.99 72.26 180.99 73.59Z" />
		<path id="Layer" class="shp0" d="M170.61 78.58C168.61 79.91 168.07 82.6 169.39 84.6C170.72 86.6 173.41 87.14 175.41 85.82C177.41 84.49 177.95 81.8 176.63 79.8C175.31 77.8 172.61 77.25 170.61 78.58Z" />
		<path id="Layer" class="shp0" d="M161.11 84.26C159.11 85.59 158.57 88.28 159.89 90.28C161.22 92.28 163.91 92.82 165.91 91.5C167.91 90.17 168.45 87.48 167.13 85.48C165.8 83.48 163.11 82.93 161.11 84.26Z" />
		<path id="Layer" class="shp0" d="M153.79 90.38C151.79 91.71 151.25 94.4 152.57 96.4C153.9 98.4 156.59 98.94 158.59 97.62C160.59 96.29 161.13 93.6 159.81 91.6C158.49 89.6 155.79 89.05 153.79 90.38Z" />
		<path id="Layer" class="shp0" d="M154.11 98.54C152.78 96.54 150.09 96 148.09 97.32C146.09 98.65 145.55 101.34 146.87 103.34C148.19 105.34 150.89 105.88 152.89 104.56C154.89 103.24 155.43 100.54 154.11 98.54Z" />
	</g>
</svg>